<?xml version="1.0" encoding="utf8" standalone="no"?>
<svg viewBox="0 0 389.76376 248.03149" xmlns="http://www.w3.org/2000/svg" xmlns:xlink="http://www.w3.org/1999/xlink">
<defs>
<linearGradient id="linearGradient8133">
<stop offset="0" stop-opacity=".5"/>
<stop offset="1" stop-color="#fff" stop-opacity=".5"/>
</linearGradient>
<linearGradient gradientUnits="userSpaceOnUse" id="linearGradient44533" x1="10.54347" x2="15.49953" y1="273.2999" y2="277.84558">
<stop offset="0" stop-opacity=".78439"/>
<stop offset="1" stop-color="#4b4b4b" stop-opacity=".78067"/>
</linearGradient>
<linearGradient gradientUnits="userSpaceOnUse" id="linearGradient44521" x1="171.69927" x2="176.32034" xlink:href="#linearGradient8133" y1="183.25577" y2="191.82721"/>
<linearGradient gradientUnits="userSpaceOnUse" id="linearGradient44523" x1="98.74241" x2="117.11788" xlink:href="#linearGradient8133" y1="184.21709" y2="203.98816"/>
<linearGradient gradientUnits="userSpaceOnUse" id="linearGradient44525" x1="83.99672" x2="116.41466" xlink:href="#linearGradient8133" y1="169.27585" y2="201.26338"/>
<linearGradient gradientUnits="userSpaceOnUse" id="linearGradient44527" x1="512.99182" x2="508.85232" xlink:href="#linearGradient8133" y1="58.6305" y2="53.27336"/>
<linearGradient gradientUnits="userSpaceOnUse" id="linearGradient44535" x1="18.54162" x2="15.49953" xlink:href="#linearGradient8133" y1="282.15988" y2="277.84558"/>
</defs>
<path d="m-17.71654-17.71653h424.20212v282.88178h-424.20212v-282.88178z" fill="#fff"/>
<g transform="translate(-387.1181,-26.4431)">
<path d="m505.81853,81.35519c-44.98583,0-81.5,36.51417-81.5,81.5s36.51417,81.5 81.5,81.5 81.5-36.51417 81.5-81.5-36.51417-81.5-81.5-81.5zm0,56.96875c13.54112,0 24.53125,10.99013 24.53125,24.53125s-10.99013,24.53125-24.53125,24.53125-24.53125-10.99013-24.53125-24.53125 10.99013-24.53125 24.53125-24.53125z"/>
<path d="m658.17433,116.79491c-25.42677,0-46.06249,20.63572-46.0625,46.0625s20.63574,46.0625 46.0625,46.0625 46.06249-20.63573 46.0625-46.0625-20.63571-46.0625-46.0625-46.0625zm0,23.03125c12.71311,0 23.03125,10.31813 23.03125,23.03125s-10.31814,23.03125-23.03125,23.03125-23.03125-10.31813-23.03125-23.03125 10.31814-23.03125 23.03125-23.03125z" fill="#060000"/>
<path d="m417.22478,38.85519c-5.88898,0-10.625,4.73602-10.625,10.625v7.0625c-1.96299,0-3.53125,1.59951-3.53125,3.5625v38.96875c0,1.96299 1.56826,3.5625 3.53125,3.5625v148.8125c0,5.88898 4.73602,10.625 10.625,10.625h329.53125c5.88898,0 10.625-4.73603 10.625-10.625v-148.8125c1.96299,0 3.56251-1.59951 3.5625-3.5625v-38.96875c0-1.96299-1.59951-3.5625-3.5625-3.5625v-7.0625c0-5.88898-4.73603-10.625-10.625-10.625h-329.53125zm77.96875,2.65625c4.40079,0 7.96875,3.56796 7.96875,7.96875s-3.56796,7.96875-7.96875,7.96875-7.96875-3.56796-7.96875-7.96875 3.56796-7.96875 7.96875-7.96875zm173.625,0c4.40077,0 7.96875,3.56796 7.96875,7.96875s-3.56796,7.96875-7.96875,7.96875-8-3.56796-8-7.96875 3.59921-7.96875 8-7.96875zm-139.96875,7.96875h5.3125c1.96299,0 3.53125,1.56826 3.53125,3.53125v5.3125c-1e-005,1.96299-1.56826,3.5625-3.53125,3.5625h-5.3125c-1.96299,0-3.5625-1.59951-3.5625-3.5625v-5.3125c0-1.96299 1.59951-3.53125 3.5625-3.53125zm100.96875,0h5.3125c1.963,0 3.5625,1.56826 3.5625,3.53125v5.3125c-1e-005,1.96299-1.59951,3.5625-3.5625,3.5625h-5.3125c-1.96299,0-3.53125-1.59951-3.53125-3.5625v-5.3125c0-1.96299 1.56826-3.53125 3.53125-3.53125zm-83.21875,92.125h70.8125c1.97857,0 3.5625,1.58393 3.5625,3.5625v35.375c0,1.97857-1.58393,3.5625-3.5625,3.5625h-70.8125c-1.97857,0-3.5625-1.58393-3.5625-3.5625v-35.375c0-1.97857 1.58393-3.5625 3.5625-3.5625zm-40.78125,1.75c10.75748,0 19.46875,8.74252 19.46875,19.5s-8.71127,19.5-19.46875,19.5-19.5-8.74252-19.5-19.5 8.74252-19.5 19.5-19.5zm152.34375,0c10.75748,0 19.5,8.74252 19.5,19.5s-8.74252,19.5-19.5,19.5-19.46875-8.74252-19.46875-19.5 8.71127-19.5 19.46875-19.5z" fill="#6184b7"/>
<path d="m543.91229,45.90677h76.1563v21.2811h-76.1563z" fill="#41567a"/>
<g transform="translate(406.5998,-23.16645)">
<path d="m138.21875,161.21875c-1.97857,0-3.5625,1.56826-3.5625,3.53125v39c0,1.96299 1.58393,3.53126 3.5625,3.53125h74.34375c1.97857,0 3.59375-1.56825 3.59375-3.53125v-39c0-1.96299-1.61518-3.53125-3.59375-3.53125h-74.34375zm1.78125,1.78125h70.8125c1.97857,0 3.5625,1.58393 3.5625,3.5625v35.375c0,1.97857-1.58393,3.5625-3.5625,3.5625h-70.8125c-1.97857,0-3.59375-1.58393-3.59375-3.5625v-35.375c0-1.97857 1.61518-3.5625 3.59375-3.5625z" fill="url(#linearGradient44521)" transform="translate(0,1.77165)"/>
<path d="m139.98876,164.76378h70.8099a3.57143,3.57143 0 0,1 3.57143,3.57143v35.37683a3.57143,3.57143 0 0,1 -3.57143,3.57143h-70.8099a3.57143,3.57143 0 0,1 -3.57143-3.57143v-35.37683a3.57143,3.57143 0 0,1 3.57143-3.57143" fill="#7f7f7f" fill-opacity=".47393"/>
</g>
<g transform="translate(406.5998,-21.39481)">
<path d="m99.21875,161.21875c-12.71338,0-23.03125,10.31787-23.03125,23.03125s10.31787,23.03125 23.03125,23.03125 23.03125-10.31786 23.03125-23.03125-10.31787-23.03124-23.03125-23.03125zm0,3.53125c10.75748,0 19.46875,8.74252 19.46875,19.5s-8.71127,19.5-19.46875,19.5-19.5-8.74252-19.5-19.5 8.74252-19.5 19.5-19.5z" fill="url(#linearGradient44523)"/>
<path d="m99.21875,164.75c-10.75748,0-19.5,8.74252-19.5,19.5s8.74252,19.50001 19.5,19.5 19.46875-8.74251 19.46875-19.5-8.71127-19.5-19.46875-19.5zm-1.8125,1.78125h.03125v3.53125h3.5625v-3.53125c5.10076.50962 9.57266,3.186 12.46875,7.09375l-2.9375,1.6875 1.78125,3.0625 2.9375-1.6875c1.06319,2.27435 1.6875,4.79348 1.6875,7.46875 0,2.70999-.62945,5.26559-1.71875,7.5625l-2.96875-1.71875-1.78125,3.0625 2.9375,1.71875c-2.89769,3.85848-7.34483,6.49419-12.40625,7v-3.46875h-3.53125v3.46875c-5.0878-.49951-9.53434-3.18011-12.4375-7.0625l2.90625-1.65625-1.75-3.0625-2.96875,1.6875c-1.08305-2.29112-1.71875-4.82963-1.71875-7.53125 0-2.70562.60155-5.26803 1.6875-7.5625l3,1.75 1.78125-3.09375-2.9375-1.6875c2.89123-3.86832 7.31305-6.51663 12.375-7.03125z" fill="#fff"/>
<path d="m99.21875,164.75c-10.75748,0-19.5,8.74252-19.5,19.5s8.74252,19.50001 19.5,19.5 19.46875-8.74251 19.46875-19.5-8.71127-19.5-19.46875-19.5zm-1.8125,1.78125h.03125v3.53125h3.5625v-3.53125c5.10076.50962 9.57266,3.186 12.46875,7.09375l-2.9375,1.6875 1.78125,3.0625 2.9375-1.6875c1.06319,2.27435 1.6875,4.79348 1.6875,7.46875 0,2.70999-.62945,5.26559-1.71875,7.5625l-2.96875-1.71875-1.78125,3.0625 2.9375,1.71875c-2.89769,3.85848-7.34483,6.49419-12.40625,7v-3.46875h-3.53125v3.46875c-5.0878-.49951-9.53434-3.18011-12.4375-7.0625l2.90625-1.65625-1.75-3.0625-2.96875,1.6875c-1.08305-2.29112-1.71875-4.82963-1.71875-7.53125 0-2.70562.60155-5.26803 1.6875-7.5625l3,1.75 1.78125-3.09375-2.9375-1.6875c2.89123-3.86832 7.31305-6.51663 12.375-7.03125z" fill="url(#linearGradient44525)"/>
</g>
<path d="m456.19353,38.85519 9.6875,48.5c.93537,4.554 3.0596,4.56187 6.28125,4.625 5.20557.10005 214.48401,0 219.5625,0 4.74604,0 6.21632-4.19487 7.09375-8.125l8.96875-45h-3.5625l-10.1875,47.8125c-.19061.71137-.44837,1.78125-2.25,1.78125h-219.59375c-1.79459,0-2.03803-1.04427-2.21875-1.71875l-10.21875-47.875h-3.5625z" fill="url(#linearGradient44527)" fill-rule="evenodd"/>
<g transform="translate(558.9556,-21.39259)">
<path d="m99.21875,161.21875c-12.71338,0-23.03125,10.31787-23.03125,23.03125s10.31787,23.03125 23.03125,23.03125 23.03125-10.31786 23.03125-23.03125-10.31787-23.03124-23.03125-23.03125zm0,3.53125c10.75748,0 19.46875,8.74252 19.46875,19.5s-8.71127,19.5-19.46875,19.5-19.5-8.74252-19.5-19.5 8.74252-19.5 19.5-19.5z" fill="url(#linearGradient44523)"/>
<path d="m99.21875,164.75c-10.75748,0-19.5,8.74252-19.5,19.5s8.74252,19.50001 19.5,19.5 19.46875-8.74251 19.46875-19.5-8.71127-19.5-19.46875-19.5zm-1.8125,1.78125h.03125v3.53125h3.5625v-3.53125c5.10076.50962 9.57266,3.186 12.46875,7.09375l-2.9375,1.6875 1.78125,3.0625 2.9375-1.6875c1.06319,2.27435 1.6875,4.79348 1.6875,7.46875 0,2.70999-.62945,5.26559-1.71875,7.5625l-2.96875-1.71875-1.78125,3.0625 2.9375,1.71875c-2.89769,3.85848-7.34483,6.49419-12.40625,7v-3.46875h-3.53125v3.46875c-5.0878-.49951-9.53434-3.18011-12.4375-7.0625l2.90625-1.65625-1.75-3.0625-2.96875,1.6875c-1.08305-2.29112-1.71875-4.82963-1.71875-7.53125 0-2.70562.60155-5.26803 1.6875-7.5625l3,1.75 1.78125-3.09375-2.9375-1.6875c2.89123-3.86832 7.31305-6.51663 12.375-7.03125z" fill="#fff"/>
<path d="m99.21875,164.75c-10.75748,0-19.5,8.74252-19.5,19.5s8.74252,19.50001 19.5,19.5 19.46875-8.74251 19.46875-19.5-8.71127-19.5-19.46875-19.5zm-1.8125,1.78125h.03125v3.53125h3.5625v-3.53125c5.10076.50962 9.57266,3.186 12.46875,7.09375l-2.9375,1.6875 1.78125,3.0625 2.9375-1.6875c1.06319,2.27435 1.6875,4.79348 1.6875,7.46875 0,2.70999-.62945,5.26559-1.71875,7.5625l-2.96875-1.71875-1.78125,3.0625 2.9375,1.71875c-2.89769,3.85848-7.34483,6.49419-12.40625,7v-3.46875h-3.53125v3.46875c-5.0878-.49951-9.53434-3.18011-12.4375-7.0625l2.90625-1.65625-1.75-3.0625-2.96875,1.6875c-1.08305-2.29112-1.71875-4.82963-1.71875-7.53125 0-2.70562.60155-5.26803 1.6875-7.5625l3,1.75 1.78125-3.09375-2.9375-1.6875c2.89123-3.86832 7.31305-6.51663 12.375-7.03125z" fill="url(#linearGradient44525)"/>
</g>
<g transform="translate(406.5998,-24.05232)">
<path d="m20.45559,277.84558a4.95606,4.54569 0 1,1 -9.91212,0 4.95606,4.54569 0 1,1 9.91212,0z" transform="matrix(1.60862,0,0,1.75385,150.4577,-385.4288)"/>
<path d="m20.45559,277.84558a4.95606,4.54569 0 1,1 -9.91212,0 4.95606,4.54569 0 1,1 9.91212,0z" fill="#121212" transform="matrix(1.42989,0,0,1.55898,153.228,-331.2845)"/>
<path d="m20.45559,277.84558c0,2.50922-2.22031,4.54569-4.95606,4.54569s-4.95606-2.03647-4.95606-4.54569 2.22032-4.54569 4.95606-4.54569 4.95606,2.03647 4.95606,4.54569z" fill="url(#linearGradient44533)" transform="matrix(1.42989,0,0,1.55898,153.228,-331.2845)"/>
<path d="m177.89612,106.88104c-2.5055-2.5055-2.5055-2.5055-5.011,0l-2.5055-2.5055c2.5055-2.50549 2.5055-2.50549 1e-005-5.01099l2.50549-2.50549c2.50549,2.50549 2.50549,2.50549 5.01099-1e-005l2.5055,2.5055c-2.5055,2.5055-2.5055,2.5055 0,5.011l-2.50549,2.50549z" fill-rule="evenodd"/>
</g>
<path d="m543.91228,45.91769v21.28125l.875-.90625v-19.46875h74.40625l.875-.90625h-76.15625z" fill-opacity=".50196"/>
<path d="m543.91228,67.18787h76.15625v-21.28125l-.875.90625v19.46875h-74.40625l-.875.90625z" fill="#fff" fill-opacity=".50196"/>
<path d="m582.00603,154.05832c-.831,0-1.5.669-1.5,1.5v6.125h-10v1.34375h10.90625v-6.125c0-.831.669-1.5 1.5-1.5 .20775,0 .41417.0493.59375.125-.01628-.81668-.67928-1.46875-1.5-1.46875zm-13.90625,3.53125c-.831,0-1.5.66899-1.5,1.5v2.59375h-9.65625c-.831,0-1.5.669-1.5,1.5 0,.62325.36752,1.14789.90625,1.375-.0002-.01023 0-.02097 0-.03125 0-.831.669-1.5 1.5-1.5h9.65625v-2.59375c0-.83101.669-1.5 1.5-1.5 .20775,0 .41417.0493.59375.125-.01628-.81668-.67928-1.46876-1.5-1.46875zm27.8125,0c-.831,0-1.5.66899-1.5,1.5v2.59375h-10v1.34375h10.90625v-2.59375c0-.83101.669-1.5 1.5-1.5 .20775,0 .41417.0493.59375.125-.01628-.81668-.67928-1.46876-1.5-1.46875zm2.40625,4.09375v1.34375h9.65625c.20775,0 .41417.0493.59375.125-.01628-.81668-.67928-1.46875-1.5-1.46875h-8.75zm-31.71875,4.34375v.6875c0,.62325.36752,1.14789.90625,1.375-.0002-.01023 0-.02097 0-.03125v-2.03125h-.90625zm13.90625,0v4.25c0,.62325.36752,1.14789.90625,1.375-.0002-.01023 0-.02097 0-.03125v-5.59375h-.90625zm13.90625,0v.6875c0,.62325.36752,1.14789.90625,1.375-.0002-.01023 0-.02097 0-.03125v-2.03125h-.90625z" fill="#fff" fill-opacity=".58768"/>
<g transform="translate(406.5998,-21.39481)">
<path d="m315.35435,85.03938h14.17323a3.54331,3.54331 0 0,1 3.54331,3.54331v21.25984a3.54331,3.54331 0 0,1 -3.54331,3.54331h-14.17323a3.54331,3.54331 0 0,1 -3.54331-3.54331v-21.25984a3.54331,3.54331 0 0,1 3.54331-3.54331" fill="#41567a"/>
<path d="m331.57088,85.72958c.48369.60562.78125,1.37993.78125,2.21875v21.25c2e-005,1.963-1.56826,3.53125-3.53125,3.53125h-14.1875c-.73612,0-1.40341-.21244-1.96875-.59375 .64896.7669 1.5996,1.25 2.6875,1.25h14.1875c1.96299,0 3.53127-1.56826 3.53125-3.53125v-21.25c0-1.1955-.59823-2.23391-1.5-2.875z" fill="#fff" fill-opacity=".70588"/>
<path d="m315.34229,85.03938c-1.96299,0-3.53125,1.56826-3.53125,3.53125v21.28125c0,1.25241.64947,2.33892 1.625,2.96875-.52599-.61795-.84375-1.40246-.84375-2.28125v-21.28125c0-1.96299 1.56826-3.53125 3.53125-3.53125h14.1875c.71058,0 1.35277.20516 1.90625.5625-.64894-.76238-1.60329-1.25-2.6875-1.25h-14.1875z" fill-opacity=".70588"/>
</g>
<g transform="translate(360.5405,-21.40059)">
<path d="m315.3125,91.6875c-.14043.00495-.26933.07899-.34437.1978s-.0865.26702-.03063.39595l5.71875,14.1875c.06142.17092.22465.28393.40625.28125h2.65625c.1816.00268.34483-.11033.40625-.28125l5.8125-14.1875c.0581-.13402.0433-.28849-.03919-.40904s-.22109-.19031-.36706-.18471h-2.21875c-.1816-.00268-.34483.11033-.40625.28125l-1.59375,3.96875h-5.6875l-1.53125-3.96875c-.06142-.17092-.22465-.28393-.40625-.28125h-2.34375-.03125zm5.25,6.65625h3.875l-2,4.84375-1.875-4.84375z" fill="#6184b7" transform="translate(46.06299)"/>
<path d="m363.59123,91.68748 1.53125,3.9375h.4375l-1.40625-3.65625c-.0614-.17092-.22465-.28393-.40625-.28125h-.15625zm11.875,0c.02452.09141.00748.1919-.03125.28125l-5.8125,14.1875c-.06142.17092-.22465.28393-.40625.28125h-2.5v.03125c.06143.17092.22465.28393.40625.28125h2.65625c.18161.00268.34483-.11033.40625-.28125l5.8125-14.1875c.05811-.13402.05123-.2857-.03125-.40625s-.22903-.1931-.375-.1875h-.125zm-9.40625,6.34375 1.875,4.84375 .21875-.5625-1.53125-3.96875h3.1875l.125-.3125h-3.875z" fill-opacity=".70588"/>
<path d="m361.37479,91.68704c-.14041.00495-.26871.06869-.34375.1875s-.08712.27732-.03125.40625l5.71875,14.18748c.06143.17092.22465.28393.40625.28125h.1875l-5.71875-14.15623c-.05587-.12893-.04378-.28745.03125-.40625s.20331-.18255.34375-.1875h.03125 2.15625v-.03125c-.0614-.17092-.22465-.28393-.40625-.28125h-2.34375-.03125zm12,0c-.18158-.00268-.34483.11033-.40625.28125l-1.59375,3.96875h-5.21875l.125.3125h5.6875l1.59375-3.96875c.06142-.17092.22464-.28393.40625-.28125h2.03125c-.01233-.04448-.00444-.08582-.03125-.125-.08247-.12056-.22903-.1931-.375-.1875h-2.21875zm-3,6.96875-1.625,3.93748 .34375.90625 2-4.84373h-.71875z" fill="#fff" fill-opacity=".70616"/>
</g>
<g transform="translate(112.5053,-21.39481)">
<path d="m315.35435,85.03938h14.17323a3.54331,3.54331 0 0,1 3.54331,3.54331v21.25984a3.54331,3.54331 0 0,1 -3.54331,3.54331h-14.17323a3.54331,3.54331 0 0,1 -3.54331-3.54331v-21.25984a3.54331,3.54331 0 0,1 3.54331-3.54331" fill="#41567a"/>
<path d="m331.57088,85.72958c.48369.60562.78125,1.37993.78125,2.21875v21.25c2e-005,1.963-1.56826,3.53125-3.53125,3.53125h-14.1875c-.73612,0-1.40341-.21244-1.96875-.59375 .64896.7669 1.5996,1.25 2.6875,1.25h14.1875c1.96299,0 3.53127-1.56826 3.53125-3.53125v-21.25c0-1.1955-.59823-2.23391-1.5-2.875z" fill="#fff" fill-opacity=".70588"/>
<path d="m315.34229,85.03938c-1.96299,0-3.53125,1.56826-3.53125,3.53125v21.28125c0,1.25241.64947,2.33892 1.625,2.96875-.52599-.61795-.84375-1.40246-.84375-2.28125v-21.28125c0-1.96299 1.56826-3.53125 3.53125-3.53125h14.1875c.71058,0 1.35277.20516 1.90625.5625-.64894-.76238-1.60329-1.25-2.6875-1.25h-14.1875z" fill-opacity=".70588"/>
</g>
<g transform="translate(66.44598,-21.40059)">
<path d="m315.3125,91.6875c-.14043.00495-.26933.07899-.34437.1978s-.0865.26702-.03063.39595l5.71875,14.1875c.06142.17092.22465.28393.40625.28125h2.65625c.1816.00268.34483-.11033.40625-.28125l5.8125-14.1875c.0581-.13402.0433-.28849-.03919-.40904s-.22109-.19031-.36706-.18471h-2.21875c-.1816-.00268-.34483.11033-.40625.28125l-1.59375,3.96875h-5.6875l-1.53125-3.96875c-.06142-.17092-.22465-.28393-.40625-.28125h-2.34375-.03125zm5.25,6.65625h3.875l-2,4.84375-1.875-4.84375z" fill="#6184b7" transform="translate(46.06299)"/>
<path d="m363.59123,91.68748 1.53125,3.9375h.4375l-1.40625-3.65625c-.0614-.17092-.22465-.28393-.40625-.28125h-.15625zm11.875,0c.02452.09141.00748.1919-.03125.28125l-5.8125,14.1875c-.06142.17092-.22465.28393-.40625.28125h-2.5v.03125c.06143.17092.22465.28393.40625.28125h2.65625c.18161.00268.34483-.11033.40625-.28125l5.8125-14.1875c.05811-.13402.05123-.2857-.03125-.40625s-.22903-.1931-.375-.1875h-.125zm-9.40625,6.34375 1.875,4.84375 .21875-.5625-1.53125-3.96875h3.1875l.125-.3125h-3.875z" fill-opacity=".70588"/>
<path d="m361.37479,91.68704c-.14041.00495-.26871.06869-.34375.1875s-.08712.27732-.03125.40625l5.71875,14.18748c.06143.17092.22465.28393.40625.28125h.1875l-5.71875-14.15623c-.05587-.12893-.04378-.28745.03125-.40625s.20331-.18255.34375-.1875h.03125 2.15625v-.03125c-.0614-.17092-.22465-.28393-.40625-.28125h-2.34375-.03125zm12,0c-.18158-.00268-.34483.11033-.40625.28125l-1.59375,3.96875h-5.21875l.125.3125h5.6875l1.59375-3.96875c.06142-.17092.22464-.28393.40625-.28125h2.03125c-.01233-.04448-.00444-.08582-.03125-.125-.08247-.12056-.22903-.1931-.375-.1875h-2.21875zm-3,6.96875-1.625,3.93748 .34375.90625 2-4.84373h-.71875z" fill="#fff" fill-opacity=".70616"/>
</g>
<g transform="translate(406.5998,-21.39481)">
<path d="m19.5,116.90198c-1.96299,0-3.5625,1.59951-3.5625,3.5625v141.75427c0,1.96299 1.59951,3.53123 3.5625,3.53125h311.8125c1.96299,0 3.53124-1.56825 3.53125-3.53125v-141.75427c0-1.96299-1.56827-3.5625-3.53125-3.5625h-311.8125zm47.8125,42.53552h216.15625c1.963,0 3.53125,1.59951 3.53125,3.5625v42.5c1e-005,1.963-1.56826,3.5625-3.53125,3.5625h-216.15625c-1.96299,1e-005-3.53125-1.59951-3.53125-3.5625v-42.5c0-1.96299 1.56826-3.5625 3.53125-3.5625zm31.90625,1.78125c-.66571,0-1.31731.03831-1.96875.09375h3.9375c-.65144-.05544-1.30304-.09375-1.96875-.09375zm152.34375,0c-.66571,0-1.31731.03831-1.96875.09375h3.9375c-.65144-.05544-1.30304-.09375-1.96875-.09375z" fill="#41567a"/>
<path d="m19.5,116.90198c-1.963,1e-005-3.5625,1.59951-3.5625,3.5625v141.78125c-1e-005,1.12828.55284,2.10537 1.375,2.75-.42493-.58068-.6875-1.31637-.6875-2.09375v-141.75c0-1.96299 1.59951-3.5625 3.5625-3.5625h311.8125c.80745,0 1.5328.29475 2.125.75-.64259-.8564-1.65697-1.4375-2.8125-1.4375h-311.8125zm266.78125,43.96875c.44902.59843.71875,1.34879.71875,2.15625v42.5c3e-005,1.963-1.56826,3.5625-3.53125,3.5625h-216.15625c-.80746,1e-005-1.5328-.29475-2.125-.75 .64259.8564 1.65697,1.40625 2.8125,1.40625h216.15625c1.96299,0 3.53126-1.5995 3.53125-3.5625v-42.5c0-1.15553-.55876-2.161-1.40625-2.8125zm-187.0625.375c-.66572,0-1.31731.03831-1.96875.09375h3.9375c-.65145-.05544-1.30304-.09375-1.96875-.09375zm152.34375,0c-.66569,0-1.31731.03831-1.96875.09375h3.9375c-.65142-.05544-1.30304-.09375-1.96875-.09375z" fill-opacity=".70588"/>
<path d="m333.3125,117.5c.49812.61497.81251,1.39494.8125,2.25v141.75c-1e-005,1.963-1.56825,3.53124-3.53125,3.53125h-311.8125c-.73612-1e-005-1.43129-.21456-2-.59375 .6541.78884 1.61027,1.31249 2.71875,1.3125h311.8125c1.96298,0 3.53124-1.56825 3.53125-3.53125v-141.75c0-1.22687-.59255-2.32762-1.53125-2.96875zm-266.71875,41.21875c-1.96299,0-3.53124,1.59951-3.53125,3.5625v42.5c0,1.22687.59256,2.32762 1.53125,2.96875-.50662-.6175-.8125-1.38689-.8125-2.25v-42.5c-1e-005-1.96299 1.56826-3.5625 3.53125-3.5625h216.15625c.7214,0 1.41222.1918 1.96875.5625-.64566-.7711-1.60045-1.28125-2.6875-1.28125h-216.15625zm32.625,2.5c-.66572,0-1.31732.03831-1.96875.09375h3.9375c-.65145-.05544-1.30304-.09375-1.96875-.09375zm152.34375,0c-.66572,0-1.31731.03831-1.96875.09375h3.9375c-.65145-.05544-1.30304-.09375-1.96875-.09375z" fill="#fff" fill-opacity=".70588"/>
</g>
<path d="m757.38103,56.54269v46.09375c1.96286,0 3.56251-1.59951 3.5625-3.5625v-38.96875c0-1.96299-1.59964-3.5625-3.5625-3.5625z" fill="#41567a"/>
<path d="m406.59978,56.55795c-3.54331,0-3.54331,3.54331-3.54331,3.54725v38.97243c0,1.02911.69136,1.74794 1.5625,2.15625 0,0-1.5625-41.13262 1.98081-44.67593z" fill="#fff" fill-opacity=".70588"/>
<path d="m47.8125,296.84375c-5.88899,0-10.625,4.73602-10.625,10.625v201.96875c0,3.24033 1.41665,6.14846 3.6875,8.09375-1.34788-1.78082-2.15625-3.98922-2.15625-6.40625v-201.96875c0-5.88898 4.73601-10.625 10.625-10.625h37.78125l-.34375-1.6875h-38.96875zm42.53125,0 .375,1.6875h243.71875l.375-1.6875h-244.46875zm248.03125,0-.34375,1.6875h40.84375c2.64865,0 5.0813.94117 6.9375,2.53125-1.93617-2.55812-4.9968-4.21875-8.46875-4.21875h-38.96875z" fill="#fff" fill-opacity=".70588" transform="translate(369.4016,-258)"/>
<path d="m746.76218,262.06976c5.88899,0 10.625-4.73603 10.625-10.625v-201.96875c0-3.24033-1.41665-6.14846-3.6875-8.09375 1.34788,1.78085 2.15625,3.98922 2.15625,6.40625v201.96875c0,5.88897-4.73601,10.625-10.625,10.625h-329.53126c-2.64865,0-5.0813-.94117-6.9375-2.53125 1.93617,2.55812 4.9968,4.21875 8.46876,4.21875h329.53125z" fill-opacity=".70588"/>
<path d="m427.85962,99.07763v141.73229l308.27141.01402-.00369-141.74631h-308.26772zm38.97638,35.43307h230.31496v56.69292h-230.31496v-56.69292z" fill="#f9f4ea" fill-opacity=".70588"/>
<path d="m434.94624,205.37685h294.09448" fill="none" stroke="#303030" stroke-linecap="round" stroke-linejoin="round"/>
<path d="m434.94624,223.09338h294.09448" fill="none" stroke="#303030" stroke-linecap="round" stroke-linejoin="round"/>
<path d="m716.63915,169.35425 3.54848-8.81673h-7.10992l3.56144,8.81673m1.47637,2.36143h-2.9657l-7.36894-17.71654h2.71963l1.7613,4.54483h8.71581l1.7613-4.54483h2.7585l-7.3819,17.71654" fill="#303030"/>
<g transform="matrix(-.32,0,0,-.32,446.7258,274.925)">
<path d="m-45.15625,339.85186c-2.15315,3e-005-3.93694.4933-5.25,1.5625-1.30169,1.0676-1.96875,2.60135-1.96875,4.40625 0,1.55838.49,2.88219 1.46875,3.8125s2.44206,1.54641 4.40625,1.9375h.03125l1.5625.28125c1.2304.24769 2.03204.62715 2.46875,1.03125s.65624.91222.65625,1.71875c-1e-005,.9086-.29612,1.50476-.9375,1.96875-.64883.46936-1.62078.74999-3,.75-.89835,0-1.84262-.12782-2.78125-.40625s-1.9046-.71935-2.90625-1.28125c-.18582-.09409-.40706-.08557-.5851.02252s-.28766.30046-.2899.50873v2.625c-.00181.24655.14672.46934.375.5625 1.09589.40239 2.14764.72779 3.1875.9375 1.0522.21045 2.07301.28126 3,.28125 2.44136,0 4.38056-.47347 5.75-1.53125 1.38134-1.05967 2.03123-2.67184 2.03125-4.625-2e-005-1.64449-.46965-3.06339-1.5-4.09375-1.02506-1.04419-2.55946-1.68733-4.53125-2.0625l-1.53125-.3125c-1.34795-.25171-2.24688-.61718-2.59375-.90625-.35766-.30915-.53125-.69657-.53125-1.40625 0-.83939.27376-1.38013.875-1.8125 .61578-.43788 1.56736-.71874 2.875-.71875 .73992,2e-005 1.53135.12873 2.34375.34375s1.68439.51892 2.625.96875c.18293.07994.39358.06412.56252-.04225s.27425-.28948.28123-.489v-2.46875c-.0031-.25446-.16567-.47956-.40625-.5625-.98454-.32816-1.95803-.58468-2.90625-.75-.94343-.16443-1.85747-.24997-2.78125-.25zm84.6875,0c-2.78205,3e-005-5.11061.94376-6.8125,2.84375-1.69599,1.89447-2.5,4.45218-2.5,7.53125s.80637,5.60818 2.5,7.5c1.70129,1.89033 4.02916,2.84376 6.8125,2.84375s5.06038-.95643 6.75-2.84375c1.68979-1.89653 2.53123-4.42478 2.53125-7.5s-.83792-5.63973-2.53125-7.53125c-1.69022-1.89696-3.97595-2.84372-6.75-2.84375zm-76.8125.34375c-.27646.06302-.47161.31021-.46875.59375v2.15625c.00483.3259.26785.58892.59375.59375h6.09375v16.0625c.00483.3259.26785.58892.59375.59375h2.5625c.3259-.00483.58892-.26785.59375-.59375v-16.0625h6.09375c.3259-.00483.58892-.26785.59375-.59375v-2.15625c-.00483-.3259-.26785-.58892-.59375-.59375h-15.9375-.125zm18.40625,0c-.27646.06302-.47161.31021-.46875.59375v18.8125c.00483.3259.26785.58892.59375.59375h12.125c.3259-.00483.58892-.26785.59375-.59375v-2.125c-.00483-.3259-.26785-.58892-.59375-.59375h-9v-5.625h8.375c.3259-.00483.58892-.26785.59375-.59375v-2.15625c-.00483-.3259-.26785-.58892-.59375-.59375h-8.375v-4.375h8.78125c.3259-.00483.58892-.26785.59375-.59375v-2.15625c-.00483-.3259-.26785-.58892-.59375-.59375h-11.90625-.125zm16.34375,0c-.27646.06302-.47161.31021-.46875.59375v18.8125c.00483.3259.26785.58892.59375.59375h2.53125c.3259-.00483.58892-.26785.59375-.59375v-7.34375h2.1875c.92395,0 1.58074.21134 2.03125.53125 .43619.30535 1.02486,1.06479 1.625,2.28125l2.40625,4.8125c.10641.19367.31027.31359.53125.3125h2.75c.20828-.00225.40063-.11186.50873-.2899s.11661-.39928.02252-.5851l-2.59375-5.125c-.53593-1.08911-1.05421-1.96212-1.625-2.625-.23583-.27834-.49493-.51174-.75-.71875 .62144-.34394 1.19571-.77424 1.59375-1.34375 .6339-.89324.93748-1.99795.9375-3.28125-1e-005-1.93413-.59796-3.53107-1.8125-4.5625s-2.95242-1.46873-5.1875-1.46875h-5.75-.125zm17.9375,0c-.27646.06302-.47161.31021-.46875.59375v18.8125c.00483.3259.26785.58892.59375.59375h12.15625c.3259-.00483.58892-.26785.59375-.59375v-2.125c-.00483-.3259-.26785-.58892-.59375-.59375h-9v-5.625h8.375c.3259-.00483.58892-.26785.59375-.59375v-2.15625c-.00483-.3259-.26785-.58892-.59375-.59375h-8.375v-4.375h8.75c.3259-.00483.58892-.26785.59375-.59375v-2.15625c-.00483-.3259-.26785-.58892-.59375-.59375h-11.90625-.125zm24.125,2.90625c1.70096,2e-005 2.93219.59576 3.90625,1.84375 .97843,1.24393 1.49999,2.9934 1.5,5.28125-2e-005,2.27916-.51957,4.00353-1.5,5.25-.97406,1.248-2.20529,1.84374-3.90625,1.84375s-2.94709-.59431-3.9375-1.84375c-.98045-1.24646-1.5-2.97084-1.5-5.25 0-2.28785.52155-4.03732 1.5-5.28125 .99041-1.24943 2.23651-1.84374 3.9375-1.84375zm-38.8125.375h2.625c1.13558,2e-005 1.90102.25839 2.375.6875 .47585.41876.74999,1.07319.75,2.0625s-.26165,1.61972-.75,2.0625c-.47397.42913-1.23943.68751-2.375.6875h-2.625v-5.5z" fill="#303030"/>
</g>
<path d="m63.84375,360.625v28.34375h297.59375v-28.34375h-297.59375zm17.09375,1.21875c2.16266,0 4.00554.62576 5.28125,1.78125s1.96875,2.83915 1.96875,4.84375c0,.92692-.13559,2.15187-.28125,2.84375l-.0625.3125-1.28125,6.8125c-.53189,2.89217-1.4505,4.91923-3,6.46875-1.79993,1.83455-4.39568,2.84374-7.1875,2.84375-2.18911,0-4.08875-.67799-5.375-2-1.09494-1.09494-1.75-2.75881-1.75-4.28125 0-.7637.13841-2.46439.28125-3.25l1.28125-6.8125c.49997-2.73318 1.42512-4.9378 2.71875-6.40625 1.79256-2.06834 4.38896-3.15624 7.40625-3.15625zm18.71875.40625h2.75c.19745.00038.38356.10311.46875.28125s.06114.40855-.0625.5625l-6.0625,7c.47136-.09427.91147-.15625 1.40625-.15625 3.83978,0 6.71875,2.98597 6.71875,6.96875 0,5.84106-4.7013,10.84374-10.28125,10.84375-2.16143,0-4.0488-.71461-5.375-1.96875s-2.0625-3.04825-2.0625-5.125c0-1.61217.37734-3.22057 1.09375-4.6875 .66741-1.36819 1.22313-2.11338 3.40625-4.6875l7.59375-8.84375c.0993-.11723.25263-.18975.40625-.1875zm179.96875,2.53125h3.5625l1.875,2.65625c.07161-.00652.14714,0 .21875,0 .07161-.00651.181,0 .34375,0 .73567-1e-005 1.44271.07943 2.09375.28125s1.2474.50911 1.78125.90625c.71613.52734 1.28386,1.21745 1.6875,2.03125 .39713.8203.59375,1.694.59375,2.625-1e-005,1.1914-.20443,2.28905-.5625,3.34375-.3646,1.06119-.87239,2.03515-1.5625,2.875-.83986,1.03514-1.82291,1.77993-2.96875,2.28125-1.15235.5078-2.51431.78123-4.03125.78125-1.94011-2e-005-3.47785-.54428-4.65625-1.625-1.18489-1.07424-1.78123-2.48048-1.78125-4.21875 0-2.04428.50393-3.83203 1.5-5.375 .9896-1.53647 2.35418-2.67188 4.125-3.375l-2.21875-3.1875zm-199.125.25c-1.99532,0-3.67386.88172-4.75,2.40625-.63209.89067-1.21053,2.58185-1.59375,4.59375l-1.09375,5.84375c-.19274,1.1243-.28125,1.93982-.28125,2.78125 0,1.23197.20669,1.83628.84375,2.53125 .0127.01149.01976.04981.03125.0625 .73527.82011 1.84622,1.25 3.15625,1.25 1.88147,0 3.88856-.94666 4.875-2.28125 .62563-.85313 1.27746-2.66716 1.625-4.53125l1.09375-5.875c.05556-.25928.25-2.49672.25-2.875 0-1.17778-.4134-2.13856-1.125-2.8125s-1.75917-1.09374-3.03125-1.09375zm46.875,2.40625c1.9336-1e-005 3.47786.51953 4.65625,1.59375s1.78126,2.5052 1.78125,4.25c2e-005,1.1914-.20443,2.28905-.5625,3.34375s-.86588,2.02864-1.5625,2.875c-.83332,1.02863-1.8164,1.77342-2.96875,2.28125-1.15884.5078-2.52082.78123-4.03125.78125-1.94009-2e-005-3.47785-.54428-4.65625-1.625-1.18488-1.07424-1.78123-2.48048-1.78125-4.21875 2e-005-1.18491.16668-2.32032.53125-3.375s.90367-1.97266 1.59375-2.8125c.84637-1.03516 1.84116-1.82943 3-2.34375 1.15235-.50781 2.48959-.75 4-.75zm40.8125,0c1.72527-1e-005 3.03907.35807 3.9375,1.09375s1.34375,1.81249 1.34375,3.21875c1e-005,.23437.0013.49478-.03125.78125s-.08463.64713-.15625,1.03125l-1.71875,8.71875h-3.75l1.6875-8.71875c.06511-.31251.1237-.60287.15625-.84375s.03126-.44271.03125-.625c2e-005-.63802-.16145-1.1185-.5-1.4375-.34504-.31251-.85416-.46876-1.53125-.46875-.91144-1e-005-1.60546.27344-2.09375.78125s-.85936,1.3763-1.09375,2.59375l-1.6875,8.71875h-3.75l1.6875-8.71875c.4232-2.14844 1.22136-3.71745 2.40625-4.6875 1.1784-.96355 2.86198-1.4375 5.0625-1.4375zm100.6875,0c1.72525-1e-005 3.00781.35807 3.90625,1.09375s1.375,1.81249 1.375,3.21875c-1e-005,.23437-.02994.49478-.0625.78125s-.08463.64713-.15625,1.03125l-1.6875,8.71875h-3.78125l1.71875-8.71875c.0651-.31251.09246-.60287.125-.84375s.06251-.44271.0625-.625c1e-005-.63802-.1927-1.1185-.53125-1.4375-.34506-.31251-.85416-.46876-1.53125-.46875-.91146-1e-005-1.60546.27344-2.09375.78125s-.85937,1.3763-1.09375,2.59375l-1.6875,8.71875h-3.75l1.6875-8.71875c.42318-2.14844 1.22137-3.71745 2.40625-4.6875 1.17839-.96355 2.89324-1.4375 5.09375-1.4375zm56.34375,0c2.0703-1e-005 3.72136.51432 4.90625,1.5625s1.75,2.49609 1.75,4.3125c-2e-005,1.17838-.16016,2.28384-.53125,3.3125-.37112,1.03514-.95182,1.95962-1.6875,2.8125-.89845,1.04165-1.9388,1.82942-3.15625,2.34375s-2.61848.78123-4.1875.78125c-.87241-2e-005-1.77082-.09897-2.65625-.28125s-1.73436-.45444-2.59375-.8125l.5625-3c.79428.46222 1.58204.80337 2.34375,1.03125s1.51304.34374 2.28125.34375c1.6797-1e-005 3.03907-.56772 4.09375-1.6875s1.59375-2.55469 1.59375-4.3125c-2e-005-1.16538-.32552-2.07422-.9375-2.71875-.6185-.64453-1.47395-.96875-2.59375-.96875-.3646-1e-005-.72916.01693-1.09375.0625s-.72264.14583-1.09375.25l-.5625,2.8125h2.28125l-.46875,2.53125h-5.84375l1.375-7c.95051-.46224 1.91538-.83464 2.9375-1.0625 1.02212-.22136 2.11589-.3125 3.28125-.3125zm-187.40625.28125h3.75l-2.84375,14.5625h-3.75l2.84375-14.5625zm16.375,0h3.96875l-2.84375,14.5625h-3.9375c-1.888-2e-005-3.30598-.1159-4.25-.34375-.94399-.22137-1.71874-.56642-2.34375-1.09375s-1.11847-1.1823-1.4375-1.9375c-.31898-.74872-.46873-1.61199-.46875-2.5625 3e-005-1.32163.26564-2.54688.8125-3.71875 .54039-1.16537 1.29819-2.14323 2.28125-2.9375 .8594-.70964 1.86069-1.23178 3-1.53125 1.13283-.29948 2.86198-.4375 5.21875-.4375zm21.40625,0h3.5625l.4375,2.65625h5.8125l1.4375-2.65625h3.875l-8.25,14.5625h-4.3125l-2.5625-14.5625zm27.46875,0h3.75l-1.1875,6.09375 3.9375,8.375 .53125-2.75h4.84375l2.28125-11.71875h3.75l-2.28125,11.71875h4.84375l-.5625,2.84375h-13.375-3.75l-2.5-5.375-4.3125,5.375h-4.375l7.21875-8.46875 1.1875-6.09375zm24.71875,0h3.75l-2.84375,14.5625h-3.75l2.84375-14.5625zm6.125,0h10.34375l-2.84375,14.5625h-3.75l2.28125-11.71875h-6.5625l.53125-2.84375zm12.4375,0h3.5625l.40625,2.65625h5.84375l1.4375-2.65625h3.84375l-8.21875,14.5625h-4.3125l-2.5625-14.5625zm56.375,0h3.78125l-1.21875,6.1875h5.53125l1.21875-6.1875h3.75l-2.84375,14.5625h-3.75l1.09375-5.53125h-5.5625l-1.0625,5.53125h-3.78125l2.84375-14.5625zm33.1875,0h3.75l-2.84375,14.5625h-3.75l2.84375-14.5625zm7.4375,0h3.78125l-1.21875,6.1875h5.53125l1.21875-6.1875h3.75l-2.84375,14.5625h-3.75l1.09375-5.53125h-5.5625l-1.0625,5.53125h-3.78125l2.84375-14.5625zm-216.40625,2.4375c-.74868-1e-005-1.42057.15625-2,.46875-.58593.319-1.08984.78776-1.5,1.40625-.39062.59244-.69791,1.2578-.90625,2s-.31248,1.49999-.3125,2.28125c2e-005,1.14583.26043,2.02603.78125,2.625 .51434.59895 1.26693.90624 2.25.90625 1.30209-1e-005 2.39584-.60939 3.28125-1.78125 .87892-1.16538 1.3125-2.6172 1.3125-4.375 1e-005-1.1198-.26692-1.97527-.78125-2.59375s-1.20702-.9375-2.125-.9375zm157.96875,0c-.74868-1e-005-1.42057.15625-2,.46875-.58594.319-1.08984.78776-1.5,1.40625-.39063.59244-.69791,1.2578-.90625,2s-.31248,1.49999-.3125,2.28125c0,1.14583.26043,2.02603.78125,2.625 .51432.59895 1.26693.90624 2.25.90625 1.30208-1e-005 2.39584-.60939 3.28125-1.78125 .8789-1.16538 1.3125-2.6172 1.3125-4.375-1e-005-1.1198-.26692-1.97527-.78125-2.59375s-1.20702-.9375-2.125-.9375zm-132.40625.40625c-1.75129-1e-005-3.1341.48568-4.15625,1.46875s-1.53124,2.29556-1.53125,3.96875c2e-005,1.1328.32944,2.01431 1,2.59375 .66408.57941 1.65365.84374 2.96875.84375h1.3125l1.75-8.875h-1.34375zm27.5625,2.46875 .875,5.59375 3.0625-5.59375h-3.9375zm70.75,0 .875,5.59375 3.03125-5.59375h-3.90625zm-153.5.15625c-3.53595,0-6.625,3.18742-6.625,6.90625 0,1.36686.43981,2.45782 1.1875,3.21875s1.8115,1.18751 3.125,1.1875c2.00828,0 3.82027-.99806 4.96875-2.78125 .89756-1.36181 1.375-2.81096 1.375-4.15625 0-1.37801-.37408-2.44116-1.0625-3.1875s-1.70599-1.18749-2.96875-1.1875z" fill="#303030" transform="translate(369.4016,-258)"/>
<g transform="translate(406.5998,-21.39481)">
<path d="m88.0625,62.375c-4.416,0-8,3.584-8,8 0,2.38692 1.05914,4.50257 2.71875,5.96875-1.34876-1.43224-2.1875-3.34765-2.1875-5.46875 0-4.416 3.584-8 8-8 1.932,0 3.67945.67095 5.0625,1.8125-1.44411-1.42051-3.40961-2.3125-5.59375-2.3125z" fill-opacity=".70588"/>
<path d="m89.06974,79.35257c4.416,0 8-3.584 8.00001-8 0-2.38693-1.05915-4.50257-2.71875-5.96875 1.34876,1.43224 2.1875,3.34765 2.1875,5.46875 0,4.416-3.584,8-8,8-1.932,0-3.67945-.67095-5.0625-1.8125 1.44411,1.42051 3.40961,2.3125 5.59374,2.3125z" fill="#fff" fill-opacity=".70588"/>
</g>
<g transform="translate(580.2553,-21.33981)">
<path d="m88.0625,62.375c-4.416,0-8,3.584-8,8 0,2.38692 1.05914,4.50257 2.71875,5.96875-1.34876-1.43224-2.1875-3.34765-2.1875-5.46875 0-4.416 3.584-8 8-8 1.932,0 3.67945.67095 5.0625,1.8125-1.44411-1.42051-3.40961-2.3125-5.59375-2.3125z" fill-opacity=".70588"/>
<path d="m89.06974,79.35257c4.416,0 8-3.584 8.00001-8 0-2.38693-1.05915-4.50257-2.71875-5.96875 1.34876,1.43224 2.1875,3.34765 2.1875,5.46875 0,4.416-3.584,8-8,8-1.932,0-3.67945-.67095-5.0625-1.8125 1.44411,1.42051 3.40961,2.3125 5.59374,2.3125z" fill="#fff" fill-opacity=".70588"/>
</g>
<g transform="translate(406.5998,-21.39481)">
<path d="m121.4375,69.96875c-2.00765,0-3.625,1.61735-3.625,3.625v5.15625c0,1.20666.59822,2.2483 1.5,2.90625-.38049-.57363-.625-1.25717-.625-2v-5.15625c0-2.00765 1.61735-3.625 3.625-3.625h5.15625c.75287,0 1.45305.20377 2.03125.59375-.65796-.90178-1.69959-1.5-2.90625-1.5h-5.15625z" fill-opacity=".70588"/>
<path d="m128.35778,84.15354c2.00765,0 3.625-1.61735 3.625-3.625v-5.15625c0-1.20666-.59822-2.2483-1.5-2.90625 .38049.57363.625,1.25717.625,2v5.15625c0,2.00765-1.61735,3.625-3.625,3.625h-5.15625c-.75287,0-1.45305-.20377-2.03125-.59375 .65796.90178 1.69959,1.5 2.90625,1.5h5.15625z" fill="#fff" fill-opacity=".70588"/>
</g>
<g transform="translate(507.5865,-21.39481)">
<path d="m121.4375,69.96875c-2.00765,0-3.625,1.61735-3.625,3.625v5.15625c0,1.20666.59822,2.2483 1.5,2.90625-.38049-.57363-.625-1.25717-.625-2v-5.15625c0-2.00765 1.61735-3.625 3.625-3.625h5.15625c.75287,0 1.45305.20377 2.03125.59375-.65796-.90178-1.69959-1.5-2.90625-1.5h-5.15625z" fill-opacity=".70588"/>
<path d="m128.35778,84.15354c2.00765,0 3.625-1.61735 3.625-3.625v-5.15625c0-1.20666-.59822-2.2483-1.5-2.90625 .38049.57363.625,1.25717.625,2v5.15625c0,2.00765-1.61735,3.625-3.625,3.625h-5.15625c-.75287,0-1.45305-.20377-2.03125-.59375 .65796.90178 1.69959,1.5 2.90625,1.5h5.15625z" fill="#fff" fill-opacity=".70588"/>
</g>
<g transform="translate(406.5998,-21.39481)">
<path d="m166.52559,70.86614-21.25,7.0625 21.25,7.09375h17.71875l-10.59375-3.53125h31.84375l-3.53125-3.5625 3.53125-3.53125h-31.875l10.625-3.53125h-17.71875z" fill="#6184b7" fill-rule="evenodd"/>
<path d="m166.53125,70.875-21.25,7.0625 1.59375.53125 20.71875-6.875h14.5l2.15625-.71875h-17.71875zm10.3125,3.53125-2.15625.71875h30.09375l.71875-.71875h-28.65625zm-2.125,7.8125 8.4375,2.8125h1.09375l-8.4375-2.8125h-1.09375z" fill="#fff" fill-opacity=".70588" fill-rule="evenodd"/>
<path d="m181.02559,70.88312-8.46875,2.8125h3.21875l8.46875-2.8125h-3.21875zm22.6875,3.53125-2.8125,2.8125 3.53125,3.5625h-31.84375l2.15625.71875h30.75l-3.53125-3.5625 3.53125-3.53125h-1.78125zm-57.90625,3.34375-.53125.1875 21.25,7.09375h17.71875l-2.15625-.71875h-16.625l-19.65625-6.5625z" fill-opacity=".70588" fill-rule="evenodd"/>
</g>
<g transform="matrix(-1.00009,0,0,-1,463.2979,545.5688)">
<path d="m20.45559,277.84558a4.95606,4.54569 0 1,1 -9.91212,0 4.95606,4.54569 0 1,1 9.91212,0z" fill="#808080" transform="matrix(1.42989,0,0,1.55898,23.9004,-139.0602)"/>
<path d="m20.45559,277.84558a4.95606,4.54569 0 1,1 -9.91212,0 4.95606,4.54569 0 1,1 9.91212,0z" fill="#181818" transform="matrix(1.60862,0,0,1.75385,21.13008,-193.2045)"/>
<path d="m20.45559,277.84558c0,2.50922-2.22031,4.54569-4.95606,4.54569s-4.95606-2.03647-4.95606-4.54569 2.22032-4.54569 4.95606-4.54569 4.95606,2.03647 4.95606,4.54569z" fill="url(#linearGradient44535)" transform="matrix(1.42989,0,0,1.55898,23.9004,-139.0602)"/>
<path d="m48.56849,299.10542c-2.5055-2.5055-2.5055-2.5055-5.011,0l-2.5055-2.5055c2.5055-2.50549 2.5055-2.50549 1e-005-5.01099l2.5055-2.50549c2.50549,2.50549 2.50549,2.50549 5.01099-1e-005l2.5055,2.5055c-2.5055,2.5055-2.5055,2.5055 0,5.011l-2.5055,2.50549z" fill="#181818" fill-rule="evenodd"/>
<path d="m43.72835,296.42911 4.66929-4.6693" fill="none" stroke="#404040" stroke-linecap="round" stroke-linejoin="round" stroke-width="1.41726"/>
<path d="m48.39764,296.42911-4.66929-4.6693" fill="none" stroke="#404040" stroke-linecap="round" stroke-linejoin="round" stroke-width="1.41726"/>
<path d="m45.35064,285.48229c-4.40079,0-7.96875,3.56797-7.96875,7.96875 0,2.28699.987,4.327 2.53125,5.78125-1.13761-1.37828-1.8125-3.13716-1.8125-5.0625 0-4.4008 3.56796-7.96875 7.96875-7.96875 1.92534-1e-005 3.68422.67488 5.0625,1.8125-1.45425-1.54425-3.49426-2.53125-5.78125-2.53125z" fill="#fff" fill-opacity=".70588"/>
<path d="m46.77731,302.77559c4.40079,0 7.96875-3.56797 7.96875-7.96875 0-2.28699-.987-4.327-2.53125-5.78125 1.13761,1.37828 1.8125,3.13716 1.8125,5.0625 0,4.4008-3.56796,7.96875-7.96875,7.96875-1.92534,1e-005-3.68422-.67488-5.0625-1.8125 1.45425,1.54425 3.49426,2.53125 5.78125,2.53125z" fill-opacity=".70588"/>
</g>
<g transform="matrix(-1.00009,0,0,-1,792.8255,545.5688)">
<path d="m20.45559,277.84558a4.95606,4.54569 0 1,1 -9.91212,0 4.95606,4.54569 0 1,1 9.91212,0z" fill="#808080" transform="matrix(1.42989,0,0,1.55898,23.9004,-139.0602)"/>
<path d="m20.45559,277.84558a4.95606,4.54569 0 1,1 -9.91212,0 4.95606,4.54569 0 1,1 9.91212,0z" fill="#181818" transform="matrix(1.60862,0,0,1.75385,21.13008,-193.2045)"/>
<path d="m20.45559,277.84558c0,2.50922-2.22031,4.54569-4.95606,4.54569s-4.95606-2.03647-4.95606-4.54569 2.22032-4.54569 4.95606-4.54569 4.95606,2.03647 4.95606,4.54569z" fill="url(#linearGradient44535)" transform="matrix(1.42989,0,0,1.55898,23.9004,-139.0602)"/>
<path d="m48.56849,299.10542c-2.5055-2.5055-2.5055-2.5055-5.011,0l-2.5055-2.5055c2.5055-2.50549 2.5055-2.50549 1e-005-5.01099l2.5055-2.50549c2.50549,2.50549 2.50549,2.50549 5.01099-1e-005l2.5055,2.5055c-2.5055,2.5055-2.5055,2.5055 0,5.011l-2.5055,2.50549z" fill="#181818" fill-rule="evenodd"/>
<path d="m43.72835,296.42911 4.66929-4.6693" fill="none" stroke="#404040" stroke-linecap="round" stroke-linejoin="round" stroke-width="1.41726"/>
<path d="m48.39764,296.42911-4.66929-4.6693" fill="none" stroke="#404040" stroke-linecap="round" stroke-linejoin="round" stroke-width="1.41726"/>
<path d="m45.35064,285.48229c-4.40079,0-7.96875,3.56797-7.96875,7.96875 0,2.28699.987,4.327 2.53125,5.78125-1.13761-1.37828-1.8125-3.13716-1.8125-5.0625 0-4.4008 3.56796-7.96875 7.96875-7.96875 1.92534-1e-005 3.68422.67488 5.0625,1.8125-1.45425-1.54425-3.49426-2.53125-5.78125-2.53125z" fill="#fff" fill-opacity=".70588"/>
<path d="m46.77731,302.77559c4.40079,0 7.96875-3.56797 7.96875-7.96875 0-2.28699-.987-4.327-2.53125-5.78125 1.13761,1.37828 1.8125,3.13716 1.8125,5.0625 0,4.4008-3.56796,7.96875-7.96875,7.96875-1.92534,1e-005-3.68422-.67488-5.0625-1.8125 1.45425,1.54425 3.49426,2.53125 5.78125,2.53125z" fill-opacity=".70588"/>
</g>
<g transform="matrix(-1.00009,0,0,-1,792.8255,343.6003)">
<path d="m20.45559,277.84558a4.95606,4.54569 0 1,1 -9.91212,0 4.95606,4.54569 0 1,1 9.91212,0z" fill="#808080" transform="matrix(1.42989,0,0,1.55898,23.9004,-139.0602)"/>
<path d="m20.45559,277.84558a4.95606,4.54569 0 1,1 -9.91212,0 4.95606,4.54569 0 1,1 9.91212,0z" fill="#181818" transform="matrix(1.60862,0,0,1.75385,21.13008,-193.2045)"/>
<path d="m20.45559,277.84558c0,2.50922-2.22031,4.54569-4.95606,4.54569s-4.95606-2.03647-4.95606-4.54569 2.22032-4.54569 4.95606-4.54569 4.95606,2.03647 4.95606,4.54569z" fill="url(#linearGradient44535)" transform="matrix(1.42989,0,0,1.55898,23.9004,-139.0602)"/>
<path d="m48.56849,299.10542c-2.5055-2.5055-2.5055-2.5055-5.011,0l-2.5055-2.5055c2.5055-2.50549 2.5055-2.50549 1e-005-5.01099l2.5055-2.50549c2.50549,2.50549 2.50549,2.50549 5.01099-1e-005l2.5055,2.5055c-2.5055,2.5055-2.5055,2.5055 0,5.011l-2.5055,2.50549z" fill="#181818" fill-rule="evenodd"/>
<path d="m43.72835,296.42911 4.66929-4.6693" fill="none" stroke="#404040" stroke-linecap="round" stroke-linejoin="round" stroke-width="1.41726"/>
<path d="m48.39764,296.42911-4.66929-4.6693" fill="none" stroke="#404040" stroke-linecap="round" stroke-linejoin="round" stroke-width="1.41726"/>
<path d="m45.35064,285.48229c-4.40079,0-7.96875,3.56797-7.96875,7.96875 0,2.28699.987,4.327 2.53125,5.78125-1.13761-1.37828-1.8125-3.13716-1.8125-5.0625 0-4.4008 3.56796-7.96875 7.96875-7.96875 1.92534-1e-005 3.68422.67488 5.0625,1.8125-1.45425-1.54425-3.49426-2.53125-5.78125-2.53125z" fill="#fff" fill-opacity=".70588"/>
<path d="m46.77731,302.77559c4.40079,0 7.96875-3.56797 7.96875-7.96875 0-2.28699-.987-4.327-2.53125-5.78125 1.13761,1.37828 1.8125,3.13716 1.8125,5.0625 0,4.4008-3.56796,7.96875-7.96875,7.96875-1.92534,1e-005-3.68422-.67488-5.0625-1.8125 1.45425,1.54425 3.49426,2.53125 5.78125,2.53125z" fill-opacity=".70588"/>
</g>
<g transform="matrix(-1.00009,0,0,-1,463.2979,343.6003)">
<path d="m20.45559,277.84558a4.95606,4.54569 0 1,1 -9.91212,0 4.95606,4.54569 0 1,1 9.91212,0z" fill="#808080" transform="matrix(1.42989,0,0,1.55898,23.9004,-139.0602)"/>
<path d="m20.45559,277.84558a4.95606,4.54569 0 1,1 -9.91212,0 4.95606,4.54569 0 1,1 9.91212,0z" fill="#181818" transform="matrix(1.60862,0,0,1.75385,21.13008,-193.2045)"/>
<path d="m20.45559,277.84558c0,2.50922-2.22031,4.54569-4.95606,4.54569s-4.95606-2.03647-4.95606-4.54569 2.22032-4.54569 4.95606-4.54569 4.95606,2.03647 4.95606,4.54569z" fill="url(#linearGradient44535)" transform="matrix(1.42989,0,0,1.55898,23.9004,-139.0602)"/>
<path d="m48.56849,299.10542c-2.5055-2.5055-2.5055-2.5055-5.011,0l-2.5055-2.5055c2.5055-2.50549 2.5055-2.50549 1e-005-5.01099l2.5055-2.50549c2.50549,2.50549 2.50549,2.50549 5.01099-1e-005l2.5055,2.5055c-2.5055,2.5055-2.5055,2.5055 0,5.011l-2.5055,2.50549z" fill="#181818" fill-rule="evenodd"/>
<path d="m43.72835,296.42911 4.66929-4.6693" fill="none" stroke="#404040" stroke-linecap="round" stroke-linejoin="round" stroke-width="1.41726"/>
<path d="m48.39764,296.42911-4.66929-4.6693" fill="none" stroke="#404040" stroke-linecap="round" stroke-linejoin="round" stroke-width="1.41726"/>
<path d="m45.35064,285.48229c-4.40079,0-7.96875,3.56797-7.96875,7.96875 0,2.28699.987,4.327 2.53125,5.78125-1.13761-1.37828-1.8125-3.13716-1.8125-5.0625 0-4.4008 3.56796-7.96875 7.96875-7.96875 1.92534-1e-005 3.68422.67488 5.0625,1.8125-1.45425-1.54425-3.49426-2.53125-5.78125-2.53125z" fill="#fff" fill-opacity=".70588"/>
<path d="m46.77731,302.77559c4.40079,0 7.96875-3.56797 7.96875-7.96875 0-2.28699-.987-4.327-2.53125-5.78125 1.13761,1.37828 1.8125,3.13716 1.8125,5.0625 0,4.4008-3.56796,7.96875-7.96875,7.96875-1.92534,1e-005-3.68422-.67488-5.0625-1.8125 1.45425,1.54425 3.49426,2.53125 5.78125,2.53125z" fill-opacity=".70588"/>
</g>
</g>
</svg>
