<?xml version="1.0" encoding="utf-8"?>
<!-- Generator: Adobe Illustrator 18.1.0, SVG Export Plug-In . SVG Version: 6.00 Build 0)  -->
<svg version="1.1" id="Laag_1" xmlns="http://www.w3.org/2000/svg" xmlns:xlink="http://www.w3.org/1999/xlink" x="0px" y="0px"
	 viewBox="0 0 612 792" enable-background="new 0 0 612 792" xml:space="preserve">
<g>
	<g>
		<path fill="#FEFEFE" d="M373,1c106,0,212,0,318-0.1c3.4,0,4.1,0.7,4.1,4.1C695,111.3,695,217.7,695,324c-2.1,0-2-1.8-2.3-3.1
			c-1.5-14.9-3.3-29.7-7-44.3c-0.6-2.3-1.1-4.5-1.1-6.9c-2-9.9-4.5-19.7-8.5-29c-1.1-2.6-2-5.3-2.4-8.1c-4.2-13.6-10-26.5-16.6-39.1
			c-4.4-10.1-9.8-19.6-16.3-28.5c-0.8-1.1-1.6-2.1-2.1-3.4c-2.3-4.8-5.1-9.2-8.7-13c-1.4-1.5-2.5-3.1-3.3-4.9
			c-3.5-6.6-9.4-11.2-13.7-17.1c-4.2-6.2-9.4-11.7-14.7-17c-5.7-5.7-11.2-11.5-17.2-16.9c-5.4-4.8-10.7-9.9-16.6-14.2
			c-4.4-4.1-10-6.7-14.4-10.8c-4.3-4.3-10-6.5-14.8-10.1c-6.2-4.7-12.9-8.4-19.7-12c-6-3.9-12.7-6.6-19.1-9.8
			c-4.1-2.6-8.9-3.7-13.1-6c-5.8-2.8-11.9-4.7-17.9-6.9c-5.8-2.5-11.8-4.2-17.8-6.1c-6.3-1.9-12.6-3.6-19-5
			c-7.7-2-15.6-3.2-23.4-4.5c-7.3-2-14.9-1.5-22.3-3c-3.3-0.7-6.7-0.6-9.8-1.9C372.8,2.1,372.7,1.6,373,1z"/>
		<path fill="#FEFEFE" d="M695,373c0,105.9,0,211.8,0.1,317.8c0,3.6-0.7,4.3-4.3,4.3C584.5,695,478.3,695,372,695
			c0.3-2.6,2.5-2.1,4.2-2.4c4.2-0.9,8.5-0.7,12.7-1.6c5-0.5,10-1.1,15-2c7-1.2,14-2.3,20.8-4c6.4-1.6,12.8-3,19.1-5
			c8.4-2.2,16.6-5.1,24.8-7.9c9.4-3.6,18.8-7.4,27.8-11.9c6.4-3.2,13.1-5.7,19-9.9c5.4-3.8,11.8-5.8,17-10c7.3-5,15.3-9,21.8-15.1
			c8.1-5.8,16.1-11.7,23.2-18.8c8.2-7.4,16.6-14.7,23.7-23.2c6.1-7.2,13-13.6,18.7-21.2c1.9-2.5,3.9-4.9,5.4-7.7
			c10.5-12.8,18.7-27.2,27.1-41.5c1.3-2.1,2.2-4.4,3-6.8c19.8-36.9,31-76.5,36.2-117.9c0.5-3.8,0.4-7.6,1.3-11.4
			C693,375.2,692.5,373.1,695,373z"/>
		<path fill="#FEFEFE" d="M1,325C1,218.4,1,111.8,0.9,5.2c0-3.6,0.7-4.3,4.3-4.3C111.2,1,217.1,1,323,1c0.3,0.4,0.3,0.9,0,1.3
			c-0.6,0.5-1.3,0.7-2,0.8c-1.7,0.1-3.4,0.1-5,0.7c-0.5,0.2-1,0.3-1.5,0.3c-7.5,0.3-14.9,1.7-22.4,2.8c-6.7,0.9-13.3,2.2-19.8,4.1
			c-5.8,0.7-11.4,2.4-16.9,4c-7.8,1.6-15.2,4.6-22.8,7c-8.4,3.1-16.8,6.1-24.9,10c-8,3-15.3,7.3-23,11c-6.2,3.4-12.3,7-18.4,10.7
			c-7.6,4.6-14.8,9.7-22,14.9c-6.9,4.7-13,10.3-19.6,15.3c-7.4,6.2-14.5,12.7-21.2,19.7c-8.3,7.8-15.7,16.4-23,25.1
			c-11.9,14.6-22.5,30.1-32.1,46.4c-17.8,31.2-30.7,64.3-38.2,99.4C7,289.7,4.9,305,3.4,320.4c-0.1,1.5-0.1,3-0.9,4.3
			C2,325.3,1.5,325.3,1,325z"/>
		<path fill="#FEFEFE" d="M323,695c-105.9,0-211.8,0-317.8,0.1c-3.6,0-4.3-0.7-4.3-4.3C1,582.8,1,474.9,1,367
			c3.2,0.8,2.3,3.6,2.4,5.6c0.5,8,1.3,16,2.5,23.9c2.3,18.3,6.5,36.2,11.9,53.9c3.3,11.3,7.7,22.2,12,33.1
			c3.9,9.2,8.3,18.2,12.9,27.1c4.7,8.5,9.5,16.9,14.9,25c5.2,8.3,11,16.2,16.9,24c6.5,8.7,13.7,16.7,21,24.7
			c6.3,6.4,12.6,12.8,19,19c5.5,4.4,10.5,9.4,16.1,13.7c5,3.6,9.7,7.8,14.8,11.3c4.5,3.5,9.5,6.5,14.2,9.7c4.4,3,8.9,5.8,13.6,8.3
			c4.6,2.8,9.2,5.6,14.1,7.9c6.7,3.3,13.2,7,20.2,9.6c6.4,3.2,13.2,5.6,19.8,8.2c7.7,2.8,15.4,5.4,23.3,7.5
			c7.9,2.2,15.6,4.6,23.7,6.1c6.9,1.4,13.9,2.7,20.9,3.8c8.3,1.2,16.7,1.9,25,3.1c0.9,0.1,1.7,0.3,2.4,0.8
			C323.2,693.9,323.3,694.4,323,695z"/>
		<path fill="#666665" d="M695,373c-2.4,6.1-2,12.6-2.8,18.9c-4.6,35.9-14.5,70.2-29.8,102.9c-2,4.2-4.4,8.2-6.5,12.2
			c-2.1,2.2-2.7,0.4-2.9-1.3c-0.3-2.2-0.1-4.5-0.8-6.7c-0.1-2.4,1.2-4.3,2.1-6.4c4.8-10.4,9.3-21,13-32c4.3-11.9,7.9-24,10.5-36.4
			c3.7-16.3,6-32.8,7.8-49.3c0-2.9-0.1-5.8,0.1-8.6c0.1-1.2,0.3-2.3,1.1-3.2c0.5-0.3,1-0.3,1.5,0.1c0.2,0.8,0.3,1.6,0.2,2.4
			c-1.3-12.2-1.2-24.4,0.2-36.6c-0.3,1.7,0.3,3.5-0.6,5.2c-2.4-0.4-2.1-2.4-2.4-4.1c-0.2-3.8-0.1-7.6-0.1-11.4
			c0.2-1.9,0.2-3.9-0.5-5.8c-1.1-4.3-1.2-8.7-2-13c-0.4-3.8-1.6-7.6-1.3-11.5c0.2-1.3,0.2-3.1,1.8-3.1c1.6,0,1.7,1.8,2,3.1
			c2,9.3,2.9,18.7,3.9,28.1c0.2,1.5-0.4,3.1,2.3,1.9c2.6-1.2,1.3,1.9,2.2,2.7c0.5,1-0.3,2.5,1.2,3c0,1.3,0,2.7,0,4
			c-0.8,1.3-0.8,2.7,0,4c0,1.7,0,3.3,0,5c-0.8,2.7-0.8,5.3,0,8c0,2,0,4,0,6c-0.8,2.7-0.8,5.3,0,8c0,1.7,0,3.3,0,5c-0.7,1-0.7,2,0,3
			C695,369,695,371,695,373z"/>
		<path fill="#EEEFEE" d="M5,397c-2.3-7.8-2.2-15.9-3-23.8c-0.2-2.1,0.8-4.3-1-6.2c0-10.3,0-20.7,0-31c1.4-3.6-0.3-7.4,1-11
			c0.5-17.4,3.5-34.5,7.1-51.5c6.6-31.3,17.8-61,32.8-89.3c1.9-3.5,4-6.8,6.1-10.2c1.7,3.1-0.1,6.5,1,9.6c-0.5,4.9-3.6,8.7-5.6,13.1
			c-1.8,4.1-4.1,7.9-5.6,12.1c-1.1,2.4-2.3,4.7-3.1,7.2c-0.7,1.5-1.4,3-2,4.6c-2,5.4-4,10.8-5.9,16.2c-6.9,20.1-12.1,40.6-14.9,61.7
			C10,310.7,8.6,323,8.4,335.4c0,8.4,0,16.8,0,25.2c0,7.4,0.9,14.7,1.7,22.1c0.2,1.5,0.3,2.9,0,4.4C8.1,390.2,8.3,394.5,5,397z"/>
		<path fill="#989998" d="M356,695c-4.7,0-9.3,0-14,0c-1.8-2.6-1.4-4.8,1.1-6.7c7.4-1.2,14.9-1.1,22.3-0.1c2.2,1.9,1.1,3.7,0,5.6
			c-1,0.9-2.1,0.5-3.2,0.6C360.2,694.7,358,693.9,356,695z"/>
		<path fill="#9D9E9D" d="M343,689c-1.2,1.9-1,3.9-1,6c-1,0-2,0-3,0c-1.7-1.1-3.6-0.3-5.4-0.5c-1.6,0-3.3,0-4.9,0
			c-1.9-0.2-3.9,0.4-5.8-0.4c-0.7-0.1-1.3-0.2-2-0.2c-3.6-1.1-3.7-3.4-2-6.2c3.8-2.3,7.6,0.3,11.4,0C334.6,688.2,339,686.3,343,689z
			"/>
		<path fill="#939392" d="M365,693.9c0.3-1.6,0.7-3.3,1-4.9c3-2.5,6.6-2.3,10.2-2.4c2.4,0,4.9,0.2,7.3-0.4c0.8-0.1,1.6,0,2.3,0.3
			c1.4,1.6,1.9,3.9,3.4,5.5c-4.4,1.5-9.1,1.2-13.7,1.9c-1.2,0.2-2.7-0.5-3.6,1c-1.7,0-3.3,0-5,0C366.5,694.3,365.4,694.7,365,693.9z
			"/>
		<path fill="#BBBBBA" d="M341,1c5,0,10,0,15,0c1,1,2.9-0.1,3.7,1.6c0.6,1.8,0.6,3.5-0.9,5c-6.7,1.5-13.4,1.1-20.2,0.2
			c-2.2-1.6-1.9-3.5-0.6-5.4C338.8,1.5,340.1,1.8,341,1z"/>
		<path fill="#F7F7F7" d="M2,325c-0.5,3.7,1.1,7.5-1,11c0-3.7,0-7.3,0-11C1.3,325,1.7,325,2,325z"/>
		<path fill="#727372" d="M695,345c-1.5-2.7-1.6-5.3,0-8C695,339.7,695,342.3,695,345z"/>
		<path fill="#727271" d="M695,359c-1.6-2.7-1.5-5.3,0-8C695,353.7,695,356.3,695,359z"/>
		<path fill="#CACACA" d="M341,1c-0.4,0.8-1.2,1-2,1c-1.5,1-3,1.4-4.7,0.4C333.8,2,333.7,1.6,334,1C336.3,1,338.7,1,341,1z"/>
		<path fill="#E8E8E8" d="M373,1c0,0.3,0,0.6,0,0.9c-1.7,1.7-3.7,1.5-5.7,0.6c-0.5-0.4-0.7-0.9-0.3-1.5C369,1,371,1,373,1z"/>
		<path fill="#C7C7C6" d="M359,2c-1.1-0.1-2.3,0.2-3-1c2,0,4,0,6,0c0.3,0.5,0.3,0.9-0.1,1.3C360.8,2.9,359.9,2.8,359,2z"/>
		<path fill="#EDEDEC" d="M323,1.9c0-0.3,0-0.6,0-0.9c2,0,4,0,6,0c0.3,0.6,0.2,1.1-0.3,1.5C326.6,3.4,324.7,3.6,323,1.9z"/>
		<path fill="#D9D9D8" d="M323,694.1c2,0,4,0,6,0c0.4,0.2,0.5,0.4,0.4,0.6c-0.1,0.2-0.2,0.3-0.3,0.3c-2,0-4,0-6,0
			C323,694.7,323,694.4,323,694.1z"/>
		<path fill="#AAABAA" d="M356,695c1.8-1.8,4-0.7,6-1c0.3,0.2,0.4,0.4,0.3,0.6c-0.1,0.2-0.2,0.3-0.3,0.3C360,695,358,695,356,695z"
			/>
		<path fill="#D4D4D4" d="M362,2c0-0.3,0-0.7,0-1c1.7,0,3.3,0,5,0c0,0.3,0,0.6,0,0.9C365.4,3.4,363.7,3.4,362,2z"/>
		<path fill="#D9D9D9" d="M329,1.9c0-0.3,0-0.6,0-0.9c1.7,0,3.3,0,5,0c0,0.3,0,0.7,0,1C332.3,3.4,330.6,3.4,329,1.9z"/>
		<path fill="#C5C5C4" d="M329,695c0-0.3,0-0.6,0-0.9c1.7,0,3.3,0,5,0c0.4,0.2,0.5,0.4,0.4,0.6c-0.1,0.2-0.2,0.3-0.3,0.3
			C332.3,695,330.7,695,329,695z"/>
		<path fill="#B0B0B0" d="M334,695c0-0.3,0-0.6,0-1c1.7,0.2,3.6-0.7,5,1C337.3,695,335.7,695,334,695z"/>
		<path fill="#C0C0BF" d="M362,695c0-0.3,0-0.6,0-1c1,0,2-0.1,3-0.1c0.8,0.1,1.6,0.2,2,1.1C365.3,695,363.7,695,362,695z"/>
		<path fill="#AEAEAE" d="M695,332c-1.4-1.3-1.6-2.7,0-4C695,329.3,695,330.7,695,332z"/>
		<path fill="#AAAAA9" d="M695,367c-1.5-1-1.3-2,0-3C695,365,695,366,695,367z"/>
		<path fill="#6D6D6C" d="M658,193c7.2,12.3,12.4,25.5,16.9,39c-2.3,1.7-2.4,5.4-5.6,6.2c-0.3-0.2-0.6-0.3-0.8-0.6
			c-5.2-13.3-10.9-26.4-16.3-39.7C653.3,195.3,655.3,193.8,658,193z"/>
		<path fill="#686867" d="M693.8,321c-0.5-0.8-1-1.6-1.7-2.6c-1,1.6-1.8,2.9-3.6,5.6c-1.2-13.7-2.4-25.9-4.9-38
			c-1,0.5-0.6,1.4-0.8,2.2c-3.8-2.4-2.7-6.4-3.3-9.8c0.1-2.9,1.5-5.2,2.8-7.6c0.6-1.2,1.4-2.7,3.3-1.7c2.2,12.4,5.6,24.5,6.7,37.1
			C692.9,311.1,693.4,316,693.8,321z"/>
		<path fill="#6A6A6A" d="M685.8,269c-3.3,2.1-4,5.6-4.8,9.1c-1.5,0.1-1.7-1-2.2-2c-2.4-9.7-4.4-19.5-7.7-28.9
			c-0.4-3-3.1-5.8-1.1-9.1c1.3-2.3,1.2-5.7,4.9-6.1c3.6,11.9,8.4,23.3,10.8,35.6C685.7,268,685.7,268.5,685.8,269z"/>
		<path fill="#717271" d="M658,193c-1.4,1.7-2.6,3.7-5,4.2c-0.5,0.2-1,0.1-1.4-0.2c-6.1-10.8-12.1-21.7-18.7-32.2
			c-0.5-0.7-0.6-1.5-0.5-2.4c2.1-2.7,5.1-0.4,7.5-1.4c6.4,8.6,11.5,18,16.4,27.5C656.9,189.9,658.1,191.2,658,193z"/>
		<path fill="#7E7F7E" d="M581.7,92.1c6.3,5.1,12.1,10.7,17.4,16.9c-0.4,3.3-1.9,5.3-5.6,4.5c-4.2-1.9-6.8-5.7-10-8.9
			c-3.4-3.4-7.3-6.3-10-10.4c0.1-1.2,0.9-2.1,1.8-1.6C577.7,93.9,579.6,92.4,581.7,92.1z"/>
		<path fill="#8E8F8E" d="M516.3,44.8c7.1,3.3,13.7,7.3,20,12c-1.7,5.1-1.7,5.1-7.6,3.8c-5.8-2.1-10.7-6-16.2-8.6
			c-2.7-2.3-6.6-2.8-8.7-6c0.2-1.6,1.5-1.9,2.5-1.3C509.6,46.8,512.9,46.6,516.3,44.8z"/>
		<path fill="#777877" d="M614,126c4.7,5.5,10.1,10.6,13.7,17c-1.5,4-4.2,4.1-7.5,2.3c-5.7-6.3-11.7-12.4-15.7-20.1
			c0.6-2.2,2.1-1.5,2.9-0.6C609.3,126.8,611.6,126.6,614,126z"/>
		<path fill="#AAAAA9" d="M406,6.1c6.9,1.3,13.9,2.6,20.8,4c0.8,0.2,1.5,0.6,2.2,0.9c-1.4,6.1-6.3,5-10.6,5.1
			c-4.3,0.4-8.4-1.3-12.6-1.6c-3-0.1-6-0.4-8.7-2c-0.6-0.6-0.7-1.3-0.5-2.1c0.6-1,1.6-1.3,2.5-1.1C402.3,10.1,404.3,8.5,406,6.1z"/>
		<path fill="#838483" d="M581.7,92.1c-0.7,0.8-4.4,1.8-7.8,2c-4.6-1-7.1-5-10.7-7.5c-1.4-1.5-3.9-2.3-3.8-5c1.4-2,2.4-4.7,5.7-3.7
			C571.3,82,576.8,86.7,581.7,92.1z"/>
		<path fill="#757574" d="M621,145.1c2.7,0.8,4.8-0.3,6.7-2.1c3.8,6.2,9.3,11.2,12.1,18c-3.2,2.3-3.2,2.3-6.9,1.2
			c-1.6,0.2-2.4-0.9-3.2-2c-2.8-3.9-5.3-8-8.2-11.8C620.9,147.4,620.4,146.3,621,145.1z"/>
		<path fill="#A0A09F" d="M448,16c6.2,1.3,12.2,3.3,18,6c1,4.8-0.2,6.1-4.8,5.3c-1.4-0.3-2.8-0.8-4.3-0.4
			c-5.9-0.5-11.2-3.5-16.9-4.8c-1.2-0.4-2.4-0.9-3.2-2.1c0-1.2,1-2,1.8-1.8C442.2,19.1,445,17.2,448,16z"/>
		<path fill="#949493" d="M516.3,44.8c-2.6,3.8-5.7,3.8-9.2,1.2c-0.8-0.6-2-1.5-3-0.1c-3.6,0.9-6-2-8.9-3.1c-2-0.7-3.8-1.9-5.8-2.6
			c-1.2-0.5-2.3-1.1-2.6-2.6c3.4-3.3,5.4-0.1,7.6,1.4c-0.1-1.8-0.3-3.9,2.7-4.1C503.7,37.9,510.3,40.7,516.3,44.8z"/>
		<path fill="#7A7B7A" d="M614,126c-2.1,2.4-4.1,3.6-6.4,0.1c-0.4-0.7-1.1-2.4-2.6-1c-1.7,0.4-2.6-0.8-3.6-1.7
			c-1.8-3.9-6.7-5.6-7.4-10.3c2.8,0,3.5-2.6,5.2-4.2C604.6,114.2,609.9,119.5,614,126z"/>
		<path fill="#A5A5A5" d="M448,16c-1.9,3.4-4.3,5.2-8.3,3.1c-0.8-0.4-2-0.1-2.7,0.8c-6.5,0.1-12.8-0.4-18.1-4.8
			c0.1-0.1,0.2-0.4,0.3-0.4c4.2,1.1,7.2-0.8,9.8-3.8C435.6,11.8,441.9,13.5,448,16z"/>
		<path fill="#898A89" d="M529,60.1c5.1-0.5,5.1-0.5,7.3-3.3c4.8,3.5,10.6,5.5,14.5,10.2c-0.2,2.4-0.4,4.8-2.8,6.2
			c-4.2-0.6-6.8-3.7-10.1-5.9c-2.3-1.6-4.7-3.1-7-4.6C530,62.1,528.8,61.6,529,60.1z"/>
		<path fill="#B5B6B5" d="M362,2c1.7,0,3.4,0,5-0.1c2,0,4,0,6,0c3.3,0.4,6.6,0.8,10,1.1c1.4,1.8,1.4,3.5,0,5.3
			c-2.4,1.5-5.2,1.2-7.7,1c-5.5-0.6-11.1,0-16.3-2.3c0-1.7,0-3.3,0-5C360,2,361,2,362,2z"/>
		<path fill="#9B9B9B" d="M457,26c1.1-1.4,2.4-0.8,3.6-0.2c3.9,1.8,5.5,0.2,5.4-3.8c6.2,1.9,12.3,4,18,7c-2.2,1.8-3.2,4.8-6.4,5.5
			C470.5,32.3,463.1,30.8,457,26z"/>
		<path fill="#AFB0AF" d="M383,8c0-1.7,0-3.3,0-5c7.6,1.3,15.5,0.8,23,3.1c-0.2,7.7-5.4,3.9-9,3.9c-1.5,1.3-3.2,1.3-5,1
			c-1.7-0.6-3.6-0.5-5.4-0.7C385.1,10.1,383.2,10.4,383,8z"/>
		<path fill="#878786" d="M548,73.1c1.1-1.9,1.1-4.4,2.8-6.1c4.8,3.7,10.3,6.3,14.4,10.8c-2.5,0.4-3.4,3-5.3,4.2
			C554.7,80.8,551,77.4,548,73.1z"/>
		<path fill="#989897" d="M478,33.9c2.5-1,2.2-5.4,6-4.9c4.4,1.9,9.1,3.1,13.1,5.9c-1.8,3.7-4.1,5.4-7.9,2.3
			c-0.7-0.5-1.6-0.1-2.2,0.6C482.9,39.1,480.2,37,478,33.9z"/>
		<path fill="#686867" d="M652.9,498.8c1.5,1.7,1.4,3.7,1.2,5.8c-0.1,1-1.1,3.4,1.8,2.4c-5.7,13.1-13.5,25.1-21.5,36.9
			c-2.6,3.8-5.6,7.4-8.5,11.1c-2.7-0.3-4-2.3-5.5-4.3c0-1,0.4-2,1-2.8c8.3-11.5,15.7-23.5,22.6-35.9c0.3-0.6,0.8-1.1,1.2-1.6
			c1.7-2.4,2.8-5.3,4.3-7.9C650.3,501.1,650.6,499,652.9,498.8z"/>
		<path fill="#6B6B6A" d="M621,550.9c2.9-0.1,3.1,3,4.9,4.1c-5.7,9.4-13.1,17.5-20.7,25.4c-1.1,1.2-2.2,2.4-3.4,3.6
			c-1.7-0.9-3.1-3-5.6-1c-1.2,0.9-1.8-0.6-1.9-1.8c0.9-3.5,4.1-5.2,6.1-7.7c5.9-5.7,10.7-12.3,15.8-18.6
			C617.5,553.2,618.2,550.7,621,550.9z"/>
		<path fill="#6D6D6C" d="M595,580.9c0.1,0.8,0.5,2.1,1.3,1.1c3.8-4.6,4.7-1.6,5.5,1.9c-5,6.8-11.3,12.4-17.6,17.8
			c-2.1,1.8-3.7,4.2-6.1,5.6c-0.1-0.1-0.3-0.2-0.4-0.3c-1.2-1.4-0.9-3-0.8-4.6c-1,0.9-2.1,1.8-3.3,0.2c-0.2-0.9-0.1-1.7,0.5-2.3
			c6.2-5.8,11.8-12.1,17.7-18.2C592.7,581.2,593.6,580.5,595,580.9z"/>
		<path fill="#70706F" d="M574,601.9c1.2,2.2,2.6-0.7,4.1,0.3c0,1.6,0,3.4,0,5.2c-7.2,6.9-14.8,13.3-23.3,18.6
			c-4.2,0.2-2.8-3.3-3.5-5.4c0-0.5,0-1.1,0.4-1.4c6.8-6.1,13.8-12.1,21.3-17.4C573.3,601.7,573.6,601.8,574,601.9z"/>
		<path fill="#7D7E7C" d="M497.1,661.1c-9,4.9-18.4,8.8-28.1,11.9c-2.8-1-3.1-3.8-4.2-6c0.6-1.1,1.6-1.7,2.7-2.1
			c8.9-3.1,17-8.1,26.3-10.3C496.5,656,497.1,658.4,497.1,661.1z"/>
		<path fill="#838382" d="M465,667.2c3.5,0.5,2.4,4,4,5.8c-8.1,3.4-16.3,6.3-24.9,8.1c-2-2.3-5.7-2.3-7.2-5.3
			c5.9-3.9,13.1-4.5,19.6-7C459.1,667.6,461.9,665.8,465,667.2z"/>
		<path fill="#737473" d="M552,620c1.8,1.6-0.5,5.1,2.8,6c-4.9,5-10.8,8.5-16.7,12c-1.7,1-3.3,2.1-4.9,3.1c-2.1-1.5-4.4-2.5-6.5-4
			c0.3-1.4,1.4-2.3,2.5-3c6.3-4.2,12.6-8.6,18.8-12.9C549.1,620.5,550.3,619.3,552,620z"/>
		<path fill="#8B8B8A" d="M386,687c-0.7,0-1.3,0-2,0c-1.4,0.1-1.4-0.5-0.7-1.4c9-2.1,18-3.7,27.2-4.5c3.4,1.4,6.8-1,10.2,0
			c2.2,1,3,3.3,4.4,5c-6.9,2.3-14,3.3-21.1,4.1c-1.6-2.9-3.9-3.3-7-2.9C393.4,687.7,389.6,689.7,386,687z"/>
		<path fill="#878786" d="M425.1,686c-3.4,0.7-2.7-2.8-4.1-4c0.1-2.7,1.8-0.9,2.7-1.4c-0.1-0.6-1.8,0.2-1.9-1
			c0.7-1.8,2.3-1.8,3.8-2.1c3.8-0.4,7.3-3.2,11.4-1.4c0.3,0.2,0.6,0.6,0.7,0.6c3.9-1,5.4,1.2,6.3,4.4C438,683.6,431.6,685,425.1,686
			z"/>
		<path fill="#797978" d="M497.1,661.1c-1-2-2.1-4-3.1-6c4.2-4.8,10.1-6.4,15.7-8.7c4-0.9,5.6,1.6,6.6,4.8
			C510.4,655.2,503.7,658.1,497.1,661.1z"/>
		<path fill="#767776" d="M516.3,651.1c-2.6-0.7-3-4.6-6.3-4.1c4.7-5,10.2-8.5,17-9.9c1.6,1.8,3-0.9,4.6-0.3c1,1.2-0.3,3.4,1.6,4.3
			C528.2,645.5,521.8,647.4,516.3,651.1z"/>
		<path fill="#8F8F8E" d="M386,687c4.4,0.5,8.7-0.4,12.8-1.4c4.8-1.2,5.6,0.4,5.2,4.5c-4.8,1.4-9.8,2-14.8,2
			C385.2,692.3,386.1,689.3,386,687z"/>
		<path fill="#EBECEB" d="M48,184c-1.6-3.3-0.6-6.7,0-10c9.3-16.3,19.7-31.8,32-46c3.2,1.6,1.2,4.5,1.7,6.8
			c-0.6,3.3-3.2,5.3-4.8,8.1c-0.2,0.4-0.5,0.8-0.8,1.1c-3.4,4.2-6.8,8.4-9.2,13.3c-0.4,0.8-0.9,1.6-1.6,2.3c-3,3.2-5,7.1-7.2,10.9
			c-0.2,0.4-0.4,0.8-0.7,1.2c-1.3,1.5-2.1,3.3-3.1,5.1C51.9,178.8,52.5,183.6,48,184z"/>
		<path fill="#E9E9E8" d="M81,135c-1.8-2.1,1.1-4.9-1-7c7-9,14.3-17.6,23-25c1.6,3.1-0.9,5.8-0.9,8.7c-1.1,3.7-4.5,5.6-6.7,8.4
			c-3.5,4.5-7.4,8.8-11.2,13.2C83.4,134.3,82.7,135.6,81,135z"/>
		<path fill="#E6E7E6" d="M101,112c-0.4-3.2,1.6-6,2-9c6.2-7.5,13.7-13.6,21-19.9c1.7,1.8,1.3,4.1,1.1,6.3c-0.5,2.5-2.2,4.1-4.1,5.5
			c-5.6,4.2-10,9.8-15.1,14.5C104.5,110.5,103.5,112.6,101,112z"/>
		<path fill="#D6D6D5" d="M207,31c8.1-4,16.5-7.1,25-10c1.5,1.6,1.3,3.5,0.8,5.5c-1.3,2.7-4.2,2.9-6.5,4.1c-1.7,0.6-3.3,1.2-5,1.8
			c-3.3,1.6-6.7,2.9-10,4.3c-1.6,0.7-3.3,1.8-4.9-0.1C205.4,34.6,205.8,32.8,207,31z"/>
		<path fill="#E1E1E0" d="M144,68c6.7-5.9,14.2-10.7,22-15c1.6,1.5,1.3,3.4,1.1,5.3c-0.4,2-2,2.9-3.5,3.9c-4.6,2.8-8.9,6.1-13.2,9.4
			c-2.6,1-4.3,4.6-7.9,3C141.4,72,142.4,69.9,144,68z"/>
		<path fill="#DADBDA" d="M207,31c0,2,0,4,0,6c-0.8,2.3-3.1,2.8-4.9,3.8c-5.4,3.1-11.4,5-16.4,8.9c-0.7,0.4-1.4,0.7-2.1,0.1
			c-0.3-0.4-0.6-0.9-0.7-1.5c-0.4-2.2-0.3-4.4,1.1-6.3C191.6,38.3,199,34,207,31z"/>
		<path fill="#E4E4E3" d="M144,68c-0.3,2.3-0.7,4.7-1,7c0.2,0.4,0.2,0.9-0.1,1.3c-5,4.6-10.7,8.5-15.7,13.1c-1,0.5-2,1.2-3.3,0.6
			c0-2.3,0-4.6,0-7C130.7,78.1,136.5,71.9,144,68z"/>
		<path fill="#C5C5C4" d="M292,5.9c7.9-1.8,15.8-3.2,24-3c1.5,1.6,1.4,3.3,0.5,5.1c-2.6,2-5.8,2-8.9,2.4c-4.7,0.6-9.4,1.8-14.2,1.8
			c-0.9-0.1-1.7-0.3-2.4-0.9C289.4,9.2,290.4,7.5,292,5.9z"/>
		<path fill="#D1D1D1" d="M232,27c0-2,0-4,0-5.9c7.5-2.7,15-5.8,23-7c1.6,2.2,0.5,4.1-0.5,6.1c-2.2,2.1-5.1,2.6-7.9,3.3
			c-3,0.9-6,1.9-8.9,3.1C235.8,27.2,234,28.4,232,27z"/>
		<path fill="#DDDEDD" d="M184,42.1c0,2.3,0,4.6,0,6.9c-5.4,4.4-10.9,8.7-18,10c0-2,0-4,0-6C171.5,48.6,177.9,45.6,184,42.1z"/>
		<path fill="#BFC0BF" d="M316,8c0-1.7,0-3.4,0-5.1c0,0,0,0,0,0c1.5-1,3.5,0.1,5-0.8c0.7-0.1,1.3-0.1,2-0.2c2,0,4,0,6,0
			c1.7,0,3.4,0,5,0.1c1.7,0,3.3,0,5,0c-1,1.5-1.1,3.2-1,5c-1.1,1.3-2.7,1.3-4.2,1.4c-3.8,0.1-7.5,0-11.3,0.8
			C320.3,9.6,317.9,9.9,316,8z"/>
		<path fill="#CACAC9" d="M292,5.9c-0.3,1.7-0.6,3.4-1,5.1c-0.9,2.3-3.1,2.4-5,2.5c-4.8,0.3-9.2,4-14.3,1.4c-1.1-1.7-1-3.4,0.2-5
			C278.4,7.6,285.1,6.4,292,5.9z"/>
		<path fill="#CDCECD" d="M272,10c0,1.7,0,3.4,0,5c-0.1,0.2-0.2,0.4-0.2,0.7c-2.4,2.4-6.2,1.6-8.6,3.8c-0.9,0.4-1.8,0.5-2.7,0.4
			c-2.2-0.6-4.3,1.7-6.4,0.1c0.3-2,0.7-4,1-6C260.5,11.9,266.1,10.3,272,10z"/>
		<path fill="#C5C5C4" d="M321,2.1c-1.5,1.5-3.3,0.7-5,0.8C317.4,1.5,319.3,2.2,321,2.1z"/>
		<path fill="#EBECEB" d="M5,397c1.6-2.9,1.1-6.7,4-9c2.9,2.5,2.2,6.1,2.7,9.3c2.1,14.4,5.4,28.6,8.9,42.7c0.3,1.1,0.6,2.2,0.6,3.4
			c-0.4,3.1-1.1,6-4.2,7.6c-4.5-10.7-6.6-22.1-8.9-33.4C6.6,410.8,4.8,404,5,397z"/>
		<path fill="#E8E9E8" d="M17,451c1-2.4,2.7-4.4,3-7c3.4,0.7,2.4,4.3,4,6.1c0.5,0.8,0.9,1.7,1,2.6c0.2,2,0.4,4,1.7,5.7
			c0.8,1.4,1.8,2.7,1.9,4.4c0.2,0.8-1.6,1.6,0,2.4c1,1.8,1.4,3.9,2.3,5.8c0.8,2.2,2.2,4.4,1.5,6.9c-1.4,1.9-1.3,4.6-3.5,6
			C24,473.4,19.8,462.5,17,451z"/>
		<path fill="#DBDBDA" d="M95,585c-7.7-7.7-15.1-15.7-21-25c-1.1-2.2-0.4-4,1.4-5.4c1.7-0.4,2.8,0.6,3.8,1.8
			c1.2,1.9,2.9,3.5,4.2,5.3c1.3,2.3,3.5,3.9,5,6.1c1.6,2.7,4.2,4.5,6,7c1.1,2.2,3.7,3.4,3.9,6.2C97.9,582.8,97.1,584.5,95,585z"/>
		<path fill="#E6E6E5" d="M29,484c1.2-1.9-0.2-5.1,3-6c1.7-0.4,2,1,2.6,1.9c0.9,2.5,2.1,4.8,3.2,7.2c1.5,4.5,4,8.6,6.1,12.8
			c0.9,1.9,2.1,3.7,1.8,6c-0.9,2-0.5,4.8-3.7,5C36.7,502.5,32.5,493.4,29,484z"/>
		<path fill="#AEAFAE" d="M274,686.9c-8.2-1.2-16-3.8-23.9-6.1c-0.5-3.7-2.6-5.6-6.2-6.5c-5.4-1.4-10.5-3.7-15.9-5.5
			c-2.3-1.4-5.4-1.5-7.2-3.8c0-0.9,0.5-1.4,1.3-1.7c4.2-0.3,7.5,2.2,11.3,3.3c5.5,1.7,11,3.6,16.4,5.4c1.5,0.7,3.3,0.7,4.4,2.3
			c0.1,0.4,0,0.6-0.3,0.7c-0.1,0-0.1,0.1-0.1,0.2c3.3-0.1,6.2,1.8,9.5,1.5c1.5,0.1,2.9,0.3,4.2,1.1c1.5,1.2,3.8,1.2,4.9,2.9
			C273.1,682.7,274.1,684.7,274,686.9z"/>
		<path fill="#E0E0DF" d="M76,555c-1.4,1.4-1.6,3.3-2,5.1c-6.7-7.3-12.3-15.3-17-24c-1.5-2.5-0.3-4.4,1.4-6.1
			c0.4-0.3,0.9-0.5,1.4-0.5c0.8,0.1,1.4,0.4,1.8,1c0.5,0.8,0.8,1.7,1.2,2.5c1.4,3.1,3.3,5.8,5.6,8.3c0.9,1,1.5,2.1,2.2,3.3
			c0.7,1.3,1.6,2.5,2.6,3.6c0.3,0.3,0.5,0.7,0.8,1C74.7,551.1,76.8,552.5,76,555z"/>
		<path fill="#E2E3E2" d="M59,530c-0.9,1.9-2.2,3.7-2,6c-6.2-7.6-10.7-16.3-15-25c1.9-1.1,1.4-3.7,3-5c3.7,0.7,3.4,4.6,5.5,6.7
			c1.3,2.4,2.5,5,4.1,7.2C55.8,523.4,59.5,525.8,59,530z"/>
		<path fill="#D6D6D5" d="M95,585c1-1.3,2-2.7,3-4c0.3-0.2,0.7-0.3,0.9-0.2c6.6,5.2,13.1,10.7,17.5,18.1c-0.3,1.9-0.7,3.8-2.5,5.1
			C107.2,598.1,100.9,591.8,95,585z"/>
		<path fill="#A4A4A3" d="M319,688c0,2.2-0.4,4.5,2,5.8c-8.7-0.5-17.4-1.7-26-3c-2.5-1.3-2.3-3.4-1.5-5.6c1.7-1.9,4-0.6,5.9-1.2
			c1.1-0.1,2.1,0,3.2,0.3c4.1,2,8.7,0.9,12.9,2.2C316.7,687,318.1,686.9,319,688z"/>
		<path fill="#B5B5B4" d="M228,668c7.3,1.5,14,4.8,21.1,7c3.8,1.2,0.8,3.8,0.9,5.8c-7.9-2.1-15.6-4.6-23.1-7.7
			C225.7,671.1,225.6,669.3,228,668z"/>
		<path fill="#BABBBA" d="M228,668c-1,1.6-1.1,3.3-1.1,5.1c-6.8-2.3-13.5-4.9-19.9-8.2c-1.5-2.1-1.1-4.1,0.5-5.9
			c5.3,0.2,9.7,2.2,13.4,6C223.5,665.7,226.1,666,228,668z"/>
		<path fill="#BFC0BF" d="M208,659c-0.3,2-1.4,3.8-1,5.9c-7-2.7-13.6-6-20.1-9.8c-0.8-1.8-0.2-3.5,0.7-5.1c0.4-0.4,0.8-0.6,1.3-0.7
			C195.8,651.6,202.2,654.7,208,659z"/>
		<path fill="#AAAAA9" d="M294,685c0,2-0.3,4,1,5.8c-7.1-1-14.1-2.1-21-3.9c-2.4-1.4-2-3.7-2-5.9c0.5-0.5,1.1-1,1.7-0.9
			C280.6,681.3,287.6,681.7,294,685z"/>
		<path fill="#D2D2D2" d="M114,604c0.4-1.7,0.6-3.6,2-5c2.2-0.7,3.1,1.4,4.7,2.1c2.8,1.9,4.8,4.8,7.8,6.5c1.5,1.2,3,2.5,3.3,4.7
			c-0.1,2-0.3,4-1.8,5.6C124.4,613.6,119.1,608.9,114,604z"/>
		<path fill="#CECECE" d="M130,617.9c-0.4-2.1,0.7-3.9,1-5.9c1.2-0.7,2.1,0,3.1,0.5c1.8,1.2,3.2,2.9,5.1,4c1.6,1.2,2.9,2.8,4.6,3.8
			c1.2,0.8,2.3,1.7,2.7,3.3c0.1,2.1-0.1,4-1.7,5.6C139.5,626,135,621.6,130,617.9z"/>
		<path fill="#CACBCA" d="M145,629.1c0.3-2,0.7-4,1-6.1c4.8,0.8,7.8,4.6,11.7,7c1.5,1.2,3.4,2,4,4c0.1,2.2-0.5,4-2.7,4.9
			C154.3,635.7,149.2,633.1,145,629.1z"/>
		<path fill="#C4C4C3" d="M188,650c0.1,1.8-0.1,3.5-1.1,5.1c-5-2-9.7-4.7-14-7.9c-1.2-1.9-0.4-3.6,0.7-5.2
			C179.8,642.2,184.4,645.1,188,650z"/>
		<path fill="#C7C7C6" d="M174,642c-0.4,1.7-0.7,3.5-1.1,5.2c-5-2.1-9.4-5.2-13.9-8.3c0.7-1.6,1.3-3.3,2-4.9c0.6-0.6,1.3-0.6,2-0.4
			C166.7,636.3,171.8,637.3,174,642z"/>
		<path fill="#C5B5B5" d="M686.8,375c-1.6,16.8-3.7,33.6-7.9,50c-2.4,1.8-4.9,0.6-7.2,0c-28.3-6.8-56.7-13.1-85.1-19.7
			c-46.2-10.8-92.3-21.5-138.5-32.1c-2.4-0.6-5-0.1-7.3-1.2c0.1-5.8-0.1-11.6,3.6-16.6c5.8-1.5,11.6,0.1,17.3,0.5
			c22.9,1.7,45.7,3.4,68.5,5.7c23,2.3,46,3.7,69,5.6c19,1.6,38.1,3.1,57.1,4.4c8.9,0.6,17.9,1.5,26.8,2.1
			C684.5,373.7,685.8,373.9,686.8,375z"/>
		<path fill="#C5BBB5" d="M441.2,372c4.9-2.7,9.5,0.4,13.9,1.4c35.8,8,71.5,16.6,107.3,24.9c38.8,9,77.6,17.8,116.5,26.8
			c-2.7,12.3-5.9,24.5-10.8,36.2c-16.8-6.3-33.9-12-50.9-17.9c-55.7-19.2-111.3-38.8-167.1-57.8c-3.9-1.3-7.7-3.1-12-3.3
			c-1.8-2.7,0.3-4.9,0.7-7.3C439.4,373.8,439.9,372.6,441.2,372z"/>
		<path fill="#C5BFB5" d="M438.1,382c2.2-1.7,4.4-0.7,6.6,0.1c24,8.3,48,16.7,72,25c42.4,14.7,84.7,29.4,127.1,44
			c6.7,2.3,13.5,4.6,20.2,7.1c1.6,0.6,3.9,0.5,4,3c-3.3,11.1-7.7,21.7-13.1,31.9c-9.7-3.1-18.5-8.3-27.7-12.6
			c-43.2-20.4-86.3-40.9-129.5-61.3c-20-9.4-39.8-19.3-60.2-28c-1.1-0.5-2.1-1-2.8-2C434.7,386.2,435.3,383.6,438.1,382z"/>
		<path fill="#C5BDBD" d="M683.9,300c1.7,4.2,1.4,8.7,2.2,13c0.8,1.7-0.2,3.6,0.7,5.2c0,3.9,0,7.8,0.1,11.7
			c-2.5,2.4-5.7,2.4-8.9,2.5c-24.4,0.9-48.8,2.6-73.2,3.8c-15.4,0.8-30.9,1.5-46.3,2.3c-21.4,1.2-42.8,2.5-64.2,3.5
			c-16.2,0.8-32.4,2.9-48.8,2c-0.6-0.1-1.2-0.4-1.7-0.8c-1.7-3.3-2.7-6.7-1.2-10.4c59.1-7.3,118-16.8,177-25
			c19.3-2.7,38.6-5.5,57.8-8.2C679.7,299.5,681.9,299,683.9,300z"/>
		<path fill="#C5BABA" d="M445,343c22.5-1,45-1.8,67.5-3.1c11.9-0.7,23.8-1.3,35.7-2c19-1.1,38-2.1,57-3c12.2-0.6,24.4-1.5,36.7-2
			c15-0.6,30-1.9,45-2.9c0.4,1.4-0.1,3,0.9,4.2c1.2,6.8,0.4,13.7,0.5,20.5c-0.4,0.9-0.9,1.7-1.9,2.1c-10.1,1.6-20.3,1.2-30.3,0.5
			c-13-0.9-25.9-0.7-38.9-0.7c-20.8,0.1-41.6-0.7-62.3-1.4c-26.6-0.9-53.2-1.5-79.8-2c-8.6-0.2-17.2-0.7-25.9-0.8
			c-1.5,0-3-0.2-4.3-1.1C443.1,348.6,443.1,345.8,445,343z"/>
		<path fill="#C5C0C0" d="M683.9,300c-8.5,1.3-16.9,2.7-25.4,4c-15.3,2.3-30.7,4.5-46,6.7c-14.9,2.1-29.7,4.2-44.6,6.3
			c-14.7,2.1-29.4,4.1-44.1,6.2c-12.6,1.8-25.1,3.9-37.7,5.7c-13.1,1.9-26.2,3.4-39.2,5.4c-1.9,0.3-2.7-0.2-3.7-1.3
			c-2.2-1.7-3.3-3.8-1.8-6.5c7.9-3.2,16.4-4.5,24.6-6.3c47.5-10.4,95.1-20.3,142.7-30.4c21.3-4.5,42.7-9,64-13.5
			c2.4-0.5,4.8-1.7,7.2-0.2c0.4,0.7,0.7,1.4,1.1,2.1c0,3.5,0.7,6.8,2,10.1C683.3,292.1,683.6,296.1,683.9,300z"/>
		<path fill="#C5C0B5" d="M435.2,389c10.4,3.5,20.1,8.6,30,13.2c23.2,10.8,46.2,22,69.3,33c32.2,15.3,64.5,30.6,96.8,45.9
			c7.3,3.5,14.8,6.8,22.1,10.2c0.7,0.3,1.1,1.2,1.7,1.8c-0.7,1.9-1.4,3.8-2.1,5.7c-2.3,4.1-4.6,8.1-6.9,12.2c-2.3,1.5-4.2-0.2-6-1.2
			c-18.2-9.8-36.4-19.5-54.5-29.4c-18.7-10.2-37.5-20.3-56.2-30.4c-23.9-12.9-47.7-25.8-71.6-38.7c-8.9-4.8-17.8-9.7-26.9-14.3
			C430.4,393.3,432.2,390.8,435.2,389z"/>
		<path fill="#C5B8B8" d="M686.8,375c-13.6-0.1-27.1-1.6-40.6-2.9c-10.7-1-21.5-1.3-32.2-2.1c-14.8-1.2-29.6-2.6-44.4-3.8
			c-9.9-0.8-19.8-1.3-29.7-2.2c-13.3-1.2-26.6-2.5-39.9-3.8c-4.4-0.5-8.9-0.4-13.4-0.8c-14.1-1.5-28.3-2.3-42.5-3.3
			c-1-1.1-0.9-2.2,0-3.4c0.6-0.3,1.2-0.5,1.8-0.5c2,0.3,4,0.4,6,0.4c20.1,0.1,40.2,1.7,60.2,2.7c15.4,0.8,30.9,1.5,46.3,2.3
			c14.9,0.8,29.9,1.4,44.8,2.6c7.6,0.6,15.3,0.7,22.9,1.1c18.6,1.1,37.2,1.8,55.7,3.2c1.8,0.1,3.7,0.2,5.1,1.6
			C686.9,369,686.8,372,686.8,375z"/>
		<path fill="#C5B9B9" d="M687,366c-16.7-0.9-33.4-1.3-50-2.9c-6.4-0.6-12.9-0.7-19.3-0.9c-16.4-0.3-32.8-1.7-49.2-2.4
			c-18.8-0.8-37.7-2-56.5-2.9c-12.1-0.6-24.2-1-36.2-2.2c-10.3-1-20.6,0.7-30.7-1.7c-0.6-0.7-0.5-1.3,0-2
			c25.4,0.2,50.8,0.7,76.3,1.3c22,0.5,44.1,1,66.1,2c19.3,0.9,38.6-0.2,57.8,0.9c13.9,0.8,27.9,0.7,41.8,0.9
			c1.5,2.4,1.3,4.8,0.1,7.2C687,364.1,687,365.1,687,366z"/>
		<path fill="#626160" d="M687.8,355c0-6.9,0.1-13.9,0.1-20.8c0-2.3,0-4.6,0-6.9c0.3,0,0.5,0,0.8,0c0,14.2,0,28.4,0,42.6
			c-0.1,0-0.3,0-0.4,0c-0.1-2.4-0.2-4.8-0.3-7.2C687.3,360.2,687.4,357.6,687.8,355z"/>
		<path fill="#C5B8B8" d="M687.8,355c0,2.6,0.1,5.2,0.1,7.7c-0.3,0.1-0.5,0.3-0.8,0.4c0-2.4,0-4.8-0.1-7.2
			C687.3,355.7,687.5,355.4,687.8,355z"/>
		<path fill="#686867" d="M686.9,318.3c-1.2-1.6-0.8-3.4-0.7-5.2C687.6,314.6,686.8,316.5,686.9,318.3z"/>
		<path fill="#DCDFDE" d="M23,451c-1.8-2-0.9-5.1-3-7c-2.8-13-6.4-25.8-8.5-39c-0.9-5.7-1.7-11.3-2.5-17c-0.3-9-2.2-17.9-2-27
			c0.6-0.3,1.1-0.2,1.5,0.4c1.7,2.8,2,6,1.8,9.1c-0.1,4.2,0.7,8.2,1,12.3c0.3,7.3,1.9,14.5,2.8,21.7c0.3,3.8,1.3,7.5,2,11.2
			c1.1,6.8,2.9,13.4,4.6,20c1,3.5,1.9,7.1,3,10.6C24.2,448,24.3,449.6,23,451z"/>
		<path fill="#DEE1E0" d="M11,298c0.8-13.6,4.3-26.8,7.9-39.8C21,250.7,22.4,243,26,236c0.4,0.4,0.7,0.8,0.9,1.3
			c-0.7,8.4-4.6,15.9-6.2,24.1c-0.1,0.6-0.3,1.3-0.5,1.9c-1.7,6-2.9,12.2-4.2,18.3c-0.8,3.1-1.4,6.3-1.8,9.4
			c-0.1,0.5-0.2,0.9-0.3,1.4c-0.6,1.5-0.8,3-1.1,4.5c-0.1,0.4-0.4,0.8-0.7,1.1C11.8,298.3,11.4,298.3,11,298z"/>
		<path fill="#DFE2E1" d="M11,298c0.3,0,0.7,0,1,0c0.7,0.7,0.8,1.5,0.7,2.4c-0.6,9-2.5,18-2.3,27.1c-0.1,2.6-0.3,5.1-1.9,7.3
			c-0.4,0.5-0.9,0.6-1.5,0.2C7.5,322.6,8,310.2,11,298z"/>
		<path fill="#DDDFDF" d="M48,184c3.3-1.7,2.7-6.3,6-8c0.1,0.2,0.3,0.4,0.4,0.6c0.4,1.6-0.3,3-1,4.2c-5.3,9-9.5,18.6-14.5,27.7
			c-0.3,0.4-0.7,0.6-1.2,0.8c-0.2-0.1-0.4-0.2-0.7-0.3c0.7-5.5,4.4-9.8,6.4-14.7C44.8,190.8,47.2,187.7,48,184z"/>
		<path fill="#D8D9D8" d="M7,335c0.3,0,0.7,0,1,0c2.7,3.7,1.2,7.9,1.5,11.9c0.2,1.9,0.1,3.9-0.1,5.9c-0.1,2.8,0.7,5.8-1.5,8.2
			l-0.5,0c0,0-0.5,0-0.5,0C7,352.3,7,343.7,7,335z"/>
		<path fill="#DDE0DF" d="M26,237c0-0.3,0-0.7,0-1c1.5-5.5,3.4-10.9,6-16c0.4,0.3,0.7,0.8,0.8,1.3c0.4,4-2,7.2-3,10.8
			C28.8,233.8,29.1,236.8,26,237z"/>
		<path fill="#DDDFDF" d="M34,216c0-2.8,1.2-5,3-7c0,0,0,0,0,0c1.2,1.3,0.8,2.6,0.2,4c-0.6,1.2-1.1,2.6-2.6,3.2
			C34.4,216.1,34.2,216.1,34,216z"/>
		<path fill="#DBDFDE" d="M32,221c0-0.3,0-0.7,0-1c0.2-1.6,0.7-3,2-4c0,0,0,0,0,0C35.3,218.4,35.1,220.3,32,221z"/>
		<path fill="#8F8F8E" d="M383,686.1c0.3,0.3,0.7,0.6,1,0.9c-5.8,2.1-12.1,0.2-18,2c-7.7,0-15.3,0-23,0c-4.3,0-8.7,0-13,0
			c0.4-2.7,2.7-2,4.4-2.4c13.8,0.2,27.6-0.9,41.3-1.1c1.9,0.1,3.9,0.2,5.8,0C382.1,685.5,382.6,685.7,383,686.1z"/>
		<path fill="#9B9C99" d="M334.1,688c-1.4,0.2-3-0.4-4,1c-3.7,0-7.3-1.6-11-1c-5.7-0.9-11.7,0.2-17-3c5.3-1.8,10.6-0.1,15.9-0.3
			c5.1,1.5,10.6-0.2,15.7,1.7C334.2,686.8,334.3,687.3,334.1,688z"/>
		<path fill="#ABABAB" d="M334,7c1.3,0,2.7,0,4,0c7,0,14,0,21,0c8-0.5,16,1.7,24,1c2.6,2.5,6.4-0.5,9,2c0.3,0.7,0.1,1.2-0.5,1.6
			c-7,1.2-13.9-0.6-20.8-1.2c-9.6-0.9-19.3-0.6-28.9-0.8c-2.5-0.1-5,0.3-7.3-0.9C333.9,8.2,333.7,7.7,334,7z"/>
		<path fill="#C5C4C4" d="M652.1,197c0.3,0,0.6,0.1,0.8,0.2c6.2,13.4,11.7,27.1,17.1,40.9c-0.2,3.2,2,5.8,2.2,8.9
			c-6.5,4.3-14.3,5.4-21.5,7.6c-51.7,16-103.4,31.9-155.1,47.8c-16.7,5.1-33.4,10.4-50.1,15.4c-2.2,0.7-4.4,1.7-6.7,0.1
			c-2.8-3.9-4.7-8-5.1-12.8c1.2-1.7,3.2-2.3,5-3.2c68.8-34.4,137.7-68.8,206.5-103.2C647.3,197.5,649.3,195.4,652.1,197z"/>
		<path fill="#C5C2C2" d="M439.1,317c4.5,1.5,8.4-1.3,12.3-2.4c29.2-8.8,58.3-18,87.5-27c43.6-13.5,87.2-26.9,130.8-40.3
			c0.8-0.2,1.6-0.2,2.5-0.3c3.6,9.4,5.9,19.2,7.7,29.1c-20.2,4.3-40.4,8.7-60.6,12.9c-23.6,5-47.2,10-70.8,15
			c-28.1,6-56.3,12-84.4,18c-7.6,1.6-15.2,3.3-22.8,5c-1.1-0.5-1.3-1.6-1.6-2.6C439.7,321.9,437.3,319.6,439.1,317z"/>
		<path fill="#C5C5C5" d="M652.1,197c-2,0.8-4,1.5-6,2.5c-68.8,34.4-137.7,68.8-206.5,103.2c-1.8,0.9-3.7,1.6-5.5,2.3
			c-1.9-0.3-2.6-1.9-3.4-3.3c-4.8-8.4-10.6-15.9-17.7-22.5c-1.2-1.1-2.4-2.3-2.7-4.1c0-2.6,1.8-4.2,3.3-6
			c14.6-17.2,28.9-34.7,43.6-51.8c1.8-2.1,3.4-4.5,4.9-6.9c0.5-0.6,1-1,1.7-1.4c19.4-6.6,38.5-14,56.8-23.3
			c26.9-13.7,51.6-30.4,72.1-52.7c3.1-3.4,5.3-7.7,9.3-10.2c0.9,0.8,1.9,1.6,2.8,2.3c5.3,6.7,10.7,13.3,16,20c4,5.7,8,11.4,12,17.1
			c5.7,10.1,12.2,19.7,17.2,30.3C650.8,193.9,651.4,195.4,652.1,197z"/>
		<path fill="#CECDCE" d="M602.1,122.8c-1.7,3.8-4.6,6.9-7.4,9.9c-18.4,20.1-40,36-64,49.1c-21.4,11.6-43.6,20.9-66.7,28.2
			c-0.8-2.9,1.1-4.8,2.6-6.6c24.6-30,49-60.1,73.7-90c6.8-8.2,13.3-16.6,20.4-24.6c1-1.1,1.7-2.5,3.3-2.8c3.3,2.7,6.6,5.4,10,8.1
			c6.7,6.3,13.3,12.7,20,19C596.4,116.6,600.1,119,602.1,122.8z"/>
		<path fill="#D1C8D0" d="M490,39.2c4.7,2.2,9.3,4.5,14,6.7c3,1.7,6,3.4,9,5.1c1.5,2.8-0.6,4.8-1.7,6.8
			c-9.7,17.6-20.3,34.7-32.7,50.7c-3.2,4.1-6.3,8.2-8.8,12.7c-7.9,11.1-16.1,22-23.6,33.4c-3.7,5.7-7,11.7-10.5,17.5
			c-0.9,1.5-1.4,3.4-3.4,4.2c-2.8,0.2-3.4,3-5.1,4.4c-1.4,1.2-2.9,2.6-4.8,1.5c-2.1-1.2-1.2-3.2-0.5-4.9
			c5.4-13.8,11.9-27.1,17.8-40.6c7.4-16.9,15-33.6,22.5-50.5c0.8-1.8,2-3.5,1.2-5.7c-0.3-1.8,0.8-3.1,1.7-4.5
			c6.3-10.2,12.8-20.4,20.2-29.9C487.1,44,488,41.3,490,39.2z"/>
		<path fill="#D0C9CF" d="M469,121c4.1-9,11-16,16.6-24c10.2-14.7,19.9-29.7,27.4-46c5.3,3,10.6,6,16,9.1c0.7,0.6,1.4,1.2,2.1,1.8
			c-0.1,3.2-2,5.6-3.7,8.1c-27.3,42.4-54.3,84.9-81.4,127.4c-4.5,7.1-9.4,14.1-12.3,22.1c-3,1.2-6.1,2.5-9.5,1.9
			c-3.1-3.8-0.4-6.9,1.4-10c9.9-17.7,20.6-35,31-52.4c15.9-26.4,31.5-52.9,47.6-79.1c0.6-1,1.2-2,1.6-2.4
			c-8.5,12.4-18,24.7-27.4,37.3C476.2,118.1,473.6,121.3,469,121z"/>
		<path fill="#D3C3D2" d="M419,15.1c6,1.6,12,3.2,18.1,4.8c1,0.4,2,0.7,3,1.1c1.7,2.2,0.5,4.5-0.1,6.7
			c-5.1,18.5-10.4,36.9-15.4,55.4c-0.6,2.3-1.3,4.5-1.2,6.9c-3.6,15.4-8.5,30.4-12.7,45.7c-2.3,8.5-4.8,17-7.3,25.5
			c-0.6,1.9-1,3.9-2.4,5.4c-0.4,0.5-1,0.9-1.5,1.3c-1.3,1-2.7,2.4-4.4,1.1c-1.6-1.2-1.1-3-0.7-4.6c1.7-7.1,3.4-14.2,5.4-21.3
			c2.7-9.9,5.2-19.9,7.6-30.3c-3.1-0.4-4.2,1.6-5.5,3.2c-3.3,4-6.2,8.2-9.3,12.4c-1,1.4-2.3,3.4-4.3,2.5c-1.9-0.9-1.5-3.2-1.2-5
			c1.9-12.2,4.3-24.3,6.2-36.4c0.3-1.8,0.9-3.5,0.4-5.4c-1.6,0.2-2.2,1.6-2.9,2.6c-13.5,19.1-28.5,36.9-42.5,55.6
			c-1.8,2.4-3.3,5-5.4,7.2c-1.3,1.3-2.6,3.1-4.5,2.6c-2.2-0.6-2.6-3-2.5-5c0.3-7.8-1.4-15.6-1.2-23.4c0.1-1.8,0.5-3.7-0.9-5.6
			c-3.8,2-4.6,7.5-9.3,8.3c-2.1-1.9-0.2-3.3,0.7-4.6c25.4-34.4,50.6-69,76.1-103.4c1.4-1.9,2.8-3.7,4.7-5.1
			C410.3,13.8,414.6,14.4,419,15.1z"/>
		<path fill="#D3C5D3" d="M406,13.1c-4.2,7.5-9.7,14.1-14.8,21c-10.9,15-22.1,29.7-33.1,44.6c-11.1,15-22.2,30-33.3,45
			c-0.5,0.6-0.6,1.5-0.9,2.3c1.6,8.6,4,17.2,0.9,26.1c-0.6,1.7-0.4,3.6-0.1,5.5c1.4,8.7,2.9,17.5,3.3,26.3
			c0.6,11.6,1.2,23.1,2.2,34.7c0.5,5.4,2.3,10.8,1.1,16.3c-0.6,0.8-1.4,1-2.4,1c-0.6-0.1-1.1-0.4-1.5-0.8c-2-4.7-2.8-9.6-2.9-14.6
			c-0.4-11.1-1.7-22.2-3.4-33.2c-1.4-9.1-3.2-18.3-2.9-27.2c0.4-15.8-3-31.1-4.5-46.6c-0.1-1-0.3-2,0-3c3.2-13.3-0.6-26.4-1.5-39.6
			c-0.2-2.3-0.9-4.8,0.3-6.9c2.7-5.1,2.9-10.4,2.1-16c-1-6.9,2.5-12.7,6-18.1c3.2-4.9,5.1-9.6,4-15.4c-0.3-1.8-0.1-3.7,0.9-5.3
			c2.6-1.9,5.6-0.8,8.4-1.1c17.1-0.4,34.1,0.2,51.2,2c2.3,0.2,4.5,1.4,6.9,0.9c1.7-0.1,3.5-0.2,5,1C400,12.3,403,12.7,406,13.1z"/>
		<path fill="#A3A3A3" d="M397,11.9c-1.8,0.2-3.5,0.1-5-1c0-0.3,0-0.6,0-0.9c1.7,0,3.3,0,5,0C397,10.6,397,11.3,397,11.9z"/>
		<path fill="#CFCBCF" d="M434,219c-1.3-5.1,2.5-8.4,4.8-12c24.1-38.1,48.4-76,72.7-114c6.6-10.3,13.1-20.7,19.7-31
			c6.2,2.9,11.2,7.6,16.9,11.2c4,3,8,6,12,9c1.4,1.3,2.7,2.6,4.1,3.8c-9.4,11.6-18.8,23.1-28.2,34.7c-8.3,10.1-16.6,20.3-24.9,30.4
			c-10,12.2-20.1,24.2-29.9,36.5c-5.9,7.4-12.8,13.9-17.1,22.5c-0.3,0.3-0.7,0.7-1,1C453.8,215.5,444.3,218.6,434,219z"/>
		<path fill="#D2C7D1" d="M422,90c1-9.8,4.6-18.9,7-28.3c3.5-13.6,7.3-27.1,11-40.7c5.9,0.7,11.2,3.7,17,4.9c7,2.6,14,5.3,21,7.9
			c3,1.4,5.6,3.6,9,3.9c1,0.5,2,0.9,3,1.4c-1,6.4-5.9,10.6-9.4,15.5c-6,8.5-11.5,17.2-16.6,26.3c-1.5,5.7-5.8,9.6-9.3,14
			c-12.3,15.5-23.9,31.5-36.2,47c-1.2,1.6-2.4,3.2-4,4.4c-0.9,0.7-2,1.4-3.2,0.8c-1.2-0.6-1.3-1.8-1.4-3c-0.1-1.2,0.2-2.3,0.6-3.4
			c5.9-18.2,11.4-36.5,17.3-54.9C425.9,87.5,425.1,90.5,422,90z"/>
		<path fill="#C5C2B5" d="M431,397c1.6-0.9,2.8-0.1,4.1,0.7c13.5,7.4,27,14.9,40.6,22.2c28.4,15.4,56.9,30.8,85.4,46.2
			c19.1,10.3,38.3,20.6,57.5,30.8c9.1,4.8,17.7,10.6,27.3,14.2c-7.5,13.9-16,27-25,39.9c-6.8,7.6-12.2,16.3-19.7,23.2
			c-1.8,0.7-2.8-0.7-3.9-1.6c-16.8-14.9-33.4-30.1-50.2-45c-17.9-15.9-35.7-31.9-53.6-47.9c-14.7-13.2-29.5-26.4-44.2-39.7
			c-7.7-7.1-15.4-14.2-23.5-20.9c-2.4-2-4.9-4-6.3-7C422.6,406.3,425.4,400.7,431,397z"/>
		<path fill="#C5C5B5" d="M420,412c10.6,9.5,21.3,19,31.9,28.4c15.1,13.5,30.2,26.9,45.3,40.4c7.2,6.4,14.3,12.9,21.4,19.3
			c15.6,13.9,31.2,27.8,46.7,41.8c7.8,7,15.4,14.1,23.2,21.1c4.2,3.8,8.5,7.4,12.7,11.1c-2.1,2.3-4.2,4.5-6.3,6.8
			c-4.5,4.7-8.9,9.4-13.5,14c-2.4,2.4-5,4.7-7.5,7c-7.3,6-14.6,12.1-22,18.1c-8.3,5.7-16.7,11.4-25,17c-5.7,3.3-11.3,6.6-17,9.9
			c-5.3,2.7-10.7,5.4-16,8.1c-9.7,4-19.3,8-29,12.1c-9.3,3-18.7,6-28,9c-3.7,0.9-7.3,1.8-11,2.7c-2.4-1.7-2.7-4.5-3.2-7.1
			c-6.7-29.4-13.5-58.7-20.2-88.1c-10.4-45.6-21-91.1-31.4-136.7c-0.3-1.5-0.9-2.8-1.4-4.3c-0.2-3.3,2.6-3,4.4-3.5
			c12.1-3.5,22.9-9.4,32.9-17c2.9-2.2,5.3-5,8-7.4C416.5,413.4,417.6,411.4,420,412z"/>
		<path fill="#C5C5B7" d="M369.9,442c2.8,0.2,2.2,2.7,2.6,4.2c4.9,20.6,9.6,41.2,14.4,61.9c4.6,20.2,9.2,40.3,13.9,60.5
			c8.1,35.5,16.2,71,24.3,106.4c0.3,1.3,0.7,2.6,1,3.8c-1.3,0.4-3-0.2-4.1,1.2c-3.4,1.7-7,2.5-10.9,2.1c-9.4,1.1-18.6,3.6-28,4
			c-0.3,0-0.7,0-1,0c-1.5,0.5-3,0.8-4.4-0.2c-3.3-6.2-2.3-13-3-19.5c-2-21.5-3.9-43.1-5.7-64.6c-1.5-17.6-3-35.1-4.5-52.7
			c-1.8-20.5-3.5-41.1-5.4-61.6c-1.2-12.8-2.1-25.5-3.4-38.3c-0.2-1.7,0-3.3,0.7-4.9C360.4,440.9,365,440.2,369.9,442z"/>
		<path fill="#878784" d="M411,682.1c3.6-0.7,7.3-1.4,10.9-2.1c0.7,0.1,1.5,0.1,2.5,0.2c-1.1,1.2-2.8,0.4-3.4,1.8
			C417.7,681,414.4,684.6,411,682.1z"/>
		<path fill="#ECF2F6" d="M65,159c0.3-0.7,0.7-1.3,1-2c3.3-4.7,6.6-9.4,10-14.1l0,0c3.4-3.9,5.9-8.6,10.1-11.8
			c5.9,1.2,9.2,6.3,13.7,9.5c2.5,1.8,4.6,3.7,7.9,3.5c1.9-0.1,3.5,1,4.9,2.3c23.9,20.5,48,40.6,72.1,60.9c23,19.4,46,38.9,69,58.3
			c4.8,4.1,9.5,8.3,14.4,12.3c4.4,3.6,3.1,8.4,2.8,13c-0.8,1.8-1.5,3.8-3.8,4.2c-22.4-14.6-44.8-29.3-67.1-44
			c-29.4-19.4-59.1-38.6-88.6-57.8c-6.7-4.4-13.3-8.9-20-13.2c-6-3.9-7.7-3.9-12.4,1.3c-2.9,3.2-5.6,3.6-9.1,1.2
			c-3.2-2.1-6.6-3.9-9.8-5.9c-1.5-1-3.3-1.7-3.7-3.8c0-0.8,0.2-1.5,0.7-2.1l0,0C59.6,167,62.1,162.8,65,159z"/>
		<path fill="#DADCDC" d="M86,132c-3.9,3.1-5.7,8.3-10,11c0.7-3.3,3.7-5.1,5-8c6.7-7.7,13.3-15.3,20-23c6.3-6,12.7-12,19-18
			c0.6,0.3,1.3,0.7,1.3,1.5c-3.1,4.1-7.1,7.4-10.7,11.1c-7.3,7.3-14.5,14.7-21,22.7C88.5,130.5,87.2,131.2,86,132z"/>
		<path fill="#DADCDC" d="M76,143c-2.5,5.3-5.9,9.9-10,14.1C68.3,151.7,71.7,147,76,143z"/>
		<path fill="#DDDFDF" d="M65,159c-1.9,4.5-4.6,8.5-8,12C58.8,166.4,60.9,162.1,65,159z"/>
		<path fill="#DDDFDF" d="M57,171c0,0.7,0,1.3,0,2c-0.7,1.3-0.4,3.6-3,3c0,0,0,0,0,0C54.4,173.9,55,172,57,171z"/>
		<path fill="#D6D7D8" d="M121,95c-0.3-0.3-0.7-0.7-1-1c1.7-1,3-2.3,4-4c1-0.3,2-0.7,3-1c0.1,0.2,0.2,0.4,0.2,0.6
			c-0.2,1.2-0.9,2.1-1.7,2.9C124.1,93.6,123.3,95.7,121,95z"/>
		<path fill="#CDCCCD" d="M185,49.1c3.6-4.1,9.1-5.1,13.6-7.8c2.7-1.6,5.6-2.8,8.4-4.2c4.7-2,9.3-4,14-6c0.5,0.5,1.3,0.6,1.3,1.5
			c-0.1,0.5-0.3,0.9-0.7,1.2c-4,1.9-8.2,3.3-12.1,5.4c-3.5,1.3-6.9,2.8-10.2,4.6c-2.1,1-4.2,2-6.3,3.2
			C190.4,47.6,188.3,50.5,185,49.1z"/>
		<path fill="#C8C7C8" d="M232,27c4.7-1.7,9.3-3.3,14-5c0.3,0.4,0.5,0.8,0.4,1.3c-1.3,2.5-4.2,2.3-6.2,3.5c-2.6,1.1-5.4,1.9-8,2.9
			c-1.8,0.5-3.6,1.5-5.6,0.7c-0.2-0.2-0.4-0.3-0.5-0.5C227.5,28,230.1,28.2,232,27z"/>
		<path fill="#C8C7C8" d="M222,32c-0.3-0.3-0.7-0.7-1-1c1.7-0.3,3.3-0.7,5-1c0,0,0,0,0,0C225.6,32.6,224.2,33,222,32z"/>
		<path fill="#D3D3D4" d="M166,59c6-3.3,12-6.7,18-10c0,0.3,0,0.7,0,1c0.4,1.5-0.9,1.9-1.7,2.6c-2.4,1.1-4.6,2.7-6.9,4
			c-0.8,0.4-1.6,0.8-2.3,1.2c-2.7,1.5-5.1,3.4-7.8,4.9c-2.1,1.1-4.1,2.6-6,4c-2.9,1.5-4.9,4.8-8.7,4.8c-0.2-0.1-0.4-0.3-0.5-0.4
			C154.4,65.7,160.7,63.1,166,59z"/>
		<path fill="#D3D3D4" d="M143,76c0-0.3,0-0.7,0-1c2.4-1.2,4.2-3.5,7-4c0,0,0,0,0,0c0.2,0.2,0.3,0.5,0.3,0.8c0,0.3,0,0.5-0.1,0.5
			c-1.7,2.2-3.7,4.1-6.7,4.1C143.4,76.3,143.2,76.1,143,76z"/>
		<path fill="#E2DEED" d="M182,52c0.7-0.7,1.3-1.3,2-2c0.3-0.3,0.7-0.6,1-0.9c2.7-1,5.3-2,8-3.1c3.6,0,4.4,3.1,4.7,5.4
			c1.4,10.3,7.3,18.5,11.8,27.3c8.2,16,17.6,31.5,24.3,48.1c5.4,13.4,11.8,26.3,18,39.3c10.3,21.8,22.3,42.8,33.9,63.9
			c0.5,2.4,2.3,4.7,1.1,7.4c-1.4,1-3,0.9-4.5,0.3c-4.9-4.6-6.2-11.3-9.5-16.8c-13.8-23-26.6-46.5-40-69.7
			c-4.4-7.7-6.3-16.8-11.7-24.1c-5.6-7.7-6.7-17.3-11.5-25.3c-8.6-14.2-14.6-29.9-23.2-44.1C185,55.4,183.1,54.1,182,52z"/>
		<path fill="#D3D3D4" d="M127,89c4.5-5.4,9.8-9.7,16-13c0,0,0,0,0,0c0.5,1-0.1,1.7-0.6,2.5c-1.5,1.7-3.6,2.7-5.2,4.4
			c-2,1.7-4.1,3.2-6.1,4.9C130.1,88.9,128.9,90.3,127,89L127,89z"/>
		<path fill="#BAB9B9" d="M334,8c-2.5,1.5-5.3,0.8-8,1c-3.7,2.3-7.9,2.2-12,2.4c-2,0.1-3.9,0.4-5.9,0.7c-4.9-0.2-9.8,2.4-14.8,0.4
			c-0.6-0.4-0.7-0.9-0.4-1.5c7.7-1,15.3-2,23-3c6,0.4,12-1.7,18-1C334,7.3,334,7.7,334,8z"/>
		<path fill="#BEBDBD" d="M293,11c0,0.3,0,0.7,0,1c0.2,1.5-0.9,1.7-1.9,2.1c-2.3,0.4-4.5,0.9-6.8,1.3c-2.7,0.5-5.4,1.1-8.2,1.6
			c-1,0.2-2.1,0.2-3.1-0.2c-0.7-0.4-1.4-0.8-1.1-1.8c0,0,0,0,0,0c6.4-0.8,12.7-2.4,19-4C291.7,11,292.3,11,293,11z"/>
		<path fill="#C4C3C4" d="M246,23c0-0.3,0-0.7,0-1c2.7-0.7,5.3-1.4,8-2c2.1,0.1,3.8-2.1,6-1c0.1,2.3-1.9,2.2-3.3,2.9
			C253.2,22.2,249.9,25.4,246,23z"/>
		<path fill="#D9CEDC" d="M257,21c1-0.7,2-1.3,3-2c1,0,2,0,3,0c1.3-1.1,2.7-1.9,4.5-1.1c3.1,4.4,4.1,9.4,3.4,14.6
			c-0.5,3.7-0.4,7.3,0.6,10.8c0.9,3.1,1.3,6.1,0.5,9.3c-0.7,2.5,0.3,4.9,1,7.3c3.1,11.1,6.6,22.1,8.7,33.3
			c1.4,7.6,3.3,15.2,2.9,23.1c-0.1,1.9,0.4,3.6,0.9,5.4c3.2,11.2,7.2,22.2,9.4,33.6c3.2,16.5,8.9,32.4,12.5,48.7
			c1.7,7.4,3.4,14.9,5.2,22.3c0.8,3.1,2.1,6.4,0.5,9.7c-1,0.8-2,0.9-3.1,0.4c-1.8-1.3-2-3.4-2.7-5.2c-7.2-20.4-11.6-41.6-17.7-62.3
			c-2.6-8.9-5.6-17.9-6.9-27c-1.2-8.9-4.3-17.2-5.2-26.3c-1-9.9-5-19.6-7.8-29.4c-1.6-5.6-3.4-11-2.9-17.1c0.4-4.3-1.9-8.4-3-12.5
			c-2.3-8.2-4.6-16.3-7-24.5C255.8,28.4,255.4,24.7,257,21z"/>
		<path fill="#C1C0C1" d="M267,18c-1.3,0.3-2.7,0.6-4,1c1.9-3.8,6.3-2.1,9-4c0.3,0.3,0.7,0.7,1,1C271.9,19.3,269.3,18.4,267,18z"/>
		<path fill="#DBE9E8" d="M23,451c0-1.7,0-3.3,0-5c5.5-5.7,11.7-10.1,19.7-11.9c8.6-1.9,17.5-3.7,25.4-7.3
			c10.7-4.9,22-7.7,33.1-11.1c2.9-0.9,5.8-1.5,8.7-2.3c7.5-2,15-4.1,21.8-8.4c7-4.4,15.4-5.1,23.3-7.3c21.3-6,42.4-12.7,64-17.9
			c1.6-0.4,3.3-0.9,4.5-2c3.5-3.1,7.8-4.4,12.2-5.4c3-0.7,5.7-1.8,8.1-3.7c0.6-0.2,1.1,0,1.5,0.3c1.2,1.8,1,3.7,0.9,5.7
			c-0.1,0.8-0.4,1.6-0.8,2.3c-4.5,3.2-9.9,3.6-15,5.1c-3.2,0.9-6.3,1.9-8.8,4.3c-2.7,2.5-6.2,3.9-9.7,5
			c-26.3,8.2-52.8,16.2-79.2,24.1c-5.1,1.5-9.4,4.2-13,8c-3.3,3.5-7.2,5.7-11.8,7.2c-8.7,2.9-17.3,5.8-26,8.6
			c-2.7,0.9-5.4,2-7.2,4.2c-3.8,4.5-8.7,7.1-14.1,8.9c-9.6,3.2-19.1,6.9-28.7,10c-1.2,0.4-2.5,1-3.8,0.4c-0.7-1.3-1.3-2.7-2-4
			c-1-1.9-1.2-4.1-2-6C24,452.2,23.8,451.4,23,451z"/>
		<path fill="#DAE8E7" d="M28,463c12.2-4.4,24.3-8.9,36.5-13.3c2.4-0.9,4.6-1.9,6.2-3.9c3.6-4.5,8.2-7.1,13.7-8.5
			c4.7-1.2,9.2-2.9,13.8-4.5c8.6-2.9,17.2-5.4,23.7-12.8c6-6.7,15.6-6.9,23.7-9.6c18.6-6.1,37.4-11.5,56.1-17.3
			c7.9-2.4,15.4-4.9,22.5-10c5.5-4,13.7-4.2,20.8-6.1c2,4.4-1.5,5.7-4.3,6.7c-4.9,1.7-9.8,3.2-14.7,4.8c-2.4,0.8-4.8,1.5-6.7,3.2
			c-5.2,4.8-11.6,7-18.1,9c-8.8,2.7-17.2,6.2-25.9,9c-2.4,0.8-4.9,1.7-6.6,3.5c-5.6,6-13.2,8.2-20.5,10.8c-11,3.9-21.8,8.3-32.8,12
			c-1.6,0.5-3.2,1-4.6,2c-11.3,8.1-24.8,11.1-37.4,16.2c-4.8,1.9-9.4,4-12.3,8.2c-4.4,6.5-11,9.3-17.9,12c-2.9,1.2-5.8,2.6-9,3
			c-3-0.9-2.3-4.1-3.6-6c-1.2-2-1.4-4.5-2.6-6.5C26.9,464.3,27.9,463.7,28,463z"/>
		<path fill="#D7DAD8" d="M31,471c1.2,1.9,1,4.5,3,6c0.8,0.7,0.8,1.6,0.5,2.5c-0.2,0.2-0.3,0.3-0.5,0.5c-0.7-0.7-1.3-1.3-2-2
			c-0.7-2.3-1.3-4.7-2-7C30.3,470.6,30.7,470.6,31,471z"/>
		<path fill="#D7DAD9" d="M31,471c-0.3,0-0.7,0-1,0c-1.5-1.7-1.9-3.8-2-6C30,466.5,29.8,469.1,31,471z"/>
		<path fill="#D8DADA" d="M24,453c1.5,1.7,1.9,3.8,2,6C24.1,457.4,23.9,455.2,24,453z"/>
		<path fill="#C9CBCA" d="M120,602c-1.3-1-2.7-2-4-3c-5.6-6.4-11.6-12.4-18-18c-0.9-2.3-3.9-3.2-4-6c0.2-0.1,0.4-0.2,0.7-0.2
			c1.7,0.3,2.8,1.6,4,2.7c5.6,5.7,11.2,11.3,16.9,16.9c1.7,2.1,4.3,3.5,5.1,6.4C120.5,601.3,120.4,601.7,120,602z"/>
		<path fill="#CFD1D0" d="M76,555c-0.6-2.2-2.8-3.6-3-6c0.4-0.3,0.8-0.3,1.3-0.2c2.4,2.1,4.8,4.2,5.1,7.7c-0.1,0.2-0.3,0.4-0.4,0.5
			C78,556.3,77,555.7,76,555z"/>
		<path fill="#CDD0CE" d="M94,575c-2.4-2-5.2-3.6-6-7c0.2-0.1,0.5-0.2,0.7-0.2C91.5,569.4,94.8,570.7,94,575L94,575z"/>
		<path fill="#CDD0CE" d="M88,568c-2.1-1.6-4.5-3-5-6c0.2-0.1,0.5-0.2,0.7-0.2c1.3,0.2,2.2,1,3,1.8C87.7,564.9,89.4,566,88,568
			L88,568z"/>
		<path fill="#CDD0CE" d="M83,562c-1.9-1.2-3.7-2.5-4-5c0,0,0,0,0,0c0.4-0.3,0.9-0.4,1.4-0.2C82,558.1,84.4,559.1,83,562L83,562z"/>
		<path fill="#D5D8D7" d="M50,513c-2.9-1.5-2.6-5.2-5-7c-1.4-4.8-4.2-8.9-6.2-13.4c-0.8-1.8-2-3.4-1.8-5.6c0.2-0.1,0.5-0.1,0.7-0.2
			c3.9,3.4,4.8,8.5,7.4,12.6c1.6,4.4,5.2,8,5.4,12.9C50.3,512.6,50.1,512.8,50,513z"/>
		<path fill="#D6D9D8" d="M37,487c-1.8-2-3-4.2-3-7c0,0,0,0,0,0C37.6,481.2,38.5,483.6,37,487L37,487z"/>
		<path fill="#C7CBC3" d="M250,673c-9.7-2-18.6-6.2-28-9c-2.9-1.1-6.3-1.1-8.4-4c31.3-75,63.6-149.5,95.4-224.3
			c4.5-0.4,7.9,2,11.4,4.4c1.2,2.3,0.2,4.6-0.5,6.8c-10.2,33.5-20.1,67-30.2,100.5C278,586.7,265.9,626,254,665.3
			C253.2,668.1,253.1,671.4,250,673z"/>
		<path fill="#C7CAC0" d="M250,673c5.3-16.9,10.6-33.9,15.8-50.8c5.4-17.8,10.8-35.5,16.1-53.3c9.8-32.7,19.5-65.4,29.3-98.2
			c2.6-8.6,5.2-17.1,7.9-25.7c0.5-1.6,1-3.2,0.8-4.9c1.5-1.5,2.9-0.4,4.4,0.1c1,0.5,1.9,1.1,2.2,2.3c-0.6,8.5-3.3,16.6-5.3,24.8
			c-13.1,53.7-25.8,107.4-38.9,161.1c-3.6,14.7-7.2,29.4-10.6,44.2c-0.5,2.2-0.8,4.6-2.5,6.5c-0.8,0.5-1.6,0.6-2.3-0.1
			c-1-1.5-2.6-0.8-4-1c-2.9-1.3-6.2-1.5-9-3C252.7,674.3,251.3,673.7,250,673z"/>
		<path fill="#B3B4B2" d="M214,660c2.7,1.3,5.3,2.7,8,4c-0.3,0.3-0.7,0.7-1,1c-4.3-2-8.7-4-13-6c-6.7-2.3-12.6-6.1-19-9
			c-0.4-0.5-0.4-0.9,0.1-1.3c0.5-0.2,1-0.5,1.4-0.3C198.5,651.9,206.7,655,214,660z"/>
		<path fill="#A2A3A0" d="M267,679c0.7,0,1.3,0,2-0.1c1.1-0.9,2.4-1.1,3.8-0.8c7.9,1.8,15.9,3,23.8,4.8c0.8,0.2,1.5,0.6,2.1,1.3
			c0.1,0.3,0.2,0.5,0.3,0.8c-1.7,1.8-3.3-0.7-5,0c-7.3-1.3-14.7-2.7-22-4C270.6,679.7,268.3,680.6,267,679z"/>
		<path fill="#A7A8A6" d="M254,675c3.1,0.7,6.5,0.6,9,3c-3.6,0.3-6.7-1.7-10.1-2.4c0-0.1,0-0.3,0.1-0.4
			C253.4,675.1,253.7,675.1,254,675z"/>
		<path fill="#D4E1DF" d="M74,549c-0.3,0-0.7,0-1,0c0,0,0,0,0,0c-0.9-1.4-2.1-2.6-3-4c-0.7-1-1.3-2-2-3c-1.6-2.6-4.1-4.7-4.7-8
			c0.5-2.2,2.7-2.6,4.1-3.9c10.2-7.1,20.4-14.2,31.4-20.1c2.8-0.4,5.6-1.1,7.9-2.7c14.9-10.5,31.1-19.2,45.2-31
			c1.9-1.6,3.7-3.4,5.6-4.9c12.2-9.8,25.8-17.6,38.8-26.2c1-0.6,2-1.2,2.8-2c10.6-11.1,24.5-17.6,36.8-26.3c2.7-1.9,5.6-3.6,7.7-6.3
			c0.8-1.1,1.9-2.5,3.7-1.3c0.9,1.4,0.8,2.9,0.5,4.4c-0.4,1.4-0.6,3-1.4,4.3c-12.8,8.4-25.9,16.3-38,25.7
			c-9.4,7.3-17.5,16.3-27.3,23.2c-8.5,6-18,10.9-25.8,17.8c-17.9,15.8-38,28.5-57.5,42.1c-5.6,3.9-9.3,9.4-13.5,14.5
			c-1.9,2.3-3.8,4.6-6.1,6.6C77.1,548.9,75.9,550.3,74,549z"/>
		<path fill="#D6E3E1" d="M99,511c-10.3,6.7-20.7,13.3-31,20c-2.3,0.8-4.7,1.9-7,0c-0.3-0.3-0.7-0.7-1-1c-1-1.6-2.1-3.2-2.5-5.1
			c5.6-7,11.9-13.3,19.7-18.1c12.9-7.9,26.1-15.3,38.8-23.6c0.6-0.4,1.2-0.5,1.9-0.6c2.4,0.7,4.1-0.7,5.9-1.8
			c11.1-6.6,22.1-13.3,33.1-19.9c1.9-1.1,3.7-2.9,6.3-2c0,6.1-4.3,9.5-8.6,12.4c-13.1,8.6-26.2,17-39.5,25.2
			c-4.5,2.8-8.3,6-11.4,10.2C102.5,508.6,101,510,99,511z"/>
		<path fill="#D3D5D4" d="M58,525c0.7,1.7,1.3,3.3,2,5c-0.3,0-0.7,0-1,0c-1.5-3.4-4.4-6.1-5-10c0.2-0.1,0.4-0.2,0.6-0.2
			C57.3,520.5,57.3,523,58,525z"/>
		<path fill="#D2D4D3" d="M64,534c0.4,3.2,3.7,4.8,4,8c-3.1-2.3-5.1-5.3-6-9C63.1,532.5,63.5,533.2,64,534z"/>
		<path fill="#D6E3E1" d="M64,534c-0.7-0.3-1.3-0.7-2-1c-0.8-0.4-1-1.2-1-2c2.3,0,4.7,0,7,0C66.7,532,65.3,533,64,534z"/>
		<path fill="#D0D2D1" d="M70,545c1.6,0.9,2.9,2,3,4C71.4,548.1,70.1,547,70,545z"/>
		<path fill="#D3D6D5" d="M54,520c-2.5-1.7-3.3-4.3-4-7c0,0,0,0,0,0c1.6-0.5,2.2,0.6,3,1.6C53.7,516.3,55.5,517.9,54,520L54,520z"/>
		<path fill="#C6C8BD" d="M318,686c-5.4,0-10.7,0.2-16-1c-1,0-2,0-3,0c0,0,0-0.1,0-0.1c-1.5-1.9-1.1-4.1-0.8-6.2
			c7.3-50,14.6-99.9,21.8-149.9c3.8-26.5,7.4-53.1,11.4-79.7c0.3-2.1,0.4-4.3,2-6.1c1-0.9,2.2-1.1,3.4-0.9c1.5,0.4,3,0.8,3.9,2.3
			c2,7.3-0.1,14.6-0.7,21.8c-1.6,20.4-3.6,40.7-5.5,61.1c-2.1,23.3-4.3,46.7-6.5,70c-1.9,20-3.7,40.1-5.5,60.1
			c-0.7,7.9-1.6,15.9-2.1,23.8C320.2,683.2,319.7,684.9,318,686z"/>
		<path fill="#B9BBB9" d="M189,649c0,0.3,0,0.7,0,1c-0.3,0-0.7,0-1,0c-4.3-3.2-9.1-5.8-14-8c-3.4-3-8.1-4.3-11-8
			c0.2-0.1,0.4-0.3,0.6-0.4c5.3,0.3,8.5,4.7,13,6.6c2,0.8,3.7,2.2,5.6,3.1C184.5,645.1,188.1,645.5,189,649z"/>
		<path fill="#C4C7C5" d="M120,602c0-0.3,0-0.7,0-1c2.7-1.4,3.8,1.2,5.5,2.3c1.1,1.2,2.5,2.3,2.8,4.1c-0.1,0.2-0.2,0.4-0.2,0.7
			C124.2,607.4,123.1,603.4,120,602z"/>
		<path fill="#C2C5C3" d="M134,613c-1-0.3-2-0.7-3-1c-1-1.3-2-2.7-3-4c0,0,0,0,0,0c3.8-1.1,4.9,1.8,6.2,4.3
			C134.2,612.5,134.1,612.8,134,613z"/>
		<path fill="#BEC1BF" d="M157,631c-3.7-2.7-7.3-5.3-11-8c-1-0.7-2-1.4-3-2c-0.3-0.3-0.3-0.6-0.2-0.8c0.1-0.3,0.2-0.4,0.3-0.4
			c6.3,1.1,10.7,5.1,14.5,9.9C157.5,630.2,157.4,630.6,157,631z"/>
		<path fill="#C1C3C2" d="M139,617c-2.5-0.3-3.7-2.2-5-4c0,0,0,0,0,0c3.5-1,5,1.1,6.2,3.9C139.9,617.4,139.4,617.4,139,617z"/>
		<path fill="#C0C2C0" d="M139,617c0.3,0,0.7,0,1,0c2.2-0.2,3.2,0.8,3,3c0,0.3,0,0.7,0,1C141.3,620,140,618.7,139,617z"/>
		<path fill="#BCBEBC" d="M157,631c0-0.3,0-0.7,0-1c1.2-1.1,2.3-0.3,3.3,0.2c1.2,1,3.2,1.5,2.7,3.8c0,0,0,0,0,0c-0.7,0-1.3,0-2,0
			C159.7,633,158.3,632,157,631z"/>
		<path fill="#817A7A" d="M440.9,324c0.1,1,0.2,2,0.4,3c0.6,2,1.2,4,1.9,6c0.3,3.3,0.7,6.7,1,10c0.6,3.3,0.5,6.7,0,10
			c0,1-0.1,2-0.1,3c-1,5.3-1.9,10.7-2.9,16c-0.4,1-0.8,2-1.2,3c-1.1,0.8-2.2,0.9-3.2-0.1c-0.5-1.3-0.3-2.6,0-3.9
			c3.8-14.7,3.9-29.4,0.5-44.2c-0.3-1.1-0.3-2.3,0.2-3.4C438.9,321.7,439.9,322.5,440.9,324z"/>
		<path fill="#807F75" d="M437.3,375c0.9,0,1.8,0,2.7,0c-0.6,2.3-1.2,4.7-1.8,7c-1,2.3-2,4.7-3,7c-1.4,2.7-2.8,5.3-4.2,8
			c-3.7,5-7.3,10-11,15c-7.7,7.3-15.5,14.4-24.9,19.7c-8,4.6-16.7,7.1-25.2,10.2c-4.3,0.7-8.6,1.4-12.9,2.1
			c-3.2,2.3-6.9,1.2-10.4,1.4c-1.2-0.1-2.3-0.1-3.4-0.4c-2-1.1-4.1-1.4-6.3-1.9c-1,0-1.9,0.1-2.9,0.1c-2.9,1.8-5.6,1.3-8-1
			c-0.8-0.2-1.6-0.2-2-1.1c-1-1.8,0.1-2.5,1.6-3c7.8,0.9,15.5,1.7,23.3,1.7c37.6-0.2,72.1-24.2,85.1-59.4
			C434.8,378.4,435,376,437.3,375z"/>
		<path fill="#C5B5B5" d="M444.2,353c0-3.3,0-6.7,0-10c0.3,0,0.6,0,0.9,0c0,2.7,0,5.3,0,8c0,0.7,0,1.3,0,2
			C444.7,353,444.4,353,444.2,353z"/>
		<path fill="#E1EEEE" d="M8,361c0-2.7,0-5.3,0-8c1.6-1.3,3.5-0.7,5.3-0.7c9.1,0.1,18.3,1.4,27-2.4c6.3-1,12.6-0.9,18.9-1.3
			c20.6-1.3,41.1-3.2,61.8-2.3c4.7,0.2,9.3-0.1,14,0.1c4.7,0.2,8.8-0.6,12.1-4.4c2.7-3.1,6.7-3,10.3-2.5c9.1,1.3,18.3,0.4,27.4,1
			c7.4,0.5,14.3-2.9,21.7-2.2c12.4,1.2,24.9,1.1,37.3,2.7c3.3,3.5-1.1,5-1.9,7.5c-1.9,4.1-5.4,4.9-9.5,5c-10.8,0.3-21.7-1.2-32.4,1
			c-16.9,3.5-34.1,2.7-51.1,3.9c-3.9,0.3-7.6,0.8-10.9,3c-3.5,2.3-7.4,2.8-11.4,3c-8.6,0.3-17.5,0.2-25.8,2.2
			c-15.8,3.8-31.9,4.1-47.9,5.5c-6.6,0.6-13.2,1.3-19.9,1.3c-5.6,0-9.9,1.6-13.3,6.2c-2.3,3.1-5.3,5.8-9.8,3.3
			C9.3,375.7,8.7,368.3,8,361z"/>
		<path fill="#DFEDED" d="M10,383c4.2,0.2,7.4-1.6,9.5-5.2c2.6-4.4,6.5-5.6,11.3-5.9c19.2-1.2,38.6-1,57.4-4.5
			c14.9-2.7,29.9-3,44.7-5.4c0.5-0.1,1.1,0.1,1.5-0.1c13.4-8,28.2-5,42.6-6c7.5-0.5,15.1-1.2,22.6-2.8c11-2.3,22.2-0.9,33.3-1
			c4.1,0,7.2-0.6,8.2-5.1c1.9,3.2,2.2,6.6,1.5,10.1c-1.6,2.3-4,2.9-6.5,3.1c-12,0.9-23.9,2.1-35.8,3.2c-5.1,0.4-9.9,1.4-14.2,4.3
			c-3.6,2.5-7.7,3.1-11.8,3.6c-6.9,0.8-13.9,1.8-20.8,2.6c-4.7,0.5-9.1,1.7-13.5,3.5c-6.7,2.8-14,2.8-21.1,3.6
			c-23.5,2.7-46.6,7.8-70.1,10.5c-3.4,0.4-6,2-7.8,4.8c-3.2,5-7.9,7.6-13.7,7.9c-4.7,0.3-9.3,3.1-14.1,0.7
			C11.7,397.7,10.3,390.4,10,383z"/>
		<path fill="#DDEAEA" d="M244,369c-0.1,2.6-2.1,3.4-4,3.8c-6.1,1.4-11.6,3.8-17.3,6.9c-6.5,3.5-14.5,4.3-21.8,6.4
			c-22.1,6.3-45,10.7-66,19.5c-17.7,7.5-36.5,10.3-54,17.5c-14.4,5.9-29.4,9.9-44.2,14.2c-2.7,0.8-5.1,2.4-7,4.6
			c-1.8,2-3.7,3.8-6.6,4.1c-2.1-3-2.4-6.6-3-10c1.7-2.5,4.6-2.5,7.1-3.1c5.1-1.1,9.3-3.3,12.2-7.9c2.8-4.5,7-6.8,12.1-7.8
			c7.9-1.7,15.7-4.4,23.7-5.6c5.8-0.8,9.8-3.6,12.5-8.6c0.6-1,1.2-2,1.9-2.9c2.7-3.3,6.3-4.8,10.4-5.4c5.8-0.9,11.4-2.3,17.2-3.3
			c6.2-1,12-2.6,16.8-7c2.8-2.6,6.6-3.1,10.2-3.6c7.6-1,15.1-2.5,22.7-3.6c5.4-0.8,10.9-1.5,15.6-4.8c1.6-1.1,3.7-1.4,5.7-1.7
			c12.1-1.6,24-3.7,36.1-5.3c4.8-0.6,9.6-1.3,14-3.6c1.6-0.9,3.4-1.3,5.3-0.4C246,363.9,245.7,366.4,244,369z"/>
		<path fill="#DEECEC" d="M243,362c-7.5,2.6-15,4.7-23,5.6c-10.3,1.2-20.6,2.9-30.9,4.4c-1.9,0.3-4.3,0.3-5.7,1.4
			c-7,5.4-15.6,4.6-23.5,6.4c-6.4,1.5-13,2.2-19.5,3.1c-1.7,0.2-3.4,0.6-4.5,1.8c-6.6,6.9-15.5,7.4-24.1,9.2
			c-4.2,0.9-8.5,1.4-12.7,2.2c-3.5,0.7-6.4,2.6-9.1,4.9c-1.4,1.3-3.2,1.7-5,2.1c-21,4.2-41.9,8.3-62.8,12.8
			c-2.3,0.5-4.8,1.7-7.2,0.1c-0.7-3.7-1.3-7.3-2-11c6.5-1,13.1-1.9,19.5-3.1c3.5-0.7,5.5-3.8,7.2-6.5c2.3-3.7,5.5-4.9,9.5-5.4
			c9.2-1.1,18.4-2.2,27.4-4c13.1-2.7,26.5-3.7,39.6-6c9.4-1.6,19-1.6,28-5.7c6.3-2.8,13.6-2.1,20.5-3.3c8-1.3,16.2-1.1,23.6-6.3
			c6-4.2,14.1-2.9,21.3-3.7c8.9-1,17.8-1.4,26.7-2.2c1.9-0.2,3.8-1.2,5.6-1.9c0.4,0.2,0.8,0.6,1.1,1
			C243.8,359.3,244.3,360.7,243,362z"/>
		<path fill="#DDEBEB" d="M15,416c25-5.2,49.8-10.8,75-15c-2.6,5.9-5.8,10.7-13.2,11.7c-8,1.1-15.8,3.6-23.7,5.4
			c-5.5,1.2-10.3,3.1-13.3,8.4c-2.6,4.6-7,6.7-12.1,7.5c-2.6,0.4-5.1,1.3-7.7,1.9C17.3,429.6,16.3,422.8,15,416z"/>
		<path fill="#E7F2F4" d="M36,213c0.6-1.3,1.1-2.5,1-4c0.3,0,0.7,0,1,0c1.6-1.2,2.8-0.1,4.1,0.5c17.6,8.4,35.4,16.2,53,24.6
			c5.1,2.4,8,1.2,10-4c1.9-4.8,4.8-5.9,9.9-3.5c16.9,8,33.1,17.2,49.9,25.4c1.6,0.8,3.2,1.7,5,2.2c1.7,0.5,3.5,0.6,4.7-0.7
			c3.9-4.1,7.5-2,11.2,0.2c24.4,14.3,49.1,28.2,73.7,42.2c1.9,1.1,3.9,1.8,5.7,3c1,3.4-2,5.4-3,8.1c-0.7,1.9-1.4,3.7-2.2,5.6
			c-1,2-1.4,4.6-4.4,5c-12.8-3.2-25.2-7.6-37.5-12.2c-16.7-6.2-34-10.7-50.8-16.6c-24.8-8.7-49.7-17.3-74.7-25.4
			c-1.3-0.4-2.5-0.9-3.8-1.2c-1.7-0.4-3.6-0.5-4.1,1.6c-0.5,2,1.4,2.4,2.8,2.8c5.9,1.8,11.7,4,17.6,5.7c7.9,2.2,15.5,5.1,23.3,7.3
			c2.4,0.7,6,1.1,4.7,4.9c-1.1,3.3-4.1,1.8-6.5,1.2c-29.8-8.3-59.7-16.3-89.5-25c-5.9-1.7-11.5-3.7-16.4,1.9
			c-0.4,0.5-1.2,0.4-1.9,0.2c2.3-8.7,4.7-17.3,7-26c1.9-1.1,1.4-3.7,3-5c1.9-1.6,3.9-0.6,5.6,0.1c3,1.2,4.9,0.2,6.9-2.2
			c5.9-7.2,6.4-7.2,15.1-3.4c10.8,4.6,21.8,9.1,32.7,13.4c1.8,0.7,4.6,2.6,5.6,0c0.8-2.1-2.4-2.6-4.2-3.4
			c-15.4-6.6-30.8-13.2-46.2-19.9C41.8,215.4,38.4,215.4,36,213z"/>
		<path fill="#E4F1F1" d="M9,328c-0.1-9.4,1-18.8,3-28c4.7,1.4,8.6,1,11.3-4c1.9-3.5,5.5-4.5,9.5-3.7c4.5,0.9,9,1.7,13.5,2.2
			c0.7-0.1-0.2-1.2,0.1-0.5c0.1,0.3,0,0.4-0.3,0.4c-6.3-0.5-12.4-2-18.6-2.7c-4.9-0.6-9.7-1.2-14.5,0.4c-0.1-3.5,0.5-6.8,2-10
			c12.2,1.7,24.1,4.7,36.2,6.9c5.2,1,10.5,1.9,15.6,3.2c4.5,1.1,8,0,10.6-3.5c2.5-3.3,5.5-3.6,9.3-2.7c10.7,2.6,21.4,5.1,32,7.8
			c4,1,7.9,1.3,11.6-0.8c2.9-1.6,5.8-0.6,8.7,0.2c11.2,3.1,22.4,6.9,33.8,8.7c24.7,3.8,48.5,11.3,72.6,17.4c3.4,0.9,6.9,1.3,9.8,3.6
			c1.4,3.3,0,6.2-1.7,8.9c-3.1,3.9-7.3,4-11.8,3.4c-12.8-1.9-25.6-3.3-38.3-5.4c-4.6-0.8-9.2-1.2-13.5,1.2
			c-14.3-0.8-28.4-3.3-42.7-4.6c-1.7-0.1-3.3-0.4-5,0c-5.7,3.1-11.7,1.3-17.5,0.9c-7.2-0.5-14.5-1.2-21.7-2.2
			c-4.3-0.6-6.9,0.5-8.8,4.3c-0.8,1.6-1.9,3.1-3.4,4.3c-0.5,0.3-1.1,0.5-1.7,0.6c-6.3,0.8-12.6-0.5-18.8-0.8
			c-13.9-0.8-27.8-1.2-41.6-2.6c-3.5-0.3-7-0.1-10.4-0.3C15.1,330.3,11.8,330.3,9,328z"/>
		<path fill="#E5F2F3" d="M254.8,323c-16.8-4.4-33.8-8.3-50.4-13.5c-12.3-3.8-25.2-3.4-37.3-7.3c-10.2-3.3-20.8-5.5-31.2-8.4
			c-1.9-0.5-3.6-0.8-5.2,0.4c-3.4,2.7-7.2,2.1-10.9,1.2c-11.4-2.7-22.9-5.4-34.3-8.4c-3.5-0.9-5.3-0.2-7.3,2.9
			c-2.3,3.5-6,4.8-10.3,4c-16.2-3.3-32.4-6.6-48.6-9.8c-1.7-0.3-3.2-0.6-4.4-2c0.4-6.5,2.2-12.8,4-19c5.1-6.8,11.1-5.7,18.4-3.5
			c30.3,8.9,60.9,17.1,91.4,25.6c1.4,0.4,3,1.4,3.8-0.7c1-2.7-1.6-2.5-2.9-3c-14.2-4.5-28.5-9-42.7-13.5c-2-0.6-5.3-0.6-4.3-4
			c0.9-3.4,3.2-4.4,6.9-3.1c31.9,11,63.6,22.3,95.7,32.5c23.7,7.5,47.2,15.9,70.8,23.6C257.5,319.4,256.7,321.3,254.8,323z"/>
		<path fill="#E5F2F3" d="M13,292c3.7-4.7,8.4-2.7,12.8-1.9c7.4,1.3,14.8,2.8,22.8,4.4c-4.6,1.6-8.6,0.2-12.2-0.7
			c-6.8-1.9-11.1,0.2-14.4,6.1c-1.9,3.4-7.1,3.3-10,0.2c0-0.7,0-1.3,0-2c0,0,0,0,0,0c1.5-1.4,0.5-3.4,1-5C13,292.7,13,292.3,13,292z
			"/>
		<path fill="#E4F1F1" d="M13,293c1.1,2,1.6,3.8-1,5C12.2,296.3,11.3,294.4,13,293z"/>
		<path fill="#E2F0F0" d="M9,328c17.9,1.3,35.9,2.2,53.9,3.2c9,0.5,18.1,0.7,27.1,1.8c-1.2,6-4.6,9.2-10.4,9.3
			c-8.3,0.2-16.6,0.2-25,0c-4.4-0.1-7.8,0.9-10.1,4.9c-1,1.8-2.8,2.8-4.6,3.8c-2.4,2.5-5.7,2.8-8.7,2.9C23.5,354,15.7,354.8,8,353
			c0-6,0-12,0-18C8.3,332.7,8.7,330.3,9,328z"/>
		<path fill="#E8F3F6" d="M264.9,299c-1.6,1-2.8,0-4.1-0.7c-25.7-14.8-51.4-29.6-77.2-44.4c-2.9-1.7-5.3-2.8-8.1,0.8
			c-2.3,3-5.8,1.3-8.7-0.2c-17.3-8.8-34.6-17.7-52-26.5c-5.9-3-7.9-1.9-8.9,4.6c-0.5,3.4-5.8,5.3-9.8,3.5c-9.5-4.4-19-8.8-28.5-13.2
			c-9.9-4.6-19.8-9.2-29.7-13.9c3.3-8.5,7.7-16.5,12-24.5c1.5-2.8,3.3-5.4,4-8.5c1-1,2-2,3-3c4.7,4.5,10.9,6.8,16.2,10.4
			c1.7,1.1,2.9-0.6,4.1-1.9c6.1-6.9,7.3-6.9,15-1.9c34.5,22.5,69,45,103.4,67.6c21,13.7,41.8,27.7,62.7,41.4c3,2,6.8,2.8,8.6,6.5
			C267.5,297.1,266.8,298.4,264.9,299z"/>
		<path fill="#E8F3F6" d="M36,213c7.3,0.6,13.5,4.6,20,7.2c12.8,5.2,25.4,10.8,38,16.4c1.4,0.6,4.5,0.5,3.3,3.8
			c-1.2,3.2-3.4,2.5-5.7,1.6c-12.9-5.2-25.9-10.2-38.7-15.8c-3.9-1.7-6.7-1.2-8.5,2.1c-3.3,6.2-7.6,7-13.4,3.9
			c-0.5-0.3-1.3-0.1-2-0.2c0-3.9,3.2-7,3-11c1.6-1.3,2.1-3.1,2-5C34.7,215,35.4,214,36,213z"/>
		<path fill="#C5C6BA" d="M346,444.1c3.7,0,7.3-0.1,11-0.1c0.9,14.8,2.3,29.6,3.9,44.4c1,9,1.4,18.1,2.2,27.2
			c1.2,13.8,2.6,27.6,3.8,41.4c0.8,8.9,1.4,17.8,2.2,26.7c1.2,14.1,2.7,28.3,3.8,42.4c0.7,8.1,1.2,16.1,2.1,24.2
			c1.3,11.8,2.1,23.7,3.1,35.6c-0.1,0.6-0.7,0.7-1.1,0.9c-14.3,0.1-28.5,1.7-42.8,1c0-0.3-0.1-0.6-0.1-0.9
			c1.6-18.6,1.8-37.2,2.6-55.8c1.1-26.4,2-52.8,3-79.2c1-24.9,2.1-49.8,3-74.7c0.3-9,0.8-17.9,0.9-26.9
			C343.5,448,343.9,445.7,346,444.1z"/>
		<path fill="#939392" d="M376.9,686.9c0.4-0.3,0.7-0.6,1.1-0.9c1.3,0,2.6,0.1,4,0.1C380.5,687.6,378.6,686.8,376.9,686.9z"/>
		<path fill="#C6C7BB" d="M346,444.1c-0.9,2.6-1.1,5.2-1,7.8c0.6,14.3-0.9,28.6-1.2,42.8c-0.4,16.6-1.3,33.1-1.9,49.7
			c-0.7,17.1-1.3,34.1-2,51.2c-0.7,17.2-1.1,34.5-2.1,51.7c-0.7,12.1,0.2,24.2-1.7,36.2c-0.2,1.5,0,3.1-2.1,3.3
			c-5.3-0.4-10.7,0.9-16-1c1.8-5.3,1.3-10.8,1.8-16.2c2.1-19.9,3.3-39.9,5.3-59.8c1.8-17.6,3.3-35.2,5-52.8
			c1.8-18.9,3.4-37.9,5.2-56.8c1.7-18.8,3.9-37.5,4.7-56.3c0.9-0.9,1.9-0.6,3-0.2C344,443.9,345,444,346,444.1z"/>
		<path fill="#807F80" d="M440.9,324c-0.9-0.3-1.9-0.7-2.8-1c-1.9-0.6-2.2-2.3-2.7-3.9c-5.8-17.4-16.2-31.7-30.3-43.4
			c-1.2-1-2.3-1.9-2.6-3.5c0-1.1,0.5-1.9,1.4-2.5c3.4,0.4,5.7,2.3,7.1,5.3c9.3,8.8,17.2,18.6,23.2,29.9c1.7,4,3.3,8,5,12
			C439.7,319.3,440.3,321.6,440.9,324z"/>
		<path fill="#C5C0C5" d="M410.9,275.1c-2.3-1.6-4.7-3.2-7-4.9c-2.4,0.2-3.9-0.9-4.7-3c-0.6-2.5,0.6-4.5,1.9-6.5
			c6.3-10.3,12.5-20.7,18.9-30.9c1.5-2.4,3.2-4.7,2.7-7.8c0.1-0.8,0.4-1.4,1.3-1.1c3.4-0.6,6.5-2.1,10-2c9.7-2.7,19.3-5.3,29-8
			c-4.7,8.3-11.6,14.8-17.6,22c-10.8,13.1-21.9,26-32.8,39C411.9,272.9,411.5,274.1,410.9,275.1z"/>
		<path fill="#D1C6D0" d="M422,90c3.4-1.5,4-5.7,8.2-7.8c-1.9,6.3-3.5,11.8-5.2,17.3c-4.4,13.9-8.8,27.8-13.2,41.7
			c-0.2,0.6-0.6,1.2-0.6,1.9c-0.2,1.1-0.6,2.5,0.5,3.2c1.3,0.8,2.2-0.6,2.8-1.4c3.7-4.7,7.4-9.4,11-14.1
			c12.8-16.6,25.7-33.2,38.5-49.9c3.3-1,1.4,1,1,1.8c-3.5,8.1-7,16.1-10.6,24.2c-10.4,23.5-20.8,47-31.2,70.5
			c-0.6,1.3-2.1,2.9-0.5,4c1.8,1.2,3-0.8,4-1.9c1.4-1.4,2.4-3.2,3.8-4.6c1-1,1.3,0.1,1.4,1c0.9,2.6-0.9,4.5-1.9,6.5
			c-6.9,14-13.9,28-20,42.4c-1.8,1.9-4.3,1.7-6.6,2.3c-4.9,0.6-9.8,2-14.8,2.4c-1.6,0.1-3.3,0.6-4.9-0.3c-1.4-1.5-1.3-3.4-0.8-5.2
			c5.6-19.4,10.7-38.9,16.9-58.2c3.6-7.8,5.1-16.3,7.6-24.5c5-16.3,9.4-32.7,14.1-49C421.9,91.7,421.9,90.8,422,90z"/>
		<path fill="#D0C9CF" d="M410,224c-0.8-2.1,0.4-3.8,1.3-5.5c6.9-14.2,13.8-28.3,20.7-42.5c6.3-10.6,12.5-21.3,19.6-31.5
			c5.6-8,11.3-15.9,17.4-23.5c8.5-3.6,12.1-12,17.3-18.7C493.7,92.8,500.8,83,509,74c-3.6,6-7.1,12.1-10.7,18.1
			c-19.6,32.7-39.3,65.4-58.9,98.2c-4.4,7.4-8.7,14.8-13.1,22.2c-1.6,2.6-2.7,5.3-2.3,8.5c-0.3,0.3-0.7,0.7-1,1
			C418.9,224.4,414.7,225.6,410,224z"/>
		<path fill="#D1C2D1" d="M400,166c-0.4,9.9-4.6,18.8-7,28.2c-2.5,9.9-5.5,19.7-8.4,29.4c-0.5,1.8-0.6,3.6-0.6,5.4
			c-0.8,1.4-2.2,1.9-3.6,2.2c-15.3,2.2-30.6,4.2-46.1,5.2c-1.2-0.2-2.4-0.4-3.2-1.4c-2.5-12.7-4.4-25.7-4.2-38.3
			c0.1-13.8-2.7-26.9-3.8-40.3c-0.3-3.7,1.6-6.7,2-10c0.7-5.5-0.8-10.9-1.4-16.3c-0.2-1.5-0.9-2.9,0.5-4.1c3.5-1.9,5.1-5.6,7.6-8.4
			c0.8-0.9,1.2-2.7,2.9-2.1c1.5,0.5,1.5,2.1,1.4,3.4c-0.7,8.8,1.4,17.5,1,26.3c0,1-0.1,2,0.1,3c0.1,1.1,0.3,2.5,1.5,2.9
			c1.1,0.3,1.8-0.9,2.3-1.6c4.7-6,9.2-12.1,13.9-18.1c12.4-15.9,25.1-31.7,36.7-48.2c0.8-1.2,1.9-2.7,3.6-1.8
			c1.6,0.9,0.3,2.3,0.1,3.5c-2.4,13.8-4.7,27.7-7.1,41.5c-0.2,1.1,0,2.3,0,3.8c2.4-0.5,3.1-2.3,4.3-3.8c3.4-4.7,6.9-9.3,10.6-13.8
			c1.2-1.5,3.1-3.2,5.1-2.2c2.2,1.2,0.4,3.3,0,4.9c-4,16.1-8.1,32.1-12.1,48.2c-0.4,1.5-1.9,3.6-0.4,4.6
			C397.5,169.6,398.3,166.3,400,166z"/>
		<path fill="#D3C6D4" d="M308,11c5.9-1.5,12-1.4,18-2c0.2,3.3,0.1,6.6,0.6,9.9c0.4,3.1-1,6.3-3,9.2c-4.4,6-8.7,12.6-7.4,20.4
			c0.9,5.7,0.6,10.7-2.3,15.7c-2,3.4,0,6.9,0.4,10.2c1,8,0.8,16.2,2.7,24.1c0.1,0.5,0.1,1,0,1.5c-3.9,15.5,1.2,30.4,2.9,45.5
			c0.1,0.5,0.1,1,0.1,1.5c-2.1,18.5,2.9,36.4,4.3,54.6c0.9,11.1,1.5,22.4,3.7,33.4c-1.3,1.2-2.7,1.1-4.1,0.4c-3.3-4.5-3.1-10-4-15.2
			c-0.2-1,0.2-2,0-3c-3.3-17.1-4.7-34.5-7.9-51.7c-1.9-10.2-3.8-20.6-1.8-31.1c0.3-1.5-0.2-3-0.4-4.5c-1.5-9-2.9-18.1-4.6-27.1
			c-0.9-4.8-1.6-9.5-0.2-14.3c1-3.5-0.2-7-0.7-10.4c-0.4-3.1-0.2-5.9,1.3-8.7c1.9-3.4,2-6.9,1.4-10.7c-1.3-9.1-2.7-18.1-3.6-27.2
			C302.7,24.3,305.1,17.6,308,11z"/>
		<path fill="#C6B9C7" d="M331,235c1,0,2,0,3,0c0.6,4.7,0.9,9.5,1.4,14.2c0.2,1.5,0.1,3-1.1,4.2c-1.9,1.4-3.9,2.2-6.2,1
			c-1.9-5.9-3.5-12-3.5-18.3c1.2-1.3,3.1,0.1,4.3-1.1C329.7,235,330.3,235,331,235z"/>
		<path fill="#D1C2D1" d="M329,235c-1.1,1.5-2.6,0.9-4,1c-0.6,0.6-1.3,0.6-2,0.2c-0.3-0.9,0-1.4,1-1.2c1.3,0,2.7,0,4,0
			C328.3,235,328.7,235,329,235z"/>
		<path fill="#EBF0F7" d="M121,95c1.3-1,2.7-2,4-3c2.7-1.4,4,0.8,5.3,2.3c16,18.7,32.3,37.2,48.4,55.8c13.9,16.1,28,32.1,41.9,48.2
			c18.8,21.8,37.9,43.3,56.1,65.6c1.8,2.2,3.8,4.2,5.7,6.3c1.5,1.6,2.9,3.3,2.4,5.7c-4.1,5.9-8.7,11.3-14.8,15.3
			c0.7-6.5-1-11.2-6.7-15.7c-15.1-11.8-29.5-24.6-44.1-37c-9.8-8.4-19.6-16.8-29.4-25.2c-11.7-9.9-23.6-19.8-35.3-29.7
			c-9.5-8-18.9-16-28.4-24.1c-5-4.3-10-8.6-15.1-12.9c-0.5-0.4-1.2-1-1.7-1c-9.6,0.5-13.5-8.3-20.4-12.3c-1-0.6-1.8-1.5-3-1.5
			C96.3,118.4,108.5,106.6,121,95z"/>
		<path fill="#969B9E" d="M270.1,291.3c4.6-5.1,9.3-10.2,13.9-15.3c0.8-0.7,0.4-2.1,1.4-2.7c1.1-0.7,2.2-1.3,3.3-2
			c0.8-0.5,1.6-0.8,2.6-0.4c0.8,0.6,1.3,1.4,1.2,2.4c-0.3,1.6-1.5,2.5-2.6,3.5c-11.1,9.2-19.6,20.3-25.7,33.4
			c-0.7,1.5-1,3.2-2.7,4.1c-1.5,0-1.8-1.3-2.5-2.2c1.1-4.7,4.1-8.5,5.7-13c0.7-1.3,1.4-2.6,2.2-3.9
			C268,293.8,269.1,292.5,270.1,291.3z"/>
		<path fill="#E9EEF8" d="M286,273.9c-0.7,0.7-1.3,1.4-2,2.1c0.3-2.3-1.3-3.6-2.6-5.1c-11-12.8-21.9-25.7-32.8-38.6
			c-7.2-8.4-14.6-16.7-21.9-25.1c-10.1-11.6-20.1-23.3-30.2-35c-7.3-8.4-14.6-16.7-21.9-25.1c-12.5-14.4-24.7-29-37.5-43.1
			c-3.8-4.2-6.3-9.9-12.2-12c0.7-1,1.4-2,2-3c4.1-1.3,6.1-5.4,10-7c3.7,0,7.4,2.8,8.5,7.9c1.1,5.2,4.2,8.9,7.3,12.8
			c21.9,27.4,43.7,54.9,65.8,82.2c17.8,21.9,35.7,43.8,53.2,66.1c4.9,6.3,9.3,13.2,14.1,19.8C286.4,271.7,287,272.8,286,273.9z"/>
		<path fill="#E0D8E6" d="M209,38c4.2-2.1,8.3-4.3,13-5c3.2,1.4,7.1,8.3,6.5,12.7c-0.4,3,0.4,5.6,1.5,8.2
			c6.2,15.1,13.1,30,18.2,45.4c3.2,9.7,8.3,18.9,9,29.4c0.1,1.2,0.7,2.2,1.2,3.3c5.7,13.3,11.8,26.5,16.8,40.1
			c5,13.5,10.1,27.1,15,40.7c2.1,5.8,4.9,11.3,7.4,16.9c1.1,2.5,2.5,5.3-0.3,7.8c-0.7,0.4-1.5,0.6-2.3,0.7c-1.1,0-2.1-0.1-3-0.8
			c-2.4-10-8.8-18.2-12.2-27.8c-7.8-21.7-19.5-41.6-28.5-62.7c-3.9-9-8.3-18-10.8-27.3c-4.8-17.7-14.5-33.2-21.1-50
			c-2.7-6.9-7.4-13.1-7.5-20.9c0-2-1.4-3.7-2.2-5.5C209,41.5,207.7,39.9,209,38z"/>
		<path fill="#E1DBEA" d="M209,38c1.3,3.2,3.4,6.3,3.9,9.6c2.6,15.7,12,28.5,17.4,42.9c2.5,6.7,7.1,12.8,8.5,19.6
			c2.4,11.4,8.9,21.1,11.8,32.3c2.2,8.5,7.4,16.3,11.3,24.4c5.4,11.2,11.8,22.1,16.1,33.8c4,11,9.2,21.2,14.2,31.6
			c0.8,1.7,0.7,3.2-0.2,4.7c-1.3,1.3-2.8,1.2-4.4,0.6c-0.2-0.2-0.4-0.4-0.6-0.6c-1.1-2.2-2.4-4.4-2-7c-4.1-8-9-15.6-12.5-23.8
			c-5.2-12.2-12.7-23.3-16.7-36.1c-2.2-7.1-6.3-13.6-9.5-20.3c-4.9-10.2-9.1-20.8-14.8-30.5c-6.4-11-10.1-23.2-14.1-35
			C212.5,69.7,206,56.3,199,43C201.9,40.4,205.6,39.5,209,38z"/>
		<path fill="#DED5E3" d="M297,237c2-3.1-0.1-5.8-1.2-8.4c-3-6.9-6.9-13.4-9-20.5c-3.4-11.2-8-21.8-11.8-32.8
			c-5.2-15-13.2-29.1-17.9-44.2c-2.7-8.6-6.3-17-8.2-26c-1.6-8-5.8-15.1-8.7-22.7c-4.1-10.7-9.2-21-12.5-31.9
			c-1.5-4.8-1.3-10.2-3.6-15c-0.5-1.1-1-2.1-2.1-2.6c0-0.3,0-0.7,0-1c1.6-0.2,3-0.7,4-2c2-0.3,4-0.7,6-1c2.8,2.1,3.1,5.4,4.1,8.4
			c2.7,7.9,7.5,15.4,5.9,24.4c-0.1,0.6,0.2,1.3,0.4,1.9c5.2,14.7,8.6,29.9,14.5,44.4c6.5,15.8,10.9,32.4,16.1,48.6
			c3.2,10.1,7.4,20,11.3,29.9c5.6,14.2,10.4,28.8,16.5,42.8c1.3,2.9,2.7,6.1-1.5,8.1C298.4,237.7,297.7,237.6,297,237z"/>
		<path fill="#E2DCEA" d="M199,43c6.3,5.3,8.1,13.2,11.9,19.9c6,10.5,8.8,22.4,12.9,33.6c9,24.8,23.1,47.1,32.4,71.5
			c4.5,11.8,11.3,22.4,15.4,34.4c2.6,7.8,7.5,14.8,11.5,22.1c1,1.8,2.1,3.4,2,5.5c-4.1-3.6-5.6-9-8.1-13.5
			c-9.7-17.6-19.4-35.2-28.1-53.3c-4.3-8.9-9.8-17.4-12.8-26.7c-5.8-17.9-16.5-33.1-24-50c-3.1-7-7.1-13.5-10.5-20.3
			c-2.2-4.4-4.9-8.6-4.9-13.9c0-2.2-1.3-4.8-3.7-6.2C194.7,44.4,196.7,43.4,199,43z"/>
		<path fill="#DBD0DE" d="M257,21c0.8,15.8,9,29.9,10.7,45.3c1.9,16.9,9.1,32.4,11.3,48.9c1.1,8.2,4.5,15.8,4.5,24.4
			c0,6.5,4,12.9,5.5,19.5c3.4,15.3,8.5,30.3,12.1,45.5c2.5,10.7,6.8,20.7,9,31.5c-2.3,2.2-4.9,2.7-7.8,1.4c1.6-5.3-1.2-9.7-2.5-14.5
			c-5.1-18.8-13.5-36.5-18.6-55.2c-3-11-6.6-21.8-8.9-33c-2.6-12.4-7.6-24.1-11.8-36c-3.3-9.2-3.7-18.8-6.4-28.1
			c-1.4-4.7-2.2-9.7-3.9-14.4c-3.7-10-5.9-20.5-10.1-30.2c2-1,4-2,6-3C249.9,23.5,253.1,20.6,257,21z"/>
		<path fill="#DDD4E2" d="M240,26c2.9,0.6,3.4,3.2,3.8,5.3c1.5,6.8,3.6,13.5,6.2,19.9c4,9.9,6.4,20.4,8,30.7
			c2.4,15.2,8.5,29,13,43.4c3.2,10.4,6.9,21,8.9,31.5c3.1,16.5,11.2,31.1,15.4,47c2.6,9.6,5.3,19.1,9.3,28.3c1.3,3-0.9,3.7-2.6,4.9
			c-0.3,0.3-0.7,0.6-1.2,0.7c-0.7,0.1-1.4-0.1-1.8-0.7c2-1.5,2.2-3.2,1.2-5.6c-9.4-23.9-19.3-47.7-27.6-72
			c-3.8-11.2-7.6-22.5-10.8-33.9c-3.8-13.3-10.1-26-14.3-39.2c-2.5-7.8-6.3-16.1-6.4-23.7c-0.1-12.5-6.8-22.3-9.1-33.7
			C234.4,27.3,237.3,26.8,240,26z"/>
		<path fill="#E5E7F3" d="M291,270.9c-0.7,0.3-1.3,0.7-2,1c-3.6-0.9-4.9-4.3-6.9-6.8c-4.2-5.3-8.8-10.3-10.8-17
			c-0.1-2.6-1.4-4.7-2.9-6.7c-12.8-17.2-25.6-34.4-38.1-51.8c-3.9-5.4-5.6-11.9-9.8-17.2c-9.8-12.8-19.3-25.8-28.3-39.2
			c-13.4-20-27.1-39.9-41.3-59.3c-0.4-0.5-0.7-1.1-0.8-1.8c0-0.3,0-0.7,0-1c3.7-0.5,5.4-4.4,9-5c2.4-1.3,3.3,0.6,3.4,2.1
			c0.5,7.2,5.4,12.1,9.2,17.4c15.1,21.1,28.8,43.2,43.5,64.6c12.3,17.9,25.2,35.6,36.7,54.1c6.8,11,14.3,21.6,21,32.7
			c1.6,7.8,7.9,12.8,11.7,19.3c2.7,4.5,6.8,8.1,8.1,13.4C292.3,270.3,291.8,270.8,291,270.9z"/>
		<path fill="#E4E5F2" d="M272,237c-11.9-15.3-20.9-32.6-31.9-48.5c-15.7-22.7-31.2-45.7-46.7-68.6c-9.4-13.8-18.8-27.7-28.1-41.6
			c-2-2.9-4.6-5.6-3.7-9.8c0.2-1.1-0.9-2.5-2.6-2.5c1.5-2.1,3.6-3.3,6-4c2.6-1.3,3.7,0.8,4.7,2.4C180.6,82.7,193,100,203,118.8
			c5.2,9.7,11.5,18.7,17.6,27.8c2.9,4.4,6,8.8,7.3,14.1c3,6.1,6.9,11.7,10.8,17.4c9.8,14.5,18.9,29.3,27.9,44.3
			c1.9,3.1,4.3,5.9,6.2,9.1C274.4,234.3,274.3,234.8,272,237z"/>
		<path fill="#E3E0EE" d="M182,52c2.7,0.3,4,2.2,5.1,4.3c6.3,11.8,13,23.4,18.5,35.7c2.2,4.8,4.9,9.4,7.8,13.9
			c2.3,3.6,1.9,8.1,3.9,11.7c2.8,5.1,5.5,10.3,8.6,15.1c4.9,7.7,6.4,16.9,11.5,24.6c7,10.5,13,21.6,19.1,32.7
			c7,12.8,14.6,25.3,21.6,38c1.5,2.8,2.9,5.9,3.9,9c-0.5,0.6-1.3,0.9-2.1,0.9c-0.8,0-1.5-0.2-2.2-0.7c-7.9-14.1-16.5-27.8-24.2-41.9
			c-12.1-21.8-24.5-43.5-36.9-65.1c-7.8-13.6-15.9-27-24.3-40.2c-4.1-6.4-5-14.1-9.2-20.4c-2.9-4.4-5.9-8.8-8.2-13.7
			C177.1,54.2,179.1,52.4,182,52z"/>
		<path fill="#E4E3F0" d="M175,56c6.4,6.9,11.1,14.9,13.9,23.7c2.1,6.6,6,12.2,9.6,17.9c16.3,25.7,31.5,52,46.1,78.6
			c10.4,19.1,22.5,37.1,32.3,56.5c0.7,1.4,1.3,2.7,1.1,4.3c-0.5,2.4,0.8,4.1,2,5.9c4.3,6.4,8.6,12.9,12.9,19.3
			c1.2,1.8,2.7,3.4,2.5,5.8c-0.8,1.3-1.4,2.7-3.4,1.7c-5.2-7.6-10-15.4-15.7-22.6c-2.5-3.2-4-6.2-4.3-10.1c2-2,0.6-3.5-0.5-5.2
			c-14.2-22.1-28.3-44.2-42.5-66.3c-0.9-1.4-1.8-2.8-2-4.5c0.6-4.6-2.7-7.7-4.8-11.1c-5.8-9.5-11.6-19-17.9-28.2
			c-2.4-3.6-1.5-7.6-3.6-11.2c-3.3-5.6-6.9-11-10.1-16.6c-2.6-4.4-5.5-8.6-5.2-14.2c0.1-2.5-1.7-4.6-3-6.8
			c-3.1-5.3-6.5-10.5-9.4-15.9C173.4,56.2,174.2,56,175,56z"/>
		<path fill="#E4E2F1" d="M173,57c1.4,0,1.9,1,2.5,2.1c2.8,4.7,5.8,9.3,8.4,14.1c1.7,3.1,3.6,6.1,2.8,10.3c-0.4,1.8,1.5,4.3,2.7,6.3
			c4.3,7.2,9.9,14,12.8,21.7c2.4,6.4,4.8,12.5,8.5,18.3c5.5,8.3,10.5,16.8,15.6,25.4c1,1.7,3.4,3.7,0.6,5.9
			c-3.5-9.4-10-17-15.1-25.5c-13.8-22.8-27.8-45.4-41.8-68c-1.3-2.1-1.9-5.2-5.2-5.5C167.5,60,169.8,57.9,173,57z"/>
		<path fill="#E7EAF5" d="M150,72c6,4.5,9.2,11.3,13.4,17.2c20.8,29.6,42.2,58.7,61.8,89.1c14.1,21.9,30.2,42.2,45,63.5
			c1.3,1.8,3.1,3.6,1.9,6.3c-2.5,0.1-3.2-2-4.4-3.5c-33.2-43.9-67.1-87.2-100.2-131.2c-7.5-10-15.2-19.8-22.7-29.7
			c-1.2-1.6-3.3-3-2.7-5.6c0.3-0.7,0.7-1.3,1-2C145.8,75.5,147.6,73.2,150,72z"/>
		<path fill="#DEDCEA" d="M280,237c0.7,0,1.3,0,2,0c1.7,0,3.3,0,5,0c0,0,0,0,0,0c5.5,4.9,7.6,12,11.3,18c1.7,2.7,3.8,5.5,3.4,9.2
			c-0.9,1.9-2.4,2.7-4.4,2.4c-3.7-2.6-4.7-7.1-7.3-10.5c-3.3-4.4-5.8-9.3-8.7-14C280.4,240.5,279.2,239,280,237z"/>
		<path fill="#E8ECF6" d="M142,78c18.1,23.9,36.2,47.8,54.4,71.6c23.3,30.5,46.8,60.9,70.1,91.4c1.8,2.4,3.7,4.7,5.5,7
			c3.8,9.2,11.1,16.1,17,23.9c-0.7,1.1-1.7,1.8-3,2c-1.3-3.9-4.7-6.3-6.8-9.6c-15.5-23.7-34.4-44.6-52-66.6
			c-19.6-24.6-39.2-49.1-58.8-73.7c-7.1-8.9-14.3-17.8-21.6-26.6c-1.3-1.5-1.6-3.1-1.9-4.9c-0.9-4.7-3-8.7-7.9-10.5
			C138.1,80,140.3,79.3,142,78z"/>
		<path fill="#D5C8D6" d="M324,235c-0.3,0.3-0.7,0.7-1,1c-0.8,0.6-1.6,0.6-2.3,0c-2.7-5.9-2.3-12.3-3.7-18.5
			c-2.4-10.9-6-21.7-6.8-32.6c-1.2-15.4-6.5-29.9-7.8-45c-0.7-7.7-2.2-15.7-1.2-23.7c0.8-6.6-2.1-13.1-3-19.7
			c-0.5-4-1.5-7.8-2.3-11.8c-1-5-2.6-10-0.8-15.2c0.6-1.7-0.1-3.6-0.5-5.4c-0.9-4.3-1.3-8.5,0.7-12.7c1.1-2.3,0.3-4.9-0.1-7.4
			c-1.3-8.1-3-16-4.2-24.1c-0.3-2.3-1.1-4.6,0-6.9c0.8,0,1.6-0.2,2-1c5-0.3,10-0.6,15-1c0.3,2.9-0.6,5.6-1.6,8.2
			c-3.2,8.1-1,16.3,0,24.4c0.8,6.1,1.8,12.1,2.6,18.1c0.3,2.1,0.3,4.4-1,6.3c-2.3,3.5-2.1,7.2-2.2,11.2c-0.5,18,2.7,35.6,6.1,53.2
			c0.9,4.5-1.6,8.6-1,13.5c2.1,16.7,5.8,33.2,7.6,49.9c1.3,11.7,3.5,23.2,4.5,34.9C323.2,232.1,323.7,233.6,324,235z"/>
		<path fill="#D8CCDA" d="M267,18c1.7-1.6,4.4-0.2,6-2c1,0,2,0,3,0c2,1.3,2.3,3.6,2.9,5.6c2.1,7.9,3.4,16,5.2,23.9
			c0.2,0.8,0.4,1.7,0.3,2.5c-2.1,14,3.6,26.9,5.4,40.3c1.4,11.2,3.6,22.2,4.6,33.5c0.8,9.9,4.1,19.5,6.1,29.3
			c2.2,10.7,5,21.3,5.7,32.3c0.1,1.5,0.5,2.9,0.9,4.4c3.5,14.4,6.4,28.9,9.8,43.3c0.4,1.5,0.6,2.9,0,4.4c-0.7,1.2-1.8,1.3-3,1
			c-0.2-0.2-0.5-0.3-0.7-0.5c-0.9-5.9-2.6-11.6-3.8-17.4c-3.6-17.6-10-34.4-13.4-51.8c-3.1-15.8-9.1-30.7-11.9-46.4
			c-1.2-7.1-2.5-14.5-2.7-21.8c-0.2-7.2-3.3-13.8-4.9-20.7c-1.5-6.6-4.9-13.1-5-19.7c-0.1-8.9-3.3-17.6-1.6-26.6
			C270.7,26.9,268.4,22.4,267,18z"/>
		<path fill="#D6C9D8" d="M291,13c2.4,12.1,4.8,24.3,6.3,36.6c0.1,0.6,0.2,1.5-0.2,1.9c-3.1,3.7-2.5,7.9-1,11.8
			c2,5.3-1.4,10.2-0.2,15.4c2.6,11.1,5.8,22.3,6.3,33.6c0.4,7.9,2.2,15.9,1,23.9c-0.7,4.7,1.5,9.1,2.4,13.6c1.5,7.8,4.7,15.5,5,23.2
			c0.4,11.1,3.2,21.5,5.4,32.2c1.7,8.4,2.9,16.9,4.5,25.3c0.4,1.8,0.5,3.6,0.6,5.4c-0.8,0.6-1.6,0.6-2.4-0.1
			c-3.3-9.6-5.1-19.6-6.9-29.5c-0.5-2.6-0.6-5.3-1.3-7.9c-4.2-17.8-8.1-35.8-10.3-53.9c-1.7-14.3-5.1-28.1-7.8-42.1
			c-0.2-1.1-0.6-2.3-0.5-3.4c1.4-14.1-4.1-27.2-5.9-40.8c-1.2-9.8-2.8-19.6-1.2-29.6c0.5-3.2-0.2-6.3-0.8-9.4
			c-0.3-1.7-1.3-3.5,0-5.3C286.3,13.7,288.7,13.4,291,13z"/>
		<path fill="#D6CAD8" d="M284,14c1.9,6.3,3.8,12.7,1.1,19.3c-0.2,0.6-0.3,1.4-0.1,2c2.8,10.8,0.6,22.3,4.4,33.1
			c2.4,6.8,4.7,14.3,4.2,21.3c-1.3,15.7,5.9,29.7,7.1,44.7c1.9,23,8,45.1,11.8,67.6c1.9,11.4,5.5,22.5,6.5,34
			c-0.3,0.3-0.7,0.6-1.2,0.7c-0.7,0.1-1.4-0.1-1.8-0.7c-0.4-8.9-4.2-17-5.7-25.6c-1.6-9-5-17.7-5.7-26.6c-0.8-10.2-3.4-20.1-5.2-30
			c-1.7-9.7-5.4-19.4-6-29c-0.6-9.7-4.2-18.8-3.6-28.6c0.3-4.4-1.8-9-2.7-13.6c-1.4-6.5-2.6-13-4-19.4c-0.8-3.8-1.3-7.4-0.2-11.3
			c1.5-5.5-1.4-10.8-2.1-16.1c-0.9-6.7-3-13.2-4.6-19.8C278.7,15.3,281.3,14.7,284,14z"/>
		<path fill="#D4CBDA" d="M301,237c0.3,0,0.7,0,1,0c2.8,0.5,5.3-0.9,8-1c1,0,2,0,3,0c0,0,0,0,0,0c-0.1,2.3-1.9,1.8-2.7,1.9
			c2.7,6.1,5.2,12.3,6.4,19.1c-0.7,2.1-2.6,2.5-4.4,2.9c-0.5,0-1.1,0-1.6-0.2c-5.5-4-6-10.7-8.6-16.2
			C301.1,241.5,299.5,239.4,301,237z"/>
		<path fill="#D9E6E5" d="M37,487c0-2.8-1.2-5-3-7c0-1,0-2,0-3c1.5-1.5,3.6-1.5,5.4-2.3c7.9-3.3,16.1-6,21.2-13.8
			c4.3-6.5,11.9-7.5,18.5-10.1c7.1-2.8,14.9-4.5,21.3-8.4c9.8-5.9,20.3-9.6,30.9-13.6c9.5-3.6,19-7.1,28.4-10.7
			c0.6-0.2,1.5-0.2,1.9-0.6c11-11.6,26.7-12.7,40.3-18.3c5.5-2.3,11.1-4,15.9-7.9c6-4.9,14-5.9,21.2-8.3c3.2-1,6.1-1.9,6-6.1
			c0-0.7,0-1.3,0-2c2.6,0.3,2.1,2.5,2.3,4.1c0.4,3.1-0.2,6.2,0.3,9.2c0.1,1.4-0.3,2.7-1.1,3.9c-8.5,5.3-18.1,8.3-27.2,12.4
			c-7.2,3.2-14.1,6.4-20.6,11c-8.5,6-18.5,9-27.9,13.2c-9.4,4.2-19,7.9-26.9,15c-5.1,4.6-12.1,6.2-18.3,9.1
			c-6.7,3.2-13.6,6.3-20.4,9.4c-3.4,1.5-6.1,3.9-8.5,6.8c-5.3,6.5-11.3,12.1-19.1,15.6c-9.2,4.2-18.3,8.8-27.1,13.9
			c-1.9,1.1-3.9,2.9-6.4,1.4C41.6,495.7,40,491,37,487z"/>
		<path fill="#D6E3E2" d="M247,389c-2-2.6-0.6-5.7-1-8.5c-0.3-1.9,0.7-3.9-1-5.5c0-2,0-4,0-6c2.4-1.8,5.6-1.7,8.1-3.4
			c0.5,0,1,0.2,1.4,0.6c1.7,4.4,2.9,8.8,3.4,13.5c-0.5,2.5-2.4,3.6-4.4,4.2C250.6,384.8,248.6,386.7,247,389z"/>
		<path fill="#D9E6E6" d="M253.1,365.8c-1.6,3.9-5.1,3-8.1,3.2c-0.3,0-0.7,0-1,0c-0.4-2.3,0.9-4.9-1-7c0.2-1.5-0.3-2.8-1-4
			c2.2-4.5,4.6-5.5,10.4-3.9C253.6,357.9,255.6,361.7,253.1,365.8z"/>
		<path fill="#CEDBD6" d="M125,604c-1.8-0.7-2.7-3.1-5-3c-1.7-2-3.3-4-5-6c15.2-19.6,32.6-37.2,49.7-55
			c14.1-14.7,28.6-29.1,42.3-44.3c8.4-9.4,17.8-17.9,25.9-27.6c1.3-1.5,2.5-4.3,5.6-2.7c1.6,4.1-1.5,7.2-2.2,10.9
			c-6.8,20.4-16.5,39.2-28.5,57c-19.2,27.5-43.2,50-72.1,67C132.5,602.1,129.5,605.3,125,604z"/>
		<path fill="#D0DDDA" d="M238,465c-8.6,8.8-17.3,17.4-25.7,26.3c-7.9,8.3-15.4,16.9-23.3,25.2c-12.5,13-25.4,25.6-37.7,38.9
			c-11.2,12.1-23,23.8-32.7,37.3c-0.9,1.2-1.9,2.3-3.6,2.3c-6.1-5.3-11.7-10.9-17-17c3.3-4.6,7.6-8.3,12.1-11.6
			c6.2-4.6,11.9-9.8,17.3-15.1c15.7-15.6,32-30.6,48.2-45.7c12.2-11.4,23.4-23.7,34.9-35.6c9.3-9.7,18.1-20,28.8-28.3
			c1.6-1.2,3.1-3.5,5.4-0.9C243.8,449.2,243.5,457.8,238,465z"/>
		<path fill="#D2DFDC" d="M244,440c-6.3,3.4-11.2,8.7-16.4,13.4c-6.7,6.1-12.3,13.4-18.5,19.9c-8.7,9.2-17.2,18.6-26.3,27.2
			c-18.9,17.9-38,35.6-56.8,53.7c-8.8,8.5-18.6,15.9-28,23.7c-1.3-1-2.7-2-4-3c-0.8-3.4-3.6-5-6-7c0.1-1.7-1.5-2.6-2-4
			c13-9.2,24.7-20.1,37-30.3c27.3-22.5,54.2-45.7,81.6-68c6.2-5,12.3-10.1,18.7-15c4.6-3.5,6.7-9.4,10.7-13.7
			c2.5-2.7,4.9-5.4,8.1-7.4c1-0.7,2.2-1.8,3.5-0.3c1.3,3.5,0.2,6.8-1,10C244.4,439.6,244.2,439.8,244,440z"/>
		<path fill="#D4E1DF" d="M74,549c4.8-1.8,7.7-5.8,10.2-9.8c6.4-10.3,16.9-15.7,26.2-22.4c10.9-7.8,22.1-15.2,33-23.1
			c3.9-2.8,6.8-6.8,10.7-9.6c10.8-7.9,22.2-15,32.8-23.2c7.7-5.9,14.3-13.3,22.1-19.1c10.9-8.1,22.5-15.3,33.7-22.9
			c1-0.7,2.1-0.8,3.3-0.8c0.9,0.7,1,1.7,0.9,2.8c-0.1,0.5-0.3,1-0.5,1.4c-10.8,8.1-21.9,15.7-33,23.3c-7,4.8-13.9,9.6-19.2,16.4
			c-7.8,10.1-18.2,17.4-28.4,24.9c-12.1,9.1-24.6,17.7-36.3,27.2c-1.7,1.4-3.4,2.7-4.7,4.4c-10,13.5-23.1,23.7-36.5,33.7
			c-2.6,1.9-4.4,5.1-8.3,4.8c-0.3,0-0.7,0-1,0C78.3,553.7,75.3,551.9,74,549z"/>
		<path fill="#D2E0DE" d="M80,557c11.3-8.1,22.1-16.8,32.5-26.1c2.6-2.3,4.8-5.1,6.9-7.8c10.4-13.6,25.3-21.6,38.5-31.9
			c9.9-7.7,20.3-14.8,29.5-23.4c1.9-1.8,3.7-3.8,5.2-5.9c6.6-9.6,16.8-14.8,25.8-21.5c8-5.9,16.3-11.3,24.5-17
			c1-0.7,1.8-1.5,3.1-1.4c1.5,2.6,2.6,5.1-1,7c-7.6,5.1-13.2,11.9-17.9,19.7c-0.6,1-1.3,2-2.2,2.7c-21.8,15.7-41.6,33.8-62.4,50.8
			c-19.9,16.2-39.3,33.1-58.9,49.7c-4,3.4-8.1,6.8-12.2,10.2c-1.6,1.3-3.4,2.2-5.5,2c-1-0.7-2-1.3-3-2C83.1,559.7,80.7,558.8,80,557
			z"/>
		<path fill="#D7E4E3" d="M44,500c9.5-4.7,18.9-9.8,28.5-14.1c9.9-4.5,18.3-10.5,24.7-19.5c3-4.3,8.2-5.6,12.6-7.7
			c9.3-4.4,18.8-8.4,28.1-12.7c1.6-0.7,3.3-1.6,4.7-2.8c12.2-11.2,28.2-15,42.6-22c5.7-2.8,11.5-5.1,16.4-9.2
			c5.5-4.5,12.4-6.3,18.7-9.1c8.5-3.7,17.1-7.2,25.6-10.9c2.2,1,2.2,2.8,1.6,4.8c-4.4,3.5-9.3,6.4-14.3,9c-9.8,5-19.6,9.9-29.5,14.8
			c-5.7,2.8-11.1,6.1-15.7,10.6c-1.7,1.7-3.6,3-5.7,4c-12.9,6.3-25.1,13.8-38.3,19.5c-5.6,2.4-10,5.1-12.8,10.6
			c-3.3,6.5-9.5,10.1-15.8,13.3c-8.2,4.2-16,8.9-24.1,13.2c-4.3,2.3-8.1,5.2-11.6,8.6c-6.8,6.5-15.3,10.6-23.6,14.8
			c-1.4,0.7-2.9,0.9-4.2-0.2c-0.7-0.7-1.3-1.3-2-2C48.8,508.3,45.9,504.4,44,500z"/>
		<path fill="#C8CEC7" d="M189,649c-2.3-1.7-4.7-3.3-7-5c-0.9-2.4,0.8-4.1,1.8-5.9c21.7-39,43.9-77.7,65.7-116.7
			c15.8-28.2,31.7-56.3,47.3-84.6c1-1.9,2-3.9,4-5c3.4,0.3,6,1.9,8.2,4.4c1.1,2.3-0.3,4.2-1.1,6.1c-10.7,25-21.4,50-32.1,75
			c-8.6,20.1-17.5,40.2-26,60.3c-11.1,26.3-22.1,52.6-33.1,78.9c-0.6,1.4-1.1,2.8-2.7,3.4C205.2,657.3,197.6,652.1,189,649z"/>
		<path fill="#84857E" d="M309,436.2c-3-0.7-5.5-2.5-8-4.1c-0.8-0.3-1.3-0.8-1.5-1.6c0-1.2,0.6-1.9,1.8-2.1c4.3,0.7,7.7,3.5,11.7,5
			c3.1,1.1,6.1,2.3,9.4,3.1c1.5,0.3,3.5,0.1,3.7,2.4c-1.3,0.1-2.1,0.7-2.1,2.1c-1.3-0.3-2.6-0.6-4-0.9
			C316.3,438.8,312.7,437.5,309,436.2z"/>
		<path fill="#C7C9BF" d="M326,442.1c2.7,0.3,5.3,0.7,8,1c-1.7,10.6-3.4,21.2-5,31.8c-1.9,12.9-3.6,25.8-5.4,38.8
			c-1.9,13.2-3.7,26.5-5.6,39.7c-1.8,12.4-3.6,24.8-5.4,37.3c-2.2,15-4.4,30.1-6.6,45.1c-2.2,14.7-4.3,29.4-6.5,44.1
			c-0.2,1.6-0.3,3.3-0.5,4.9c-10-2-20-4-30-6c3.4-14.3,6.7-28.6,10.2-42.9c9.1-37.8,18.3-75.5,27.4-113.3
			C313.1,495.8,319.5,469,326,442.1z"/>
		<path fill="#D6E3E1" d="M99,511c5.4-9.9,14.9-15.2,23.9-20.9c10.5-6.7,21-13.3,31.4-20c4.1-2.7,6.8-6.5,8.6-11.1
			c2.7-4.2,7.8-5.9,10.6-10c14.7-9.8,30.4-18,45.5-27.2c2-1.2,4-3.1,6.8-2c0.3,3.7-2.3,5.6-4.9,7.3c-15.4,10.1-30.9,19.9-46.9,29.1
			c-4.1,2.4-7.6,5.2-10.3,9.1c-1.7,2.5-3.7,4.7-5.9,6.8c-5.3,6.2-12,10.8-18.7,15.4c-10.4,7-21,13.8-31.5,20.8
			C105.1,509.9,102.3,511.1,99,511z"/>
		<path fill="#D5E3E1" d="M158,472c4.3-8.8,11.1-14.7,19.7-19.5c13.3-7.5,26.1-15.8,39.1-23.7c3.8-2.3,6.9-5.1,9.2-8.8
			c0-0.3-0.1-0.7,0.1-1c1.9-3.9,16.6-12.4,21.1-12.1c0.4,0.7,0.4,1.5-0.2,2.1c-10.7,10.8-24.2,17.6-36.7,25.8
			c-0.6,0.4-1.2,0.6-1.7,1.1c-10.7,11.7-24.9,18.5-37.8,27.1C166.5,465.9,162.9,469.9,158,472z"/>
		<path fill="#CFDCDA" d="M247,409c0-0.7,0-1.3,0-2c-1.6-1.9-1.4-4.1-1.2-6.3c0.1-0.5,0.2-1,0.5-1.5c4.6-3.7,9.9-5.9,15.5-7.8
			c1.4,0.1,2.2,1.1,3,2.1c1.5,2.8,3.9,5.2,4.2,8.6c0,1-0.3,2-1.1,2.7c-5.7,4.6-11.8,8.4-17.9,12.3c-1,0.6-2.2,0.7-3.2-0.2
			c-0.2-1-0.5-2,0.3-3C247,412.3,247,410.7,247,409z"/>
		<path fill="#D2E0DE" d="M247,414c0,1,0,2,0,3c0.9,1.6,1.7,3.2-1,4c0-1,0-2,0-3C246.1,416.6,245.5,415.1,247,414z"/>
		<path fill="#D7E4E3" d="M247,399c0,0.3,0,0.7,0,1c-13.3,11.4-27.9,20.7-43.5,28.6c-6.8,3.4-13.3,7.6-20.2,10.8
			c-4.8,2.2-6.9,7.1-10.8,10.2c-11.7,7.6-24,14.2-36.1,21c-6.5,3.6-12.4,8.1-18.4,12.5c-12.1,8.8-25.4,15.7-38.1,23.5
			c-6,3.7-11.4,7.9-16.1,13.1c-1.8,2-3.9,3.6-5.8,5.4c-1.9-1.2-1.7-4.1-4-5c-0.7-1.7-1.3-3.3-2-5c9.6-2.4,18-7.6,24.9-13.9
			c7.2-6.5,15.3-11,23.5-15.7c6.7-3.9,13.7-7.5,20.5-11.3c6.1-3.5,10-9,12.6-15.3c0.5-1.2,1.2-2.1,2.3-2.4
			c11.6-2.9,21.4-9.8,31.9-15.1c8.3-4.2,16.8-7.8,23.7-14.5c5.4-5.2,12.8-7.6,19.4-11c10.6-5.5,21.7-10,31.7-16.8
			c1.3-0.9,3-1.3,4.6-1.9C247.6,397.7,247.6,398.3,247,399z"/>
		<path fill="#D5E3E1" d="M118,483c5-7.7,13.3-10.8,20.7-15.1c11-6.5,22.2-12.6,33.3-18.9c1.2-0.7,2-0.7,2,1c-2.7,4.2-6.9,6.5-11,9
			c-13.5,8-27,16.1-40.6,24C121.2,483.7,119.4,486.7,118,483z"/>
		<path fill="#D6E3E1" d="M65.7,520.1c14.1-10.5,29.8-18.5,45.4-26.7c-13.9,10.8-29.2,19.3-44,28.7
			C66.6,521.4,66.2,520.7,65.7,520.1z"/>
		<path fill="#84857E" d="M342.9,443.8c-1,0.1-2,0.2-3,0.2c-1.1-0.2-2.3,0-3.1-1C338.9,443.2,341.1,442.3,342.9,443.8z"/>
		<path fill="#C7D0CA" d="M300,430.9c0.3,0.4,0.6,0.8,1,1.2c-16.7,29.7-33.3,59.3-50,89c-15.6,27.8-31.2,55.6-46.8,83.4
			c-7.4,13.2-14.8,26.3-22.2,39.5c-5-1.7-9.3-4.8-13.7-7.5c-1.7-1-3.2-2.4-5.2-2.5c-1-1-2-2-3-3c35.7-52.9,70.6-106.3,105.6-159.6
			c8.4-12.8,17-25.5,25.3-38.3c1.1-1.7,1.6-3.6,2.9-5.2C296.9,426.8,298.4,428.9,300,430.9z"/>
		<path fill="#C6D1CC" d="M294,428.1c0,1.7-0.2,3.1-1.2,4.7c-7.2,10.3-14.6,20.6-21.3,31.3c-26.1,41.5-53.7,81.9-80.7,122.8
			c-8.9,13.4-17.7,27-26.6,40.4c-1,1.5-1.6,3.9-4.2,3.8c-1-0.3-2-0.7-3-1c-4.1-4.1-8.7-7.6-14-10c-0.7-1.3-1.7-2.3-3-3
			c-2-1.4-3.3-3.7-6-4c-1.6-2.1-3-4.5-6-5c-1-1.3-2-2.7-3-4c10.1-3.4,18.5-9.6,26.9-15.7c11.2-8.2,22.1-16.9,31.5-27.2
			c7.6-8.3,14.9-16.8,21.5-26c0.6-0.8,1.3-1.4,2-2.1c25.2-35.1,52.3-68.8,78.1-103.5c1.4-1.8,2.5-3.9,4.9-4.9
			C292.3,424.6,293.9,425.6,294,428.1z"/>
		<path fill="#F9F9F8" d="M326.1,439c-8.6-2.5-17.2-5.3-24.8-10.1c-8-3-14.7-7.7-20.3-14.2c-6.5-6.7-12.8-13.7-16.5-22.6
			c-4.5-8.8-8.5-17.8-9.8-27.7c0-4.5-1.6-8.8-1.1-13.3c0-2,0-4,0-6c0-2.3,0-4.6,0.4-6.8c1.4-6.1,1.3-12.6,3.5-18.5
			c0.8-2.1,1-4.6,3.5-5.7c7-16.2,17.3-29.8,31.1-40.7c0.5-3.1,3.4-3.7,5.6-5c1.7-1,3.3-2.1,4.9-3.2c3.3-2.2,6.9-3.7,10.5-5.1
			c4.3-1.9,8.8-3,13.3-4.1c25.5-5.6,49.5-1.8,71.7,12.2c1.8,1.1,3.9,2.1,4.6,4.3c17.1,13.2,28.9,30,35.2,50.6
			c1.4,8.1,3.2,16.2,3.1,24.5c-0.1,9.4-1.4,18.5-3.9,27.5c-11,32.3-32.6,53.6-65.5,63C356.8,442.3,341.4,442.1,326.1,439z"/>
		<path fill="#E2EFF0" d="M40,351c0.1-0.1,0.1-0.3,0.2-0.4c4.1-8.7,11.2-10.8,20.2-9.7c4.7,0.6,9.7-0.4,14.4,0.2
			c7.3,1,11.9-2,15.2-8.1c0.3,0,0.7,0,1,0c1.2-1.1,2.6-1.4,4.2-1.2c18.2,1.6,36.5,2.2,54.7,3.4c12.9,0.8,25.9,1.4,38.8,2.3
			c3.4,0.2,6.6-0.2,9.5-2.2c2.6-1.8,5.6-1.9,8.6-1.6c13.4,1.5,26.8,2.4,40.2,2.8c2,2.7,1.8,3.4-2.1,5.5c-13.9-0.7-27.9-2.5-41.7-1.6
			c-11.5,0.8-23.1,1.7-34.6,1.6c-4.8,0-9.6-0.6-14.4-1c-3-0.2-5.5,0.6-7.2,3.3c-1.9,2.8-4.6,3.8-8.1,3.8
			c-11.8-0.2-23.7,0.2-35.5-0.1c-16.6-0.5-33,2.2-49.5,3C49.3,351.1,44.7,351,40,351z"/>
		<path fill="#DDE9EA" d="M245,342c0.7-1.8,3.1-2.7,3-5c1-2.3,2.9-3.5,5.2-4.1c0.5,0.5,0.7,1.2,0.8,2c0.1,0.7,0,1.4-0.2,2.1
			c-0.6,1.8-0.6,3.6-0.8,5.4c-0.1,0.5-0.2,0.9-0.3,1.4c-0.7,3-0.3,6-0.2,9c0,0.5-0.2,0.9-0.6,1.2c-3.2,1.5-7.7-0.1-9.9,4
			c0-0.3,0-0.7,0-1c-0.5-3.3-1.4-6.6-1-10C243.1,345.9,243.6,343.6,245,342z"/>
		<path fill="#919999" d="M253.1,335c-0.1-0.7-0.1-1.3-0.2-2c-0.5-0.7-0.4-1.4,0.2-2c1-2.6,1.8-5.2,1.8-8c0.4-2,0.8-4,1.3-6
			c2.1-1,1.5-3.6,3-5c1.3,0,1.8,0.8,1.9,2c-3.4,7.7-4.1,16-6,24.1C253.8,337.5,254.1,335.8,253.1,335z"/>
		<path fill="#E2F0F0" d="M253,331c-0.1,0.7-0.1,1.4-0.2,2c-1.6,1.3-3.2,2.6-4.9,4c-4.3,2.7-9.1,0.6-13.6,0.6
			c-8.8,0.2-17.7-1.6-26.6-2.5c-3.6-0.4-6.9-0.4-10.3,2.2c-4,3.2-9.4,1.9-14,1.3c-8.4-1.1-16.8-1.1-25.2-1.6
			c-8.8-0.5-17.5-1.1-26.3-1.4c-13.7-0.4-27.4-1.8-41-2.8c1.5-2.9,2.9-5.8,4.5-8.7c0.9-1.6,2.6-1.4,4-1.3
			c11.5,1.2,22.9,2.4,34.3,3.9c3.1,0.4,5.3-1.6,8.1-1.9c0.1,3.3,1.7,4.5,5,4.6c10.8,0.6,21.5,1.6,32.2,2.8c3.9,0.4,7.6,0.2,10.8-2.4
			c3.8-4.2,8.6-2.5,13-1.9c13.2,1.8,26.4,3.9,39.6,5.8C246.4,334.4,250.2,334.3,253,331z"/>
		<path fill="#E2EFF0" d="M190,330c-2.2,6-7.4,4.1-11.5,3.8c-11-1-22-2.3-33.1-2.8c-5.6-0.3-6.3-1.5-3.5-6c2.5-2.1,5.1-0.1,7.5,0.2
			C163,326.5,176.5,328.3,190,330z"/>
		<path fill="#80777F" d="M402.8,272.4c-10.5-6.7-21.4-12.6-33.8-15.2c-13.3-2.8-26.6-3.3-39.9-0.3c-1,0.2-2,0.1-3,0.1
			c-1.8,0.4-4.3,1.5-2.6-2.2c1.3-1,2.8-1.6,4.5-1c2.1,0.5,4-0.6,6-1c2.5-1.8,5.4-2.3,8.4-2.4c11.2-0.3,22.2,0.6,32.9,4
			c4.7,1.5,9.3,3.3,13.8,5.2c4,1.9,7.7,4.2,10.8,7.3c0.7,1.9,2.8,2,3.9,3.2C403.6,271,403.2,271.7,402.8,272.4z"/>
		<path fill="#C5BEC4" d="M400,267.1c-4.2-1-7-4.7-11-6.1c-0.5-1.1-0.5-2.4,0.1-3.4c5.3-10.4,9.1-21.4,14.9-31.5
			c1.7-1.5,4.4-0.2,6-2c4.3-0.7,8.7-1.3,13-2c3.7,1,1,3,0.4,4c-4.9,8.4-10.1,16.6-15,25C405.4,256.3,400.9,260.8,400,267.1z"/>
		<path fill="#C5BBC4" d="M404,226c-1.6,7.7-6,14.2-8.8,21.4c-1.8,4.6-4.1,9-6.2,13.5c-4.4-1.7-8.7-3.4-13.1-5
			c-1.6-0.8-2.2-2.1-1.7-3.7c2.1-7.4,3.2-15.2,6.7-22.2c1-0.3,2-0.7,3-1C390.7,228,397.3,227,404,226z"/>
		<path fill="#C4B5C4" d="M381,230c-0.6,7.2-3.4,13.8-5.1,20.7c-0.4,1.8-1.2,3.5,0.1,5.2c-13.8-3.7-27.7-5.2-41.9-3
			c0.2-3.3,0.1-6.4-0.7-9.7c-0.7-2.7-0.8-5.6,0.7-8.2c11.1-1,22.2-1.8,33.3-3.6C371.8,230.7,376.4,230.5,381,230z"/>
		<path fill="#CABECC" d="M328,253.8c-1.3,0.4-2.7,0.9-4,1.3c-0.8,0.4-1.5,0.5-2.3,0c-3-4.5-3.6-9.8-5-14.8
			c-0.4-1.5-0.6-3.3,1.3-4.3c0.3,0,0.7,0,1,0c0.7,0,1.3,0,2,0c0.7,0,1.3,0,2,0c0.7,0,1.3,0,2,0C326.2,241.9,328.8,247.6,328,253.8z"
			/>
		<path fill="#918F97" d="M303.1,266.1c-3.6,2.4-7.3,4.8-10.9,7.2c-0.4-0.8-0.8-1.6-1.2-2.4c0.3-0.4,0.7-0.8,1-1.2
			c1-0.7,2-1.3,2.9-2c0.5-0.8,1.1-1.6,2.2-1.5c1.5-0.4,2.9-1,3.9-2.3c0.4-0.3,0.8-0.3,1.3-0.2C303,264.4,303.6,265.1,303.1,266.1z"
			/>
		<path fill="#DBD6E4" d="M301.9,263.9c-0.3,0-0.6,0.1-1,0.1c-3.4-9.6-9.5-17.8-14-26.9c1.7,0,3.3,0,5,0c1,0,2,0,3,0
			c1.4,1.2,2.5,2.7,3,4.5c1.8,5.7,4.4,11,7.6,16.1c0.6,1,1,2.1,1,3.3C306,263.2,304.2,263.9,301.9,263.9z"/>
		<path fill="#D8D1DF" d="M306,261.1c-4.5-7.6-8.3-15.6-11-24.1c0.7,0,1.3,0,2,0c0.7,0,1.3,0,2,0c0.7,0,1.3,0,2,0
			c3.1,7.5,4.8,15.6,10.1,22C310.2,261.8,308.3,261.9,306,261.1z"/>
		<path fill="#E2DEED" d="M297.1,266.2c-0.7,0.5-1.5,1-2.2,1.5c-5.8-8.8-11.6-17.6-17.3-26.4c-0.9-1.4-3.4-3.2,0.4-4.3
			c0.7,0,1.3,0,2,0C285.7,246.7,291.4,256.5,297.1,266.2z"/>
		<path fill="#CFC4D3" d="M318,236c-1.2,5.4,2.1,9.8,3,14.8c0.3,1.4,1.1,2.7,1,4.3c-1.3,3-3.4,3.4-6,1.9c-1.8-5.1-3.2-10.4-5.4-15.4
			c-1.3-3.2-0.6-4.7,2.4-5.6c1,0,2,0,3,0C316.7,236,317.3,236,318,236z"/>
		<path fill="#877F88" d="M316,257c2.2,0.1,4.2-0.7,6-1.9c0.7,0,1.3,0,2,0c-1.1,2.7,1.2,1.5,2.1,1.9c-4.3,1.3-8.7,2.7-13,4
			c-1.9,0.2-1.7-0.8-1.1-2C313.3,258.4,314.7,257.7,316,257z"/>
		<path fill="#8C868E" d="M312,259.1c0,0.8,0.3,1.6,1.1,2c-3.4,1.7-6.7,3.4-10.1,5.1c-0.4-0.8-0.8-1.5-1.1-2.3
			c1.4-0.9,2.7-1.9,4.1-2.8c1.8-0.5,3.6-0.8,5-2C311.4,259,311.7,259,312,259.1z"/>
		<path fill="#D2DFDE" d="M247,399c0-0.7,0-1.3,0-2c0.1-1.8,0-3.5-1-5c0.3-1,0.7-2,1-3c-0.6-3.1,1.3-4.4,3.8-5.4
			c2.2-0.9,4.9-1,6.2-3.6c4.2,2.9,5.1,7.3,5.1,12C257.1,394.3,252,396.7,247,399z"/>
		<path fill="#878F8E" d="M262.1,392c-1.7-4-3.4-8-5.1-12c-0.9-4.7-3-9.1-3-14c-0.1-1.9,0.9-1.6,2-1c1.6,9.6,5.7,18.3,9.7,27.1
			c-0.3,0.9-0.7,1.8-1.8,2C263.3,393.4,262.7,392.7,262.1,392z"/>
		<path fill="#8E9696" d="M256,365c-0.9,0-1.6,0.2-2,1c-0.3-0.1-0.6-0.2-0.9-0.3c-0.4-3.9-0.8-7.9-1.2-11.8c0-0.3,0-0.7,0-1
			c-0.5-3.3-0.5-6.6,0-10l0.3,0c1-2-0.2-4.2,0.8-6.1c0-0.6,0.1-1.2,0.1-1.9c2.1,0.1,1.9,1.7,2,3.1c-0.1,2.3-0.1,4.6-0.2,6.9
			c-0.6,2-0.6,3.9,0,5.9C255.2,355.6,255.6,360.3,256,365z"/>
		<path fill="#C6D2CD" d="M290,425c-20.2,26.6-40.3,53.2-60.5,79.8c-6.7,8.8-13.5,17.6-20.3,26.3c-0.6,0.8-1.5,1.3-2.3,1.9
			c4.2-7,8.5-14,12.5-21.2c6.3-11.5,11.5-23.4,15.6-35.8c7.3-9.7,15.8-18.4,23.7-27.5c8.4-9.6,16.9-19.1,25.3-28.7
			C286.9,420.4,289.5,421.5,290,425z"/>
		<path fill="#C8D5D1" d="M284,420c-1.9,5.6-6.6,9-10.3,13.2c-12.3,14.2-24.9,28-37.5,41.9c-0.3,0.4-0.8,0.5-1.2,0.8
			c0.8-3.7,3.4-6.9,3-11c3-8.1,4.7-16.5,6-25c0,0,0,0,0,0c10.9-9,21.3-18.6,31.7-28.1c2.3-0.6,3.4,1.4,4.8,2.5
			C281.5,416.4,284.6,417,284,420z"/>
		<path fill="#CBD8D5" d="M276,412c-3.3,5.3-8.4,8.7-12.7,13c-4.5,4.6-9.7,8.5-14.5,12.8c-1.4,1.3-2.7,2.5-4.8,2.2
			c0.3-3.7,0.7-7.3,1-11c1.9-2.1,0.6-4.7,1-7c0-0.3,0-0.7,0-1c1.5-1.1,0.9-2.6,1-4c7.5-4.3,15.4-8,21-15
			C272.5,403.9,274.8,407.5,276,412z"/>
		<path fill="#D2DFDC" d="M115.4,530c2.1-1.6,4.3-3.2,7.1-5.4C121.2,528.5,118.3,529.2,115.4,530z"/>
		<path fill="#838883" d="M284,420c-1.4-1.6-2.8-3.3-4.3-4.9c0.4-0.9,1-1.4,2-1c5.4,6.3,13,9.9,19.5,14.8c-0.9,0.4-1.2,1.1-1.3,2.1
			c-2.3-0.4-3.6-2.8-6-2.8c-1.3-1.1-2.2-2.7-4-3.1C288,423.3,286,421.7,284,420z"/>
		<path fill="#D6E3E1" d="M174,450c-0.4-0.8-1.2-1-2-1c4.2-7,10.8-10.8,17.8-14.5c12.8-6.7,25.3-13.9,38-20.9
			c5.4-3,8.6-8.8,14.4-11.4c1.6-0.8,3-2.1,4.9-2.2c0,2.3,0,4.7,0,7c-7.3,3.8-15.2,6.7-21,13c-8.5,3-15.6,8.7-23.4,13
			C192.9,438.4,183.5,444.3,174,450z"/>
		<path fill="#838B89" d="M281.8,414.1c-0.7,0.3-1.3,0.7-2,1c-1.3-1-2.5-2.1-3.7-3.1c-2.7-3.4-5.3-6.7-8-10.1
			c-1.4-2.6-2.7-5.2-4.1-7.9c0.6-0.7,1.2-1.4,1.8-2C269.5,400.6,275.9,407.1,281.8,414.1z"/>
		<path fill="#F5F6F4" d="M262,348c-2.2-44.5,39.3-89.3,91.4-86.3c39.8,2.3,83.9,38.6,80.9,92c-2.2,39.6-38.9,83.4-91.9,80.4
			C301.3,431.8,260.4,394.7,262,348z"/>
		<path fill="#919999" d="M254.9,351c-1.3-2-1.3-3.9,0-5.9C254.9,347,254.9,349,254.9,351z"/>
		<path fill="#D9E6E6" d="M251.9,343c0,3.3,0,6.6,0,10C250.5,349.6,250.5,346.3,251.9,343z"/>
		<path fill="#919999" d="M253,336.9c-0.2,2.1,0.7,4.3-0.8,6.1C252.1,340.9,251.5,338.8,253,336.9z"/>
		<path fill="#F2F2F0" d="M426,348.3c2.2,39.7-33.4,81.4-84.4,77.9c-34.7-2.4-75.2-33.2-71.8-84.6c2.3-35.1,33.2-74.8,84-71.9
			C391.3,272,427.9,304.9,426,348.3z"/>
		<path fill="#F5F5F4" d="M404,348.2c1.3,28.9-25.9,57.4-58.4,56c-26.8-1.1-55.2-25.7-53.8-58.9c1.2-27,25.7-55.1,59.1-53.5
			C378.3,293.2,405,317.6,404,348.2z"/>
		<path fill="#F9F9F8" d="M347.8,396c-24.7,1.8-49.3-22-48.1-50.3c0.9-22.2,21.3-47.5,51.1-46.1c21.8,1.1,46.9,21.3,45.6,51
			C395.2,373.8,373.6,397.8,347.8,396z"/>
		<path fill="#A3A3A3" d="M348.2,390c-22,1.5-43.6-19.4-42.5-44.1c0.9-20,19.4-41.1,44.1-40.2c20,0.8,41.6,19.2,40.4,44.3
			C389.3,370.5,370.7,391.1,348.2,390z"/>
		<path fill="#FEFEFE" d="M387,348.3c1.2,19.7-17.4,39.6-40.3,39c-19.2-0.6-38.9-17.9-38-41c0.7-18.3,17.5-38.4,41-37.4
			C369,309.6,388.3,327.1,387,348.3z"/>
	</g>
</g>
</svg>
