<?xml version="1.0" encoding="utf-8"?>
<!-- Generator: Adobe Illustrator 18.1.1, SVG Export Plug-In . SVG Version: 6.00 Build 0)  -->
<svg version="1.1" id="Laag_1" xmlns="http://www.w3.org/2000/svg" xmlns:xlink="http://www.w3.org/1999/xlink" x="0px" y="0px"
	 viewBox="0 0 612 792" enable-background="new 0 0 612 792" xml:space="preserve">
<g>
	<g>
		<path display="none" fill="#FEFEFE" d="M-341.9-112c106,0,212,0,318-0.1c3.4,0,4.1,0.7,4.1,4.1c-0.1,106.3-0.1,212.7-0.1,319
			c-2.1,0-2-1.8-2.3-3.1c-1.5-14.9-3.3-29.7-7-44.3c-0.6-2.3-1.1-4.5-1.1-6.9c-2-9.9-4.5-19.7-8.5-29c-1.1-2.6-2-5.3-2.4-8.1
			c-4.2-13.6-10-26.5-16.6-39.1c-4.4-10.1-9.8-19.6-16.3-28.5c-0.8-1.1-1.6-2.1-2.1-3.4c-2.3-4.8-5.1-9.2-8.7-13
			c-1.4-1.5-2.5-3.1-3.3-4.9c-3.5-6.6-9.4-11.2-13.7-17.1c-4.2-6.2-9.4-11.7-14.7-17c-5.7-5.7-11.2-11.5-17.2-16.9
			c-5.4-4.8-10.7-9.9-16.6-14.2c-4.4-4.1-10-6.7-14.4-10.8c-4.3-4.3-10-6.5-14.8-10.1c-6.2-4.7-12.9-8.4-19.7-12
			c-6-3.9-12.7-6.6-19.1-9.8c-4.1-2.6-8.9-3.7-13.1-6c-5.8-2.8-11.9-4.7-17.9-6.9c-5.8-2.5-11.8-4.2-17.8-6.1
			c-6.3-1.9-12.6-3.6-19-5c-7.7-2-15.6-3.2-23.4-4.5c-7.3-2-14.9-1.5-22.3-3c-3.3-0.7-6.7-0.6-9.8-1.9
			C-342.1-110.9-342.2-111.4-341.9-112z"/>
		<path display="none" fill="#FEFEFE" d="M-19.9,260c0,105.9,0,211.8,0.1,317.8c0,3.6-0.7,4.3-4.3,4.3
			c-106.3-0.1-212.5-0.1-318.8-0.1c0.3-2.6,2.5-2.1,4.2-2.4c4.2-0.9,8.5-0.7,12.7-1.6c5-0.5,10-1.1,15-2c7-1.2,14-2.3,20.8-4
			c6.4-1.6,12.8-3,19.1-5c8.4-2.2,16.6-5.1,24.8-7.9c9.4-3.6,18.8-7.4,27.8-11.9c6.4-3.2,13.1-5.7,19-9.9c5.4-3.8,11.8-5.8,17-10
			c7.3-5,15.3-9,21.8-15.1c8.1-5.8,16.1-11.7,23.2-18.8c8.2-7.4,16.6-14.7,23.7-23.2c6.1-7.2,13-13.6,18.7-21.2
			c1.9-2.5,3.9-4.9,5.4-7.7c10.5-12.8,18.7-27.2,27.1-41.5c1.3-2.1,2.2-4.4,3-6.8c19.8-36.9,31-76.5,36.2-117.9
			c0.5-3.8,0.4-7.6,1.3-11.4C-21.9,262.2-22.4,260.1-19.9,260z"/>
		<path display="none" fill="#FEFEFE" d="M-713.9,212c0-106.6,0-213.2-0.1-319.8c0-3.6,0.7-4.3,4.3-4.3c106,0.1,211.9,0.1,317.8,0.1
			c0.3,0.4,0.3,0.9,0,1.3c-0.6,0.5-1.3,0.7-2,0.8c-1.7,0.1-3.4,0.1-5,0.7c-0.5,0.2-1,0.3-1.5,0.3c-7.5,0.3-14.9,1.7-22.4,2.8
			c-6.7,0.9-13.3,2.2-19.8,4.1c-5.8,0.7-11.4,2.4-16.9,4c-7.8,1.6-15.2,4.6-22.8,7c-8.4,3.1-16.8,6.1-24.9,10c-8,3-15.3,7.3-23,11
			c-6.2,3.4-12.3,7-18.4,10.7c-7.6,4.6-14.8,9.7-22,14.9c-6.9,4.7-13,10.3-19.6,15.3c-7.4,6.2-14.5,12.7-21.2,19.7
			c-8.3,7.8-15.7,16.4-23,25.1c-11.9,14.6-22.5,30.1-32.1,46.4c-17.8,31.2-30.7,64.3-38.2,99.4c-3.2,15.2-5.3,30.5-6.8,45.9
			c-0.1,1.5-0.1,3-0.9,4.3C-712.9,212.3-713.4,212.3-713.9,212z"/>
		<path display="none" fill="#FEFEFE" d="M-391.9,582c-105.9,0-211.8,0-317.8,0.1c-3.6,0-4.3-0.7-4.3-4.3
			c0.1-108,0.1-215.9,0.1-323.8c3.2,0.8,2.3,3.6,2.4,5.6c0.5,8,1.3,16,2.5,23.9c2.3,18.3,6.5,36.2,11.9,53.9
			c3.3,11.3,7.7,22.2,12,33.1c3.9,9.2,8.3,18.2,12.9,27.1c4.7,8.5,9.5,16.9,14.9,25c5.2,8.3,11,16.2,16.9,24
			c6.5,8.7,13.7,16.7,21,24.7c6.3,6.4,12.6,12.8,19,19c5.5,4.4,10.5,9.4,16.1,13.7c5,3.6,9.7,7.8,14.8,11.3
			c4.5,3.5,9.5,6.5,14.2,9.7c4.4,3,8.9,5.8,13.6,8.3c4.6,2.8,9.2,5.6,14.1,7.9c6.7,3.3,13.2,7,20.2,9.6c6.4,3.2,13.2,5.6,19.8,8.2
			c7.7,2.8,15.4,5.4,23.3,7.5c7.9,2.2,15.6,4.6,23.7,6.1c6.9,1.4,13.9,2.7,20.9,3.8c8.3,1.2,16.7,1.9,25,3.1
			c0.9,0.1,1.7,0.3,2.4,0.8C-391.7,580.9-391.6,581.4-391.9,582z"/>
		<path fill="#666665" d="M-19.9,260c-2.4,6.1-2,12.6-2.8,18.9c-4.6,35.9-14.5,70.2-29.8,102.9c-2,4.2-4.4,8.2-6.5,12.2
			c-2.1,2.2-2.7,0.4-2.9-1.3c-0.3-2.2-0.1-4.5-0.8-6.7c-0.1-2.4,1.2-4.3,2.1-6.4c4.8-10.4,9.3-21,13-32c4.3-11.9,7.9-24,10.5-36.4
			c3.7-16.3,6-32.8,7.8-49.3c0-2.9-0.1-5.8,0.1-8.6c0.1-1.2,0.3-2.3,1.1-3.2c0.5-0.3,1-0.3,1.5,0.1c0.2,0.8,0.3,1.6,0.2,2.4
			c-1.3-12.2-1.2-24.4,0.2-36.6c-0.3,1.7,0.3,3.5-0.6,5.2c-2.4-0.4-2.1-2.4-2.4-4.1c-0.2-3.8-0.1-7.6-0.1-11.4
			c0.2-1.9,0.2-3.9-0.5-5.8c-1.1-4.3-1.2-8.7-2-13c-0.4-3.8-1.6-7.6-1.3-11.5c0.2-1.3,0.2-3.1,1.8-3.1s1.7,1.8,2,3.1
			c2,9.3,2.9,18.7,3.9,28.1c0.2,1.5-0.4,3.1,2.3,1.9c2.6-1.2,1.3,1.9,2.2,2.7c0.5,1-0.3,2.5,1.2,3c0,1.3,0,2.7,0,4
			c-0.8,1.3-0.8,2.7,0,4c0,1.7,0,3.3,0,5c-0.8,2.7-0.8,5.3,0,8c0,2,0,4,0,6c-0.8,2.7-0.8,5.3,0,8c0,1.7,0,3.3,0,5c-0.7,1-0.7,2,0,3
			C-19.9,256-19.9,258-19.9,260z"/>
		<path fill="#EEEFEE" d="M-709.9,284c-2.3-7.8-2.2-15.9-3-23.8c-0.2-2.1,0.8-4.3-1-6.2c0-10.3,0-20.7,0-31c1.4-3.6-0.3-7.4,1-11
			c0.5-17.4,3.5-34.5,7.1-51.5c6.6-31.3,17.8-61,32.8-89.3c1.9-3.5,4-6.8,6.1-10.2c1.7,3.1-0.1,6.5,1,9.6c-0.5,4.9-3.6,8.7-5.6,13.1
			c-1.8,4.1-4.1,7.9-5.6,12.1c-1.1,2.4-2.3,4.7-3.1,7.2c-0.7,1.5-1.4,3-2,4.6c-2,5.4-4,10.8-5.9,16.2c-6.9,20.1-12.1,40.6-14.9,61.7
			c-1.9,12.2-3.3,24.5-3.5,36.9c0,8.4,0,16.8,0,25.2c0,7.4,0.9,14.7,1.7,22.1c0.2,1.5,0.3,2.9,0,4.4
			C-706.8,277.2-706.6,281.5-709.9,284z"/>
		<path fill="#989998" d="M-358.9,582c-4.7,0-9.3,0-14,0c-1.8-2.6-1.4-4.8,1.1-6.7c7.4-1.2,14.9-1.1,22.3-0.1c2.2,1.9,1.1,3.7,0,5.6
			c-1,0.9-2.1,0.5-3.2,0.6C-354.7,581.7-356.9,580.9-358.9,582z"/>
		<path fill="#9D9E9D" d="M-371.9,576c-1.2,1.9-1,3.9-1,6c-1,0-2,0-3,0c-1.7-1.1-3.6-0.3-5.4-0.5c-1.6,0-3.3,0-4.9,0
			c-1.9-0.2-3.9,0.4-5.8-0.4c-0.7-0.1-1.3-0.2-2-0.2c-3.6-1.1-3.7-3.4-2-6.2c3.8-2.3,7.6,0.3,11.4,0
			C-380.3,575.2-375.9,573.3-371.9,576z"/>
		<path fill="#939392" d="M-349.9,580.9c0.3-1.6,0.7-3.3,1-4.9c3-2.5,6.6-2.3,10.2-2.4c2.4,0,4.9,0.2,7.3-0.4c0.8-0.1,1.6,0,2.3,0.3
			c1.4,1.6,1.9,3.9,3.4,5.5c-4.4,1.5-9.1,1.2-13.7,1.9c-1.2,0.2-2.7-0.5-3.6,1c-1.7,0-3.3,0-5,0
			C-348.4,581.3-349.5,581.7-349.9,580.9z"/>
		<path fill="#BBBBBA" d="M-373.9-112c5,0,10,0,15,0c1,1,2.9-0.1,3.7,1.6c0.6,1.8,0.6,3.5-0.9,5c-6.7,1.5-13.4,1.1-20.2,0.2
			c-2.2-1.6-1.9-3.5-0.6-5.4C-376.1-111.5-374.8-111.2-373.9-112z"/>
		<path fill="#F7F7F7" d="M-712.9,212c-0.5,3.7,1.1,7.5-1,11c0-3.7,0-7.3,0-11C-713.6,212-713.2,212-712.9,212z"/>
		<path fill="#727372" d="M-19.9,232c-1.5-2.7-1.6-5.3,0-8C-19.9,226.7-19.9,229.3-19.9,232z"/>
		<path fill="#727271" d="M-19.9,246c-1.6-2.7-1.5-5.3,0-8C-19.9,240.7-19.9,243.3-19.9,246z"/>
		<path fill="#CACACA" d="M-373.9-112c-0.4,0.8-1.2,1-2,1c-1.5,1-3,1.4-4.7,0.4c-0.5-0.4-0.6-0.8-0.3-1.4
			C-378.6-112-376.2-112-373.9-112z"/>
		<path fill="#E8E8E8" d="M-341.9-112c0,0.3,0,0.6,0,0.9c-1.7,1.7-3.7,1.5-5.7,0.6c-0.5-0.4-0.7-0.9-0.3-1.5
			C-345.9-112-343.9-112-341.9-112z"/>
		<path fill="#C7C7C6" d="M-355.9-111c-1.1-0.1-2.3,0.2-3-1c2,0,4,0,6,0c0.3,0.5,0.3,0.9-0.1,1.3C-354.1-110.1-355-110.2-355.9-111z
			"/>
		<path fill="#EDEDEC" d="M-391.9-111.1c0-0.3,0-0.6,0-0.9c2,0,4,0,6,0c0.3,0.6,0.2,1.1-0.3,1.5
			C-388.3-109.6-390.2-109.4-391.9-111.1z"/>
		<path fill="#D9D9D8" d="M-391.9,581.1c2,0,4,0,6,0c0.4,0.2,0.5,0.4,0.4,0.6c-0.1,0.2-0.2,0.3-0.3,0.3c-2,0-4,0-6,0
			C-391.9,581.7-391.9,581.4-391.9,581.1z"/>
		<path fill="#AAABAA" d="M-358.9,582c1.8-1.8,4-0.7,6-1c0.3,0.2,0.4,0.4,0.3,0.6c-0.1,0.2-0.2,0.3-0.3,0.3
			C-354.9,582-356.9,582-358.9,582z"/>
		<path fill="#D4D4D4" d="M-352.9-111c0-0.3,0-0.7,0-1c1.7,0,3.3,0,5,0c0,0.3,0,0.6,0,0.9C-349.5-109.6-351.2-109.6-352.9-111z"/>
		<path fill="#D9D9D9" d="M-385.9-111.1c0-0.3,0-0.6,0-0.9c1.7,0,3.3,0,5,0c0,0.3,0,0.7,0,1C-382.6-109.6-384.3-109.6-385.9-111.1z"
			/>
		<path fill="#C5C5C4" d="M-385.9,582c0-0.3,0-0.6,0-0.9c1.7,0,3.3,0,5,0c0.4,0.2,0.5,0.4,0.4,0.6c-0.1,0.2-0.2,0.3-0.3,0.3
			C-382.6,582-384.2,582-385.9,582z"/>
		<path fill="#B0B0B0" d="M-380.9,582c0-0.3,0-0.6,0-1c1.7,0.2,3.6-0.7,5,1C-377.6,582-379.2,582-380.9,582z"/>
		<path fill="#C0C0BF" d="M-352.9,582c0-0.3,0-0.6,0-1c1,0,2-0.1,3-0.1c0.8,0.1,1.6,0.2,2,1.1C-349.6,582-351.2,582-352.9,582z"/>
		<path fill="#AEAEAE" d="M-19.9,219c-1.4-1.3-1.6-2.7,0-4C-19.9,216.3-19.9,217.7-19.9,219z"/>
		<path fill="#AAAAA9" d="M-19.9,254c-1.5-1-1.3-2,0-3C-19.9,252-19.9,253-19.9,254z"/>
		<path fill="#6D6D6C" d="M-56.9,80c7.2,12.3,12.4,25.5,16.9,39c-2.3,1.7-2.4,5.4-5.6,6.2c-0.3-0.2-0.6-0.3-0.8-0.6
			c-5.2-13.3-10.9-26.4-16.3-39.7C-61.6,82.3-59.6,80.8-56.9,80z"/>
		<path fill="#686867" d="M-21.1,208c-0.5-0.8-1-1.6-1.7-2.6c-1,1.6-1.8,2.9-3.6,5.6c-1.2-13.7-2.4-25.9-4.9-38
			c-1,0.5-0.6,1.4-0.8,2.2c-3.8-2.4-2.7-6.4-3.3-9.8c0.1-2.9,1.5-5.2,2.8-7.6c0.6-1.2,1.4-2.7,3.3-1.7c2.2,12.4,5.6,24.5,6.7,37.1
			C-22,198.1-21.5,203-21.1,208z"/>
		<path fill="#6A6A6A" d="M-29.1,156c-3.3,2.1-4,5.6-4.8,9.1c-1.5,0.1-1.7-1-2.2-2c-2.4-9.7-4.4-19.5-7.7-28.9
			c-0.4-3-3.1-5.8-1.1-9.1c1.3-2.3,1.2-5.7,4.9-6.1c3.6,11.9,8.4,23.3,10.8,35.6C-29.2,155-29.2,155.5-29.1,156z"/>
		<path fill="#717271" d="M-56.9,80c-1.4,1.7-2.6,3.7-5,4.2c-0.5,0.2-1,0.1-1.4-0.2C-69.4,73.2-75.4,62.3-82,51.8
			c-0.5-0.7-0.6-1.5-0.5-2.4c2.1-2.7,5.1-0.4,7.5-1.4c6.4,8.6,11.5,18,16.4,27.5C-58,76.9-56.8,78.2-56.9,80z"/>
		<path fill="#7E7F7E" d="M-133.2-20.9c6.3,5.1,12.1,10.7,17.4,16.9c-0.4,3.3-1.9,5.3-5.6,4.5c-4.2-1.9-6.8-5.7-10-8.9
			c-3.4-3.4-7.3-6.3-10-10.4c0.1-1.2,0.9-2.1,1.8-1.6C-137.2-19.1-135.3-20.6-133.2-20.9z"/>
		<path fill="#8E8F8E" d="M-198.6-68.2c7.1,3.3,13.7,7.3,20,12c-1.7,5.1-1.7,5.1-7.6,3.8c-5.8-2.1-10.7-6-16.2-8.6
			c-2.7-2.3-6.6-2.8-8.7-6c0.2-1.6,1.5-1.9,2.5-1.3C-205.3-66.2-202-66.4-198.6-68.2z"/>
		<path fill="#777877" d="M-100.9,13c4.7,5.5,10.1,10.6,13.7,17c-1.5,4-4.2,4.1-7.5,2.3c-5.7-6.3-11.7-12.4-15.7-20.1
			c0.6-2.2,2.1-1.5,2.9-0.6C-105.6,13.8-103.3,13.6-100.9,13z"/>
		<path fill="#AAAAA9" d="M-308.9-106.9c6.9,1.3,13.9,2.6,20.8,4c0.8,0.2,1.5,0.6,2.2,0.9c-1.4,6.1-6.3,5-10.6,5.1
			c-4.3,0.4-8.4-1.3-12.6-1.6c-3-0.1-6-0.4-8.7-2c-0.6-0.6-0.7-1.3-0.5-2.1c0.6-1,1.6-1.3,2.5-1.1
			C-312.6-102.9-310.6-104.5-308.9-106.9z"/>
		<path fill="#838483" d="M-133.2-20.9c-0.7,0.8-4.4,1.8-7.8,2c-4.6-1-7.1-5-10.7-7.5c-1.4-1.5-3.9-2.3-3.8-5c1.4-2,2.4-4.7,5.7-3.7
			C-143.6-31-138.1-26.3-133.2-20.9z"/>
		<path fill="#757574" d="M-93.9,32.1c2.7,0.8,4.8-0.3,6.7-2.1c3.8,6.2,9.3,11.2,12.1,18c-3.2,2.3-3.2,2.3-6.9,1.2
			c-1.6,0.2-2.4-0.9-3.2-2c-2.8-3.9-5.3-8-8.2-11.8C-94,34.4-94.5,33.3-93.9,32.1z"/>
		<path fill="#A0A09F" d="M-266.9-97c6.2,1.3,12.2,3.3,18,6c1,4.8-0.2,6.1-4.8,5.3c-1.4-0.3-2.8-0.8-4.3-0.4
			c-5.9-0.5-11.2-3.5-16.9-4.8c-1.2-0.4-2.4-0.9-3.2-2.1c0-1.2,1-2,1.8-1.8C-272.7-93.9-269.9-95.8-266.9-97z"/>
		<path fill="#949493" d="M-198.6-68.2c-2.6,3.8-5.7,3.8-9.2,1.2c-0.8-0.6-2-1.5-3-0.1c-3.6,0.9-6-2-8.9-3.1c-2-0.7-3.8-1.9-5.8-2.6
			c-1.2-0.5-2.3-1.1-2.6-2.6c3.4-3.3,5.4-0.1,7.6,1.4c-0.1-1.8-0.3-3.9,2.7-4.1C-211.2-75.1-204.6-72.3-198.6-68.2z"/>
		<path fill="#7A7B7A" d="M-100.9,13c-2.1,2.4-4.1,3.6-6.4,0.1c-0.4-0.7-1.1-2.4-2.6-1c-1.7,0.4-2.6-0.8-3.6-1.7
			c-1.8-3.9-6.7-5.6-7.4-10.3c2.8,0,3.5-2.6,5.2-4.2C-110.3,1.2-105,6.5-100.9,13z"/>
		<path fill="#A5A5A5" d="M-266.9-97c-1.9,3.4-4.3,5.2-8.3,3.1c-0.8-0.4-2-0.1-2.7,0.8c-6.5,0.1-12.8-0.4-18.1-4.8
			c0.1-0.1,0.2-0.4,0.3-0.4c4.2,1.1,7.2-0.8,9.8-3.8C-279.3-101.2-273-99.5-266.9-97z"/>
		<path fill="#898A89" d="M-185.9-52.9c5.1-0.5,5.1-0.5,7.3-3.3c4.8,3.5,10.6,5.5,14.5,10.2c-0.2,2.4-0.4,4.8-2.8,6.2
			c-4.2-0.6-6.8-3.7-10.1-5.9c-2.3-1.6-4.7-3.1-7-4.6C-184.9-50.9-186.1-51.4-185.9-52.9z"/>
		<path fill="#B5B6B5" d="M-352.9-111c1.7,0,3.4,0,5-0.1c2,0,4,0,6,0c3.3,0.4,6.6,0.8,10,1.1c1.4,1.8,1.4,3.5,0,5.3
			c-2.4,1.5-5.2,1.2-7.7,1c-5.5-0.6-11.1,0-16.3-2.3c0-1.7,0-3.3,0-5C-354.9-111-353.9-111-352.9-111z"/>
		<path fill="#9B9B9B" d="M-257.9-87c1.1-1.4,2.4-0.8,3.6-0.2c3.9,1.8,5.5,0.2,5.4-3.8c6.2,1.9,12.3,4,18,7
			c-2.2,1.8-3.2,4.8-6.4,5.5C-244.4-80.7-251.8-82.2-257.9-87z"/>
		<path fill="#AFB0AF" d="M-331.9-105c0-1.7,0-3.3,0-5c7.6,1.3,15.5,0.8,23,3.1c-0.2,7.7-5.4,3.9-9,3.9c-1.5,1.3-3.2,1.3-5,1
			c-1.7-0.6-3.6-0.5-5.4-0.7C-329.8-102.9-331.7-102.6-331.9-105z"/>
		<path fill="#878786" d="M-166.9-39.9c1.1-1.9,1.1-4.4,2.8-6.1c4.8,3.7,10.3,6.3,14.4,10.8c-2.5,0.4-3.4,3-5.3,4.2
			C-160.2-32.2-163.9-35.6-166.9-39.9z"/>
		<path fill="#989897" d="M-236.9-79.1c2.5-1,2.2-5.4,6-4.9c4.4,1.9,9.1,3.1,13.1,5.9c-1.8,3.7-4.1,5.4-7.9,2.3
			c-0.7-0.5-1.6-0.1-2.2,0.6C-232-73.9-234.7-76-236.9-79.1z"/>
		<path fill="#686867" d="M-62,385.8c1.5,1.7,1.4,3.7,1.2,5.8c-0.1,1-1.1,3.4,1.8,2.4c-5.7,13.1-13.5,25.1-21.5,36.9
			c-2.6,3.8-5.6,7.4-8.5,11.1c-2.7-0.3-4-2.3-5.5-4.3c0-1,0.4-2,1-2.8c8.3-11.5,15.7-23.5,22.6-35.9c0.3-0.6,0.8-1.1,1.2-1.6
			c1.7-2.4,2.8-5.3,4.3-7.9C-64.6,388.1-64.3,386-62,385.8z"/>
		<path fill="#6B6B6A" d="M-93.9,437.9c2.9-0.1,3.1,3,4.9,4.1c-5.7,9.4-13.1,17.5-20.7,25.4c-1.1,1.2-2.2,2.4-3.4,3.6
			c-1.7-0.9-3.1-3-5.6-1c-1.2,0.9-1.8-0.6-1.9-1.8c0.9-3.5,4.1-5.2,6.1-7.7c5.9-5.7,10.7-12.3,15.8-18.6
			C-97.4,440.2-96.7,437.7-93.9,437.9z"/>
		<path fill="#6D6D6C" d="M-119.9,467.9c0.1,0.8,0.5,2.1,1.3,1.1c3.8-4.6,4.7-1.6,5.5,1.9c-5,6.8-11.3,12.4-17.6,17.8
			c-2.1,1.8-3.7,4.2-6.1,5.6c-0.1-0.1-0.3-0.2-0.4-0.3c-1.2-1.4-0.9-3-0.8-4.6c-1,0.9-2.1,1.8-3.3,0.2c-0.2-0.9-0.1-1.7,0.5-2.3
			c6.2-5.8,11.8-12.1,17.7-18.2C-122.2,468.2-121.3,467.5-119.9,467.9z"/>
		<path fill="#70706F" d="M-140.9,488.9c1.2,2.2,2.6-0.7,4.1,0.3c0,1.6,0,3.4,0,5.2c-7.2,6.9-14.8,13.3-23.3,18.6
			c-4.2,0.2-2.8-3.3-3.5-5.4c0-0.5,0-1.1,0.4-1.4c6.8-6.1,13.8-12.1,21.3-17.4C-141.6,488.7-141.3,488.8-140.9,488.9z"/>
		<path fill="#7D7E7C" d="M-217.8,548.1c-9,4.9-18.4,8.8-28.1,11.9c-2.8-1-3.1-3.8-4.2-6c0.6-1.1,1.6-1.7,2.7-2.1
			c8.9-3.1,17-8.1,26.3-10.3C-218.4,543-217.8,545.4-217.8,548.1z"/>
		<path fill="#838382" d="M-249.9,554.2c3.5,0.5,2.4,4,4,5.8c-8.1,3.4-16.3,6.3-24.9,8.1c-2-2.3-5.7-2.3-7.2-5.3
			c5.9-3.9,13.1-4.5,19.6-7C-255.8,554.6-253,552.8-249.9,554.2z"/>
		<path fill="#737473" d="M-162.9,507c1.8,1.6-0.5,5.1,2.8,6c-4.9,5-10.8,8.5-16.7,12c-1.7,1-3.3,2.1-4.9,3.1
			c-2.1-1.5-4.4-2.5-6.5-4c0.3-1.4,1.4-2.3,2.5-3c6.3-4.2,12.6-8.6,18.8-12.9C-165.8,507.5-164.6,506.3-162.9,507z"/>
		<path fill="#8B8B8A" d="M-328.9,574c-0.7,0-1.3,0-2,0c-1.4,0.1-1.4-0.5-0.7-1.4c9-2.1,18-3.7,27.2-4.5c3.4,1.4,6.8-1,10.2,0
			c2.2,1,3,3.3,4.4,5c-6.9,2.3-14,3.3-21.1,4.1c-1.6-2.9-3.9-3.3-7-2.9C-321.5,574.7-325.3,576.7-328.9,574z"/>
		<path fill="#878786" d="M-289.8,573c-3.4,0.7-2.7-2.8-4.1-4c0.1-2.7,1.8-0.9,2.7-1.4c-0.1-0.6-1.8,0.2-1.9-1
			c0.7-1.8,2.3-1.8,3.8-2.1c3.8-0.4,7.3-3.2,11.4-1.4c0.3,0.2,0.6,0.6,0.7,0.6c3.9-1,5.4,1.2,6.3,4.4
			C-276.9,570.6-283.3,572-289.8,573z"/>
		<path fill="#797978" d="M-217.8,548.1c-1-2-2.1-4-3.1-6c4.2-4.8,10.1-6.4,15.7-8.7c4-0.9,5.6,1.6,6.6,4.8
			C-204.5,542.2-211.2,545.1-217.8,548.1z"/>
		<path fill="#767776" d="M-198.6,538.1c-2.6-0.7-3-4.6-6.3-4.1c4.7-5,10.2-8.5,17-9.9c1.6,1.8,3-0.9,4.6-0.3c1,1.2-0.3,3.4,1.6,4.3
			C-186.7,532.5-193.1,534.4-198.6,538.1z"/>
		<path fill="#8F8F8E" d="M-328.9,574c4.4,0.5,8.7-0.4,12.8-1.4c4.8-1.2,5.6,0.4,5.2,4.5c-4.8,1.4-9.8,2-14.8,2
			C-329.7,579.3-328.8,576.3-328.9,574z"/>
		<path fill="#EBECEB" d="M-666.9,71c-1.6-3.3-0.6-6.7,0-10c9.3-16.3,19.7-31.8,32-46c3.2,1.6,1.2,4.5,1.7,6.8
			c-0.6,3.3-3.2,5.3-4.8,8.1c-0.2,0.4-0.5,0.8-0.8,1.1c-3.4,4.2-6.8,8.4-9.2,13.3c-0.4,0.8-0.9,1.6-1.6,2.3c-3,3.2-5,7.1-7.2,10.9
			c-0.2,0.4-0.4,0.8-0.7,1.2c-1.3,1.5-2.1,3.3-3.1,5.1C-663,65.8-662.4,70.6-666.9,71z"/>
		<path fill="#E9E9E8" d="M-633.9,22c-1.8-2.1,1.1-4.9-1-7c7-9,14.3-17.6,23-25c1.6,3.1-0.9,5.8-0.9,8.7c-1.1,3.7-4.5,5.6-6.7,8.4
			c-3.5,4.5-7.4,8.8-11.2,13.2C-631.5,21.3-632.2,22.6-633.9,22z"/>
		<path fill="#E6E7E6" d="M-613.9-1c-0.4-3.2,1.6-6,2-9c6.2-7.5,13.7-13.6,21-19.9c1.7,1.8,1.3,4.1,1.1,6.3
			c-0.5,2.5-2.2,4.1-4.1,5.5c-5.6,4.2-10,9.8-15.1,14.5C-610.4-2.5-611.4-0.4-613.9-1z"/>
		<path fill="#D6D6D5" d="M-507.9-82c8.1-4,16.5-7.1,25-10c1.5,1.6,1.3,3.5,0.8,5.5c-1.3,2.7-4.2,2.9-6.5,4.1
			c-1.7,0.6-3.3,1.2-5,1.8c-3.3,1.6-6.7,2.9-10,4.3c-1.6,0.7-3.3,1.8-4.9-0.1C-509.5-78.4-509.1-80.2-507.9-82z"/>
		<path fill="#E1E1E0" d="M-570.9-45c6.7-5.9,14.2-10.7,22-15c1.6,1.5,1.3,3.4,1.1,5.3c-0.4,2-2,2.9-3.5,3.9
			c-4.6,2.8-8.9,6.1-13.2,9.4c-2.6,1-4.3,4.6-7.9,3C-573.5-41-572.5-43.1-570.9-45z"/>
		<path fill="#DADBDA" d="M-507.9-82c0,2,0,4,0,6c-0.8,2.3-3.1,2.8-4.9,3.8c-5.4,3.1-11.4,5-16.4,8.9c-0.7,0.4-1.4,0.7-2.1,0.1
			c-0.3-0.4-0.6-0.9-0.7-1.5c-0.4-2.2-0.3-4.4,1.1-6.3C-523.3-74.7-515.9-79-507.9-82z"/>
		<path fill="#E4E4E3" d="M-570.9-45c-0.3,2.3-0.7,4.7-1,7c0.2,0.4,0.2,0.9-0.1,1.3c-5,4.6-10.7,8.5-15.7,13.1c-1,0.5-2,1.2-3.3,0.6
			c0-2.3,0-4.6,0-7C-584.2-34.9-578.4-41.1-570.9-45z"/>
		<path fill="#C5C5C4" d="M-422.9-107.1c7.9-1.8,15.8-3.2,24-3c1.5,1.6,1.4,3.3,0.5,5.1c-2.6,2-5.8,2-8.9,2.4
			c-4.7,0.6-9.4,1.8-14.2,1.8c-0.9-0.1-1.7-0.3-2.4-0.9C-425.5-103.8-424.5-105.5-422.9-107.1z"/>
		<path fill="#D1D1D1" d="M-482.9-86c0-2,0-4,0-5.9c7.5-2.7,15-5.8,23-7c1.6,2.2,0.5,4.1-0.5,6.1c-2.2,2.1-5.1,2.6-7.9,3.3
			c-3,0.9-6,1.9-8.9,3.1C-479.1-85.8-480.9-84.6-482.9-86z"/>
		<path fill="#DDDEDD" d="M-530.9-70.9c0,2.3,0,4.6,0,6.9c-5.4,4.4-10.9,8.7-18,10c0-2,0-4,0-6C-543.4-64.4-537-67.4-530.9-70.9z"/>
		<path fill="#BFC0BF" d="M-398.9-105c0-1.7,0-3.4,0-5.1l0,0c1.5-1,3.5,0.1,5-0.8c0.7-0.1,1.3-0.1,2-0.2c2,0,4,0,6,0
			c1.7,0,3.4,0,5,0.1c1.7,0,3.3,0,5,0c-1,1.5-1.1,3.2-1,5c-1.1,1.3-2.7,1.3-4.2,1.4c-3.8,0.1-7.5,0-11.3,0.8
			C-394.6-103.4-397-103.1-398.9-105z"/>
		<path fill="#CACAC9" d="M-422.9-107.1c-0.3,1.7-0.6,3.4-1,5.1c-0.9,2.3-3.1,2.4-5,2.5c-4.8,0.3-9.2,4-14.3,1.4
			c-1.1-1.7-1-3.4,0.2-5C-436.5-105.4-429.8-106.6-422.9-107.1z"/>
		<path fill="#CDCECD" d="M-442.9-103c0,1.7,0,3.4,0,5c-0.1,0.2-0.2,0.4-0.2,0.7c-2.4,2.4-6.2,1.6-8.6,3.8c-0.9,0.4-1.8,0.5-2.7,0.4
			c-2.2-0.6-4.3,1.7-6.4,0.1c0.3-2,0.7-4,1-6C-454.4-101.1-448.8-102.7-442.9-103z"/>
		<path fill="#C5C5C4" d="M-393.9-110.9c-1.5,1.5-3.3,0.7-5,0.8C-397.5-111.5-395.6-110.8-393.9-110.9z"/>
		<path fill="#EBECEB" d="M-709.9,284c1.6-2.9,1.1-6.7,4-9c2.9,2.5,2.2,6.1,2.7,9.3c2.1,14.4,5.4,28.6,8.9,42.7
			c0.3,1.1,0.6,2.2,0.6,3.4c-0.4,3.1-1.1,6-4.2,7.6c-4.5-10.7-6.6-22.1-8.9-33.4C-708.3,297.8-710.1,291-709.9,284z"/>
		<path fill="#E8E9E8" d="M-697.9,338c1-2.4,2.7-4.4,3-7c3.4,0.7,2.4,4.3,4,6.1c0.5,0.8,0.9,1.7,1,2.6c0.2,2,0.4,4,1.7,5.7
			c0.8,1.4,1.8,2.7,1.9,4.4c0.2,0.8-1.6,1.6,0,2.4c1,1.8,1.4,3.9,2.3,5.8c0.8,2.2,2.2,4.4,1.5,6.9c-1.4,1.9-1.3,4.6-3.5,6
			C-690.9,360.4-695.1,349.5-697.9,338z"/>
		<path fill="#DBDBDA" d="M-619.9,472c-7.7-7.7-15.1-15.7-21-25c-1.1-2.2-0.4-4,1.4-5.4c1.7-0.4,2.8,0.6,3.8,1.8
			c1.2,1.9,2.9,3.5,4.2,5.3c1.3,2.3,3.5,3.9,5,6.1c1.6,2.7,4.2,4.5,6,7c1.1,2.2,3.7,3.4,3.9,6.2C-617,469.8-617.8,471.5-619.9,472z"
			/>
		<path fill="#E6E6E5" d="M-685.9,371c1.2-1.9-0.2-5.1,3-6c1.7-0.4,2,1,2.6,1.9c0.9,2.5,2.1,4.8,3.2,7.2c1.5,4.5,4,8.6,6.1,12.8
			c0.9,1.9,2.1,3.7,1.8,6c-0.9,2-0.5,4.8-3.7,5C-678.2,389.5-682.4,380.4-685.9,371z"/>
		<path fill="#AEAFAE" d="M-440.9,573.9c-8.2-1.2-16-3.8-23.9-6.1c-0.5-3.7-2.6-5.6-6.2-6.5c-5.4-1.4-10.5-3.7-15.9-5.5
			c-2.3-1.4-5.4-1.5-7.2-3.8c0-0.9,0.5-1.4,1.3-1.7c4.2-0.3,7.5,2.2,11.3,3.3c5.5,1.7,11,3.6,16.4,5.4c1.5,0.7,3.3,0.7,4.4,2.3
			c0.1,0.4,0,0.6-0.3,0.7c-0.1,0-0.1,0.1-0.1,0.2c3.3-0.1,6.2,1.8,9.5,1.5c1.5,0.1,2.9,0.3,4.2,1.1c1.5,1.2,3.8,1.2,4.9,2.9
			C-441.8,569.7-440.8,571.7-440.9,573.9z"/>
		<path fill="#E0E0DF" d="M-638.9,442c-1.4,1.4-1.6,3.3-2,5.1c-6.7-7.3-12.3-15.3-17-24c-1.5-2.5-0.3-4.4,1.4-6.1
			c0.4-0.3,0.9-0.5,1.4-0.5c0.8,0.1,1.4,0.4,1.8,1c0.5,0.8,0.8,1.7,1.2,2.5c1.4,3.1,3.3,5.8,5.6,8.3c0.9,1,1.5,2.1,2.2,3.3
			c0.7,1.3,1.6,2.5,2.6,3.6c0.3,0.3,0.5,0.7,0.8,1C-640.2,438.1-638.1,439.5-638.9,442z"/>
		<path fill="#E2E3E2" d="M-655.9,417c-0.9,1.9-2.2,3.7-2,6c-6.2-7.6-10.7-16.3-15-25c1.9-1.1,1.4-3.7,3-5c3.7,0.7,3.4,4.6,5.5,6.7
			c1.3,2.4,2.5,5,4.1,7.2C-659.1,410.4-655.4,412.8-655.9,417z"/>
		<path fill="#D6D6D5" d="M-619.9,472c1-1.3,2-2.7,3-4c0.3-0.2,0.7-0.3,0.9-0.2c6.6,5.2,13.1,10.7,17.5,18.1
			c-0.3,1.9-0.7,3.8-2.5,5.1C-607.7,485.1-614,478.8-619.9,472z"/>
		<path fill="#A4A4A3" d="M-395.9,575c0,2.2-0.4,4.5,2,5.8c-8.7-0.5-17.4-1.7-26-3c-2.5-1.3-2.3-3.4-1.5-5.6c1.7-1.9,4-0.6,5.9-1.2
			c1.1-0.1,2.1,0,3.2,0.3c4.1,2,8.7,0.9,12.9,2.2C-398.2,574-396.8,573.9-395.9,575z"/>
		<path fill="#B5B5B4" d="M-486.9,555c7.3,1.5,14,4.8,21.1,7c3.8,1.2,0.8,3.8,0.9,5.8c-7.9-2.1-15.6-4.6-23.1-7.7
			C-489.2,558.1-489.3,556.3-486.9,555z"/>
		<path fill="#BABBBA" d="M-486.9,555c-1,1.6-1.1,3.3-1.1,5.1c-6.8-2.3-13.5-4.9-19.9-8.2c-1.5-2.1-1.1-4.1,0.5-5.9
			c5.3,0.2,9.7,2.2,13.4,6C-491.4,552.7-488.8,553-486.9,555z"/>
		<path fill="#BFC0BF" d="M-506.9,546c-0.3,2-1.4,3.8-1,5.9c-7-2.7-13.6-6-20.1-9.8c-0.8-1.8-0.2-3.5,0.7-5.1
			c0.4-0.4,0.8-0.6,1.3-0.7C-519.1,538.6-512.7,541.7-506.9,546z"/>
		<path fill="#AAAAA9" d="M-420.9,572c0,2-0.3,4,1,5.8c-7.1-1-14.1-2.1-21-3.9c-2.4-1.4-2-3.7-2-5.9c0.5-0.5,1.1-1,1.7-0.9
			C-434.3,568.3-427.3,568.7-420.9,572z"/>
		<path fill="#D2D2D2" d="M-600.9,491c0.4-1.7,0.6-3.6,2-5c2.2-0.7,3.1,1.4,4.7,2.1c2.8,1.9,4.8,4.8,7.8,6.5c1.5,1.2,3,2.5,3.3,4.7
			c-0.1,2-0.3,4-1.8,5.6C-590.5,500.6-595.8,495.9-600.9,491z"/>
		<path fill="#CECECE" d="M-584.9,504.9c-0.4-2.1,0.7-3.9,1-5.9c1.2-0.7,2.1,0,3.1,0.5c1.8,1.2,3.2,2.9,5.1,4
			c1.6,1.2,2.9,2.8,4.6,3.8c1.2,0.8,2.3,1.7,2.7,3.3c0.1,2.1-0.1,4-1.7,5.6C-575.4,513-579.9,508.6-584.9,504.9z"/>
		<path fill="#CACBCA" d="M-569.9,516.1c0.3-2,0.7-4,1-6.1c4.8,0.8,7.8,4.6,11.7,7c1.5,1.2,3.4,2,4,4c0.1,2.2-0.5,4-2.7,4.9
			C-560.6,522.7-565.7,520.1-569.9,516.1z"/>
		<path fill="#C4C4C3" d="M-526.9,537c0.1,1.8-0.1,3.5-1.1,5.1c-5-2-9.7-4.7-14-7.9c-1.2-1.9-0.4-3.6,0.7-5.2
			C-535.1,529.2-530.5,532.1-526.9,537z"/>
		<path fill="#C7C7C6" d="M-540.9,529c-0.4,1.7-0.7,3.5-1.1,5.2c-5-2.1-9.4-5.2-13.9-8.3c0.7-1.6,1.3-3.3,2-4.9
			c0.6-0.6,1.3-0.6,2-0.4C-548.2,523.3-543.1,524.3-540.9,529z"/>
		<path fill="#C5B5B5" d="M-28.1,262c-1.6,16.8-3.7,33.6-7.9,50c-2.4,1.8-4.9,0.6-7.2,0c-28.3-6.8-56.7-13.1-85.1-19.7
			c-46.2-10.8-92.3-21.5-138.5-32.1c-2.4-0.6-5-0.1-7.3-1.2c0.1-5.8-0.1-11.6,3.6-16.6c5.8-1.5,11.6,0.1,17.3,0.5
			c22.9,1.7,45.7,3.4,68.5,5.7c23,2.3,46,3.7,69,5.6c19,1.6,38.1,3.1,57.1,4.4c8.9,0.6,17.9,1.5,26.8,2.1
			C-30.4,260.7-29.1,260.9-28.1,262z"/>
		<path fill="#C5BBB5" d="M-273.7,259c4.9-2.7,9.5,0.4,13.9,1.4c35.8,8,71.5,16.6,107.3,24.9c38.8,9,77.6,17.8,116.5,26.8
			c-2.7,12.3-5.9,24.5-10.8,36.2c-16.8-6.3-33.9-12-50.9-17.9c-55.7-19.2-111.3-38.8-167.1-57.8c-3.9-1.3-7.7-3.1-12-3.3
			c-1.8-2.7,0.3-4.9,0.7-7.3C-275.5,260.8-275,259.6-273.7,259z"/>
		<path fill="#C5BFB5" d="M-276.8,269c2.2-1.7,4.4-0.7,6.6,0.1c24,8.3,48,16.7,72,25c42.4,14.7,84.7,29.4,127.1,44
			c6.7,2.3,13.5,4.6,20.2,7.1c1.6,0.6,3.9,0.5,4,3c-3.3,11.1-7.7,21.7-13.1,31.9c-9.7-3.1-18.5-8.3-27.7-12.6
			c-43.2-20.4-86.3-40.9-129.5-61.3c-20-9.4-39.8-19.3-60.2-28c-1.1-0.5-2.1-1-2.8-2C-280.2,273.2-279.6,270.6-276.8,269z"/>
		<path fill="#C5BDBD" d="M-31,187c1.7,4.2,1.4,8.7,2.2,13c0.8,1.7-0.2,3.6,0.7,5.2c0,3.9,0,7.8,0.1,11.7c-2.5,2.4-5.7,2.4-8.9,2.5
			c-24.4,0.9-48.8,2.6-73.2,3.8c-15.4,0.8-30.9,1.5-46.3,2.3c-21.4,1.2-42.8,2.5-64.2,3.5c-16.2,0.8-32.4,2.9-48.8,2
			c-0.6-0.1-1.2-0.4-1.7-0.8c-1.7-3.3-2.7-6.7-1.2-10.4c59.1-7.3,118-16.8,177-25c19.3-2.7,38.6-5.5,57.8-8.2
			C-35.2,186.5-33,186-31,187z"/>
		<path fill="#C5BABA" d="M-269.9,230c22.5-1,45-1.8,67.5-3.1c11.9-0.7,23.8-1.3,35.7-2c19-1.1,38-2.1,57-3
			c12.2-0.6,24.4-1.5,36.7-2c15-0.6,30-1.9,45-2.9c0.4,1.4-0.1,3,0.9,4.2c1.2,6.8,0.4,13.7,0.5,20.5c-0.4,0.9-0.9,1.7-1.9,2.1
			c-10.1,1.6-20.3,1.2-30.3,0.5c-13-0.9-25.9-0.7-38.9-0.7c-20.8,0.1-41.6-0.7-62.3-1.4c-26.6-0.9-53.2-1.5-79.8-2
			c-8.6-0.2-17.2-0.7-25.9-0.8c-1.5,0-3-0.2-4.3-1.1C-271.8,235.6-271.8,232.8-269.9,230z"/>
		<path fill="#C5C0C0" d="M-31,187c-8.5,1.3-16.9,2.7-25.4,4c-15.3,2.3-30.7,4.5-46,6.7c-14.9,2.1-29.7,4.2-44.6,6.3
			c-14.7,2.1-29.4,4.1-44.1,6.2c-12.6,1.8-25.1,3.9-37.7,5.7c-13.1,1.9-26.2,3.4-39.2,5.4c-1.9,0.3-2.7-0.2-3.7-1.3
			c-2.2-1.7-3.3-3.8-1.8-6.5c7.9-3.2,16.4-4.5,24.6-6.3c47.5-10.4,95.1-20.3,142.7-30.4c21.3-4.5,42.7-9,64-13.5
			c2.4-0.5,4.8-1.7,7.2-0.2c0.4,0.7,0.7,1.4,1.1,2.1c0,3.5,0.7,6.8,2,10.1C-31.6,179.1-31.3,183.1-31,187z"/>
		<path fill="#C5C0B5" d="M-279.7,276c10.4,3.5,20.1,8.6,30,13.2c23.2,10.8,46.2,22,69.3,33c32.2,15.3,64.5,30.6,96.8,45.9
			c7.3,3.5,14.8,6.8,22.1,10.2c0.7,0.3,1.1,1.2,1.7,1.8c-0.7,1.9-1.4,3.8-2.1,5.7c-2.3,4.1-4.6,8.1-6.9,12.2c-2.3,1.5-4.2-0.2-6-1.2
			c-18.2-9.8-36.4-19.5-54.5-29.4c-18.7-10.2-37.5-20.3-56.2-30.4c-23.9-12.9-47.7-25.8-71.6-38.7c-8.9-4.8-17.8-9.7-26.9-14.3
			C-284.5,280.3-282.7,277.8-279.7,276z"/>
		<path fill="#C5B8B8" d="M-28.1,262c-13.6-0.1-27.1-1.6-40.6-2.9c-10.7-1-21.5-1.3-32.2-2.1c-14.8-1.2-29.6-2.6-44.4-3.8
			c-9.9-0.8-19.8-1.3-29.7-2.2c-13.3-1.2-26.6-2.5-39.9-3.8c-4.4-0.5-8.9-0.4-13.4-0.8c-14.1-1.5-28.3-2.3-42.5-3.3
			c-1-1.1-0.9-2.2,0-3.4c0.6-0.3,1.2-0.5,1.8-0.5c2,0.3,4,0.4,6,0.4c20.1,0.1,40.2,1.7,60.2,2.7c15.4,0.8,30.9,1.5,46.3,2.3
			c14.9,0.8,29.9,1.4,44.8,2.6c7.6,0.6,15.3,0.7,22.9,1.1c18.6,1.1,37.2,1.8,55.7,3.2c1.8,0.1,3.7,0.2,5.1,1.6
			C-28,256-28.1,259-28.1,262z"/>
		<path fill="#C5B9B9" d="M-27.9,253c-16.7-0.9-33.4-1.3-50-2.9c-6.4-0.6-12.9-0.7-19.3-0.9c-16.4-0.3-32.8-1.7-49.2-2.4
			c-18.8-0.8-37.7-2-56.5-2.9c-12.1-0.6-24.2-1-36.2-2.2c-10.3-1-20.6,0.7-30.7-1.7c-0.6-0.7-0.5-1.3,0-2
			c25.4,0.2,50.8,0.7,76.3,1.3c22,0.5,44.1,1,66.1,2c19.3,0.9,38.6-0.2,57.8,0.9c13.9,0.8,27.9,0.7,41.8,0.9
			c1.5,2.4,1.3,4.8,0.1,7.2C-27.9,251.1-27.9,252.1-27.9,253z"/>
		<path fill="#626160" d="M-27.1,242c0-6.9,0.1-13.9,0.1-20.8c0-2.3,0-4.6,0-6.9c0.3,0,0.5,0,0.8,0c0,14.2,0,28.4,0,42.6
			c-0.1,0-0.3,0-0.4,0c-0.1-2.4-0.2-4.8-0.3-7.2C-27.6,247.2-27.5,244.6-27.1,242z"/>
		<path fill="#C5B8B8" d="M-27.1,242c0,2.6,0.1,5.2,0.1,7.7c-0.3,0.1-0.5,0.3-0.8,0.4c0-2.4,0-4.8-0.1-7.2
			C-27.6,242.7-27.4,242.4-27.1,242z"/>
		<path fill="#686867" d="M-28,205.3c-1.2-1.6-0.8-3.4-0.7-5.2C-27.3,201.6-28.1,203.5-28,205.3z"/>
		<path fill="#DCDFDE" d="M-691.9,338c-1.8-2-0.9-5.1-3-7c-2.8-13-6.4-25.8-8.5-39c-0.9-5.7-1.7-11.3-2.5-17c-0.3-9-2.2-17.9-2-27
			c0.6-0.3,1.1-0.2,1.5,0.4c1.7,2.8,2,6,1.8,9.1c-0.1,4.2,0.7,8.2,1,12.3c0.3,7.3,1.9,14.5,2.8,21.7c0.3,3.8,1.3,7.5,2,11.2
			c1.1,6.8,2.9,13.4,4.6,20c1,3.5,1.9,7.1,3,10.6C-690.7,335-690.6,336.6-691.9,338z"/>
		<path fill="#DEE1E0" d="M-703.9,185c0.8-13.6,4.3-26.8,7.9-39.8c2.1-7.5,3.5-15.2,7.1-22.2c0.4,0.4,0.7,0.8,0.9,1.3
			c-0.7,8.4-4.6,15.9-6.2,24.1c-0.1,0.6-0.3,1.3-0.5,1.9c-1.7,6-2.9,12.2-4.2,18.3c-0.8,3.1-1.4,6.3-1.8,9.4
			c-0.1,0.5-0.2,0.9-0.3,1.4c-0.6,1.5-0.8,3-1.1,4.5c-0.1,0.4-0.4,0.8-0.7,1.1C-703.1,185.3-703.5,185.3-703.9,185z"/>
		<path fill="#DFE2E1" d="M-703.9,185c0.3,0,0.7,0,1,0c0.7,0.7,0.8,1.5,0.7,2.4c-0.6,9-2.5,18-2.3,27.1c-0.1,2.6-0.3,5.1-1.9,7.3
			c-0.4,0.5-0.9,0.6-1.5,0.2C-707.4,209.6-706.9,197.2-703.9,185z"/>
		<path fill="#DDDFDF" d="M-666.9,71c3.3-1.7,2.7-6.3,6-8c0.1,0.2,0.3,0.4,0.4,0.6c0.4,1.6-0.3,3-1,4.2c-5.3,9-9.5,18.6-14.5,27.7
			c-0.3,0.4-0.7,0.6-1.2,0.8c-0.2-0.1-0.4-0.2-0.7-0.3c0.7-5.5,4.4-9.8,6.4-14.7C-670.1,77.8-667.7,74.7-666.9,71z"/>
		<path fill="#D8D9D8" d="M-707.9,222c0.3,0,0.7,0,1,0c2.7,3.7,1.2,7.9,1.5,11.9c0.2,1.9,0.1,3.9-0.1,5.9c-0.1,2.8,0.7,5.8-1.5,8.2
			h-0.5h-0.5C-707.9,239.3-707.9,230.7-707.9,222z"/>
		<path fill="#DDE0DF" d="M-688.9,124c0-0.3,0-0.7,0-1c1.5-5.5,3.4-10.9,6-16c0.4,0.3,0.7,0.8,0.8,1.3c0.4,4-2,7.2-3,10.8
			C-686.1,120.8-685.8,123.8-688.9,124z"/>
		<path fill="#DDDFDF" d="M-680.9,103c0-2.8,1.2-5,3-7l0,0c1.2,1.3,0.8,2.6,0.2,4c-0.6,1.2-1.1,2.6-2.6,3.2
			C-680.5,103.1-680.7,103.1-680.9,103z"/>
		<path fill="#DBDFDE" d="M-682.9,108c0-0.3,0-0.7,0-1c0.2-1.6,0.7-3,2-4l0,0C-679.6,105.4-679.8,107.3-682.9,108z"/>
		<path fill="#8F8F8E" d="M-331.9,573.1c0.3,0.3,0.7,0.6,1,0.9c-5.8,2.1-12.1,0.2-18,2c-7.7,0-15.3,0-23,0c-4.3,0-8.7,0-13,0
			c0.4-2.7,2.7-2,4.4-2.4c13.8,0.2,27.6-0.9,41.3-1.1c1.9,0.1,3.9,0.2,5.8,0C-332.8,572.5-332.3,572.7-331.9,573.1z"/>
		<path fill="#9B9C99" d="M-380.8,575c-1.4,0.2-3-0.4-4,1c-3.7,0-7.3-1.6-11-1c-5.7-0.9-11.7,0.2-17-3c5.3-1.8,10.6-0.1,15.9-0.3
			c5.1,1.5,10.6-0.2,15.7,1.7C-380.7,573.8-380.6,574.3-380.8,575z"/>
		<path fill="#ABABAB" d="M-380.9-106c1.3,0,2.7,0,4,0c7,0,14,0,21,0c8-0.5,16,1.7,24,1c2.6,2.5,6.4-0.5,9,2
			c0.3,0.7,0.1,1.2-0.5,1.6c-7,1.2-13.9-0.6-20.8-1.2c-9.6-0.9-19.3-0.6-28.9-0.8c-2.5-0.1-5,0.3-7.3-0.9
			C-381-104.8-381.2-105.3-380.9-106z"/>
		<path fill="#C5C4C4" d="M-62.8,84c0.3,0,0.6,0.1,0.8,0.2c6.2,13.4,11.7,27.1,17.1,40.9c-0.2,3.2,2,5.8,2.2,8.9
			c-6.5,4.3-14.3,5.4-21.5,7.6c-51.7,16-103.4,31.9-155.1,47.8c-16.7,5.1-33.4,10.4-50.1,15.4c-2.2,0.7-4.4,1.7-6.7,0.1
			c-2.8-3.9-4.7-8-5.1-12.8c1.2-1.7,3.2-2.3,5-3.2c68.8-34.4,137.7-68.8,206.5-103.2C-67.6,84.5-65.6,82.4-62.8,84z"/>
		<path fill="#C5C2C2" d="M-275.8,204c4.5,1.5,8.4-1.3,12.3-2.4c29.2-8.8,58.3-18,87.5-27c43.6-13.5,87.2-26.9,130.8-40.3
			c0.8-0.2,1.6-0.2,2.5-0.3c3.6,9.4,5.9,19.2,7.7,29.1c-20.2,4.3-40.4,8.7-60.6,12.9c-23.6,5-47.2,10-70.8,15
			c-28.1,6-56.3,12-84.4,18c-7.6,1.6-15.2,3.3-22.8,5c-1.1-0.5-1.3-1.6-1.6-2.6C-275.2,208.9-277.6,206.6-275.8,204z"/>
		<path fill="#C5C5C5" d="M-62.8,84c-2,0.8-4,1.5-6,2.5c-68.8,34.4-137.7,68.8-206.5,103.2c-1.8,0.9-3.7,1.6-5.5,2.3
			c-1.9-0.3-2.6-1.9-3.4-3.3c-4.8-8.4-10.6-15.9-17.7-22.5c-1.2-1.1-2.4-2.3-2.7-4.1c0-2.6,1.8-4.2,3.3-6
			c14.6-17.2,28.9-34.7,43.6-51.8c1.8-2.1,3.4-4.5,4.9-6.9c0.5-0.6,1-1,1.7-1.4c19.4-6.6,38.5-14,56.8-23.3
			c26.9-13.7,51.6-30.4,72.1-52.7c3.1-3.4,5.3-7.7,9.3-10.2c0.9,0.8,1.9,1.6,2.8,2.3c5.3,6.7,10.7,13.3,16,20c4,5.7,8,11.4,12,17.1
			c5.7,10.1,12.2,19.7,17.2,30.3C-64.1,80.9-63.5,82.4-62.8,84z"/>
		<path fill="#CECDCE" d="M-112.8,9.8c-1.7,3.8-4.6,6.9-7.4,9.9c-18.4,20.1-40,36-64,49.1c-21.4,11.6-43.6,20.9-66.7,28.2
			c-0.8-2.9,1.1-4.8,2.6-6.6c24.6-30,49-60.1,73.7-90c6.8-8.2,13.3-16.6,20.4-24.6c1-1.1,1.7-2.5,3.3-2.8c3.3,2.7,6.6,5.4,10,8.1
			c6.7,6.3,13.3,12.7,20,19C-118.5,3.6-114.8,6-112.8,9.8z"/>
		<path fill="#D1C8D0" d="M-224.9-73.8c4.7,2.2,9.3,4.5,14,6.7c3,1.7,6,3.4,9,5.1c1.5,2.8-0.6,4.8-1.7,6.8
			c-9.7,17.6-20.3,34.7-32.7,50.7c-3.2,4.1-6.3,8.2-8.8,12.7c-7.9,11.1-16.1,22-23.6,33.4c-3.7,5.7-7,11.7-10.5,17.5
			c-0.9,1.5-1.4,3.4-3.4,4.2c-2.8,0.2-3.4,3-5.1,4.4c-1.4,1.2-2.9,2.6-4.8,1.5c-2.1-1.2-1.2-3.2-0.5-4.9
			c5.4-13.8,11.9-27.1,17.8-40.6c7.4-16.9,15-33.6,22.5-50.5c0.8-1.8,2-3.5,1.2-5.7c-0.3-1.8,0.8-3.1,1.7-4.5
			c6.3-10.2,12.8-20.4,20.2-29.9C-227.8-69-226.9-71.7-224.9-73.8z"/>
		<path fill="#D0C9CF" d="M-245.9,8c4.1-9,11-16,16.6-24c10.2-14.7,19.9-29.7,27.4-46c5.3,3,10.6,6,16,9.1c0.7,0.6,1.4,1.2,2.1,1.8
			c-0.1,3.2-2,5.6-3.7,8.1c-27.3,42.4-54.3,84.9-81.4,127.4c-4.5,7.1-9.4,14.1-12.3,22.1c-3,1.2-6.1,2.5-9.5,1.9
			c-3.1-3.8-0.4-6.9,1.4-10c9.9-17.7,20.6-35,31-52.4c15.9-26.4,31.5-52.9,47.6-79.1c0.6-1,1.2-2,1.6-2.4
			c-8.5,12.4-18,24.7-27.4,37.3C-238.7,5.1-241.3,8.3-245.9,8z"/>
		<path fill="#D3C3D2" d="M-295.9-97.9c6,1.6,12,3.2,18.1,4.8c1,0.4,2,0.7,3,1.1c1.7,2.2,0.5,4.5-0.1,6.7
			c-5.1,18.5-10.4,36.9-15.4,55.4c-0.6,2.3-1.3,4.5-1.2,6.9c-3.6,15.4-8.5,30.4-12.7,45.7c-2.3,8.5-4.8,17-7.3,25.5
			c-0.6,1.9-1,3.9-2.4,5.4c-0.4,0.5-1,0.9-1.5,1.3c-1.3,1-2.7,2.4-4.4,1.1c-1.6-1.2-1.1-3-0.7-4.6c1.7-7.1,3.4-14.2,5.4-21.3
			c2.7-9.9,5.2-19.9,7.6-30.3c-3.1-0.4-4.2,1.6-5.5,3.2c-3.3,4-6.2,8.2-9.3,12.4c-1,1.4-2.3,3.4-4.3,2.5c-1.9-0.9-1.5-3.2-1.2-5
			c1.9-12.2,4.3-24.3,6.2-36.4c0.3-1.8,0.9-3.5,0.4-5.4c-1.6,0.2-2.2,1.6-2.9,2.6c-13.5,19.1-28.5,36.9-42.5,55.6
			c-1.8,2.4-3.3,5-5.4,7.2c-1.3,1.3-2.6,3.1-4.5,2.6c-2.2-0.6-2.6-3-2.5-5c0.3-7.8-1.4-15.6-1.2-23.4c0.1-1.8,0.5-3.7-0.9-5.6
			c-3.8,2-4.6,7.5-9.3,8.3c-2.1-1.9-0.2-3.3,0.7-4.6c25.4-34.4,50.6-69,76.1-103.4c1.4-1.9,2.8-3.7,4.7-5.1
			C-304.6-99.2-300.3-98.6-295.9-97.9z"/>
		<path fill="#D3C5D3" d="M-308.9-99.9c-4.2,7.5-9.7,14.1-14.8,21c-10.9,15-22.1,29.7-33.1,44.6c-11.1,15-22.2,30-33.3,45
			c-0.5,0.6-0.6,1.5-0.9,2.3c1.6,8.6,4,17.2,0.9,26.1c-0.6,1.7-0.4,3.6-0.1,5.5c1.4,8.7,2.9,17.5,3.3,26.3
			c0.6,11.6,1.2,23.1,2.2,34.7c0.5,5.4,2.3,10.8,1.1,16.3c-0.6,0.8-1.4,1-2.4,1c-0.6-0.1-1.1-0.4-1.5-0.8c-2-4.7-2.8-9.6-2.9-14.6
			c-0.4-11.1-1.7-22.2-3.4-33.2c-1.4-9.1-3.2-18.3-2.9-27.2c0.4-15.8-3-31.1-4.5-46.6c-0.1-1-0.3-2,0-3c3.2-13.3-0.6-26.4-1.5-39.6
			c-0.2-2.3-0.9-4.8,0.3-6.9c2.7-5.1,2.9-10.4,2.1-16c-1-6.9,2.5-12.7,6-18.1c3.2-4.9,5.1-9.6,4-15.4c-0.3-1.8-0.1-3.7,0.9-5.3
			c2.6-1.9,5.6-0.8,8.4-1.1c17.1-0.4,34.1,0.2,51.2,2c2.3,0.2,4.5,1.4,6.9,0.9c1.7-0.1,3.5-0.2,5,1
			C-314.9-100.7-311.9-100.3-308.9-99.9z"/>
		<path fill="#A3A3A3" d="M-317.9-101.1c-1.8,0.2-3.5,0.1-5-1c0-0.3,0-0.6,0-0.9c1.7,0,3.3,0,5,0
			C-317.9-102.4-317.9-101.7-317.9-101.1z"/>
		<path fill="#CFCBCF" d="M-280.9,106c-1.3-5.1,2.5-8.4,4.8-12c24.1-38.1,48.4-76,72.7-114c6.6-10.3,13.1-20.7,19.7-31
			c6.2,2.9,11.2,7.6,16.9,11.2c4,3,8,6,12,9c1.4,1.3,2.7,2.6,4.1,3.8c-9.4,11.6-18.8,23.1-28.2,34.7c-8.3,10.1-16.6,20.3-24.9,30.4
			c-10,12.2-20.1,24.2-29.9,36.5c-5.9,7.4-12.8,13.9-17.1,22.5c-0.3,0.3-0.7,0.7-1,1C-261.1,102.5-270.6,105.6-280.9,106z"/>
		<path fill="#D2C7D1" d="M-292.9-23c1-9.8,4.6-18.9,7-28.3c3.5-13.6,7.3-27.1,11-40.7c5.9,0.7,11.2,3.7,17,4.9c7,2.6,14,5.3,21,7.9
			c3,1.4,5.6,3.6,9,3.9c1,0.5,2,0.9,3,1.4c-1,6.4-5.9,10.6-9.4,15.5c-6,8.5-11.5,17.2-16.6,26.3c-1.5,5.7-5.8,9.6-9.3,14
			c-12.3,15.5-23.9,31.5-36.2,47c-1.2,1.6-2.4,3.2-4,4.4c-0.9,0.7-2,1.4-3.2,0.8c-1.2-0.6-1.3-1.8-1.4-3s0.2-2.3,0.6-3.4
			c5.9-18.2,11.4-36.5,17.3-54.9C-289-25.5-289.8-22.5-292.9-23z"/>
		<path fill="#C5C2B5" d="M-283.9,284c1.6-0.9,2.8-0.1,4.1,0.7c13.5,7.4,27,14.9,40.6,22.2c28.4,15.4,56.9,30.8,85.4,46.2
			c19.1,10.3,38.3,20.6,57.5,30.8c9.1,4.8,17.7,10.6,27.3,14.2c-7.5,13.9-16,27-25,39.9c-6.8,7.6-12.2,16.3-19.7,23.2
			c-1.8,0.7-2.8-0.7-3.9-1.6c-16.8-14.9-33.4-30.1-50.2-45c-17.9-15.9-35.7-31.9-53.6-47.9c-14.7-13.2-29.5-26.4-44.2-39.7
			c-7.7-7.1-15.4-14.2-23.5-20.9c-2.4-2-4.9-4-6.3-7C-292.3,293.3-289.5,287.7-283.9,284z"/>
		<path fill="#C5C5B5" d="M-294.9,299c10.6,9.5,21.3,19,31.9,28.4c15.1,13.5,30.2,26.9,45.3,40.4c7.2,6.4,14.3,12.9,21.4,19.3
			c15.6,13.9,31.2,27.8,46.7,41.8c7.8,7,15.4,14.1,23.2,21.1c4.2,3.8,8.5,7.4,12.7,11.1c-2.1,2.3-4.2,4.5-6.3,6.8
			c-4.5,4.7-8.9,9.4-13.5,14c-2.4,2.4-5,4.7-7.5,7c-7.3,6-14.6,12.1-22,18.1c-8.3,5.7-16.7,11.4-25,17c-5.7,3.3-11.3,6.6-17,9.9
			c-5.3,2.7-10.7,5.4-16,8.1c-9.7,4-19.3,8-29,12.1c-9.3,3-18.7,6-28,9c-3.7,0.9-7.3,1.8-11,2.7c-2.4-1.7-2.7-4.5-3.2-7.1
			c-6.7-29.4-13.5-58.7-20.2-88.1c-10.4-45.6-21-91.1-31.4-136.7c-0.3-1.5-0.9-2.8-1.4-4.3c-0.2-3.3,2.6-3,4.4-3.5
			c12.1-3.5,22.9-9.4,32.9-17c2.9-2.2,5.3-5,8-7.4C-298.4,300.4-297.3,298.4-294.9,299z"/>
		<path fill="#C5C5B7" d="M-345,329c2.8,0.2,2.2,2.7,2.6,4.2c4.9,20.6,9.6,41.2,14.4,61.9c4.6,20.2,9.2,40.3,13.9,60.5
			c8.1,35.5,16.2,71,24.3,106.4c0.3,1.3,0.7,2.6,1,3.8c-1.3,0.4-3-0.2-4.1,1.2c-3.4,1.7-7,2.5-10.9,2.1c-9.4,1.1-18.6,3.6-28,4
			c-0.3,0-0.7,0-1,0c-1.5,0.5-3,0.8-4.4-0.2c-3.3-6.2-2.3-13-3-19.5c-2-21.5-3.9-43.1-5.7-64.6c-1.5-17.6-3-35.1-4.5-52.7
			c-1.8-20.5-3.5-41.1-5.4-61.6c-1.2-12.8-2.1-25.5-3.4-38.3c-0.2-1.7,0-3.3,0.7-4.9C-354.5,327.9-349.9,327.2-345,329z"/>
		<path fill="#878784" d="M-303.9,569.1c3.6-0.7,7.3-1.4,10.9-2.1c0.7,0.1,1.5,0.1,2.5,0.2c-1.1,1.2-2.8,0.4-3.4,1.8
			C-297.2,568-300.5,571.6-303.9,569.1z"/>
		<path fill="#ECF2F6" d="M-649.9,46c0.3-0.7,0.7-1.3,1-2c3.3-4.7,6.6-9.4,10-14.1l0,0c3.4-3.9,5.9-8.6,10.1-11.8
			c5.9,1.2,9.2,6.3,13.7,9.5c2.5,1.8,4.6,3.7,7.9,3.5c1.9-0.1,3.5,1,4.9,2.3c23.9,20.5,48,40.6,72.1,60.9c23,19.4,46,38.9,69,58.3
			c4.8,4.1,9.5,8.3,14.4,12.3c4.4,3.6,3.1,8.4,2.8,13c-0.8,1.8-1.5,3.8-3.8,4.2c-22.4-14.6-44.8-29.3-67.1-44
			c-29.4-19.4-59.1-38.6-88.6-57.8c-6.7-4.4-13.3-8.9-20-13.2c-6-3.9-7.7-3.9-12.4,1.3c-2.9,3.2-5.6,3.6-9.1,1.2
			c-3.2-2.1-6.6-3.9-9.8-5.9c-1.5-1-3.3-1.7-3.7-3.8c0-0.8,0.2-1.5,0.7-2.1l0,0C-655.3,54-652.8,49.8-649.9,46z"/>
		<path fill="#DADCDC" d="M-628.9,19c-3.9,3.1-5.7,8.3-10,11c0.7-3.3,3.7-5.1,5-8c6.7-7.7,13.3-15.3,20-23c6.3-6,12.7-12,19-18
			c0.6,0.3,1.3,0.7,1.3,1.5c-3.1,4.1-7.1,7.4-10.7,11.1c-7.3,7.3-14.5,14.7-21,22.7C-626.4,17.5-627.7,18.2-628.9,19z"/>
		<path fill="#DADCDC" d="M-638.9,30c-2.5,5.3-5.9,9.9-10,14.1C-646.6,38.7-643.2,34-638.9,30z"/>
		<path fill="#DDDFDF" d="M-649.9,46c-1.9,4.5-4.6,8.5-8,12C-656.1,53.4-654,49.1-649.9,46z"/>
		<path fill="#DDDFDF" d="M-657.9,58c0,0.7,0,1.3,0,2c-0.7,1.3-0.4,3.6-3,3l0,0C-660.5,60.9-659.9,59-657.9,58z"/>
		<path fill="#D6D7D8" d="M-593.9-18c-0.3-0.3-0.7-0.7-1-1c1.7-1,3-2.3,4-4c1-0.3,2-0.7,3-1c0.1,0.2,0.2,0.4,0.2,0.6
			c-0.2,1.2-0.9,2.1-1.7,2.9C-590.8-19.4-591.6-17.3-593.9-18z"/>
		<path fill="#CDCCCD" d="M-529.9-63.9c3.6-4.1,9.1-5.1,13.6-7.8c2.7-1.6,5.6-2.8,8.4-4.2c4.7-2,9.3-4,14-6c0.5,0.5,1.3,0.6,1.3,1.5
			c-0.1,0.5-0.3,0.9-0.7,1.2c-4,1.9-8.2,3.3-12.1,5.4c-3.5,1.3-6.9,2.8-10.2,4.6c-2.1,1-4.2,2-6.3,3.2
			C-524.5-65.4-526.6-62.5-529.9-63.9z"/>
		<path fill="#C8C7C8" d="M-482.9-86c4.7-1.7,9.3-3.3,14-5c0.3,0.4,0.5,0.8,0.4,1.3c-1.3,2.5-4.2,2.3-6.2,3.5
			c-2.6,1.1-5.4,1.9-8,2.9c-1.8,0.5-3.6,1.5-5.6,0.7c-0.2-0.2-0.4-0.3-0.5-0.5C-487.4-85-484.8-84.8-482.9-86z"/>
		<path fill="#C8C7C8" d="M-492.9-81c-0.3-0.3-0.7-0.7-1-1c1.7-0.3,3.3-0.7,5-1l0,0C-489.3-80.4-490.7-80-492.9-81z"/>
		<path fill="#D3D3D4" d="M-548.9-54c6-3.3,12-6.7,18-10c0,0.3,0,0.7,0,1c0.4,1.5-0.9,1.9-1.7,2.6c-2.4,1.1-4.6,2.7-6.9,4
			c-0.8,0.4-1.6,0.8-2.3,1.2c-2.7,1.5-5.1,3.4-7.8,4.9c-2.1,1.1-4.1,2.6-6,4c-2.9,1.5-4.9,4.8-8.7,4.8c-0.2-0.1-0.4-0.3-0.5-0.4
			C-560.5-47.3-554.2-49.9-548.9-54z"/>
		<path fill="#D3D3D4" d="M-571.9-37c0-0.3,0-0.7,0-1c2.4-1.2,4.2-3.5,7-4l0,0c0.2,0.2,0.3,0.5,0.3,0.8s0,0.5-0.1,0.5
			c-1.7,2.2-3.7,4.1-6.7,4.1C-571.5-36.7-571.7-36.9-571.9-37z"/>
		<path fill="#E2DEED" d="M-532.9-61c0.7-0.7,1.3-1.3,2-2c0.3-0.3,0.7-0.6,1-0.9c2.7-1,5.3-2,8-3.1c3.6,0,4.4,3.1,4.7,5.4
			c1.4,10.3,7.3,18.5,11.8,27.3c8.2,16,17.6,31.5,24.3,48.1c5.4,13.4,11.8,26.3,18,39.3c10.3,21.8,22.3,42.8,33.9,63.9
			c0.5,2.4,2.3,4.7,1.1,7.4c-1.4,1-3,0.9-4.5,0.3c-4.9-4.6-6.2-11.3-9.5-16.8c-13.8-23-26.6-46.5-40-69.7
			c-4.4-7.7-6.3-16.8-11.7-24.1c-5.6-7.7-6.7-17.3-11.5-25.3c-8.6-14.2-14.6-29.9-23.2-44.1C-529.9-57.6-531.8-58.9-532.9-61z"/>
		<path fill="#D3D3D4" d="M-587.9-24c4.5-5.4,9.8-9.7,16-13l0,0c0.5,1-0.1,1.7-0.6,2.5c-1.5,1.7-3.6,2.7-5.2,4.4
			c-2,1.7-4.1,3.2-6.1,4.9C-584.8-24.1-586-22.7-587.9-24L-587.9-24z"/>
		<path fill="#BAB9B9" d="M-380.9-105c-2.5,1.5-5.3,0.8-8,1c-3.7,2.3-7.9,2.2-12,2.4c-2,0.1-3.9,0.4-5.9,0.7
			c-4.9-0.2-9.8,2.4-14.8,0.4c-0.6-0.4-0.7-0.9-0.4-1.5c7.7-1,15.3-2,23-3c6,0.4,12-1.7,18-1C-380.9-105.7-380.9-105.3-380.9-105z"
			/>
		<path fill="#BEBDBD" d="M-421.9-102c0,0.3,0,0.7,0,1c0.2,1.5-0.9,1.7-1.9,2.1c-2.3,0.4-4.5,0.9-6.8,1.3c-2.7,0.5-5.4,1.1-8.2,1.6
			c-1,0.2-2.1,0.2-3.1-0.2c-0.7-0.4-1.4-0.8-1.1-1.8l0,0c6.4-0.8,12.7-2.4,19-4C-423.2-102-422.6-102-421.9-102z"/>
		<path fill="#C4C3C4" d="M-468.9-90c0-0.3,0-0.7,0-1c2.7-0.7,5.3-1.4,8-2c2.1,0.1,3.8-2.1,6-1c0.1,2.3-1.9,2.2-3.3,2.9
			C-461.7-90.8-465-87.6-468.9-90z"/>
		<path fill="#D9CEDC" d="M-457.9-92c1-0.7,2-1.3,3-2c1,0,2,0,3,0c1.3-1.1,2.7-1.9,4.5-1.1c3.1,4.4,4.1,9.4,3.4,14.6
			c-0.5,3.7-0.4,7.3,0.6,10.8c0.9,3.1,1.3,6.1,0.5,9.3c-0.7,2.5,0.3,4.9,1,7.3c3.1,11.1,6.6,22.1,8.7,33.3
			c1.4,7.6,3.3,15.2,2.9,23.1c-0.1,1.9,0.4,3.6,0.9,5.4c3.2,11.2,7.2,22.2,9.4,33.6c3.2,16.5,8.9,32.4,12.5,48.7
			c1.7,7.4,3.4,14.9,5.2,22.3c0.8,3.1,2.1,6.4,0.5,9.7c-1,0.8-2,0.9-3.1,0.4c-1.8-1.3-2-3.4-2.7-5.2c-7.2-20.4-11.6-41.6-17.7-62.3
			c-2.6-8.9-5.6-17.9-6.9-27c-1.2-8.9-4.3-17.2-5.2-26.3c-1-9.9-5-19.6-7.8-29.4c-1.6-5.6-3.4-11-2.9-17.1c0.4-4.3-1.9-8.4-3-12.5
			c-2.3-8.2-4.6-16.3-7-24.5C-459.1-84.6-459.5-88.3-457.9-92z"/>
		<path fill="#C1C0C1" d="M-447.9-95c-1.3,0.3-2.7,0.6-4,1c1.9-3.8,6.3-2.1,9-4c0.3,0.3,0.7,0.7,1,1C-443-93.7-445.6-94.6-447.9-95z
			"/>
		<path fill="#DBE9E8" d="M-691.9,338c0-1.7,0-3.3,0-5c5.5-5.7,11.7-10.1,19.7-11.9c8.6-1.9,17.5-3.7,25.4-7.3
			c10.7-4.9,22-7.7,33.1-11.1c2.9-0.9,5.8-1.5,8.7-2.3c7.5-2,15-4.1,21.8-8.4c7-4.4,15.4-5.1,23.3-7.3c21.3-6,42.4-12.7,64-17.9
			c1.6-0.4,3.3-0.9,4.5-2c3.5-3.1,7.8-4.4,12.2-5.4c3-0.7,5.7-1.8,8.1-3.7c0.6-0.2,1.1,0,1.5,0.3c1.2,1.8,1,3.7,0.9,5.7
			c-0.1,0.8-0.4,1.6-0.8,2.3c-4.5,3.2-9.9,3.6-15,5.1c-3.2,0.9-6.3,1.9-8.8,4.3c-2.7,2.5-6.2,3.9-9.7,5
			c-26.3,8.2-52.8,16.2-79.2,24.1c-5.1,1.5-9.4,4.2-13,8c-3.3,3.5-7.2,5.7-11.8,7.2c-8.7,2.9-17.3,5.8-26,8.6
			c-2.7,0.9-5.4,2-7.2,4.2c-3.8,4.5-8.7,7.1-14.1,8.9c-9.6,3.2-19.1,6.9-28.7,10c-1.2,0.4-2.5,1-3.8,0.4c-0.7-1.3-1.3-2.7-2-4
			c-1-1.9-1.2-4.1-2-6C-690.9,339.2-691.1,338.4-691.9,338z"/>
		<path fill="#DAE8E7" d="M-686.9,350c12.2-4.4,24.3-8.9,36.5-13.3c2.4-0.9,4.6-1.9,6.2-3.9c3.6-4.5,8.2-7.1,13.7-8.5
			c4.7-1.2,9.2-2.9,13.8-4.5c8.6-2.9,17.2-5.4,23.7-12.8c6-6.7,15.6-6.9,23.7-9.6c18.6-6.1,37.4-11.5,56.1-17.3
			c7.9-2.4,15.4-4.9,22.5-10c5.5-4,13.7-4.2,20.8-6.1c2,4.4-1.5,5.7-4.3,6.7c-4.9,1.7-9.8,3.2-14.7,4.8c-2.4,0.8-4.8,1.5-6.7,3.2
			c-5.2,4.8-11.6,7-18.1,9c-8.8,2.7-17.2,6.2-25.9,9c-2.4,0.8-4.9,1.7-6.6,3.5c-5.6,6-13.2,8.2-20.5,10.8c-11,3.9-21.8,8.3-32.8,12
			c-1.6,0.5-3.2,1-4.6,2c-11.3,8.1-24.8,11.1-37.4,16.2c-4.8,1.9-9.4,4-12.3,8.2c-4.4,6.5-11,9.3-17.9,12c-2.9,1.2-5.8,2.6-9,3
			c-3-0.9-2.3-4.1-3.6-6c-1.2-2-1.4-4.5-2.6-6.5C-688,351.3-687,350.7-686.9,350z"/>
		<path fill="#D7DAD8" d="M-683.9,358c1.2,1.9,1,4.5,3,6c0.8,0.7,0.8,1.6,0.5,2.5c-0.2,0.2-0.3,0.3-0.5,0.5c-0.7-0.7-1.3-1.3-2-2
			c-0.7-2.3-1.3-4.7-2-7C-684.6,357.6-684.2,357.6-683.9,358z"/>
		<path fill="#D7DAD9" d="M-683.9,358c-0.3,0-0.7,0-1,0c-1.5-1.7-1.9-3.8-2-6C-684.9,353.5-685.1,356.1-683.9,358z"/>
		<path fill="#D8DADA" d="M-690.9,340c1.5,1.7,1.9,3.8,2,6C-690.8,344.4-691,342.2-690.9,340z"/>
		<path fill="#C9CBCA" d="M-594.9,489c-1.3-1-2.7-2-4-3c-5.6-6.4-11.6-12.4-18-18c-0.9-2.3-3.9-3.2-4-6c0.2-0.1,0.4-0.2,0.7-0.2
			c1.7,0.3,2.8,1.6,4,2.7c5.6,5.7,11.2,11.3,16.9,16.9c1.7,2.1,4.3,3.5,5.1,6.4C-594.4,488.3-594.5,488.7-594.9,489z"/>
		<path fill="#CFD1D0" d="M-638.9,442c-0.6-2.2-2.8-3.6-3-6c0.4-0.3,0.8-0.3,1.3-0.2c2.4,2.1,4.8,4.2,5.1,7.7
			c-0.1,0.2-0.3,0.4-0.4,0.5C-636.9,443.3-637.9,442.7-638.9,442z"/>
		<path fill="#CDD0CE" d="M-620.9,462c-2.4-2-5.2-3.6-6-7c0.2-0.1,0.5-0.2,0.7-0.2C-623.4,456.4-620.1,457.7-620.9,462L-620.9,462z"
			/>
		<path fill="#CDD0CE" d="M-626.9,455c-2.1-1.6-4.5-3-5-6c0.2-0.1,0.5-0.2,0.7-0.2c1.3,0.2,2.2,1,3,1.8
			C-627.2,451.9-625.5,453-626.9,455L-626.9,455z"/>
		<path fill="#CDD0CE" d="M-631.9,449c-1.9-1.2-3.7-2.5-4-5l0,0c0.4-0.3,0.9-0.4,1.4-0.2C-632.9,445.1-630.5,446.1-631.9,449
			L-631.9,449z"/>
		<path fill="#D5D8D7" d="M-664.9,400c-2.9-1.5-2.6-5.2-5-7c-1.4-4.8-4.2-8.9-6.2-13.4c-0.8-1.8-2-3.4-1.8-5.6
			c0.2-0.1,0.5-0.1,0.7-0.2c3.9,3.4,4.8,8.5,7.4,12.6c1.6,4.4,5.2,8,5.4,12.9C-664.6,399.6-664.8,399.8-664.9,400z"/>
		<path fill="#D6D9D8" d="M-677.9,374c-1.8-2-3-4.2-3-7l0,0C-677.3,368.2-676.4,370.6-677.9,374L-677.9,374z"/>
		<path fill="#C7CBC3" d="M-464.9,560c-9.7-2-18.6-6.2-28-9c-2.9-1.1-6.3-1.1-8.4-4c31.3-75,63.6-149.5,95.4-224.3
			c4.5-0.4,7.9,2,11.4,4.4c1.2,2.3,0.2,4.6-0.5,6.8c-10.2,33.5-20.1,67-30.2,100.5c-11.7,39.3-23.8,78.6-35.7,117.9
			C-461.7,555.1-461.8,558.4-464.9,560z"/>
		<path fill="#C7CAC0" d="M-464.9,560c5.3-16.9,10.6-33.9,15.8-50.8c5.4-17.8,10.8-35.5,16.1-53.3c9.8-32.7,19.5-65.4,29.3-98.2
			c2.6-8.6,5.2-17.1,7.9-25.7c0.5-1.6,1-3.2,0.8-4.9c1.5-1.5,2.9-0.4,4.4,0.1c1,0.5,1.9,1.1,2.2,2.3c-0.6,8.5-3.3,16.6-5.3,24.8
			c-13.1,53.7-25.8,107.4-38.9,161.1c-3.6,14.7-7.2,29.4-10.6,44.2c-0.5,2.2-0.8,4.6-2.5,6.5c-0.8,0.5-1.6,0.6-2.3-0.1
			c-1-1.5-2.6-0.8-4-1c-2.9-1.3-6.2-1.5-9-3C-462.2,561.3-463.6,560.7-464.9,560z"/>
		<path fill="#B3B4B2" d="M-500.9,547c2.7,1.3,5.3,2.7,8,4c-0.3,0.3-0.7,0.7-1,1c-4.3-2-8.7-4-13-6c-6.7-2.3-12.6-6.1-19-9
			c-0.4-0.5-0.4-0.9,0.1-1.3c0.5-0.2,1-0.5,1.4-0.3C-516.4,538.9-508.2,542-500.9,547z"/>
		<path fill="#A2A3A0" d="M-447.9,566c0.7,0,1.3,0,2-0.1c1.1-0.9,2.4-1.1,3.8-0.8c7.9,1.8,15.9,3,23.8,4.8c0.8,0.2,1.5,0.6,2.1,1.3
			c0.1,0.3,0.2,0.5,0.3,0.8c-1.7,1.8-3.3-0.7-5,0c-7.3-1.3-14.7-2.7-22-4C-444.3,566.7-446.6,567.6-447.9,566z"/>
		<path fill="#A7A8A6" d="M-460.9,562c3.1,0.7,6.5,0.6,9,3c-3.6,0.3-6.7-1.7-10.1-2.4c0-0.1,0-0.3,0.1-0.4
			C-461.5,562.1-461.2,562.1-460.9,562z"/>
		<path fill="#D4E1DF" d="M-640.9,436c-0.3,0-0.7,0-1,0l0,0c-0.9-1.4-2.1-2.6-3-4c-0.7-1-1.3-2-2-3c-1.6-2.6-4.1-4.7-4.7-8
			c0.5-2.2,2.7-2.6,4.1-3.9c10.2-7.1,20.4-14.2,31.4-20.1c2.8-0.4,5.6-1.1,7.9-2.7c14.9-10.5,31.1-19.2,45.2-31
			c1.9-1.6,3.7-3.4,5.6-4.9c12.2-9.8,25.8-17.6,38.8-26.2c1-0.6,2-1.2,2.8-2c10.6-11.1,24.5-17.6,36.8-26.3c2.7-1.9,5.6-3.6,7.7-6.3
			c0.8-1.1,1.9-2.5,3.7-1.3c0.9,1.4,0.8,2.9,0.5,4.4c-0.4,1.4-0.6,3-1.4,4.3c-12.8,8.4-25.9,16.3-38,25.7
			c-9.4,7.3-17.5,16.3-27.3,23.2c-8.5,6-18,10.9-25.8,17.8c-17.9,15.8-38,28.5-57.5,42.1c-5.6,3.9-9.3,9.4-13.5,14.5
			c-1.9,2.3-3.8,4.6-6.1,6.6C-637.8,435.9-639,437.3-640.9,436z"/>
		<path fill="#D6E3E1" d="M-615.9,398c-10.3,6.7-20.7,13.3-31,20c-2.3,0.8-4.7,1.9-7,0c-0.3-0.3-0.7-0.7-1-1c-1-1.6-2.1-3.2-2.5-5.1
			c5.6-7,11.9-13.3,19.7-18.1c12.9-7.9,26.1-15.3,38.8-23.6c0.6-0.4,1.2-0.5,1.9-0.6c2.4,0.7,4.1-0.7,5.9-1.8
			c11.1-6.6,22.1-13.3,33.1-19.9c1.9-1.1,3.7-2.9,6.3-2c0,6.1-4.3,9.5-8.6,12.4c-13.1,8.6-26.2,17-39.5,25.2
			c-4.5,2.8-8.3,6-11.4,10.2C-612.4,395.6-613.9,397-615.9,398z"/>
		<path fill="#D3D5D4" d="M-656.9,412c0.7,1.7,1.3,3.3,2,5c-0.3,0-0.7,0-1,0c-1.5-3.4-4.4-6.1-5-10c0.2-0.1,0.4-0.2,0.6-0.2
			C-657.6,407.5-657.6,410-656.9,412z"/>
		<path fill="#D2D4D3" d="M-650.9,421c0.4,3.2,3.7,4.8,4,8c-3.1-2.3-5.1-5.3-6-9C-651.8,419.5-651.4,420.2-650.9,421z"/>
		<path fill="#D6E3E1" d="M-650.9,421c-0.7-0.3-1.3-0.7-2-1c-0.8-0.4-1-1.2-1-2c2.3,0,4.7,0,7,0C-648.2,419-649.6,420-650.9,421z"/>
		<path fill="#D0D2D1" d="M-644.9,432c1.6,0.9,2.9,2,3,4C-643.5,435.1-644.8,434-644.9,432z"/>
		<path fill="#D3D6D5" d="M-660.9,407c-2.5-1.7-3.3-4.3-4-7l0,0c1.6-0.5,2.2,0.6,3,1.6C-661.2,403.3-659.4,404.9-660.9,407
			L-660.9,407z"/>
		<path fill="#C6C8BD" d="M-396.9,573c-5.4,0-10.7,0.2-16-1c-1,0-2,0-3,0v-0.1c-1.5-1.9-1.1-4.1-0.8-6.2
			c7.3-50,14.6-99.9,21.8-149.9c3.8-26.5,7.4-53.1,11.4-79.7c0.3-2.1,0.4-4.3,2-6.1c1-0.9,2.2-1.1,3.4-0.9c1.5,0.4,3,0.8,3.9,2.3
			c2,7.3-0.1,14.6-0.7,21.8c-1.6,20.4-3.6,40.7-5.5,61.1c-2.1,23.3-4.3,46.7-6.5,70c-1.9,20-3.7,40.1-5.5,60.1
			c-0.7,7.9-1.6,15.9-2.1,23.8C-394.7,570.2-395.2,571.9-396.9,573z"/>
		<path fill="#B9BBB9" d="M-525.9,536c0,0.3,0,0.7,0,1c-0.3,0-0.7,0-1,0c-4.3-3.2-9.1-5.8-14-8c-3.4-3-8.1-4.3-11-8
			c0.2-0.1,0.4-0.3,0.6-0.4c5.3,0.3,8.5,4.7,13,6.6c2,0.8,3.7,2.2,5.6,3.1C-530.4,532.1-526.8,532.5-525.9,536z"/>
		<path fill="#C4C7C5" d="M-594.9,489c0-0.3,0-0.7,0-1c2.7-1.4,3.8,1.2,5.5,2.3c1.1,1.2,2.5,2.3,2.8,4.1c-0.1,0.2-0.2,0.4-0.2,0.7
			C-590.7,494.4-591.8,490.4-594.9,489z"/>
		<path fill="#C2C5C3" d="M-580.9,500c-1-0.3-2-0.7-3-1c-1-1.3-2-2.7-3-4l0,0c3.8-1.1,4.9,1.8,6.2,4.3
			C-580.7,499.5-580.8,499.8-580.9,500z"/>
		<path fill="#BEC1BF" d="M-557.9,518c-3.7-2.7-7.3-5.3-11-8c-1-0.7-2-1.4-3-2c-0.3-0.3-0.3-0.6-0.2-0.8c0.1-0.3,0.2-0.4,0.3-0.4
			c6.3,1.1,10.7,5.1,14.5,9.9C-557.4,517.2-557.5,517.6-557.9,518z"/>
		<path fill="#C1C3C2" d="M-575.9,504c-2.5-0.3-3.7-2.2-5-4l0,0c3.5-1,5,1.1,6.2,3.9C-575,504.4-575.5,504.4-575.9,504z"/>
		<path fill="#C0C2C0" d="M-575.9,504c0.3,0,0.7,0,1,0c2.2-0.2,3.2,0.8,3,3c0,0.3,0,0.7,0,1C-573.6,507-574.9,505.7-575.9,504z"/>
		<path fill="#BCBEBC" d="M-557.9,518c0-0.3,0-0.7,0-1c1.2-1.1,2.3-0.3,3.3,0.2c1.2,1,3.2,1.5,2.7,3.8l0,0c-0.7,0-1.3,0-2,0
			C-555.2,520-556.6,519-557.9,518z"/>
		<path fill="#817A7A" d="M-274,211c0.1,1,0.2,2,0.4,3c0.6,2,1.2,4,1.9,6c0.3,3.3,0.7,6.7,1,10c0.6,3.3,0.5,6.7,0,10
			c0,1-0.1,2-0.1,3c-1,5.3-1.9,10.7-2.9,16c-0.4,1-0.8,2-1.2,3c-1.1,0.8-2.2,0.9-3.2-0.1c-0.5-1.3-0.3-2.6,0-3.9
			c3.8-14.7,3.9-29.4,0.5-44.2c-0.3-1.1-0.3-2.3,0.2-3.4C-276,208.7-275,209.5-274,211z"/>
		<path fill="#807F75" d="M-277.6,262c0.9,0,1.8,0,2.7,0c-0.6,2.3-1.2,4.7-1.8,7c-1,2.3-2,4.7-3,7c-1.4,2.7-2.8,5.3-4.2,8
			c-3.7,5-7.3,10-11,15c-7.7,7.3-15.5,14.4-24.9,19.7c-8,4.6-16.7,7.1-25.2,10.2c-4.3,0.7-8.6,1.4-12.9,2.1
			c-3.2,2.3-6.9,1.2-10.4,1.4c-1.2-0.1-2.3-0.1-3.4-0.4c-2-1.1-4.1-1.4-6.3-1.9c-1,0-1.9,0.1-2.9,0.1c-2.9,1.8-5.6,1.3-8-1
			c-0.8-0.2-1.6-0.2-2-1.1c-1-1.8,0.1-2.5,1.6-3c7.8,0.9,15.5,1.7,23.3,1.7c37.6-0.2,72.1-24.2,85.1-59.4
			C-280.1,265.4-279.9,263-277.6,262z"/>
		<path fill="#C5B5B5" d="M-270.7,240c0-3.3,0-6.7,0-10c0.3,0,0.6,0,0.9,0c0,2.7,0,5.3,0,8c0,0.7,0,1.3,0,2
			C-270.2,240-270.5,240-270.7,240z"/>
		<path fill="#E1EEEE" d="M-706.9,248c0-2.7,0-5.3,0-8c1.6-1.3,3.5-0.7,5.3-0.7c9.1,0.1,18.3,1.4,27-2.4c6.3-1,12.6-0.9,18.9-1.3
			c20.6-1.3,41.1-3.2,61.8-2.3c4.7,0.2,9.3-0.1,14,0.1s8.8-0.6,12.1-4.4c2.7-3.1,6.7-3,10.3-2.5c9.1,1.3,18.3,0.4,27.4,1
			c7.4,0.5,14.3-2.9,21.7-2.2c12.4,1.2,24.9,1.1,37.3,2.7c3.3,3.5-1.1,5-1.9,7.5c-1.9,4.1-5.4,4.9-9.5,5c-10.8,0.3-21.7-1.2-32.4,1
			c-16.9,3.5-34.1,2.7-51.1,3.9c-3.9,0.3-7.6,0.8-10.9,3c-3.5,2.3-7.4,2.8-11.4,3c-8.6,0.3-17.5,0.2-25.8,2.2
			c-15.8,3.8-31.9,4.1-47.9,5.5c-6.6,0.6-13.2,1.3-19.9,1.3c-5.6,0-9.9,1.6-13.3,6.2c-2.3,3.1-5.3,5.8-9.8,3.3
			C-705.6,262.7-706.2,255.3-706.9,248z"/>
		<path fill="#DFEDED" d="M-704.9,270c4.2,0.2,7.4-1.6,9.5-5.2c2.6-4.4,6.5-5.6,11.3-5.9c19.2-1.2,38.6-1,57.4-4.5
			c14.9-2.7,29.9-3,44.7-5.4c0.5-0.1,1.1,0.1,1.5-0.1c13.4-8,28.2-5,42.6-6c7.5-0.5,15.1-1.2,22.6-2.8c11-2.3,22.2-0.9,33.3-1
			c4.1,0,7.2-0.6,8.2-5.1c1.9,3.2,2.2,6.6,1.5,10.1c-1.6,2.3-4,2.9-6.5,3.1c-12,0.9-23.9,2.1-35.8,3.2c-5.1,0.4-9.9,1.4-14.2,4.3
			c-3.6,2.5-7.7,3.1-11.8,3.6c-6.9,0.8-13.9,1.8-20.8,2.6c-4.7,0.5-9.1,1.7-13.5,3.5c-6.7,2.8-14,2.8-21.1,3.6
			c-23.5,2.7-46.6,7.8-70.1,10.5c-3.4,0.4-6,2-7.8,4.8c-3.2,5-7.9,7.6-13.7,7.9c-4.7,0.3-9.3,3.1-14.1,0.7
			C-703.2,284.7-704.6,277.4-704.9,270z"/>
		<path fill="#DDEAEA" d="M-470.9,256c-0.1,2.6-2.1,3.4-4,3.8c-6.1,1.4-11.6,3.8-17.3,6.9c-6.5,3.5-14.5,4.3-21.8,6.4
			c-22.1,6.3-45,10.7-66,19.5c-17.7,7.5-36.5,10.3-54,17.5c-14.4,5.9-29.4,9.9-44.2,14.2c-2.7,0.8-5.1,2.4-7,4.6
			c-1.8,2-3.7,3.8-6.6,4.1c-2.1-3-2.4-6.6-3-10c1.7-2.5,4.6-2.5,7.1-3.1c5.1-1.1,9.3-3.3,12.2-7.9c2.8-4.5,7-6.8,12.1-7.8
			c7.9-1.7,15.7-4.4,23.7-5.6c5.8-0.8,9.8-3.6,12.5-8.6c0.6-1,1.2-2,1.9-2.9c2.7-3.3,6.3-4.8,10.4-5.4c5.8-0.9,11.4-2.3,17.2-3.3
			c6.2-1,12-2.6,16.8-7c2.8-2.6,6.6-3.1,10.2-3.6c7.6-1,15.1-2.5,22.7-3.6c5.4-0.8,10.9-1.5,15.6-4.8c1.6-1.1,3.7-1.4,5.7-1.7
			c12.1-1.6,24-3.7,36.1-5.3c4.8-0.6,9.6-1.3,14-3.6c1.6-0.9,3.4-1.3,5.3-0.4C-468.9,250.9-469.2,253.4-470.9,256z"/>
		<path fill="#DEECEC" d="M-471.9,249c-7.5,2.6-15,4.7-23,5.6c-10.3,1.2-20.6,2.9-30.9,4.4c-1.9,0.3-4.3,0.3-5.7,1.4
			c-7,5.4-15.6,4.6-23.5,6.4c-6.4,1.5-13,2.2-19.5,3.1c-1.7,0.2-3.4,0.6-4.5,1.8c-6.6,6.9-15.5,7.4-24.1,9.2
			c-4.2,0.9-8.5,1.4-12.7,2.2c-3.5,0.7-6.4,2.6-9.1,4.9c-1.4,1.3-3.2,1.7-5,2.1c-21,4.2-41.9,8.3-62.8,12.8
			c-2.3,0.5-4.8,1.7-7.2,0.1c-0.7-3.7-1.3-7.3-2-11c6.5-1,13.1-1.9,19.5-3.1c3.5-0.7,5.5-3.8,7.2-6.5c2.3-3.7,5.5-4.9,9.5-5.4
			c9.2-1.1,18.4-2.2,27.4-4c13.1-2.7,26.5-3.7,39.6-6c9.4-1.6,19-1.6,28-5.7c6.3-2.8,13.6-2.1,20.5-3.3c8-1.3,16.2-1.1,23.6-6.3
			c6-4.2,14.1-2.9,21.3-3.7c8.9-1,17.8-1.4,26.7-2.2c1.9-0.2,3.8-1.2,5.6-1.9c0.4,0.2,0.8,0.6,1.1,1
			C-471.1,246.3-470.6,247.7-471.9,249z"/>
		<path fill="#DDEBEB" d="M-699.9,303c25-5.2,49.8-10.8,75-15c-2.6,5.9-5.8,10.7-13.2,11.7c-8,1.1-15.8,3.6-23.7,5.4
			c-5.5,1.2-10.3,3.1-13.3,8.4c-2.6,4.6-7,6.7-12.1,7.5c-2.6,0.4-5.1,1.3-7.7,1.9C-697.6,316.6-698.6,309.8-699.9,303z"/>
		<path fill="#E7F2F4" d="M-678.9,100c0.6-1.3,1.1-2.5,1-4c0.3,0,0.7,0,1,0c1.6-1.2,2.8-0.1,4.1,0.5c17.6,8.4,35.4,16.2,53,24.6
			c5.1,2.4,8,1.2,10-4c1.9-4.8,4.8-5.9,9.9-3.5c16.9,8,33.1,17.2,49.9,25.4c1.6,0.8,3.2,1.7,5,2.2c1.7,0.5,3.5,0.6,4.7-0.7
			c3.9-4.1,7.5-2,11.2,0.2c24.4,14.3,49.1,28.2,73.7,42.2c1.9,1.1,3.9,1.8,5.7,3c1,3.4-2,5.4-3,8.1c-0.7,1.9-1.4,3.7-2.2,5.6
			c-1,2-1.4,4.6-4.4,5c-12.8-3.2-25.2-7.6-37.5-12.2c-16.7-6.2-34-10.7-50.8-16.6c-24.8-8.7-49.7-17.3-74.7-25.4
			c-1.3-0.4-2.5-0.9-3.8-1.2c-1.7-0.4-3.6-0.5-4.1,1.6c-0.5,2,1.4,2.4,2.8,2.8c5.9,1.8,11.7,4,17.6,5.7c7.9,2.2,15.5,5.1,23.3,7.3
			c2.4,0.7,6,1.1,4.7,4.9c-1.1,3.3-4.1,1.8-6.5,1.2c-29.8-8.3-59.7-16.3-89.5-25c-5.9-1.7-11.5-3.7-16.4,1.9
			c-0.4,0.5-1.2,0.4-1.9,0.2c2.3-8.7,4.7-17.3,7-26c1.9-1.1,1.4-3.7,3-5c1.9-1.6,3.9-0.6,5.6,0.1c3,1.2,4.9,0.2,6.9-2.2
			c5.9-7.2,6.4-7.2,15.1-3.4c10.8,4.6,21.8,9.1,32.7,13.4c1.8,0.7,4.6,2.6,5.6,0c0.8-2.1-2.4-2.6-4.2-3.4
			c-15.4-6.6-30.8-13.2-46.2-19.9C-673.1,102.4-676.5,102.4-678.9,100z"/>
		<path fill="#E4F1F1" d="M-705.9,215c-0.1-9.4,1-18.8,3-28c4.7,1.4,8.6,1,11.3-4c1.9-3.5,5.5-4.5,9.5-3.7c4.5,0.9,9,1.7,13.5,2.2
			c0.7-0.1-0.2-1.2,0.1-0.5c0.1,0.3,0,0.4-0.3,0.4c-6.3-0.5-12.4-2-18.6-2.7c-4.9-0.6-9.7-1.2-14.5,0.4c-0.1-3.5,0.5-6.8,2-10
			c12.2,1.7,24.1,4.7,36.2,6.9c5.2,1,10.5,1.9,15.6,3.2c4.5,1.1,8,0,10.6-3.5c2.5-3.3,5.5-3.6,9.3-2.7c10.7,2.6,21.4,5.1,32,7.8
			c4,1,7.9,1.3,11.6-0.8c2.9-1.6,5.8-0.6,8.7,0.2c11.2,3.1,22.4,6.9,33.8,8.7c24.7,3.8,48.5,11.3,72.6,17.4c3.4,0.9,6.9,1.3,9.8,3.6
			c1.4,3.3,0,6.2-1.7,8.9c-3.1,3.9-7.3,4-11.8,3.4c-12.8-1.9-25.6-3.3-38.3-5.4c-4.6-0.8-9.2-1.2-13.5,1.2
			c-14.3-0.8-28.4-3.3-42.7-4.6c-1.7-0.1-3.3-0.4-5,0c-5.7,3.1-11.7,1.3-17.5,0.9c-7.2-0.5-14.5-1.2-21.7-2.2
			c-4.3-0.6-6.9,0.5-8.8,4.3c-0.8,1.6-1.9,3.1-3.4,4.3c-0.5,0.3-1.1,0.5-1.7,0.6c-6.3,0.8-12.6-0.5-18.8-0.8
			c-13.9-0.8-27.8-1.2-41.6-2.6c-3.5-0.3-7-0.1-10.4-0.3C-699.8,217.3-703.1,217.3-705.9,215z"/>
		<path fill="#E5F2F3" d="M-460.1,210c-16.8-4.4-33.8-8.3-50.4-13.5c-12.3-3.8-25.2-3.4-37.3-7.3c-10.2-3.3-20.8-5.5-31.2-8.4
			c-1.9-0.5-3.6-0.8-5.2,0.4c-3.4,2.7-7.2,2.1-10.9,1.2c-11.4-2.7-22.9-5.4-34.3-8.4c-3.5-0.9-5.3-0.2-7.3,2.9
			c-2.3,3.5-6,4.8-10.3,4c-16.2-3.3-32.4-6.6-48.6-9.8c-1.7-0.3-3.2-0.6-4.4-2c0.4-6.5,2.2-12.8,4-19c5.1-6.8,11.1-5.7,18.4-3.5
			c30.3,8.9,60.9,17.1,91.4,25.6c1.4,0.4,3,1.4,3.8-0.7c1-2.7-1.6-2.5-2.9-3c-14.2-4.5-28.5-9-42.7-13.5c-2-0.6-5.3-0.6-4.3-4
			c0.9-3.4,3.2-4.4,6.9-3.1c31.9,11,63.6,22.3,95.7,32.5c23.7,7.5,47.2,15.9,70.8,23.6C-457.4,206.4-458.2,208.3-460.1,210z"/>
		<path fill="#E5F2F3" d="M-701.9,179c3.7-4.7,8.4-2.7,12.8-1.9c7.4,1.3,14.8,2.8,22.8,4.4c-4.6,1.6-8.6,0.2-12.2-0.7
			c-6.8-1.9-11.1,0.2-14.4,6.1c-1.9,3.4-7.1,3.3-10,0.2c0-0.7,0-1.3,0-2l0,0c1.5-1.4,0.5-3.4,1-5
			C-701.9,179.7-701.9,179.3-701.9,179z"/>
		<path fill="#E4F1F1" d="M-701.9,180c1.1,2,1.6,3.8-1,5C-702.7,183.3-703.6,181.4-701.9,180z"/>
		<path fill="#E2F0F0" d="M-705.9,215c17.9,1.3,35.9,2.2,53.9,3.2c9,0.5,18.1,0.7,27.1,1.8c-1.2,6-4.6,9.2-10.4,9.3
			c-8.3,0.2-16.6,0.2-25,0c-4.4-0.1-7.8,0.9-10.1,4.9c-1,1.8-2.8,2.8-4.6,3.8c-2.4,2.5-5.7,2.8-8.7,2.9c-7.7,0.1-15.5,0.9-23.2-0.9
			c0-6,0-12,0-18C-706.6,219.7-706.2,217.3-705.9,215z"/>
		<path fill="#E8F3F6" d="M-450,186c-1.6,1-2.8,0-4.1-0.7c-25.7-14.8-51.4-29.6-77.2-44.4c-2.9-1.7-5.3-2.8-8.1,0.8
			c-2.3,3-5.8,1.3-8.7-0.2c-17.3-8.8-34.6-17.7-52-26.5c-5.9-3-7.9-1.9-8.9,4.6c-0.5,3.4-5.8,5.3-9.8,3.5c-9.5-4.4-19-8.8-28.5-13.2
			c-9.9-4.6-19.8-9.2-29.7-13.9c3.3-8.5,7.7-16.5,12-24.5c1.5-2.8,3.3-5.4,4-8.5c1-1,2-2,3-3c4.7,4.5,10.9,6.8,16.2,10.4
			c1.7,1.1,2.9-0.6,4.1-1.9c6.1-6.9,7.3-6.9,15-1.9c34.5,22.5,69,45,103.4,67.6c21,13.7,41.8,27.7,62.7,41.4c3,2,6.8,2.8,8.6,6.5
			C-447.4,184.1-448.1,185.4-450,186z"/>
		<path fill="#E8F3F6" d="M-678.9,100c7.3,0.6,13.5,4.6,20,7.2c12.8,5.2,25.4,10.8,38,16.4c1.4,0.6,4.5,0.5,3.3,3.8
			c-1.2,3.2-3.4,2.5-5.7,1.6c-12.9-5.2-25.9-10.2-38.7-15.8c-3.9-1.7-6.7-1.2-8.5,2.1c-3.3,6.2-7.6,7-13.4,3.9
			c-0.5-0.3-1.3-0.1-2-0.2c0-3.9,3.2-7,3-11c1.6-1.3,2.1-3.1,2-5C-680.2,102-679.5,101-678.9,100z"/>
		<path fill="#C5C6BA" d="M-368.9,331.1c3.7,0,7.3-0.1,11-0.1c0.9,14.8,2.3,29.6,3.9,44.4c1,9,1.4,18.1,2.2,27.2
			c1.2,13.8,2.6,27.6,3.8,41.4c0.8,8.9,1.4,17.8,2.2,26.7c1.2,14.1,2.7,28.3,3.8,42.4c0.7,8.1,1.2,16.1,2.1,24.2
			c1.3,11.8,2.1,23.7,3.1,35.6c-0.1,0.6-0.7,0.7-1.1,0.9c-14.3,0.1-28.5,1.7-42.8,1c0-0.3-0.1-0.6-0.1-0.9
			c1.6-18.6,1.8-37.2,2.6-55.8c1.1-26.4,2-52.8,3-79.2c1-24.9,2.1-49.8,3-74.7c0.3-9,0.8-17.9,0.9-26.9
			C-371.4,335-371,332.7-368.9,331.1z"/>
		<path fill="#939392" d="M-338,573.9c0.4-0.3,0.7-0.6,1.1-0.9c1.3,0,2.6,0.1,4,0.1C-334.4,574.6-336.3,573.8-338,573.9z"/>
		<path fill="#C6C7BB" d="M-368.9,331.1c-0.9,2.6-1.1,5.2-1,7.8c0.6,14.3-0.9,28.6-1.2,42.8c-0.4,16.6-1.3,33.1-1.9,49.7
			c-0.7,17.1-1.3,34.1-2,51.2c-0.7,17.2-1.1,34.5-2.1,51.7c-0.7,12.1,0.2,24.2-1.7,36.2c-0.2,1.5,0,3.1-2.1,3.3
			c-5.3-0.4-10.7,0.9-16-1c1.8-5.3,1.3-10.8,1.8-16.2c2.1-19.9,3.3-39.9,5.3-59.8c1.8-17.6,3.3-35.2,5-52.8
			c1.8-18.9,3.4-37.9,5.2-56.8c1.7-18.8,3.9-37.5,4.7-56.3c0.9-0.9,1.9-0.6,3-0.2C-370.9,330.9-369.9,331-368.9,331.1z"/>
		<path fill="#807F80" d="M-274,211c-0.9-0.3-1.9-0.7-2.8-1c-1.9-0.6-2.2-2.3-2.7-3.9c-5.8-17.4-16.2-31.7-30.3-43.4
			c-1.2-1-2.3-1.9-2.6-3.5c0-1.1,0.5-1.9,1.4-2.5c3.4,0.4,5.7,2.3,7.1,5.3c9.3,8.8,17.2,18.6,23.2,29.9c1.7,4,3.3,8,5,12
			C-275.2,206.3-274.6,208.6-274,211z"/>
		<path fill="#C5C0C5" d="M-304,162.1c-2.3-1.6-4.7-3.2-7-4.9c-2.4,0.2-3.9-0.9-4.7-3c-0.6-2.5,0.6-4.5,1.9-6.5
			c6.3-10.3,12.5-20.7,18.9-30.9c1.5-2.4,3.2-4.7,2.7-7.8c0.1-0.8,0.4-1.4,1.3-1.1c3.4-0.6,6.5-2.1,10-2c9.7-2.7,19.3-5.3,29-8
			c-4.7,8.3-11.6,14.8-17.6,22c-10.8,13.1-21.9,26-32.8,39C-303,159.9-303.4,161.1-304,162.1z"/>
		<path fill="#D1C6D0" d="M-292.9-23c3.4-1.5,4-5.7,8.2-7.8c-1.9,6.3-3.5,11.8-5.2,17.3c-4.4,13.9-8.8,27.8-13.2,41.7
			c-0.2,0.6-0.6,1.2-0.6,1.9c-0.2,1.1-0.6,2.5,0.5,3.2c1.3,0.8,2.2-0.6,2.8-1.4c3.7-4.7,7.4-9.4,11-14.1
			c12.8-16.6,25.7-33.2,38.5-49.9c3.3-1,1.4,1,1,1.8c-3.5,8.1-7,16.1-10.6,24.2c-10.4,23.5-20.8,47-31.2,70.5
			c-0.6,1.3-2.1,2.9-0.5,4c1.8,1.2,3-0.8,4-1.9c1.4-1.4,2.4-3.2,3.8-4.6c1-1,1.3,0.1,1.4,1c0.9,2.6-0.9,4.5-1.9,6.5
			c-6.9,14-13.9,28-20,42.4c-1.8,1.9-4.3,1.7-6.6,2.3c-4.9,0.6-9.8,2-14.8,2.4c-1.6,0.1-3.3,0.6-4.9-0.3c-1.4-1.5-1.3-3.4-0.8-5.2
			c5.6-19.4,10.7-38.9,16.9-58.2c3.6-7.8,5.1-16.3,7.6-24.5c5-16.3,9.4-32.7,14.1-49C-293-21.3-293-22.2-292.9-23z"/>
		<path fill="#D0C9CF" d="M-304.9,111c-0.8-2.1,0.4-3.8,1.3-5.5c6.9-14.2,13.8-28.3,20.7-42.5c6.3-10.6,12.5-21.3,19.6-31.5
			c5.6-8,11.3-15.9,17.4-23.5c8.5-3.6,12.1-12,17.3-18.7c7.4-9.5,14.5-19.3,22.7-28.3c-3.6,6-7.1,12.1-10.7,18.1
			c-19.6,32.7-39.3,65.4-58.9,98.2c-4.4,7.4-8.7,14.8-13.1,22.2c-1.6,2.6-2.7,5.3-2.3,8.5c-0.3,0.3-0.7,0.7-1,1
			C-296,111.4-300.2,112.6-304.9,111z"/>
		<path fill="#D1C2D1" d="M-314.9,53c-0.4,9.9-4.6,18.8-7,28.2c-2.5,9.9-5.5,19.7-8.4,29.4c-0.5,1.8-0.6,3.6-0.6,5.4
			c-0.8,1.4-2.2,1.9-3.6,2.2c-15.3,2.2-30.6,4.2-46.1,5.2c-1.2-0.2-2.4-0.4-3.2-1.4c-2.5-12.7-4.4-25.7-4.2-38.3
			c0.1-13.8-2.7-26.9-3.8-40.3c-0.3-3.7,1.6-6.7,2-10c0.7-5.5-0.8-10.9-1.4-16.3c-0.2-1.5-0.9-2.9,0.5-4.1c3.5-1.9,5.1-5.6,7.6-8.4
			c0.8-0.9,1.2-2.7,2.9-2.1c1.5,0.5,1.5,2.1,1.4,3.4c-0.7,8.8,1.4,17.5,1,26.3c0,1-0.1,2,0.1,3c0.1,1.1,0.3,2.5,1.5,2.9
			c1.1,0.3,1.8-0.9,2.3-1.6c4.7-6,9.2-12.1,13.9-18.1c12.4-15.9,25.1-31.7,36.7-48.2c0.8-1.2,1.9-2.7,3.6-1.8
			c1.6,0.9,0.3,2.3,0.1,3.5c-2.4,13.8-4.7,27.7-7.1,41.5c-0.2,1.1,0,2.3,0,3.8c2.4-0.5,3.1-2.3,4.3-3.8c3.4-4.7,6.9-9.3,10.6-13.8
			c1.2-1.5,3.1-3.2,5.1-2.2c2.2,1.2,0.4,3.3,0,4.9c-4,16.1-8.1,32.1-12.1,48.2c-0.4,1.5-1.9,3.6-0.4,4.6
			C-317.4,56.6-316.6,53.3-314.9,53z"/>
		<path fill="#D3C6D4" d="M-406.9-102c5.9-1.5,12-1.4,18-2c0.2,3.3,0.1,6.6,0.6,9.9c0.4,3.1-1,6.3-3,9.2c-4.4,6-8.7,12.6-7.4,20.4
			c0.9,5.7,0.6,10.7-2.3,15.7c-2,3.4,0,6.9,0.4,10.2c1,8,0.8,16.2,2.7,24.1c0.1,0.5,0.1,1,0,1.5c-3.9,15.5,1.2,30.4,2.9,45.5
			c0.1,0.5,0.1,1,0.1,1.5c-2.1,18.5,2.9,36.4,4.3,54.6c0.9,11.1,1.5,22.4,3.7,33.4c-1.3,1.2-2.7,1.1-4.1,0.4c-3.3-4.5-3.1-10-4-15.2
			c-0.2-1,0.2-2,0-3c-3.3-17.1-4.7-34.5-7.9-51.7c-1.9-10.2-3.8-20.6-1.8-31.1c0.3-1.5-0.2-3-0.4-4.5c-1.5-9-2.9-18.1-4.6-27.1
			c-0.9-4.8-1.6-9.5-0.2-14.3c1-3.5-0.2-7-0.7-10.4c-0.4-3.1-0.2-5.9,1.3-8.7c1.9-3.4,2-6.9,1.4-10.7c-1.3-9.1-2.7-18.1-3.6-27.2
			C-412.2-88.7-409.8-95.4-406.9-102z"/>
		<path fill="#C6B9C7" d="M-383.9,122c1,0,2,0,3,0c0.6,4.7,0.9,9.5,1.4,14.2c0.2,1.5,0.1,3-1.1,4.2c-1.9,1.4-3.9,2.2-6.2,1
			c-1.9-5.9-3.5-12-3.5-18.3c1.2-1.3,3.1,0.1,4.3-1.1C-385.2,122-384.6,122-383.9,122z"/>
		<path fill="#D1C2D1" d="M-385.9,122c-1.1,1.5-2.6,0.9-4,1c-0.6,0.6-1.3,0.6-2,0.2c-0.3-0.9,0-1.4,1-1.2c1.3,0,2.7,0,4,0
			C-386.6,122-386.2,122-385.9,122z"/>
		<path fill="#EBF0F7" d="M-593.9-18c1.3-1,2.7-2,4-3c2.7-1.4,4,0.8,5.3,2.3c16,18.7,32.3,37.2,48.4,55.8
			c13.9,16.1,28,32.1,41.9,48.2c18.8,21.8,37.9,43.3,56.1,65.6c1.8,2.2,3.8,4.2,5.7,6.3c1.5,1.6,2.9,3.3,2.4,5.7
			c-4.1,5.9-8.7,11.3-14.8,15.3c0.7-6.5-1-11.2-6.7-15.7c-15.1-11.8-29.5-24.6-44.1-37c-9.8-8.4-19.6-16.8-29.4-25.2
			c-11.7-9.9-23.6-19.8-35.3-29.7c-9.5-8-18.9-16-28.4-24.1c-5-4.3-10-8.6-15.1-12.9c-0.5-0.4-1.2-1-1.7-1
			c-9.6,0.5-13.5-8.3-20.4-12.3c-1-0.6-1.8-1.5-3-1.5C-618.6,5.4-606.4-6.4-593.9-18z"/>
		<path fill="#969B9E" d="M-444.8,178.3c4.6-5.1,9.3-10.2,13.9-15.3c0.8-0.7,0.4-2.1,1.4-2.7c1.1-0.7,2.2-1.3,3.3-2
			c0.8-0.5,1.6-0.8,2.6-0.4c0.8,0.6,1.3,1.4,1.2,2.4c-0.3,1.6-1.5,2.5-2.6,3.5c-11.1,9.2-19.6,20.3-25.7,33.4
			c-0.7,1.5-1,3.2-2.7,4.1c-1.5,0-1.8-1.3-2.5-2.2c1.1-4.7,4.1-8.5,5.7-13c0.7-1.3,1.4-2.6,2.2-3.9
			C-446.9,180.8-445.8,179.5-444.8,178.3z"/>
		<path fill="#E9EEF8" d="M-428.9,160.9c-0.7,0.7-1.3,1.4-2,2.1c0.3-2.3-1.3-3.6-2.6-5.1c-11-12.8-21.9-25.7-32.8-38.6
			c-7.2-8.4-14.6-16.7-21.9-25.1c-10.1-11.6-20.1-23.3-30.2-35c-7.3-8.4-14.6-16.7-21.9-25.1C-552.8,19.7-565,5.1-577.8-9
			c-3.8-4.2-6.3-9.9-12.2-12c0.7-1,1.4-2,2-3c4.1-1.3,6.1-5.4,10-7c3.7,0,7.4,2.8,8.5,7.9c1.1,5.2,4.2,8.9,7.3,12.8
			c21.9,27.4,43.7,54.9,65.8,82.2c17.8,21.9,35.7,43.8,53.2,66.1c4.9,6.3,9.3,13.2,14.1,19.8C-428.5,158.7-427.9,159.8-428.9,160.9z
			"/>
		<path fill="#E0D8E6" d="M-505.9-75c4.2-2.1,8.3-4.3,13-5c3.2,1.4,7.1,8.3,6.5,12.7c-0.4,3,0.4,5.6,1.5,8.2
			c6.2,15.1,13.1,30,18.2,45.4c3.2,9.7,8.3,18.9,9,29.4c0.1,1.2,0.7,2.2,1.2,3.3c5.7,13.3,11.8,26.5,16.8,40.1
			c5,13.5,10.1,27.1,15,40.7c2.1,5.8,4.9,11.3,7.4,16.9c1.1,2.5,2.5,5.3-0.3,7.8c-0.7,0.4-1.5,0.6-2.3,0.7c-1.1,0-2.1-0.1-3-0.8
			c-2.4-10-8.8-18.2-12.2-27.8c-7.8-21.7-19.5-41.6-28.5-62.7c-3.9-9-8.3-18-10.8-27.3c-4.8-17.7-14.5-33.2-21.1-50
			c-2.7-6.9-7.4-13.1-7.5-20.9c0-2-1.4-3.7-2.2-5.5C-505.9-71.5-507.2-73.1-505.9-75z"/>
		<path fill="#E1DBEA" d="M-505.9-75c1.3,3.2,3.4,6.3,3.9,9.6c2.6,15.7,12,28.5,17.4,42.9c2.5,6.7,7.1,12.8,8.5,19.6
			c2.4,11.4,8.9,21.1,11.8,32.3c2.2,8.5,7.4,16.3,11.3,24.4c5.4,11.2,11.8,22.1,16.1,33.8c4,11,9.2,21.2,14.2,31.6
			c0.8,1.7,0.7,3.2-0.2,4.7c-1.3,1.3-2.8,1.2-4.4,0.6c-0.2-0.2-0.4-0.4-0.6-0.6c-1.1-2.2-2.4-4.4-2-7c-4.1-8-9-15.6-12.5-23.8
			c-5.2-12.2-12.7-23.3-16.7-36.1c-2.2-7.1-6.3-13.6-9.5-20.3c-4.9-10.2-9.1-20.8-14.8-30.5c-6.4-11-10.1-23.2-14.1-35
			c-4.9-14.5-11.4-27.9-18.4-41.2C-513-72.6-509.3-73.5-505.9-75z"/>
		<path fill="#DED5E3" d="M-417.9,124c2-3.1-0.1-5.8-1.2-8.4c-3-6.9-6.9-13.4-9-20.5c-3.4-11.2-8-21.8-11.8-32.8
			c-5.2-15-13.2-29.1-17.9-44.2c-2.7-8.6-6.3-17-8.2-26c-1.6-8-5.8-15.1-8.7-22.7c-4.1-10.7-9.2-21-12.5-31.9
			c-1.5-4.8-1.3-10.2-3.6-15c-0.5-1.1-1-2.1-2.1-2.6c0-0.3,0-0.7,0-1c1.6-0.2,3-0.7,4-2c2-0.3,4-0.7,6-1c2.8,2.1,3.1,5.4,4.1,8.4
			c2.7,7.9,7.5,15.4,5.9,24.4c-0.1,0.6,0.2,1.3,0.4,1.9c5.2,14.7,8.6,29.9,14.5,44.4c6.5,15.8,10.9,32.4,16.1,48.6
			c3.2,10.1,7.4,20,11.3,29.9c5.6,14.2,10.4,28.8,16.5,42.8c1.3,2.9,2.7,6.1-1.5,8.1C-416.5,124.7-417.2,124.6-417.9,124z"/>
		<path fill="#E2DCEA" d="M-515.9-70c6.3,5.3,8.1,13.2,11.9,19.9c6,10.5,8.8,22.4,12.9,33.6c9,24.8,23.1,47.1,32.4,71.5
			c4.5,11.8,11.3,22.4,15.4,34.4c2.6,7.8,7.5,14.8,11.5,22.1c1,1.8,2.1,3.4,2,5.5c-4.1-3.6-5.6-9-8.1-13.5
			c-9.7-17.6-19.4-35.2-28.1-53.3c-4.3-8.9-9.8-17.4-12.8-26.7c-5.8-17.9-16.5-33.1-24-50c-3.1-7-7.1-13.5-10.5-20.3
			c-2.2-4.4-4.9-8.6-4.9-13.9c0-2.2-1.3-4.8-3.7-6.2C-520.2-68.6-518.2-69.6-515.9-70z"/>
		<path fill="#DBD0DE" d="M-457.9-92c0.8,15.8,9,29.9,10.7,45.3c1.9,16.9,9.1,32.4,11.3,48.9c1.1,8.2,4.5,15.8,4.5,24.4
			c0,6.5,4,12.9,5.5,19.5c3.4,15.3,8.5,30.3,12.1,45.5c2.5,10.7,6.8,20.7,9,31.5c-2.3,2.2-4.9,2.7-7.8,1.4c1.6-5.3-1.2-9.7-2.5-14.5
			c-5.1-18.8-13.5-36.5-18.6-55.2c-3-11-6.6-21.8-8.9-33c-2.6-12.4-7.6-24.1-11.8-36c-3.3-9.2-3.7-18.8-6.4-28.1
			c-1.4-4.7-2.2-9.7-3.9-14.4c-3.7-10-5.9-20.5-10.1-30.2c2-1,4-2,6-3C-465-89.5-461.8-92.4-457.9-92z"/>
		<path fill="#DDD4E2" d="M-474.9-87c2.9,0.6,3.4,3.2,3.8,5.3c1.5,6.8,3.6,13.5,6.2,19.9c4,9.9,6.4,20.4,8,30.7
			c2.4,15.2,8.5,29,13,43.4c3.2,10.4,6.9,21,8.9,31.5c3.1,16.5,11.2,31.1,15.4,47c2.6,9.6,5.3,19.1,9.3,28.3c1.3,3-0.9,3.7-2.6,4.9
			c-0.3,0.3-0.7,0.6-1.2,0.7c-0.7,0.1-1.4-0.1-1.8-0.7c2-1.5,2.2-3.2,1.2-5.6c-9.4-23.9-19.3-47.7-27.6-72
			c-3.8-11.2-7.6-22.5-10.8-33.9c-3.8-13.3-10.1-26-14.3-39.2c-2.5-7.8-6.3-16.1-6.4-23.7c-0.1-12.5-6.8-22.3-9.1-33.7
			C-480.5-85.7-477.6-86.2-474.9-87z"/>
		<path fill="#E5E7F3" d="M-423.9,157.9c-0.7,0.3-1.3,0.7-2,1c-3.6-0.9-4.9-4.3-6.9-6.8c-4.2-5.3-8.8-10.3-10.8-17
			c-0.1-2.6-1.4-4.7-2.9-6.7c-12.8-17.2-25.6-34.4-38.1-51.8c-3.9-5.4-5.6-11.9-9.8-17.2c-9.8-12.8-19.3-25.8-28.3-39.2
			c-13.4-20-27.1-39.9-41.3-59.3c-0.4-0.5-0.7-1.1-0.8-1.8c0-0.3,0-0.7,0-1c3.7-0.5,5.4-4.4,9-5c2.4-1.3,3.3,0.6,3.4,2.1
			c0.5,7.2,5.4,12.1,9.2,17.4c15.1,21.1,28.8,43.2,43.5,64.6c12.3,17.9,25.2,35.6,36.7,54.1c6.8,11,14.3,21.6,21,32.7
			c1.6,7.8,7.9,12.8,11.7,19.3c2.7,4.5,6.8,8.1,8.1,13.4C-422.6,157.3-423.1,157.8-423.9,157.9z"/>
		<path fill="#E4E5F2" d="M-442.9,124c-11.9-15.3-20.9-32.6-31.9-48.5c-15.7-22.7-31.2-45.7-46.7-68.6
			c-9.4-13.8-18.8-27.7-28.1-41.6c-2-2.9-4.6-5.6-3.7-9.8c0.2-1.1-0.9-2.5-2.6-2.5c1.5-2.1,3.6-3.3,6-4c2.6-1.3,3.7,0.8,4.7,2.4
			c10.9,18.3,23.3,35.6,33.3,54.4c5.2,9.7,11.5,18.7,17.6,27.8c2.9,4.4,6,8.8,7.3,14.1c3,6.1,6.9,11.7,10.8,17.4
			c9.8,14.5,18.9,29.3,27.9,44.3c1.9,3.1,4.3,5.9,6.2,9.1C-440.5,121.3-440.6,121.8-442.9,124z"/>
		<path fill="#E3E0EE" d="M-532.9-61c2.7,0.3,4,2.2,5.1,4.3c6.3,11.8,13,23.4,18.5,35.7c2.2,4.8,4.9,9.4,7.8,13.9
			c2.3,3.6,1.9,8.1,3.9,11.7c2.8,5.1,5.5,10.3,8.6,15.1c4.9,7.7,6.4,16.9,11.5,24.6c7,10.5,13,21.6,19.1,32.7
			c7,12.8,14.6,25.3,21.6,38c1.5,2.8,2.9,5.9,3.9,9c-0.5,0.6-1.3,0.9-2.1,0.9c-0.8,0-1.5-0.2-2.2-0.7c-7.9-14.1-16.5-27.8-24.2-41.9
			c-12.1-21.8-24.5-43.5-36.9-65.1c-7.8-13.6-15.9-27-24.3-40.2c-4.1-6.4-5-14.1-9.2-20.4c-2.9-4.4-5.9-8.8-8.2-13.7
			C-537.8-58.8-535.8-60.6-532.9-61z"/>
		<path fill="#E4E3F0" d="M-539.9-57c6.4,6.9,11.1,14.9,13.9,23.7c2.1,6.6,6,12.2,9.6,17.9c16.3,25.7,31.5,52,46.1,78.6
			c10.4,19.1,22.5,37.1,32.3,56.5c0.7,1.4,1.3,2.7,1.1,4.3c-0.5,2.4,0.8,4.1,2,5.9c4.3,6.4,8.6,12.9,12.9,19.3
			c1.2,1.8,2.7,3.4,2.5,5.8c-0.8,1.3-1.4,2.7-3.4,1.7c-5.2-7.6-10-15.4-15.7-22.6c-2.5-3.2-4-6.2-4.3-10.1c2-2,0.6-3.5-0.5-5.2
			c-14.2-22.1-28.3-44.2-42.5-66.3c-0.9-1.4-1.8-2.8-2-4.5c0.6-4.6-2.7-7.7-4.8-11.1c-5.8-9.5-11.6-19-17.9-28.2
			c-2.4-3.6-1.5-7.6-3.6-11.2c-3.3-5.6-6.9-11-10.1-16.6c-2.6-4.4-5.5-8.6-5.2-14.2c0.1-2.5-1.7-4.6-3-6.8
			c-3.1-5.3-6.5-10.5-9.4-15.9C-541.5-56.8-540.7-57-539.9-57z"/>
		<path fill="#E4E2F1" d="M-541.9-56c1.4,0,1.9,1,2.5,2.1c2.8,4.7,5.8,9.3,8.4,14.1c1.7,3.1,3.6,6.1,2.8,10.3
			c-0.4,1.8,1.5,4.3,2.7,6.3c4.3,7.2,9.9,14,12.8,21.7c2.4,6.4,4.8,12.5,8.5,18.3c5.5,8.3,10.5,16.8,15.6,25.4
			c1,1.7,3.4,3.7,0.6,5.9c-3.5-9.4-10-17-15.1-25.5c-13.8-22.8-27.8-45.4-41.8-68c-1.3-2.1-1.9-5.2-5.2-5.5
			C-547.4-53-545.1-55.1-541.9-56z"/>
		<path fill="#E7EAF5" d="M-564.9-41c6,4.5,9.2,11.3,13.4,17.2c20.8,29.6,42.2,58.7,61.8,89.1c14.1,21.9,30.2,42.2,45,63.5
			c1.3,1.8,3.1,3.6,1.9,6.3c-2.5,0.1-3.2-2-4.4-3.5c-33.2-43.9-67.1-87.2-100.2-131.2c-7.5-10-15.2-19.8-22.7-29.7
			c-1.2-1.6-3.3-3-2.7-5.6c0.3-0.7,0.7-1.3,1-2C-569.1-37.5-567.3-39.8-564.9-41z"/>
		<path fill="#DEDCEA" d="M-434.9,124c0.7,0,1.3,0,2,0c1.7,0,3.3,0,5,0l0,0c5.5,4.9,7.6,12,11.3,18c1.7,2.7,3.8,5.5,3.4,9.2
			c-0.9,1.9-2.4,2.7-4.4,2.4c-3.7-2.6-4.7-7.1-7.3-10.5c-3.3-4.4-5.8-9.3-8.7-14C-434.5,127.5-435.7,126-434.9,124z"/>
		<path fill="#E8ECF6" d="M-572.9-35c18.1,23.9,36.2,47.8,54.4,71.6c23.3,30.5,46.8,60.9,70.1,91.4c1.8,2.4,3.7,4.7,5.5,7
			c3.8,9.2,11.1,16.1,17,23.9c-0.7,1.1-1.7,1.8-3,2c-1.3-3.9-4.7-6.3-6.8-9.6c-15.5-23.7-34.4-44.6-52-66.6
			c-19.6-24.6-39.2-49.1-58.8-73.7c-7.1-8.9-14.3-17.8-21.6-26.6c-1.3-1.5-1.6-3.1-1.9-4.9c-0.9-4.7-3-8.7-7.9-10.5
			C-576.8-33-574.6-33.7-572.9-35z"/>
		<path fill="#D5C8D6" d="M-390.9,122c-0.3,0.3-0.7,0.7-1,1c-0.8,0.6-1.6,0.6-2.3,0c-2.7-5.9-2.3-12.3-3.7-18.5
			c-2.4-10.9-6-21.7-6.8-32.6c-1.2-15.4-6.5-29.9-7.8-45c-0.7-7.7-2.2-15.7-1.2-23.7c0.8-6.6-2.1-13.1-3-19.7
			c-0.5-4-1.5-7.8-2.3-11.8c-1-5-2.6-10-0.8-15.2c0.6-1.7-0.1-3.6-0.5-5.4c-0.9-4.3-1.3-8.5,0.7-12.7c1.1-2.3,0.3-4.9-0.1-7.4
			c-1.3-8.1-3-16-4.2-24.1c-0.3-2.3-1.1-4.6,0-6.9c0.8,0,1.6-0.2,2-1c5-0.3,10-0.6,15-1c0.3,2.9-0.6,5.6-1.6,8.2
			c-3.2,8.1-1,16.3,0,24.4c0.8,6.1,1.8,12.1,2.6,18.1c0.3,2.1,0.3,4.4-1,6.3c-2.3,3.5-2.1,7.2-2.2,11.2c-0.5,18,2.7,35.6,6.1,53.2
			c0.9,4.5-1.6,8.6-1,13.5c2.1,16.7,5.8,33.2,7.6,49.9c1.3,11.7,3.5,23.2,4.5,34.9C-391.7,119.1-391.2,120.6-390.9,122z"/>
		<path fill="#D8CCDA" d="M-447.9-95c1.7-1.6,4.4-0.2,6-2c1,0,2,0,3,0c2,1.3,2.3,3.6,2.9,5.6c2.1,7.9,3.4,16,5.2,23.9
			c0.2,0.8,0.4,1.7,0.3,2.5c-2.1,14,3.6,26.9,5.4,40.3c1.4,11.2,3.6,22.2,4.6,33.5c0.8,9.9,4.1,19.5,6.1,29.3
			c2.2,10.7,5,21.3,5.7,32.3c0.1,1.5,0.5,2.9,0.9,4.4c3.5,14.4,6.4,28.9,9.8,43.3c0.4,1.5,0.6,2.9,0,4.4c-0.7,1.2-1.8,1.3-3,1
			c-0.2-0.2-0.5-0.3-0.7-0.5c-0.9-5.9-2.6-11.6-3.8-17.4c-3.6-17.6-10-34.4-13.4-51.8C-422,38-428,23.1-430.8,7.4
			c-1.2-7.1-2.5-14.5-2.7-21.8c-0.2-7.2-3.3-13.8-4.9-20.7c-1.5-6.6-4.9-13.1-5-19.7c-0.1-8.9-3.3-17.6-1.6-26.6
			C-444.2-86.1-446.5-90.6-447.9-95z"/>
		<path fill="#D6C9D8" d="M-423.9-100c2.4,12.1,4.8,24.3,6.3,36.6c0.1,0.6,0.2,1.5-0.2,1.9c-3.1,3.7-2.5,7.9-1,11.8
			c2,5.3-1.4,10.2-0.2,15.4c2.6,11.1,5.8,22.3,6.3,33.6c0.4,7.9,2.2,15.9,1,23.9c-0.7,4.7,1.5,9.1,2.4,13.6c1.5,7.8,4.7,15.5,5,23.2
			c0.4,11.1,3.2,21.5,5.4,32.2c1.7,8.4,2.9,16.9,4.5,25.3c0.4,1.8,0.5,3.6,0.6,5.4c-0.8,0.6-1.6,0.6-2.4-0.1
			c-3.3-9.6-5.1-19.6-6.9-29.5c-0.5-2.6-0.6-5.3-1.3-7.9c-4.2-17.8-8.1-35.8-10.3-53.9c-1.7-14.3-5.1-28.1-7.8-42.1
			c-0.2-1.1-0.6-2.3-0.5-3.4c1.4-14.1-4.1-27.2-5.9-40.8c-1.2-9.8-2.8-19.6-1.2-29.6c0.5-3.2-0.2-6.3-0.8-9.4
			c-0.3-1.7-1.3-3.5,0-5.3C-428.6-99.3-426.2-99.6-423.9-100z"/>
		<path fill="#D6CAD8" d="M-430.9-99c1.9,6.3,3.8,12.7,1.1,19.3c-0.2,0.6-0.3,1.4-0.1,2c2.8,10.8,0.6,22.3,4.4,33.1
			c2.4,6.8,4.7,14.3,4.2,21.3c-1.3,15.7,5.9,29.7,7.1,44.7c1.9,23,8,45.1,11.8,67.6c1.9,11.4,5.5,22.5,6.5,34
			c-0.3,0.3-0.7,0.6-1.2,0.7c-0.7,0.1-1.4-0.1-1.8-0.7c-0.4-8.9-4.2-17-5.7-25.6c-1.6-9-5-17.7-5.7-26.6c-0.8-10.2-3.4-20.1-5.2-30
			c-1.7-9.7-5.4-19.4-6-29c-0.6-9.7-4.2-18.8-3.6-28.6c0.3-4.4-1.8-9-2.7-13.6c-1.4-6.5-2.6-13-4-19.4c-0.8-3.8-1.3-7.4-0.2-11.3
			c1.5-5.5-1.4-10.8-2.1-16.1c-0.9-6.7-3-13.2-4.6-19.8C-436.2-97.7-433.6-98.3-430.9-99z"/>
		<path fill="#D4CBDA" d="M-413.9,124c0.3,0,0.7,0,1,0c2.8,0.5,5.3-0.9,8-1c1,0,2,0,3,0l0,0c-0.1,2.3-1.9,1.8-2.7,1.9
			c2.7,6.1,5.2,12.3,6.4,19.1c-0.7,2.1-2.6,2.5-4.4,2.9c-0.5,0-1.1,0-1.6-0.2c-5.5-4-6-10.7-8.6-16.2
			C-413.8,128.5-415.4,126.4-413.9,124z"/>
		<path fill="#D9E6E5" d="M-677.9,374c0-2.8-1.2-5-3-7c0-1,0-2,0-3c1.5-1.5,3.6-1.5,5.4-2.3c7.9-3.3,16.1-6,21.2-13.8
			c4.3-6.5,11.9-7.5,18.5-10.1c7.1-2.8,14.9-4.5,21.3-8.4c9.8-5.9,20.3-9.6,30.9-13.6c9.5-3.6,19-7.1,28.4-10.7
			c0.6-0.2,1.5-0.2,1.9-0.6c11-11.6,26.7-12.7,40.3-18.3c5.5-2.3,11.1-4,15.9-7.9c6-4.9,14-5.9,21.2-8.3c3.2-1,6.1-1.9,6-6.1
			c0-0.7,0-1.3,0-2c2.6,0.3,2.1,2.5,2.3,4.1c0.4,3.1-0.2,6.2,0.3,9.2c0.1,1.4-0.3,2.7-1.1,3.9c-8.5,5.3-18.1,8.3-27.2,12.4
			c-7.2,3.2-14.1,6.4-20.6,11c-8.5,6-18.5,9-27.9,13.2s-19,7.9-26.9,15c-5.1,4.6-12.1,6.2-18.3,9.1c-6.7,3.2-13.6,6.3-20.4,9.4
			c-3.4,1.5-6.1,3.9-8.5,6.8c-5.3,6.5-11.3,12.1-19.1,15.6c-9.2,4.2-18.3,8.8-27.1,13.9c-1.9,1.1-3.9,2.9-6.4,1.4
			C-673.3,382.7-674.9,378-677.9,374z"/>
		<path fill="#D6E3E2" d="M-467.9,276c-2-2.6-0.6-5.7-1-8.5c-0.3-1.9,0.7-3.9-1-5.5c0-2,0-4,0-6c2.4-1.8,5.6-1.7,8.1-3.4
			c0.5,0,1,0.2,1.4,0.6c1.7,4.4,2.9,8.8,3.4,13.5c-0.5,2.5-2.4,3.6-4.4,4.2C-464.3,271.8-466.3,273.7-467.9,276z"/>
		<path fill="#D9E6E6" d="M-461.8,252.8c-1.6,3.9-5.1,3-8.1,3.2c-0.3,0-0.7,0-1,0c-0.4-2.3,0.9-4.9-1-7c0.2-1.5-0.3-2.8-1-4
			c2.2-4.5,4.6-5.5,10.4-3.9C-461.3,244.9-459.3,248.7-461.8,252.8z"/>
		<path fill="#CEDBD6" d="M-589.9,491c-1.8-0.7-2.7-3.1-5-3c-1.7-2-3.3-4-5-6c15.2-19.6,32.6-37.2,49.7-55
			c14.1-14.7,28.6-29.1,42.3-44.3c8.4-9.4,17.8-17.9,25.9-27.6c1.3-1.5,2.5-4.3,5.6-2.7c1.6,4.1-1.5,7.2-2.2,10.9
			c-6.8,20.4-16.5,39.2-28.5,57c-19.2,27.5-43.2,50-72.1,67C-582.4,489.1-585.4,492.3-589.9,491z"/>
		<path fill="#D0DDDA" d="M-476.9,352c-8.6,8.8-17.3,17.4-25.7,26.3c-7.9,8.3-15.4,16.9-23.3,25.2c-12.5,13-25.4,25.6-37.7,38.9
			c-11.2,12.1-23,23.8-32.7,37.3c-0.9,1.2-1.9,2.3-3.6,2.3c-6.1-5.3-11.7-10.9-17-17c3.3-4.6,7.6-8.3,12.1-11.6
			c6.2-4.6,11.9-9.8,17.3-15.1c15.7-15.6,32-30.6,48.2-45.7c12.2-11.4,23.4-23.7,34.9-35.6c9.3-9.7,18.1-20,28.8-28.3
			c1.6-1.2,3.1-3.5,5.4-0.9C-471.1,336.2-471.4,344.8-476.9,352z"/>
		<path fill="#D2DFDC" d="M-470.9,327c-6.3,3.4-11.2,8.7-16.4,13.4c-6.7,6.1-12.3,13.4-18.5,19.9c-8.7,9.2-17.2,18.6-26.3,27.2
			c-18.9,17.9-38,35.6-56.8,53.7c-8.8,8.5-18.6,15.9-28,23.7c-1.3-1-2.7-2-4-3c-0.8-3.4-3.6-5-6-7c0.1-1.7-1.5-2.6-2-4
			c13-9.2,24.7-20.1,37-30.3c27.3-22.5,54.2-45.7,81.6-68c6.2-5,12.3-10.1,18.7-15c4.6-3.5,6.7-9.4,10.7-13.7
			c2.5-2.7,4.9-5.4,8.1-7.4c1-0.7,2.2-1.8,3.5-0.3c1.3,3.5,0.2,6.8-1,10C-470.5,326.6-470.7,326.8-470.9,327z"/>
		<path fill="#D4E1DF" d="M-640.9,436c4.8-1.8,7.7-5.8,10.2-9.8c6.4-10.3,16.9-15.7,26.2-22.4c10.9-7.8,22.1-15.2,33-23.1
			c3.9-2.8,6.8-6.8,10.7-9.6c10.8-7.9,22.2-15,32.8-23.2c7.7-5.9,14.3-13.3,22.1-19.1c10.9-8.1,22.5-15.3,33.7-22.9
			c1-0.7,2.1-0.8,3.3-0.8c0.9,0.7,1,1.7,0.9,2.8c-0.1,0.5-0.3,1-0.5,1.4c-10.8,8.1-21.9,15.7-33,23.3c-7,4.8-13.9,9.6-19.2,16.4
			c-7.8,10.1-18.2,17.4-28.4,24.9c-12.1,9.1-24.6,17.7-36.3,27.2c-1.7,1.4-3.4,2.7-4.7,4.4c-10,13.5-23.1,23.7-36.5,33.7
			c-2.6,1.9-4.4,5.1-8.3,4.8c-0.3,0-0.7,0-1,0C-636.6,440.7-639.6,438.9-640.9,436z"/>
		<path fill="#D2E0DE" d="M-634.9,444c11.3-8.1,22.1-16.8,32.5-26.1c2.6-2.3,4.8-5.1,6.9-7.8c10.4-13.6,25.3-21.6,38.5-31.9
			c9.9-7.7,20.3-14.8,29.5-23.4c1.9-1.8,3.7-3.8,5.2-5.9c6.6-9.6,16.8-14.8,25.8-21.5c8-5.9,16.3-11.3,24.5-17
			c1-0.7,1.8-1.5,3.1-1.4c1.5,2.6,2.6,5.1-1,7c-7.6,5.1-13.2,11.9-17.9,19.7c-0.6,1-1.3,2-2.2,2.7c-21.8,15.7-41.6,33.8-62.4,50.8
			c-19.9,16.2-39.3,33.1-58.9,49.7c-4,3.4-8.1,6.8-12.2,10.2c-1.6,1.3-3.4,2.2-5.5,2c-1-0.7-2-1.3-3-2
			C-631.8,446.7-634.2,445.8-634.9,444z"/>
		<path fill="#D7E4E3" d="M-670.9,387c9.5-4.7,18.9-9.8,28.5-14.1c9.9-4.5,18.3-10.5,24.7-19.5c3-4.3,8.2-5.6,12.6-7.7
			c9.3-4.4,18.8-8.4,28.1-12.7c1.6-0.7,3.3-1.6,4.7-2.8c12.2-11.2,28.2-15,42.6-22c5.7-2.8,11.5-5.1,16.4-9.2
			c5.5-4.5,12.4-6.3,18.7-9.1c8.5-3.7,17.1-7.2,25.6-10.9c2.2,1,2.2,2.8,1.6,4.8c-4.4,3.5-9.3,6.4-14.3,9c-9.8,5-19.6,9.9-29.5,14.8
			c-5.7,2.8-11.1,6.1-15.7,10.6c-1.7,1.7-3.6,3-5.7,4c-12.9,6.3-25.1,13.8-38.3,19.5c-5.6,2.4-10,5.1-12.8,10.6
			c-3.3,6.5-9.5,10.1-15.8,13.3c-8.2,4.2-16,8.9-24.1,13.2c-4.3,2.3-8.1,5.2-11.6,8.6c-6.8,6.5-15.3,10.6-23.6,14.8
			c-1.4,0.7-2.9,0.9-4.2-0.2c-0.7-0.7-1.3-1.3-2-2C-666.1,395.3-669,391.4-670.9,387z"/>
		<path fill="#C8CEC7" d="M-525.9,536c-2.3-1.7-4.7-3.3-7-5c-0.9-2.4,0.8-4.1,1.8-5.9c21.7-39,43.9-77.7,65.7-116.7
			c15.8-28.2,31.7-56.3,47.3-84.6c1-1.9,2-3.9,4-5c3.4,0.3,6,1.9,8.2,4.4c1.1,2.3-0.3,4.2-1.1,6.1c-10.7,25-21.4,50-32.1,75
			c-8.6,20.1-17.5,40.2-26,60.3c-11.1,26.3-22.1,52.6-33.1,78.9c-0.6,1.4-1.1,2.8-2.7,3.4C-509.7,544.3-517.3,539.1-525.9,536z"/>
		<path fill="#84857E" d="M-405.9,323.2c-3-0.7-5.5-2.5-8-4.1c-0.8-0.3-1.3-0.8-1.5-1.6c0-1.2,0.6-1.9,1.8-2.1
			c4.3,0.7,7.7,3.5,11.7,5c3.1,1.1,6.1,2.3,9.4,3.1c1.5,0.3,3.5,0.1,3.7,2.4c-1.3,0.1-2.1,0.7-2.1,2.1c-1.3-0.3-2.6-0.6-4-0.9
			C-398.6,325.8-402.2,324.5-405.9,323.2z"/>
		<path fill="#C7C9BF" d="M-388.9,329.1c2.7,0.3,5.3,0.7,8,1c-1.7,10.6-3.4,21.2-5,31.8c-1.9,12.9-3.6,25.8-5.4,38.8
			c-1.9,13.2-3.7,26.5-5.6,39.7c-1.8,12.4-3.6,24.8-5.4,37.3c-2.2,15-4.4,30.1-6.6,45.1c-2.2,14.7-4.3,29.4-6.5,44.1
			c-0.2,1.6-0.3,3.3-0.5,4.9c-10-2-20-4-30-6c3.4-14.3,6.7-28.6,10.2-42.9c9.1-37.8,18.3-75.5,27.4-113.3
			C-401.8,382.8-395.4,356-388.9,329.1z"/>
		<path fill="#D6E3E1" d="M-615.9,398c5.4-9.9,14.9-15.2,23.9-20.9c10.5-6.7,21-13.3,31.4-20c4.1-2.7,6.8-6.5,8.6-11.1
			c2.7-4.2,7.8-5.9,10.6-10c14.7-9.8,30.4-18,45.5-27.2c2-1.2,4-3.1,6.8-2c0.3,3.7-2.3,5.6-4.9,7.3c-15.4,10.1-30.9,19.9-46.9,29.1
			c-4.1,2.4-7.6,5.2-10.3,9.1c-1.7,2.5-3.7,4.7-5.9,6.8c-5.3,6.2-12,10.8-18.7,15.4c-10.4,7-21,13.8-31.5,20.8
			C-609.8,396.9-612.6,398.1-615.9,398z"/>
		<path fill="#D5E3E1" d="M-556.9,359c4.3-8.8,11.1-14.7,19.7-19.5c13.3-7.5,26.1-15.8,39.1-23.7c3.8-2.3,6.9-5.1,9.2-8.8
			c0-0.3-0.1-0.7,0.1-1c1.9-3.9,16.6-12.4,21.1-12.1c0.4,0.7,0.4,1.5-0.2,2.1c-10.7,10.8-24.2,17.6-36.7,25.8
			c-0.6,0.4-1.2,0.6-1.7,1.1c-10.7,11.7-24.9,18.5-37.8,27.1C-548.4,352.9-552,356.9-556.9,359z"/>
		<path fill="#CFDCDA" d="M-467.9,296c0-0.7,0-1.3,0-2c-1.6-1.9-1.4-4.1-1.2-6.3c0.1-0.5,0.2-1,0.5-1.5c4.6-3.7,9.9-5.9,15.5-7.8
			c1.4,0.1,2.2,1.1,3,2.1c1.5,2.8,3.9,5.2,4.2,8.6c0,1-0.3,2-1.1,2.7c-5.7,4.6-11.8,8.4-17.9,12.3c-1,0.6-2.2,0.7-3.2-0.2
			c-0.2-1-0.5-2,0.3-3C-467.9,299.3-467.9,297.7-467.9,296z"/>
		<path fill="#D2E0DE" d="M-467.9,301c0,1,0,2,0,3c0.9,1.6,1.7,3.2-1,4c0-1,0-2,0-3C-468.8,303.6-469.4,302.1-467.9,301z"/>
		<path fill="#D7E4E3" d="M-467.9,286c0,0.3,0,0.7,0,1c-13.3,11.4-27.9,20.7-43.5,28.6c-6.8,3.4-13.3,7.6-20.2,10.8
			c-4.8,2.2-6.9,7.1-10.8,10.2c-11.7,7.6-24,14.2-36.1,21c-6.5,3.6-12.4,8.1-18.4,12.5c-12.1,8.8-25.4,15.7-38.1,23.5
			c-6,3.7-11.4,7.9-16.1,13.1c-1.8,2-3.9,3.6-5.8,5.4c-1.9-1.2-1.7-4.1-4-5c-0.7-1.7-1.3-3.3-2-5c9.6-2.4,18-7.6,24.9-13.9
			c7.2-6.5,15.3-11,23.5-15.7c6.7-3.9,13.7-7.5,20.5-11.3c6.1-3.5,10-9,12.6-15.3c0.5-1.2,1.2-2.1,2.3-2.4
			c11.6-2.9,21.4-9.8,31.9-15.1c8.3-4.2,16.8-7.8,23.7-14.5c5.4-5.2,12.8-7.6,19.4-11c10.6-5.5,21.7-10,31.7-16.8
			c1.3-0.9,3-1.3,4.6-1.9C-467.3,284.7-467.3,285.3-467.9,286z"/>
		<path fill="#D5E3E1" d="M-596.9,370c5-7.7,13.3-10.8,20.7-15.1c11-6.5,22.2-12.6,33.3-18.9c1.2-0.7,2-0.7,2,1
			c-2.7,4.2-6.9,6.5-11,9c-13.5,8-27,16.1-40.6,24C-593.7,370.7-595.5,373.7-596.9,370z"/>
		<path fill="#D6E3E1" d="M-649.2,407.1c14.1-10.5,29.8-18.5,45.4-26.7c-13.9,10.8-29.2,19.3-44,28.7
			C-648.3,408.4-648.7,407.7-649.2,407.1z"/>
		<path fill="#84857E" d="M-372,330.8c-1,0.1-2,0.2-3,0.2c-1.1-0.2-2.3,0-3.1-1C-376,330.2-373.8,329.3-372,330.8z"/>
		<path fill="#C7D0CA" d="M-414.9,317.9c0.3,0.4,0.6,0.8,1,1.2c-16.7,29.7-33.3,59.3-50,89c-15.6,27.8-31.2,55.6-46.8,83.4
			c-7.4,13.2-14.8,26.3-22.2,39.5c-5-1.7-9.3-4.8-13.7-7.5c-1.7-1-3.2-2.4-5.2-2.5c-1-1-2-2-3-3c35.7-52.9,70.6-106.3,105.6-159.6
			c8.4-12.8,17-25.5,25.3-38.3c1.1-1.7,1.6-3.6,2.9-5.2C-418,313.8-416.5,315.9-414.9,317.9z"/>
		<path fill="#C6D1CC" d="M-420.9,315.1c0,1.7-0.2,3.1-1.2,4.7c-7.2,10.3-14.6,20.6-21.3,31.3c-26.1,41.5-53.7,81.9-80.7,122.8
			c-8.9,13.4-17.7,27-26.6,40.4c-1,1.5-1.6,3.9-4.2,3.8c-1-0.3-2-0.7-3-1c-4.1-4.1-8.7-7.6-14-10c-0.7-1.3-1.7-2.3-3-3
			c-2-1.4-3.3-3.7-6-4c-1.6-2.1-3-4.5-6-5c-1-1.3-2-2.7-3-4c10.1-3.4,18.5-9.6,26.9-15.7c11.2-8.2,22.1-16.9,31.5-27.2
			c7.6-8.3,14.9-16.8,21.5-26c0.6-0.8,1.3-1.4,2-2.1c25.2-35.1,52.3-68.8,78.1-103.5c1.4-1.8,2.5-3.9,4.9-4.9
			C-422.6,311.6-421,312.6-420.9,315.1z"/>
		<path fill="#F9F9F8" d="M-388.8,326c-8.6-2.5-17.2-5.3-24.8-10.1c-8-3-14.7-7.7-20.3-14.2c-6.5-6.7-12.8-13.7-16.5-22.6
			c-4.5-8.8-8.5-17.8-9.8-27.7c0-4.5-1.6-8.8-1.1-13.3c0-2,0-4,0-6c0-2.3,0-4.6,0.4-6.8c1.4-6.1,1.3-12.6,3.5-18.5
			c0.8-2.1,1-4.6,3.5-5.7c7-16.2,17.3-29.8,31.1-40.7c0.5-3.1,3.4-3.7,5.6-5c1.7-1,3.3-2.1,4.9-3.2c3.3-2.2,6.9-3.7,10.5-5.1
			c4.3-1.9,8.8-3,13.3-4.1c25.5-5.6,49.5-1.8,71.7,12.2c1.8,1.1,3.9,2.1,4.6,4.3c17.1,13.2,28.9,30,35.2,50.6
			c1.4,8.1,3.2,16.2,3.1,24.5c-0.1,9.4-1.4,18.5-3.9,27.5c-11,32.3-32.6,53.6-65.5,63C-358.1,329.3-373.5,329.1-388.8,326z"/>
		<path fill="#E2EFF0" d="M-674.9,238c0.1-0.1,0.1-0.3,0.2-0.4c4.1-8.7,11.2-10.8,20.2-9.7c4.7,0.6,9.7-0.4,14.4,0.2
			c7.3,1,11.9-2,15.2-8.1c0.3,0,0.7,0,1,0c1.2-1.1,2.6-1.4,4.2-1.2c18.2,1.6,36.5,2.2,54.7,3.4c12.9,0.8,25.9,1.4,38.8,2.3
			c3.4,0.2,6.6-0.2,9.5-2.2c2.6-1.8,5.6-1.9,8.6-1.6c13.4,1.5,26.8,2.4,40.2,2.8c2,2.7,1.8,3.4-2.1,5.5c-13.9-0.7-27.9-2.5-41.7-1.6
			c-11.5,0.8-23.1,1.7-34.6,1.6c-4.8,0-9.6-0.6-14.4-1c-3-0.2-5.5,0.6-7.2,3.3c-1.9,2.8-4.6,3.8-8.1,3.8
			c-11.8-0.2-23.7,0.2-35.5-0.1c-16.6-0.5-33,2.2-49.5,3C-665.6,238.1-670.2,238-674.9,238z"/>
		<path fill="#DDE9EA" d="M-469.9,229c0.7-1.8,3.1-2.7,3-5c1-2.3,2.9-3.5,5.2-4.1c0.5,0.5,0.7,1.2,0.8,2c0.1,0.7,0,1.4-0.2,2.1
			c-0.6,1.8-0.6,3.6-0.8,5.4c-0.1,0.5-0.2,0.9-0.3,1.4c-0.7,3-0.3,6-0.2,9c0,0.5-0.2,0.9-0.6,1.2c-3.2,1.5-7.7-0.1-9.9,4
			c0-0.3,0-0.7,0-1c-0.5-3.3-1.4-6.6-1-10C-471.8,232.9-471.3,230.6-469.9,229z"/>
		<path fill="#919999" d="M-461.8,222c-0.1-0.7-0.1-1.3-0.2-2c-0.5-0.7-0.4-1.4,0.2-2c1-2.6,1.8-5.2,1.8-8c0.4-2,0.8-4,1.3-6
			c2.1-1,1.5-3.6,3-5c1.3,0,1.8,0.8,1.9,2c-3.4,7.7-4.1,16-6,24.1C-461.1,224.5-460.8,222.8-461.8,222z"/>
		<path fill="#E2F0F0" d="M-461.9,218c-0.1,0.7-0.1,1.4-0.2,2c-1.6,1.3-3.2,2.6-4.9,4c-4.3,2.7-9.1,0.6-13.6,0.6
			c-8.8,0.2-17.7-1.6-26.6-2.5c-3.6-0.4-6.9-0.4-10.3,2.2c-4,3.2-9.4,1.9-14,1.3c-8.4-1.1-16.8-1.1-25.2-1.6
			c-8.8-0.5-17.5-1.1-26.3-1.4c-13.7-0.4-27.4-1.8-41-2.8c1.5-2.9,2.9-5.8,4.5-8.7c0.9-1.6,2.6-1.4,4-1.3
			c11.5,1.2,22.9,2.4,34.3,3.9c3.1,0.4,5.3-1.6,8.1-1.9c0.1,3.3,1.7,4.5,5,4.6c10.8,0.6,21.5,1.6,32.2,2.8c3.9,0.4,7.6,0.2,10.8-2.4
			c3.8-4.2,8.6-2.5,13-1.9c13.2,1.8,26.4,3.9,39.6,5.8C-468.5,221.4-464.7,221.3-461.9,218z"/>
		<path fill="#E2EFF0" d="M-524.9,217c-2.2,6-7.4,4.1-11.5,3.8c-11-1-22-2.3-33.1-2.8c-5.6-0.3-6.3-1.5-3.5-6
			c2.5-2.1,5.1-0.1,7.5,0.2C-551.9,213.5-538.4,215.3-524.9,217z"/>
		<path fill="#80777F" d="M-312.1,159.4c-10.5-6.7-21.4-12.6-33.8-15.2c-13.3-2.8-26.6-3.3-39.9-0.3c-1,0.2-2,0.1-3,0.1
			c-1.8,0.4-4.3,1.5-2.6-2.2c1.3-1,2.8-1.6,4.5-1c2.1,0.5,4-0.6,6-1c2.5-1.8,5.4-2.3,8.4-2.4c11.2-0.3,22.2,0.6,32.9,4
			c4.7,1.5,9.3,3.3,13.8,5.2c4,1.9,7.7,4.2,10.8,7.3c0.7,1.9,2.8,2,3.9,3.2C-311.3,158-311.7,158.7-312.1,159.4z"/>
		<path fill="#C5BEC4" d="M-314.9,154.1c-4.2-1-7-4.7-11-6.1c-0.5-1.1-0.5-2.4,0.1-3.4c5.3-10.4,9.1-21.4,14.9-31.5
			c1.7-1.5,4.4-0.2,6-2c4.3-0.7,8.7-1.3,13-2c3.7,1,1,3,0.4,4c-4.9,8.4-10.1,16.6-15,25C-309.5,143.3-314,147.8-314.9,154.1z"/>
		<path fill="#C5BBC4" d="M-310.9,113c-1.6,7.7-6,14.2-8.8,21.4c-1.8,4.6-4.1,9-6.2,13.5c-4.4-1.7-8.7-3.4-13.1-5
			c-1.6-0.8-2.2-2.1-1.7-3.7c2.1-7.4,3.2-15.2,6.7-22.2c1-0.3,2-0.7,3-1C-324.2,115-317.6,114-310.9,113z"/>
		<path fill="#C4B5C4" d="M-333.9,117c-0.6,7.2-3.4,13.8-5.1,20.7c-0.4,1.8-1.2,3.5,0.1,5.2c-13.8-3.7-27.7-5.2-41.9-3
			c0.2-3.3,0.1-6.4-0.7-9.7c-0.7-2.7-0.8-5.6,0.7-8.2c11.1-1,22.2-1.8,33.3-3.6C-343.1,117.7-338.5,117.5-333.9,117z"/>
		<path fill="#CABECC" d="M-386.9,140.8c-1.3,0.4-2.7,0.9-4,1.3c-0.8,0.4-1.5,0.5-2.3,0c-3-4.5-3.6-9.8-5-14.8
			c-0.4-1.5-0.6-3.3,1.3-4.3c0.3,0,0.7,0,1,0c0.7,0,1.3,0,2,0s1.3,0,2,0s1.3,0,2,0C-388.7,128.9-386.1,134.6-386.9,140.8z"/>
		<path fill="#918F97" d="M-411.8,153.1c-3.6,2.4-7.3,4.8-10.9,7.2c-0.4-0.8-0.8-1.6-1.2-2.4c0.3-0.4,0.7-0.8,1-1.2
			c1-0.7,2-1.3,2.9-2c0.5-0.8,1.1-1.6,2.2-1.5c1.5-0.4,2.9-1,3.9-2.3c0.4-0.3,0.8-0.3,1.3-0.2C-411.9,151.4-411.3,152.1-411.8,153.1
			z"/>
		<path fill="#DBD6E4" d="M-413,150.9c-0.3,0-0.6,0.1-1,0.1c-3.4-9.6-9.5-17.8-14-26.9c1.7,0,3.3,0,5,0c1,0,2,0,3,0
			c1.4,1.2,2.5,2.7,3,4.5c1.8,5.7,4.4,11,7.6,16.1c0.6,1,1,2.1,1,3.3C-408.9,150.2-410.7,150.9-413,150.9z"/>
		<path fill="#D8D1DF" d="M-408.9,148.1c-4.5-7.6-8.3-15.6-11-24.1c0.7,0,1.3,0,2,0s1.3,0,2,0s1.3,0,2,0c3.1,7.5,4.8,15.6,10.1,22
			C-404.7,148.8-406.6,148.9-408.9,148.1z"/>
		<path fill="#E2DEED" d="M-417.8,153.2c-0.7,0.5-1.5,1-2.2,1.5c-5.8-8.8-11.6-17.6-17.3-26.4c-0.9-1.4-3.4-3.2,0.4-4.3
			c0.7,0,1.3,0,2,0C-429.2,133.7-423.5,143.5-417.8,153.2z"/>
		<path fill="#CFC4D3" d="M-396.9,123c-1.2,5.4,2.1,9.8,3,14.8c0.3,1.4,1.1,2.7,1,4.3c-1.3,3-3.4,3.4-6,1.9
			c-1.8-5.1-3.2-10.4-5.4-15.4c-1.3-3.2-0.6-4.7,2.4-5.6c1,0,2,0,3,0C-398.2,123-397.6,123-396.9,123z"/>
		<path fill="#877F88" d="M-398.9,144c2.2,0.1,4.2-0.7,6-1.9c0.7,0,1.3,0,2,0c-1.1,2.7,1.2,1.5,2.1,1.9c-4.3,1.3-8.7,2.7-13,4
			c-1.9,0.2-1.7-0.8-1.1-2C-401.6,145.4-400.2,144.7-398.9,144z"/>
		<path fill="#8C868E" d="M-402.9,146.1c0,0.8,0.3,1.6,1.1,2c-3.4,1.7-6.7,3.4-10.1,5.1c-0.4-0.8-0.8-1.5-1.1-2.3
			c1.4-0.9,2.7-1.9,4.1-2.8c1.8-0.5,3.6-0.8,5-2C-403.5,146-403.2,146-402.9,146.1z"/>
		<path fill="#D2DFDE" d="M-467.9,286c0-0.7,0-1.3,0-2c0.1-1.8,0-3.5-1-5c0.3-1,0.7-2,1-3c-0.6-3.1,1.3-4.4,3.8-5.4
			c2.2-0.9,4.9-1,6.2-3.6c4.2,2.9,5.1,7.3,5.1,12C-457.8,281.3-462.9,283.7-467.9,286z"/>
		<path fill="#878F8E" d="M-452.8,279c-1.7-4-3.4-8-5.1-12c-0.9-4.7-3-9.1-3-14c-0.1-1.9,0.9-1.6,2-1c1.6,9.6,5.7,18.3,9.7,27.1
			c-0.3,0.9-0.7,1.8-1.8,2C-451.6,280.4-452.2,279.7-452.8,279z"/>
		<path fill="#8E9696" d="M-458.9,252c-0.9,0-1.6,0.2-2,1c-0.3-0.1-0.6-0.2-0.9-0.3c-0.4-3.9-0.8-7.9-1.2-11.8c0-0.3,0-0.7,0-1
			c-0.5-3.3-0.5-6.6,0-10h0.3c1-2-0.2-4.2,0.8-6.1c0-0.6,0.1-1.2,0.1-1.9c2.1,0.1,1.9,1.7,2,3.1c-0.1,2.3-0.1,4.6-0.2,6.9
			c-0.6,2-0.6,3.9,0,5.9C-459.7,242.6-459.3,247.3-458.9,252z"/>
		<path fill="#C6D2CD" d="M-424.9,312c-20.2,26.6-40.3,53.2-60.5,79.8c-6.7,8.8-13.5,17.6-20.3,26.3c-0.6,0.8-1.5,1.3-2.3,1.9
			c4.2-7,8.5-14,12.5-21.2c6.3-11.5,11.5-23.4,15.6-35.8c7.3-9.7,15.8-18.4,23.7-27.5c8.4-9.6,16.9-19.1,25.3-28.7
			C-428,307.4-425.4,308.5-424.9,312z"/>
		<path fill="#C8D5D1" d="M-430.9,307c-1.9,5.6-6.6,9-10.3,13.2c-12.3,14.2-24.9,28-37.5,41.9c-0.3,0.4-0.8,0.5-1.2,0.8
			c0.8-3.7,3.4-6.9,3-11c3-8.1,4.7-16.5,6-25l0,0c10.9-9,21.3-18.6,31.7-28.1c2.3-0.6,3.4,1.4,4.8,2.5
			C-433.4,303.4-430.3,304-430.9,307z"/>
		<path fill="#CBD8D5" d="M-438.9,299c-3.3,5.3-8.4,8.7-12.7,13c-4.5,4.6-9.7,8.5-14.5,12.8c-1.4,1.3-2.7,2.5-4.8,2.2
			c0.3-3.7,0.7-7.3,1-11c1.9-2.1,0.6-4.7,1-7c0-0.3,0-0.7,0-1c1.5-1.1,0.9-2.6,1-4c7.5-4.3,15.4-8,21-15
			C-442.4,290.9-440.1,294.5-438.9,299z"/>
		<path fill="#D2DFDC" d="M-599.5,417c2.1-1.6,4.3-3.2,7.1-5.4C-593.7,415.5-596.6,416.2-599.5,417z"/>
		<path fill="#838883" d="M-430.9,307c-1.4-1.6-2.8-3.3-4.3-4.9c0.4-0.9,1-1.4,2-1c5.4,6.3,13,9.9,19.5,14.8
			c-0.9,0.4-1.2,1.1-1.3,2.1c-2.3-0.4-3.6-2.8-6-2.8c-1.3-1.1-2.2-2.7-4-3.1C-426.9,310.3-428.9,308.7-430.9,307z"/>
		<path fill="#D6E3E1" d="M-540.9,337c-0.4-0.8-1.2-1-2-1c4.2-7,10.8-10.8,17.8-14.5c12.8-6.7,25.3-13.9,38-20.9
			c5.4-3,8.6-8.8,14.4-11.4c1.6-0.8,3-2.1,4.9-2.2c0,2.3,0,4.7,0,7c-7.3,3.8-15.2,6.7-21,13c-8.5,3-15.6,8.7-23.4,13
			C-522,325.4-531.4,331.3-540.9,337z"/>
		<path fill="#838B89" d="M-433.1,301.1c-0.7,0.3-1.3,0.7-2,1c-1.3-1-2.5-2.1-3.7-3.1c-2.7-3.4-5.3-6.7-8-10.1
			c-1.4-2.6-2.7-5.2-4.1-7.9c0.6-0.7,1.2-1.4,1.8-2C-445.4,287.6-439,294.1-433.1,301.1z"/>
		<path fill="#F5F6F4" d="M-452.9,235c-2.2-44.5,39.3-89.3,91.4-86.3c39.8,2.3,83.9,38.6,80.9,92c-2.2,39.6-38.9,83.4-91.9,80.4
			C-413.6,318.8-454.5,281.7-452.9,235z"/>
		<path fill="#919999" d="M-460,238c-1.3-2-1.3-3.9,0-5.9C-460,234-460,236-460,238z"/>
		<path fill="#D9E6E6" d="M-463,230c0,3.3,0,6.6,0,10C-464.4,236.6-464.4,233.3-463,230z"/>
		<path fill="#919999" d="M-461.9,223.9c-0.2,2.1,0.7,4.3-0.8,6.1C-462.8,227.9-463.4,225.8-461.9,223.9z"/>
		<path fill="#F2F2F0" d="M-288.9,235.3c2.2,39.7-33.4,81.4-84.4,77.9c-34.7-2.4-75.2-33.2-71.8-84.6c2.3-35.1,33.2-74.8,84-71.9
			C-323.6,159-287,191.9-288.9,235.3z"/>
		<path fill="#F5F5F4" d="M-310.9,235.2c1.3,28.9-25.9,57.4-58.4,56c-26.8-1.1-55.2-25.7-53.8-58.9c1.2-27,25.7-55.1,59.1-53.5
			C-336.6,180.2-309.9,204.6-310.9,235.2z"/>
		<path fill="#F9F9F8" d="M-367.1,283c-24.7,1.8-49.3-22-48.1-50.3c0.9-22.2,21.3-47.5,51.1-46.1c21.8,1.1,46.9,21.3,45.6,51
			C-319.7,260.8-341.3,284.8-367.1,283z"/>
		<path fill="#A3A3A3" d="M-366.7,277c-22,1.5-43.6-19.4-42.5-44.1c0.9-20,19.4-41.1,44.1-40.2c20,0.8,41.6,19.2,40.4,44.3
			C-325.6,257.5-344.2,278.1-366.7,277z"/>
		<path fill="#FEFEFE" d="M-327.9,235.3c1.2,19.7-17.4,39.6-40.3,39c-19.2-0.6-38.9-17.9-38-41c0.7-18.3,17.5-38.4,41-37.4
			C-345.9,196.6-326.6,214.1-327.9,235.3z"/>
	</g>
</g>
</svg>
